<?xml version="1.0" encoding="utf-8" standalone="no"?>
<!DOCTYPE svg PUBLIC "-//W3C//DTD SVG 1.1//EN"
  "http://www.w3.org/Graphics/SVG/1.1/DTD/svg11.dtd">
<svg xmlns:xlink="http://www.w3.org/1999/xlink" width="448.100781pt" height="311.80125pt" viewBox="0 0 448.100781 311.80125" xmlns="http://www.w3.org/2000/svg" version="1.1">
 <metadata>
  <rdf:RDF xmlns:dc="http://purl.org/dc/elements/1.1/" xmlns:cc="http://creativecommons.org/ns#" xmlns:rdf="http://www.w3.org/1999/02/22-rdf-syntax-ns#">
   <cc:Work>
    <dc:type rdf:resource="http://purl.org/dc/dcmitype/StillImage"/>
    <dc:format>image/svg+xml</dc:format>
    <dc:creator>
     <cc:Agent>
      <dc:title>param_importance_nlp.analysis.reporting</dc:title>
     </cc:Agent>
    </dc:creator>
   </cc:Work>
  </rdf:RDF>
 </metadata>
 <defs>
  <style type="text/css">*{stroke-linejoin: round; stroke-linecap: butt}</style>
 </defs>
 <g id="figure_1">
  <g id="patch_1">
   <path d="M 0 311.80125 
L 448.100781 311.80125 
L 448.100781 0 
L 0 0 
z
" style="fill: #ffffff"/>
  </g>
  <g id="axes_1">
   <g id="patch_2">
    <path d="M 50.300781 271.798125 
L 440.900781 271.798125 
L 440.900781 22.318125 
L 50.300781 22.318125 
z
" style="fill: #ffffff"/>
   </g>
   <g id="matplotlib.axis_1">
    <g id="xtick_1">
     <g id="line2d_1">
      <defs>
       <path id="ma1647659f6" d="M 0 0 
L 0 3.5 
" style="stroke: #000000; stroke-width: 0.8"/>
      </defs>
      <g>
       <use xlink:href="#ma1647659f6" x="53.571587" y="271.798125" style="stroke: #000000; stroke-width: 0.8"/>
      </g>
     </g>
     <g id="text_1">
      <!-- $\mathdefault{10^{-27}}$ -->
      <g transform="translate(39.621587 288.198125) scale(0.1 -0.1)">
       <defs>
        <path id="DejaVuSans-14" d="M 794 531 
L 1825 531 
L 1825 4091 
L 703 3866 
L 703 4441 
L 1819 4666 
L 2450 4666 
L 2450 531 
L 3481 531 
L 3481 0 
L 794 0 
L 794 531 
z
" transform="scale(0.015625)"/>
        <path id="DejaVuSans-13" d="M 2034 4250 
Q 1547 4250 1301 3770 
Q 1056 3291 1056 2328 
Q 1056 1369 1301 889 
Q 1547 409 2034 409 
Q 2525 409 2770 889 
Q 3016 1369 3016 2328 
Q 3016 3291 2770 3770 
Q 2525 4250 2034 4250 
z
M 2034 4750 
Q 2819 4750 3233 4129 
Q 3647 3509 3647 2328 
Q 3647 1150 3233 529 
Q 2819 -91 2034 -91 
Q 1250 -91 836 529 
Q 422 1150 422 2328 
Q 422 3509 836 4129 
Q 1250 4750 2034 4750 
z
" transform="scale(0.015625)"/>
        <path id="DejaVuSans-c9c" d="M 678 2272 
L 4684 2272 
L 4684 1741 
L 678 1741 
L 678 2272 
z
" transform="scale(0.015625)"/>
        <path id="DejaVuSans-15" d="M 1228 531 
L 3431 531 
L 3431 0 
L 469 0 
L 469 531 
Q 828 903 1448 1529 
Q 2069 2156 2228 2338 
Q 2531 2678 2651 2914 
Q 2772 3150 2772 3378 
Q 2772 3750 2511 3984 
Q 2250 4219 1831 4219 
Q 1534 4219 1204 4116 
Q 875 4013 500 3803 
L 500 4441 
Q 881 4594 1212 4672 
Q 1544 4750 1819 4750 
Q 2544 4750 2975 4387 
Q 3406 4025 3406 3419 
Q 3406 3131 3298 2873 
Q 3191 2616 2906 2266 
Q 2828 2175 2409 1742 
Q 1991 1309 1228 531 
z
" transform="scale(0.015625)"/>
        <path id="DejaVuSans-1a" d="M 525 4666 
L 3525 4666 
L 3525 4397 
L 1831 0 
L 1172 0 
L 2766 4134 
L 525 4134 
L 525 4666 
z
" transform="scale(0.015625)"/>
       </defs>
       <use xlink:href="#DejaVuSans-14" transform="translate(0 0.746875)"/>
       <use xlink:href="#DejaVuSans-13" transform="translate(63.623047 0.746875)"/>
       <use xlink:href="#DejaVuSans-c9c" transform="translate(128.203125 42.046875) scale(0.7)"/>
       <use xlink:href="#DejaVuSans-15" transform="translate(186.855469 42.046875) scale(0.7)"/>
       <use xlink:href="#DejaVuSans-1a" transform="translate(231.391602 42.046875) scale(0.7)"/>
      </g>
     </g>
    </g>
    <g id="xtick_2">
     <g id="line2d_2">
      <g>
       <use xlink:href="#ma1647659f6" x="103.962271" y="271.798125" style="stroke: #000000; stroke-width: 0.8"/>
      </g>
     </g>
     <g id="text_2">
      <!-- $\mathdefault{10^{-24}}$ -->
      <g transform="translate(90.012271 288.198125) scale(0.1 -0.1)">
       <defs>
        <path id="DejaVuSans-17" d="M 2419 4116 
L 825 1625 
L 2419 1625 
L 2419 4116 
z
M 2253 4666 
L 3047 4666 
L 3047 1625 
L 3713 1625 
L 3713 1100 
L 3047 1100 
L 3047 0 
L 2419 0 
L 2419 1100 
L 313 1100 
L 313 1709 
L 2253 4666 
z
" transform="scale(0.015625)"/>
       </defs>
       <use xlink:href="#DejaVuSans-14" transform="translate(0 0.746875)"/>
       <use xlink:href="#DejaVuSans-13" transform="translate(63.623047 0.746875)"/>
       <use xlink:href="#DejaVuSans-c9c" transform="translate(128.203125 42.046875) scale(0.7)"/>
       <use xlink:href="#DejaVuSans-15" transform="translate(186.855469 42.046875) scale(0.7)"/>
       <use xlink:href="#DejaVuSans-17" transform="translate(231.391602 42.046875) scale(0.7)"/>
      </g>
     </g>
    </g>
    <g id="xtick_3">
     <g id="line2d_3">
      <g>
       <use xlink:href="#ma1647659f6" x="154.352955" y="271.798125" style="stroke: #000000; stroke-width: 0.8"/>
      </g>
     </g>
     <g id="text_3">
      <!-- $\mathdefault{10^{-21}}$ -->
      <g transform="translate(140.402955 288.198125) scale(0.1 -0.1)">
       <use xlink:href="#DejaVuSans-14" transform="translate(0 0.746875)"/>
       <use xlink:href="#DejaVuSans-13" transform="translate(63.623047 0.746875)"/>
       <use xlink:href="#DejaVuSans-c9c" transform="translate(128.203125 42.046875) scale(0.7)"/>
       <use xlink:href="#DejaVuSans-15" transform="translate(186.855469 42.046875) scale(0.7)"/>
       <use xlink:href="#DejaVuSans-14" transform="translate(231.391602 42.046875) scale(0.7)"/>
      </g>
     </g>
    </g>
    <g id="xtick_4">
     <g id="line2d_4">
      <g>
       <use xlink:href="#ma1647659f6" x="204.743639" y="271.798125" style="stroke: #000000; stroke-width: 0.8"/>
      </g>
     </g>
     <g id="text_4">
      <!-- $\mathdefault{10^{-18}}$ -->
      <g transform="translate(190.793639 288.198125) scale(0.1 -0.1)">
       <defs>
        <path id="DejaVuSans-1b" d="M 2034 2216 
Q 1584 2216 1326 1975 
Q 1069 1734 1069 1313 
Q 1069 891 1326 650 
Q 1584 409 2034 409 
Q 2484 409 2743 651 
Q 3003 894 3003 1313 
Q 3003 1734 2745 1975 
Q 2488 2216 2034 2216 
z
M 1403 2484 
Q 997 2584 770 2862 
Q 544 3141 544 3541 
Q 544 4100 942 4425 
Q 1341 4750 2034 4750 
Q 2731 4750 3128 4425 
Q 3525 4100 3525 3541 
Q 3525 3141 3298 2862 
Q 3072 2584 2669 2484 
Q 3125 2378 3379 2068 
Q 3634 1759 3634 1313 
Q 3634 634 3220 271 
Q 2806 -91 2034 -91 
Q 1263 -91 848 271 
Q 434 634 434 1313 
Q 434 1759 690 2068 
Q 947 2378 1403 2484 
z
M 1172 3481 
Q 1172 3119 1398 2916 
Q 1625 2713 2034 2713 
Q 2441 2713 2670 2916 
Q 2900 3119 2900 3481 
Q 2900 3844 2670 4047 
Q 2441 4250 2034 4250 
Q 1625 4250 1398 4047 
Q 1172 3844 1172 3481 
z
" transform="scale(0.015625)"/>
       </defs>
       <use xlink:href="#DejaVuSans-14" transform="translate(0 0.746875)"/>
       <use xlink:href="#DejaVuSans-13" transform="translate(63.623047 0.746875)"/>
       <use xlink:href="#DejaVuSans-c9c" transform="translate(128.203125 42.046875) scale(0.7)"/>
       <use xlink:href="#DejaVuSans-14" transform="translate(186.855469 42.046875) scale(0.7)"/>
       <use xlink:href="#DejaVuSans-1b" transform="translate(231.391602 42.046875) scale(0.7)"/>
      </g>
     </g>
    </g>
    <g id="xtick_5">
     <g id="line2d_5">
      <g>
       <use xlink:href="#ma1647659f6" x="255.134323" y="271.798125" style="stroke: #000000; stroke-width: 0.8"/>
      </g>
     </g>
     <g id="text_5">
      <!-- $\mathdefault{10^{-15}}$ -->
      <g transform="translate(241.184323 288.098125) scale(0.1 -0.1)">
       <defs>
        <path id="DejaVuSans-18" d="M 691 4666 
L 3169 4666 
L 3169 4134 
L 1269 4134 
L 1269 2991 
Q 1406 3038 1543 3061 
Q 1681 3084 1819 3084 
Q 2600 3084 3056 2656 
Q 3513 2228 3513 1497 
Q 3513 744 3044 326 
Q 2575 -91 1722 -91 
Q 1428 -91 1123 -41 
Q 819 9 494 109 
L 494 744 
Q 775 591 1075 516 
Q 1375 441 1709 441 
Q 2250 441 2565 725 
Q 2881 1009 2881 1497 
Q 2881 1984 2565 2268 
Q 2250 2553 1709 2553 
Q 1456 2553 1204 2497 
Q 953 2441 691 2322 
L 691 4666 
z
" transform="scale(0.015625)"/>
       </defs>
       <use xlink:href="#DejaVuSans-14" transform="translate(0 0.665625)"/>
       <use xlink:href="#DejaVuSans-13" transform="translate(63.623047 0.665625)"/>
       <use xlink:href="#DejaVuSans-c9c" transform="translate(128.203125 41.965625) scale(0.7)"/>
       <use xlink:href="#DejaVuSans-14" transform="translate(186.855469 41.965625) scale(0.7)"/>
       <use xlink:href="#DejaVuSans-18" transform="translate(231.391602 41.965625) scale(0.7)"/>
      </g>
     </g>
    </g>
    <g id="xtick_6">
     <g id="line2d_6">
      <g>
       <use xlink:href="#ma1647659f6" x="305.525007" y="271.798125" style="stroke: #000000; stroke-width: 0.8"/>
      </g>
     </g>
     <g id="text_6">
      <!-- $\mathdefault{10^{-12}}$ -->
      <g transform="translate(291.575007 288.198125) scale(0.1 -0.1)">
       <use xlink:href="#DejaVuSans-14" transform="translate(0 0.746875)"/>
       <use xlink:href="#DejaVuSans-13" transform="translate(63.623047 0.746875)"/>
       <use xlink:href="#DejaVuSans-c9c" transform="translate(128.203125 42.046875) scale(0.7)"/>
       <use xlink:href="#DejaVuSans-14" transform="translate(186.855469 42.046875) scale(0.7)"/>
       <use xlink:href="#DejaVuSans-15" transform="translate(231.391602 42.046875) scale(0.7)"/>
      </g>
     </g>
    </g>
    <g id="xtick_7">
     <g id="line2d_7">
      <g>
       <use xlink:href="#ma1647659f6" x="355.915691" y="271.798125" style="stroke: #000000; stroke-width: 0.8"/>
      </g>
     </g>
     <g id="text_7">
      <!-- $\mathdefault{10^{-9}}$ -->
      <g transform="translate(344.165691 288.198125) scale(0.1 -0.1)">
       <defs>
        <path id="DejaVuSans-1c" d="M 703 97 
L 703 672 
Q 941 559 1184 500 
Q 1428 441 1663 441 
Q 2288 441 2617 861 
Q 2947 1281 2994 2138 
Q 2813 1869 2534 1725 
Q 2256 1581 1919 1581 
Q 1219 1581 811 2004 
Q 403 2428 403 3163 
Q 403 3881 828 4315 
Q 1253 4750 1959 4750 
Q 2769 4750 3195 4129 
Q 3622 3509 3622 2328 
Q 3622 1225 3098 567 
Q 2575 -91 1691 -91 
Q 1453 -91 1209 -44 
Q 966 3 703 97 
z
M 1959 2075 
Q 2384 2075 2632 2365 
Q 2881 2656 2881 3163 
Q 2881 3666 2632 3958 
Q 2384 4250 1959 4250 
Q 1534 4250 1286 3958 
Q 1038 3666 1038 3163 
Q 1038 2656 1286 2365 
Q 1534 2075 1959 2075 
z
" transform="scale(0.015625)"/>
       </defs>
       <use xlink:href="#DejaVuSans-14" transform="translate(0 0.746875)"/>
       <use xlink:href="#DejaVuSans-13" transform="translate(63.623047 0.746875)"/>
       <use xlink:href="#DejaVuSans-c9c" transform="translate(128.203125 42.046875) scale(0.7)"/>
       <use xlink:href="#DejaVuSans-1c" transform="translate(186.855469 42.046875) scale(0.7)"/>
      </g>
     </g>
    </g>
    <g id="xtick_8">
     <g id="line2d_8">
      <g>
       <use xlink:href="#ma1647659f6" x="406.306375" y="271.798125" style="stroke: #000000; stroke-width: 0.8"/>
      </g>
     </g>
     <g id="text_8">
      <!-- $\mathdefault{10^{-6}}$ -->
      <g transform="translate(394.556375 288.198125) scale(0.1 -0.1)">
       <defs>
        <path id="DejaVuSans-19" d="M 2113 2584 
Q 1688 2584 1439 2293 
Q 1191 2003 1191 1497 
Q 1191 994 1439 701 
Q 1688 409 2113 409 
Q 2538 409 2786 701 
Q 3034 994 3034 1497 
Q 3034 2003 2786 2293 
Q 2538 2584 2113 2584 
z
M 3366 4563 
L 3366 3988 
Q 3128 4100 2886 4159 
Q 2644 4219 2406 4219 
Q 1781 4219 1451 3797 
Q 1122 3375 1075 2522 
Q 1259 2794 1537 2939 
Q 1816 3084 2150 3084 
Q 2853 3084 3261 2657 
Q 3669 2231 3669 1497 
Q 3669 778 3244 343 
Q 2819 -91 2113 -91 
Q 1303 -91 875 529 
Q 447 1150 447 2328 
Q 447 3434 972 4092 
Q 1497 4750 2381 4750 
Q 2619 4750 2861 4703 
Q 3103 4656 3366 4563 
z
" transform="scale(0.015625)"/>
       </defs>
       <use xlink:href="#DejaVuSans-14" transform="translate(0 0.746875)"/>
       <use xlink:href="#DejaVuSans-13" transform="translate(63.623047 0.746875)"/>
       <use xlink:href="#DejaVuSans-c9c" transform="translate(128.203125 42.046875) scale(0.7)"/>
       <use xlink:href="#DejaVuSans-19" transform="translate(186.855469 42.046875) scale(0.7)"/>
      </g>
     </g>
    </g>
    <g id="text_9">
     <!-- positive importance (deterministic sample) -->
     <g transform="translate(137.797656 302.198906) scale(0.1 -0.1)">
      <defs>
       <path id="DejaVuSans-53" d="M 1159 525 
L 1159 -1331 
L 581 -1331 
L 581 3500 
L 1159 3500 
L 1159 2969 
Q 1341 3281 1617 3432 
Q 1894 3584 2278 3584 
Q 2916 3584 3314 3078 
Q 3713 2572 3713 1747 
Q 3713 922 3314 415 
Q 2916 -91 2278 -91 
Q 1894 -91 1617 61 
Q 1341 213 1159 525 
z
M 3116 1747 
Q 3116 2381 2855 2742 
Q 2594 3103 2138 3103 
Q 1681 3103 1420 2742 
Q 1159 2381 1159 1747 
Q 1159 1113 1420 752 
Q 1681 391 2138 391 
Q 2594 391 2855 752 
Q 3116 1113 3116 1747 
z
" transform="scale(0.015625)"/>
       <path id="DejaVuSans-52" d="M 1959 3097 
Q 1497 3097 1228 2736 
Q 959 2375 959 1747 
Q 959 1119 1226 758 
Q 1494 397 1959 397 
Q 2419 397 2687 759 
Q 2956 1122 2956 1747 
Q 2956 2369 2687 2733 
Q 2419 3097 1959 3097 
z
M 1959 3584 
Q 2709 3584 3137 3096 
Q 3566 2609 3566 1747 
Q 3566 888 3137 398 
Q 2709 -91 1959 -91 
Q 1206 -91 779 398 
Q 353 888 353 1747 
Q 353 2609 779 3096 
Q 1206 3584 1959 3584 
z
" transform="scale(0.015625)"/>
       <path id="DejaVuSans-56" d="M 2834 3397 
L 2834 2853 
Q 2591 2978 2328 3040 
Q 2066 3103 1784 3103 
Q 1356 3103 1142 2972 
Q 928 2841 928 2578 
Q 928 2378 1081 2264 
Q 1234 2150 1697 2047 
L 1894 2003 
Q 2506 1872 2764 1633 
Q 3022 1394 3022 966 
Q 3022 478 2636 193 
Q 2250 -91 1575 -91 
Q 1294 -91 989 -36 
Q 684 19 347 128 
L 347 722 
Q 666 556 975 473 
Q 1284 391 1588 391 
Q 1994 391 2212 530 
Q 2431 669 2431 922 
Q 2431 1156 2273 1281 
Q 2116 1406 1581 1522 
L 1381 1569 
Q 847 1681 609 1914 
Q 372 2147 372 2553 
Q 372 3047 722 3315 
Q 1072 3584 1716 3584 
Q 2034 3584 2315 3537 
Q 2597 3491 2834 3397 
z
" transform="scale(0.015625)"/>
       <path id="DejaVuSans-4c" d="M 603 3500 
L 1178 3500 
L 1178 0 
L 603 0 
L 603 3500 
z
M 603 4863 
L 1178 4863 
L 1178 4134 
L 603 4134 
L 603 4863 
z
" transform="scale(0.015625)"/>
       <path id="DejaVuSans-57" d="M 1172 4494 
L 1172 3500 
L 2356 3500 
L 2356 3053 
L 1172 3053 
L 1172 1153 
Q 1172 725 1289 603 
Q 1406 481 1766 481 
L 2356 481 
L 2356 0 
L 1766 0 
Q 1100 0 847 248 
Q 594 497 594 1153 
L 594 3053 
L 172 3053 
L 172 3500 
L 594 3500 
L 594 4494 
L 1172 4494 
z
" transform="scale(0.015625)"/>
       <path id="DejaVuSans-59" d="M 191 3500 
L 800 3500 
L 1894 563 
L 2988 3500 
L 3597 3500 
L 2284 0 
L 1503 0 
L 191 3500 
z
" transform="scale(0.015625)"/>
       <path id="DejaVuSans-48" d="M 3597 1894 
L 3597 1613 
L 953 1613 
Q 991 1019 1311 708 
Q 1631 397 2203 397 
Q 2534 397 2845 478 
Q 3156 559 3463 722 
L 3463 178 
Q 3153 47 2828 -22 
Q 2503 -91 2169 -91 
Q 1331 -91 842 396 
Q 353 884 353 1716 
Q 353 2575 817 3079 
Q 1281 3584 2069 3584 
Q 2775 3584 3186 3129 
Q 3597 2675 3597 1894 
z
M 3022 2063 
Q 3016 2534 2758 2815 
Q 2500 3097 2075 3097 
Q 1594 3097 1305 2825 
Q 1016 2553 972 2059 
L 3022 2063 
z
" transform="scale(0.015625)"/>
       <path id="DejaVuSans-3" transform="scale(0.015625)"/>
       <path id="DejaVuSans-50" d="M 3328 2828 
Q 3544 3216 3844 3400 
Q 4144 3584 4550 3584 
Q 5097 3584 5394 3201 
Q 5691 2819 5691 2113 
L 5691 0 
L 5113 0 
L 5113 2094 
Q 5113 2597 4934 2840 
Q 4756 3084 4391 3084 
Q 3944 3084 3684 2787 
Q 3425 2491 3425 1978 
L 3425 0 
L 2847 0 
L 2847 2094 
Q 2847 2600 2669 2842 
Q 2491 3084 2119 3084 
Q 1678 3084 1418 2786 
Q 1159 2488 1159 1978 
L 1159 0 
L 581 0 
L 581 3500 
L 1159 3500 
L 1159 2956 
Q 1356 3278 1631 3431 
Q 1906 3584 2284 3584 
Q 2666 3584 2933 3390 
Q 3200 3197 3328 2828 
z
" transform="scale(0.015625)"/>
       <path id="DejaVuSans-55" d="M 2631 2963 
Q 2534 3019 2420 3045 
Q 2306 3072 2169 3072 
Q 1681 3072 1420 2755 
Q 1159 2438 1159 1844 
L 1159 0 
L 581 0 
L 581 3500 
L 1159 3500 
L 1159 2956 
Q 1341 3275 1631 3429 
Q 1922 3584 2338 3584 
Q 2397 3584 2469 3576 
Q 2541 3569 2628 3553 
L 2631 2963 
z
" transform="scale(0.015625)"/>
       <path id="DejaVuSans-44" d="M 2194 1759 
Q 1497 1759 1228 1600 
Q 959 1441 959 1056 
Q 959 750 1161 570 
Q 1363 391 1709 391 
Q 2188 391 2477 730 
Q 2766 1069 2766 1631 
L 2766 1759 
L 2194 1759 
z
M 3341 1997 
L 3341 0 
L 2766 0 
L 2766 531 
Q 2569 213 2275 61 
Q 1981 -91 1556 -91 
Q 1019 -91 701 211 
Q 384 513 384 1019 
Q 384 1609 779 1909 
Q 1175 2209 1959 2209 
L 2766 2209 
L 2766 2266 
Q 2766 2663 2505 2880 
Q 2244 3097 1772 3097 
Q 1472 3097 1187 3025 
Q 903 2953 641 2809 
L 641 3341 
Q 956 3463 1253 3523 
Q 1550 3584 1831 3584 
Q 2591 3584 2966 3190 
Q 3341 2797 3341 1997 
z
" transform="scale(0.015625)"/>
       <path id="DejaVuSans-51" d="M 3513 2113 
L 3513 0 
L 2938 0 
L 2938 2094 
Q 2938 2591 2744 2837 
Q 2550 3084 2163 3084 
Q 1697 3084 1428 2787 
Q 1159 2491 1159 1978 
L 1159 0 
L 581 0 
L 581 3500 
L 1159 3500 
L 1159 2956 
Q 1366 3272 1645 3428 
Q 1925 3584 2291 3584 
Q 2894 3584 3203 3211 
Q 3513 2838 3513 2113 
z
" transform="scale(0.015625)"/>
       <path id="DejaVuSans-46" d="M 3122 3366 
L 3122 2828 
Q 2878 2963 2633 3030 
Q 2388 3097 2138 3097 
Q 1578 3097 1268 2742 
Q 959 2388 959 1747 
Q 959 1106 1268 751 
Q 1578 397 2138 397 
Q 2388 397 2633 464 
Q 2878 531 3122 666 
L 3122 134 
Q 2881 22 2623 -34 
Q 2366 -91 2075 -91 
Q 1284 -91 818 406 
Q 353 903 353 1747 
Q 353 2603 823 3093 
Q 1294 3584 2113 3584 
Q 2378 3584 2631 3529 
Q 2884 3475 3122 3366 
z
" transform="scale(0.015625)"/>
       <path id="DejaVuSans-b" d="M 1984 4856 
Q 1566 4138 1362 3434 
Q 1159 2731 1159 2009 
Q 1159 1288 1364 580 
Q 1569 -128 1984 -844 
L 1484 -844 
Q 1016 -109 783 600 
Q 550 1309 550 2009 
Q 550 2706 781 3412 
Q 1013 4119 1484 4856 
L 1984 4856 
z
" transform="scale(0.015625)"/>
       <path id="DejaVuSans-47" d="M 2906 2969 
L 2906 4863 
L 3481 4863 
L 3481 0 
L 2906 0 
L 2906 525 
Q 2725 213 2448 61 
Q 2172 -91 1784 -91 
Q 1150 -91 751 415 
Q 353 922 353 1747 
Q 353 2572 751 3078 
Q 1150 3584 1784 3584 
Q 2172 3584 2448 3432 
Q 2725 3281 2906 2969 
z
M 947 1747 
Q 947 1113 1208 752 
Q 1469 391 1925 391 
Q 2381 391 2643 752 
Q 2906 1113 2906 1747 
Q 2906 2381 2643 2742 
Q 2381 3103 1925 3103 
Q 1469 3103 1208 2742 
Q 947 2381 947 1747 
z
" transform="scale(0.015625)"/>
       <path id="DejaVuSans-4f" d="M 603 4863 
L 1178 4863 
L 1178 0 
L 603 0 
L 603 4863 
z
" transform="scale(0.015625)"/>
       <path id="DejaVuSans-c" d="M 513 4856 
L 1013 4856 
Q 1481 4119 1714 3412 
Q 1947 2706 1947 2009 
Q 1947 1309 1714 600 
Q 1481 -109 1013 -844 
L 513 -844 
Q 928 -128 1133 580 
Q 1338 1288 1338 2009 
Q 1338 2731 1133 3434 
Q 928 4138 513 4856 
z
" transform="scale(0.015625)"/>
      </defs>
      <use xlink:href="#DejaVuSans-53"/>
      <use xlink:href="#DejaVuSans-52" transform="translate(63.484375 0)"/>
      <use xlink:href="#DejaVuSans-56" transform="translate(124.671875 0)"/>
      <use xlink:href="#DejaVuSans-4c" transform="translate(176.765625 0)"/>
      <use xlink:href="#DejaVuSans-57" transform="translate(204.546875 0)"/>
      <use xlink:href="#DejaVuSans-4c" transform="translate(243.75 0)"/>
      <use xlink:href="#DejaVuSans-59" transform="translate(271.53125 0)"/>
      <use xlink:href="#DejaVuSans-48" transform="translate(330.71875 0)"/>
      <use xlink:href="#DejaVuSans-3" transform="translate(392.25 0)"/>
      <use xlink:href="#DejaVuSans-4c" transform="translate(424.03125 0)"/>
      <use xlink:href="#DejaVuSans-50" transform="translate(451.8125 0)"/>
      <use xlink:href="#DejaVuSans-53" transform="translate(549.21875 0)"/>
      <use xlink:href="#DejaVuSans-52" transform="translate(612.703125 0)"/>
      <use xlink:href="#DejaVuSans-55" transform="translate(673.890625 0)"/>
      <use xlink:href="#DejaVuSans-57" transform="translate(715 0)"/>
      <use xlink:href="#DejaVuSans-44" transform="translate(754.203125 0)"/>
      <use xlink:href="#DejaVuSans-51" transform="translate(815.484375 0)"/>
      <use xlink:href="#DejaVuSans-46" transform="translate(878.859375 0)"/>
      <use xlink:href="#DejaVuSans-48" transform="translate(933.84375 0)"/>
      <use xlink:href="#DejaVuSans-3" transform="translate(995.375 0)"/>
      <use xlink:href="#DejaVuSans-b" transform="translate(1027.15625 0)"/>
      <use xlink:href="#DejaVuSans-47" transform="translate(1066.171875 0)"/>
      <use xlink:href="#DejaVuSans-48" transform="translate(1129.65625 0)"/>
      <use xlink:href="#DejaVuSans-57" transform="translate(1191.1875 0)"/>
      <use xlink:href="#DejaVuSans-48" transform="translate(1230.390625 0)"/>
      <use xlink:href="#DejaVuSans-55" transform="translate(1291.921875 0)"/>
      <use xlink:href="#DejaVuSans-50" transform="translate(1331.28125 0)"/>
      <use xlink:href="#DejaVuSans-4c" transform="translate(1428.6875 0)"/>
      <use xlink:href="#DejaVuSans-51" transform="translate(1456.46875 0)"/>
      <use xlink:href="#DejaVuSans-4c" transform="translate(1519.84375 0)"/>
      <use xlink:href="#DejaVuSans-56" transform="translate(1547.625 0)"/>
      <use xlink:href="#DejaVuSans-57" transform="translate(1599.71875 0)"/>
      <use xlink:href="#DejaVuSans-4c" transform="translate(1638.921875 0)"/>
      <use xlink:href="#DejaVuSans-46" transform="translate(1666.703125 0)"/>
      <use xlink:href="#DejaVuSans-3" transform="translate(1721.6875 0)"/>
      <use xlink:href="#DejaVuSans-56" transform="translate(1753.46875 0)"/>
      <use xlink:href="#DejaVuSans-44" transform="translate(1805.5625 0)"/>
      <use xlink:href="#DejaVuSans-50" transform="translate(1866.84375 0)"/>
      <use xlink:href="#DejaVuSans-53" transform="translate(1964.25 0)"/>
      <use xlink:href="#DejaVuSans-4f" transform="translate(2027.734375 0)"/>
      <use xlink:href="#DejaVuSans-48" transform="translate(2055.515625 0)"/>
      <use xlink:href="#DejaVuSans-c" transform="translate(2117.046875 0)"/>
     </g>
    </g>
   </g>
   <g id="matplotlib.axis_2">
    <g id="ytick_1">
     <g id="line2d_9">
      <defs>
       <path id="m48c4980e81" d="M 0 0 
L -3.5 0 
" style="stroke: #000000; stroke-width: 0.8"/>
      </defs>
      <g>
       <use xlink:href="#m48c4980e81" x="50.300781" y="264.33258" style="stroke: #000000; stroke-width: 0.8"/>
      </g>
     </g>
     <g id="text_10">
      <!-- $\mathdefault{10^{0}}$ -->
      <g transform="translate(25.700781 269.03258) scale(0.1 -0.1)">
       <use xlink:href="#DejaVuSans-14" transform="translate(0 0.746875)"/>
       <use xlink:href="#DejaVuSans-13" transform="translate(63.623047 0.746875)"/>
       <use xlink:href="#DejaVuSans-13" transform="translate(128.203125 42.046875) scale(0.7)"/>
      </g>
     </g>
    </g>
    <g id="ytick_2">
     <g id="line2d_10">
      <g>
       <use xlink:href="#m48c4980e81" x="50.300781" y="231.602011" style="stroke: #000000; stroke-width: 0.8"/>
      </g>
     </g>
     <g id="text_11">
      <!-- $\mathdefault{10^{3}}$ -->
      <g transform="translate(25.700781 236.302011) scale(0.1 -0.1)">
       <defs>
        <path id="DejaVuSans-16" d="M 2597 2516 
Q 3050 2419 3304 2112 
Q 3559 1806 3559 1356 
Q 3559 666 3084 287 
Q 2609 -91 1734 -91 
Q 1441 -91 1130 -33 
Q 819 25 488 141 
L 488 750 
Q 750 597 1062 519 
Q 1375 441 1716 441 
Q 2309 441 2620 675 
Q 2931 909 2931 1356 
Q 2931 1769 2642 2001 
Q 2353 2234 1838 2234 
L 1294 2234 
L 1294 2753 
L 1863 2753 
Q 2328 2753 2575 2939 
Q 2822 3125 2822 3475 
Q 2822 3834 2567 4026 
Q 2313 4219 1838 4219 
Q 1578 4219 1281 4162 
Q 984 4106 628 3988 
L 628 4550 
Q 988 4650 1302 4700 
Q 1616 4750 1894 4750 
Q 2613 4750 3031 4423 
Q 3450 4097 3450 3541 
Q 3450 3153 3228 2886 
Q 3006 2619 2597 2516 
z
" transform="scale(0.015625)"/>
       </defs>
       <use xlink:href="#DejaVuSans-14" transform="translate(0 0.746875)"/>
       <use xlink:href="#DejaVuSans-13" transform="translate(63.623047 0.746875)"/>
       <use xlink:href="#DejaVuSans-16" transform="translate(128.203125 42.046875) scale(0.7)"/>
      </g>
     </g>
    </g>
    <g id="ytick_3">
     <g id="line2d_11">
      <g>
       <use xlink:href="#m48c4980e81" x="50.300781" y="198.871441" style="stroke: #000000; stroke-width: 0.8"/>
      </g>
     </g>
     <g id="text_12">
      <!-- $\mathdefault{10^{6}}$ -->
      <g transform="translate(25.700781 203.571441) scale(0.1 -0.1)">
       <use xlink:href="#DejaVuSans-14" transform="translate(0 0.746875)"/>
       <use xlink:href="#DejaVuSans-13" transform="translate(63.623047 0.746875)"/>
       <use xlink:href="#DejaVuSans-19" transform="translate(128.203125 42.046875) scale(0.7)"/>
      </g>
     </g>
    </g>
    <g id="ytick_4">
     <g id="line2d_12">
      <g>
       <use xlink:href="#m48c4980e81" x="50.300781" y="166.140872" style="stroke: #000000; stroke-width: 0.8"/>
      </g>
     </g>
     <g id="text_13">
      <!-- $\mathdefault{10^{9}}$ -->
      <g transform="translate(25.700781 170.840872) scale(0.1 -0.1)">
       <use xlink:href="#DejaVuSans-14" transform="translate(0 0.746875)"/>
       <use xlink:href="#DejaVuSans-13" transform="translate(63.623047 0.746875)"/>
       <use xlink:href="#DejaVuSans-1c" transform="translate(128.203125 42.046875) scale(0.7)"/>
      </g>
     </g>
    </g>
    <g id="ytick_5">
     <g id="line2d_13">
      <g>
       <use xlink:href="#m48c4980e81" x="50.300781" y="133.410302" style="stroke: #000000; stroke-width: 0.8"/>
      </g>
     </g>
     <g id="text_14">
      <!-- $\mathdefault{10^{12}}$ -->
      <g transform="translate(21.200781 138.110302) scale(0.1 -0.1)">
       <use xlink:href="#DejaVuSans-14" transform="translate(0 0.746875)"/>
       <use xlink:href="#DejaVuSans-13" transform="translate(63.623047 0.746875)"/>
       <use xlink:href="#DejaVuSans-14" transform="translate(128.203125 42.046875) scale(0.7)"/>
       <use xlink:href="#DejaVuSans-15" transform="translate(172.739258 42.046875) scale(0.7)"/>
      </g>
     </g>
    </g>
    <g id="ytick_6">
     <g id="line2d_14">
      <g>
       <use xlink:href="#m48c4980e81" x="50.300781" y="100.679732" style="stroke: #000000; stroke-width: 0.8"/>
      </g>
     </g>
     <g id="text_15">
      <!-- $\mathdefault{10^{15}}$ -->
      <g transform="translate(21.200781 105.329732) scale(0.1 -0.1)">
       <use xlink:href="#DejaVuSans-14" transform="translate(0 0.665625)"/>
       <use xlink:href="#DejaVuSans-13" transform="translate(63.623047 0.665625)"/>
       <use xlink:href="#DejaVuSans-14" transform="translate(128.203125 41.965625) scale(0.7)"/>
       <use xlink:href="#DejaVuSans-18" transform="translate(172.739258 41.965625) scale(0.7)"/>
      </g>
     </g>
    </g>
    <g id="ytick_7">
     <g id="line2d_15">
      <g>
       <use xlink:href="#m48c4980e81" x="50.300781" y="67.949163" style="stroke: #000000; stroke-width: 0.8"/>
      </g>
     </g>
     <g id="text_16">
      <!-- $\mathdefault{10^{18}}$ -->
      <g transform="translate(21.200781 72.649163) scale(0.1 -0.1)">
       <use xlink:href="#DejaVuSans-14" transform="translate(0 0.746875)"/>
       <use xlink:href="#DejaVuSans-13" transform="translate(63.623047 0.746875)"/>
       <use xlink:href="#DejaVuSans-14" transform="translate(128.203125 42.046875) scale(0.7)"/>
       <use xlink:href="#DejaVuSans-1b" transform="translate(172.739258 42.046875) scale(0.7)"/>
      </g>
     </g>
    </g>
    <g id="ytick_8">
     <g id="line2d_16">
      <g>
       <use xlink:href="#m48c4980e81" x="50.300781" y="35.218593" style="stroke: #000000; stroke-width: 0.8"/>
      </g>
     </g>
     <g id="text_17">
      <!-- $\mathdefault{10^{21}}$ -->
      <g transform="translate(21.200781 39.918593) scale(0.1 -0.1)">
       <use xlink:href="#DejaVuSans-14" transform="translate(0 0.746875)"/>
       <use xlink:href="#DejaVuSans-13" transform="translate(63.623047 0.746875)"/>
       <use xlink:href="#DejaVuSans-15" transform="translate(128.203125 42.046875) scale(0.7)"/>
       <use xlink:href="#DejaVuSans-14" transform="translate(172.739258 42.046875) scale(0.7)"/>
      </g>
     </g>
    </g>
    <g id="text_18">
     <!-- density -->
     <g transform="translate(14.798437 165.390937) rotate(-90) scale(0.1 -0.1)">
      <defs>
       <path id="DejaVuSans-5c" d="M 2059 -325 
Q 1816 -950 1584 -1140 
Q 1353 -1331 966 -1331 
L 506 -1331 
L 506 -850 
L 844 -850 
Q 1081 -850 1212 -737 
Q 1344 -625 1503 -206 
L 1606 56 
L 191 3500 
L 800 3500 
L 1894 763 
L 2988 3500 
L 3597 3500 
L 2059 -325 
z
" transform="scale(0.015625)"/>
      </defs>
      <use xlink:href="#DejaVuSans-47"/>
      <use xlink:href="#DejaVuSans-48" transform="translate(63.484375 0)"/>
      <use xlink:href="#DejaVuSans-51" transform="translate(125.015625 0)"/>
      <use xlink:href="#DejaVuSans-56" transform="translate(188.390625 0)"/>
      <use xlink:href="#DejaVuSans-4c" transform="translate(240.484375 0)"/>
      <use xlink:href="#DejaVuSans-57" transform="translate(268.265625 0)"/>
      <use xlink:href="#DejaVuSans-5c" transform="translate(307.46875 0)"/>
     </g>
    </g>
   </g>
   <g id="patch_3">
    <path d="M 156.828054 312.80125 
L 156.828054 92.430595 
L 162.746236 92.430595 
L 162.746236 312.80125 
M 168.664418 312.80125 
L 168.664418 100.118741 
L 174.582599 100.118741 
L 174.582599 312.80125 
M 180.500781 312.80125 
L 180.500781 104.522593 
L 186.418963 104.522593 
L 186.418963 312.80125 
M 192.337145 312.80125 
L 192.337145 115.495033 
L 198.255327 115.495033 
L 198.255327 119.339106 
L 204.173509 119.339106 
L 204.173509 123.183178 
L 210.09169 123.183178 
L 210.09169 127.027251 
L 216.009872 127.027251 
L 216.009872 122.381546 
L 221.928054 122.381546 
L 221.928054 127.089502 
L 227.846236 127.089502 
L 227.846236 128.148503 
L 233.764418 128.148503 
L 233.764418 129.899068 
L 239.682599 129.899068 
L 239.682599 129.53889 
L 245.600781 129.53889 
L 245.600781 132.495911 
L 251.518963 132.495911 
L 251.518963 133.29265 
L 257.437145 133.29265 
L 257.437145 133.254019 
L 263.355327 133.254019 
L 263.355327 131.623762 
L 269.273509 131.623762 
L 269.273509 129.271837 
L 275.19169 129.271837 
L 275.19169 129.215616 
L 281.109872 129.215616 
L 281.109872 131.657452 
L 287.028054 131.657452 
L 287.028054 134.450627 
L 292.946236 134.450627 
L 292.946236 137.925866 
L 298.864418 137.925866 
L 298.864418 142.422076 
L 304.782599 142.422076 
L 304.782599 147.04045 
L 310.700781 147.04045 
L 310.700781 150.502166 
L 316.618963 150.502166 
L 316.618963 152.53782 
L 322.537145 152.53782 
L 322.537145 154.877213 
L 328.455327 154.877213 
L 328.455327 160.314135 
L 334.373509 160.314135 
L 334.373509 165.944262 
L 340.29169 165.944262 
L 340.29169 171.35938 
L 346.209872 171.35938 
L 346.209872 179.059211 
L 352.128054 179.059211 
L 352.128054 188.919883 
L 358.046236 188.919883 
L 358.046236 200.484462 
L 363.964418 200.484462 
L 363.964418 209.377368 
L 369.882599 209.377368 
L 369.882599 215.96051 
L 375.800781 215.96051 
L 375.800781 224.250325 
L 381.718963 224.250325 
L 381.718963 230.015587 
L 387.637145 230.015587 
L 387.637145 239.065143 
L 393.555327 239.065143 
L 393.555327 246.193511 
L 399.473509 246.193511 
L 399.473509 250.037584 
L 405.39169 250.037584 
L 405.39169 253.881656 
L 411.309872 253.881656 
L 411.309872 312.80125 
" clip-path="url(#pdbc05d76c9)" style="fill: none; stroke: #1f77b4; stroke-width: 1.2; stroke-linejoin: miter"/>
   </g>
   <g id="patch_4">
    <path d="M 150.909872 312.80125 
L 150.909872 87.474845 
L 156.828054 87.474845 
L 156.828054 91.318918 
L 162.746236 91.318918 
L 162.746236 87.537096 
L 168.664418 87.537096 
L 168.664418 95.72277 
L 174.582599 95.72277 
L 174.582599 95.225241 
L 180.500781 95.225241 
L 180.500781 95.78502 
L 186.418963 95.78502 
L 186.418963 98.034808 
L 192.337145 98.034808 
L 192.337145 104.530472 
L 198.255327 104.530472 
L 198.255327 106.074095 
L 204.173509 106.074095 
L 204.173509 108.934324 
L 210.09169 108.934324 
L 210.09169 107.475214 
L 216.009872 107.475214 
L 216.009872 104.246643 
L 221.928054 104.246643 
L 221.928054 103.578349 
L 227.846236 103.578349 
L 227.846236 103.445011 
L 233.764418 103.445011 
L 233.764418 104.344519 
L 239.682599 104.344519 
L 239.682599 106.242174 
L 245.600781 106.242174 
L 245.600781 109.070413 
L 251.518963 109.070413 
L 251.518963 112.971056 
L 257.437145 112.971056 
L 257.437145 118.023412 
L 263.355327 118.023412 
L 263.355327 124.32065 
L 269.273509 124.32065 
L 269.273509 130.267369 
L 275.19169 130.267369 
L 275.19169 135.371334 
L 281.109872 135.371334 
L 281.109872 138.631098 
L 287.028054 138.631098 
L 287.028054 141.20528 
L 292.946236 141.20528 
L 292.946236 143.760568 
L 298.864418 143.760568 
L 298.864418 146.316838 
L 304.782599 146.316838 
L 304.782599 148.9959 
L 310.700781 148.9959 
L 310.700781 151.29314 
L 316.618963 151.29314 
L 316.618963 154.255378 
L 322.537145 154.255378 
L 322.537145 157.29323 
L 328.455327 157.29323 
L 328.455327 161.194508 
L 334.373509 161.194508 
L 334.373509 165.908587 
L 340.29169 165.908587 
L 340.29169 170.997905 
L 346.209872 170.997905 
L 346.209872 175.730972 
L 352.128054 175.730972 
L 352.128054 180.091084 
L 358.046236 180.091084 
L 358.046236 185.602904 
L 363.964418 185.602904 
L 363.964418 192.761855 
L 369.882599 192.761855 
L 369.882599 201.789546 
L 375.800781 201.789546 
L 375.800781 211.776856 
L 381.718963 211.776856 
L 381.718963 224.562309 
L 387.637145 224.562309 
L 387.637145 232.017581 
L 393.555327 232.017581 
L 393.555327 237.455938 
L 399.473509 237.455938 
L 399.473509 312.80125 
M 405.39169 312.80125 
L 405.39169 252.769979 
L 411.309872 252.769979 
L 411.309872 312.80125 
M 417.228054 312.80125 
L 417.228054 260.458125 
L 423.146236 260.458125 
L 423.146236 312.80125 
" clip-path="url(#pdbc05d76c9)" style="fill: none; stroke: #ff7f0e; stroke-width: 1.2; stroke-linejoin: miter"/>
   </g>
   <g id="patch_5">
    <path d="M 115.400781 312.80125 
L 115.400781 64.412328 
L 121.318963 64.412328 
L 121.318963 312.80125 
M 139.073509 312.80125 
L 139.073509 79.788619 
L 144.99169 79.788619 
L 144.99169 312.80125 
M 150.909872 312.80125 
L 150.909872 87.476765 
L 156.828054 87.476765 
L 156.828054 86.115354 
L 162.746236 86.115354 
L 162.746236 95.164911 
L 168.664418 95.164911 
L 168.664418 90.519206 
L 174.582599 90.519206 
L 174.582599 95.227161 
L 180.500781 95.227161 
L 180.500781 96.844246 
L 186.418963 96.844246 
L 186.418963 102.915307 
L 192.337145 102.915307 
L 192.337145 103.023483 
L 198.255327 103.023483 
L 198.255327 107.319158 
L 204.173509 107.319158 
L 204.173509 106.635793 
L 210.09169 106.635793 
L 210.09169 105.037421 
L 216.009872 105.037421 
L 216.009872 104.20529 
L 221.928054 104.20529 
L 221.928054 103.415444 
L 227.846236 103.415444 
L 227.846236 103.227495 
L 233.764418 103.227495 
L 233.764418 104.087082 
L 239.682599 104.087082 
L 239.682599 106.126842 
L 245.600781 106.126842 
L 245.600781 109.041194 
L 251.518963 109.041194 
L 251.518963 112.925787 
L 257.437145 112.925787 
L 257.437145 117.991453 
L 263.355327 117.991453 
L 263.355327 123.691008 
L 269.273509 123.691008 
L 269.273509 129.424416 
L 275.19169 129.424416 
L 275.19169 134.156241 
L 281.109872 134.156241 
L 281.109872 137.862349 
L 287.028054 137.862349 
L 287.028054 141.043742 
L 292.946236 141.043742 
L 292.946236 143.861531 
L 298.864418 143.861531 
L 298.864418 146.838061 
L 304.782599 146.838061 
L 304.782599 149.445719 
L 310.700781 149.445719 
L 310.700781 151.852887 
L 316.618963 151.852887 
L 316.618963 154.504246 
L 322.537145 154.504246 
L 322.537145 157.64845 
L 328.455327 157.64845 
L 328.455327 161.32791 
L 334.373509 161.32791 
L 334.373509 165.947414 
L 340.29169 165.947414 
L 340.29169 170.93425 
L 346.209872 170.93425 
L 346.209872 175.694592 
L 352.128054 175.694592 
L 352.128054 179.686725 
L 358.046236 179.686725 
L 358.046236 185.194177 
L 363.964418 185.194177 
L 363.964418 192.685526 
L 369.882599 192.685526 
L 369.882599 201.830896 
L 375.800781 201.830896 
L 375.800781 212.075012 
L 381.718963 212.075012 
L 381.718963 223.700346 
L 387.637145 223.700346 
L 387.637145 232.749902 
L 393.555327 232.749902 
L 393.555327 239.87827 
L 399.473509 239.87827 
L 399.473509 312.80125 
M 405.39169 312.80125 
L 405.39169 252.771899 
L 411.309872 252.771899 
L 411.309872 256.615972 
L 417.228054 256.615972 
L 417.228054 312.80125 
" clip-path="url(#pdbc05d76c9)" style="fill: none; stroke: #2ca02c; stroke-width: 1.2; stroke-linejoin: miter"/>
   </g>
   <g id="patch_6">
    <path d="M 133.155327 312.80125 
L 133.155327 72.661571 
L 139.073509 72.661571 
L 139.073509 76.505644 
L 144.99169 76.505644 
L 144.99169 80.349717 
L 150.909872 80.349717 
L 150.909872 84.19379 
L 156.828054 84.19379 
L 156.828054 88.037863 
L 162.746236 88.037863 
L 162.746236 312.80125 
M 168.664418 312.80125 
L 168.664418 95.726008 
L 174.582599 95.726008 
L 174.582599 94.364598 
L 180.500781 94.364598 
L 180.500781 100.12986 
L 186.418963 100.12986 
L 186.418963 107.258227 
L 192.337145 107.258227 
L 192.337145 107.818006 
L 198.255327 107.818006 
L 198.255327 107.320477 
L 204.173509 107.320477 
L 204.173509 107.016373 
L 210.09169 107.016373 
L 210.09169 105.096879 
L 216.009872 105.096879 
L 216.009872 104.427033 
L 221.928054 104.427033 
L 221.928054 103.288911 
L 227.846236 103.288911 
L 227.846236 103.636695 
L 233.764418 103.636695 
L 233.764418 104.473961 
L 239.682599 104.473961 
L 239.682599 106.223527 
L 245.600781 106.223527 
L 245.600781 109.167252 
L 251.518963 109.167252 
L 251.518963 112.965871 
L 257.437145 112.965871 
L 257.437145 117.957794 
L 263.355327 117.957794 
L 263.355327 123.879762 
L 269.273509 123.879762 
L 269.273509 130.061841 
L 275.19169 130.061841 
L 275.19169 134.931839 
L 281.109872 134.931839 
L 281.109872 138.15114 
L 287.028054 138.15114 
L 287.028054 141.227383 
L 292.946236 141.227383 
L 292.946236 143.671477 
L 298.864418 143.671477 
L 298.864418 146.524824 
L 304.782599 146.524824 
L 304.782599 149.034888 
L 310.700781 149.034888 
L 310.700781 151.560563 
L 316.618963 151.560563 
L 316.618963 154.244984 
L 322.537145 154.244984 
L 322.537145 157.381439 
L 328.455327 157.381439 
L 328.455327 161.240925 
L 334.373509 161.240925 
L 334.373509 165.872598 
L 340.29169 165.872598 
L 340.29169 171.102402 
L 346.209872 171.102402 
L 346.209872 175.876411 
L 352.128054 175.876411 
L 352.128054 179.945087 
L 358.046236 179.945087 
L 358.046236 185.217511 
L 363.964418 185.217511 
L 363.964418 192.773868 
L 369.882599 192.773868 
L 369.882599 201.464135 
L 375.800781 201.464135 
L 375.800781 212.17934 
L 381.718963 212.17934 
L 381.718963 223.202442 
L 387.637145 223.202442 
L 387.637145 232.751222 
L 393.555327 232.751222 
L 393.555327 237.459177 
L 399.473509 237.459177 
L 399.473509 248.929145 
L 405.39169 248.929145 
L 405.39169 312.80125 
" clip-path="url(#pdbc05d76c9)" style="fill: none; stroke: #d62728; stroke-width: 1.2; stroke-linejoin: miter"/>
   </g>
   <g id="patch_7">
    <path d="M 91.728054 312.80125 
L 91.728054 39.176911 
L 97.646236 39.176911 
L 97.646236 43.020984 
L 103.564418 43.020984 
L 103.564418 44.943868 
L 109.482599 44.943868 
L 109.482599 44.44634 
L 115.400781 44.44634 
L 115.400781 44.208506 
L 121.318963 44.208506 
L 121.318963 47.370087 
L 127.237145 47.370087 
L 127.237145 48.816917 
L 133.155327 48.816917 
L 133.155327 50.557539 
L 139.073509 50.557539 
L 139.073509 52.191416 
L 144.99169 52.191416 
L 144.99169 54.861867 
L 150.909872 54.861867 
L 150.909872 56.944252 
L 156.828054 56.944252 
L 156.828054 59.109647 
L 162.746236 59.109647 
L 162.746236 61.47426 
L 168.664418 61.47426 
L 168.664418 64.30071 
L 174.582599 64.30071 
L 174.582599 67.094983 
L 180.500781 67.094983 
L 180.500781 70.492465 
L 186.418963 70.492465 
L 186.418963 73.93053 
L 192.337145 73.93053 
L 192.337145 78.233322 
L 198.255327 78.233322 
L 198.255327 82.52416 
L 204.173509 82.52416 
L 204.173509 86.875623 
L 210.09169 86.875623 
L 210.09169 91.371363 
L 216.009872 91.371363 
L 216.009872 96.117637 
L 221.928054 96.117637 
L 221.928054 100.774999 
L 227.846236 100.774999 
L 227.846236 105.829809 
L 233.764418 105.829809 
L 233.764418 110.969496 
L 239.682599 110.969496 
L 239.682599 116.132208 
L 245.600781 116.132208 
L 245.600781 121.007624 
L 251.518963 121.007624 
L 251.518963 126.137756 
L 257.437145 126.137756 
L 257.437145 131.877612 
L 263.355327 131.877612 
L 263.355327 136.70358 
L 269.273509 136.70358 
L 269.273509 139.961941 
L 275.19169 139.961941 
L 275.19169 144.238372 
L 281.109872 144.238372 
L 281.109872 146.252671 
L 287.028054 146.252671 
L 287.028054 147.507092 
L 292.946236 147.507092 
L 292.946236 148.34819 
L 298.864418 148.34819 
L 298.864418 149.200344 
L 304.782599 149.200344 
L 304.782599 150.206032 
L 310.700781 150.206032 
L 310.700781 151.582436 
L 316.618963 151.582436 
L 316.618963 153.632774 
L 322.537145 153.632774 
L 322.537145 156.364 
L 328.455327 156.364 
L 328.455327 159.903643 
L 334.373509 159.903643 
L 334.373509 164.67049 
L 340.29169 164.67049 
L 340.29169 170.169141 
L 346.209872 170.169141 
L 346.209872 174.660014 
L 352.128054 174.660014 
L 352.128054 179.76701 
L 358.046236 179.76701 
L 358.046236 186.938518 
L 363.964418 186.938518 
L 363.964418 196.143729 
L 369.882599 196.143729 
L 369.882599 205.069518 
L 375.800781 205.069518 
L 375.800781 214.388365 
L 381.718963 214.388365 
L 381.718963 222.743279 
L 387.637145 222.743279 
L 387.637145 233.607543 
L 393.555327 233.607543 
L 393.555327 312.80125 
M 405.39169 312.80125 
L 405.39169 252.765657 
L 411.309872 252.765657 
L 411.309872 312.80125 
M 417.228054 312.80125 
L 417.228054 260.453803 
L 423.146236 260.453803 
L 423.146236 312.80125 
" clip-path="url(#pdbc05d76c9)" style="fill: none; stroke: #9467bd; stroke-width: 1.2; stroke-linejoin: miter"/>
   </g>
   <g id="patch_8">
    <path d="M 85.809872 312.80125 
L 85.809872 36.700026 
L 91.728054 36.700026 
L 91.728054 39.813696 
L 97.646236 39.813696 
L 97.646236 44.388172 
L 103.564418 44.388172 
L 103.564418 42.770578 
L 109.482599 42.770578 
L 109.482599 44.949645 
L 115.400781 44.949645 
L 115.400781 45.969808 
L 121.318963 45.969808 
L 121.318963 46.025531 
L 127.237145 46.025531 
L 127.237145 47.735902 
L 133.155327 47.735902 
L 133.155327 50.364622 
L 139.073509 50.364622 
L 139.073509 52.744829 
L 144.99169 52.744829 
L 144.99169 55.398115 
L 150.909872 55.398115 
L 150.909872 56.620424 
L 156.828054 56.620424 
L 156.828054 58.796363 
L 162.746236 58.796363 
L 162.746236 61.493865 
L 168.664418 61.493865 
L 168.664418 64.040391 
L 174.582599 64.040391 
L 174.582599 66.982799 
L 180.500781 66.982799 
L 180.500781 70.4557 
L 186.418963 70.4557 
L 186.418963 73.989316 
L 192.337145 73.989316 
L 192.337145 78.157423 
L 198.255327 78.157423 
L 198.255327 82.356647 
L 204.173509 82.356647 
L 204.173509 86.846001 
L 210.09169 86.846001 
L 210.09169 91.285739 
L 216.009872 91.285739 
L 216.009872 96.040257 
L 221.928054 96.040257 
L 221.928054 100.825763 
L 227.846236 100.825763 
L 227.846236 105.967714 
L 233.764418 105.967714 
L 233.764418 110.949985 
L 239.682599 110.949985 
L 239.682599 116.012945 
L 245.600781 116.012945 
L 245.600781 121.291683 
L 251.518963 121.291683 
L 251.518963 126.894939 
L 257.437145 126.894939 
L 257.437145 131.658968 
L 263.355327 131.658968 
L 263.355327 135.854182 
L 269.273509 135.854182 
L 269.273509 140.021442 
L 275.19169 140.021442 
L 275.19169 143.542328 
L 281.109872 143.542328 
L 281.109872 146.531204 
L 287.028054 146.531204 
L 287.028054 147.047711 
L 292.946236 147.047711 
L 292.946236 147.850529 
L 298.864418 147.850529 
L 298.864418 148.940489 
L 304.782599 148.940489 
L 304.782599 150.256359 
L 310.700781 150.256359 
L 310.700781 151.751188 
L 316.618963 151.751188 
L 316.618963 153.793695 
L 322.537145 153.793695 
L 322.537145 156.52031 
L 328.455327 156.52031 
L 328.455327 160.044618 
L 334.373509 160.044618 
L 334.373509 164.675922 
L 340.29169 164.675922 
L 340.29169 169.860434 
L 346.209872 169.860434 
L 346.209872 174.606332 
L 352.128054 174.606332 
L 352.128054 179.621733 
L 358.046236 179.621733 
L 358.046236 187.188681 
L 363.964418 187.188681 
L 363.964418 196.112118 
L 369.882599 196.112118 
L 369.882599 205.179487 
L 375.800781 205.179487 
L 375.800781 215.30647 
L 381.718963 215.30647 
L 381.718963 222.747361 
L 387.637145 222.747361 
L 387.637145 241.237521 
L 393.555327 241.237521 
L 393.555327 245.081593 
L 399.473509 245.081593 
L 399.473509 243.720183 
L 405.39169 243.720183 
L 405.39169 312.80125 
" clip-path="url(#pdbc05d76c9)" style="fill: none; stroke: #8c564b; stroke-width: 1.2; stroke-linejoin: miter"/>
   </g>
   <g id="patch_9">
    <path d="M 68.055327 312.80125 
L 68.055327 33.658125 
L 73.973509 33.658125 
L 73.973509 312.80125 
M 79.89169 312.80125 
L 79.89169 41.346271 
L 85.809872 41.346271 
L 85.809872 41.906049 
L 91.728054 41.906049 
L 91.728054 39.814236 
L 97.646236 39.814236 
L 97.646236 44.388712 
L 103.564418 44.388712 
L 103.564418 41.284934 
L 109.482599 41.284934 
L 109.482599 44.295596 
L 115.400781 44.295596 
L 115.400781 45.423021 
L 121.318963 45.423021 
L 121.318963 47.204454 
L 127.237145 47.204454 
L 127.237145 49.259226 
L 133.155327 49.259226 
L 133.155327 50.675251 
L 139.073509 50.675251 
L 139.073509 52.323914 
L 144.99169 52.323914 
L 144.99169 55.056267 
L 150.909872 55.056267 
L 150.909872 56.844405 
L 156.828054 56.844405 
L 156.828054 58.952929 
L 162.746236 58.952929 
L 162.746236 61.529517 
L 168.664418 61.529517 
L 168.664418 63.947275 
L 174.582599 63.947275 
L 174.582599 67.05226 
L 180.500781 67.05226 
L 180.500781 70.400086 
L 186.418963 70.400086 
L 186.418963 74.153483 
L 192.337145 74.153483 
L 192.337145 78.349876 
L 198.255327 78.349876 
L 198.255327 82.618258 
L 204.173509 82.618258 
L 204.173509 86.888709 
L 210.09169 86.888709 
L 210.09169 91.493874 
L 216.009872 91.493874 
L 216.009872 95.938078 
L 221.928054 95.938078 
L 221.928054 100.575061 
L 227.846236 100.575061 
L 227.846236 105.459786 
L 233.764418 105.459786 
L 233.764418 111.200175 
L 239.682599 111.200175 
L 239.682599 115.883388 
L 245.600781 115.883388 
L 245.600781 120.960743 
L 251.518963 120.960743 
L 251.518963 126.074929 
L 257.437145 126.074929 
L 257.437145 131.856963 
L 263.355327 131.856963 
L 263.355327 135.777256 
L 269.273509 135.777256 
L 269.273509 140.250375 
L 275.19169 140.250375 
L 275.19169 144.065289 
L 281.109872 144.065289 
L 281.109872 146.777073 
L 287.028054 146.777073 
L 287.028054 147.452706 
L 292.946236 147.452706 
L 292.946236 148.191758 
L 298.864418 148.191758 
L 298.864418 148.947372 
L 304.782599 148.947372 
L 304.782599 150.123109 
L 310.700781 150.123109 
L 310.700781 151.769878 
L 316.618963 151.769878 
L 316.618963 153.829978 
L 322.537145 153.829978 
L 322.537145 156.378699 
L 328.455327 156.378699 
L 328.455327 160.000218 
L 334.373509 160.000218 
L 334.373509 164.683891 
L 340.29169 164.683891 
L 340.29169 169.998165 
L 346.209872 169.998165 
L 346.209872 174.526315 
L 352.128054 174.526315 
L 352.128054 179.545226 
L 358.046236 179.545226 
L 358.046236 187.170997 
L 363.964418 187.170997 
L 363.964418 195.946693 
L 369.882599 195.946693 
L 369.882599 205.233871 
L 375.800781 205.233871 
L 375.800781 214.562227 
L 381.718963 214.562227 
L 381.718963 223.698726 
L 387.637145 223.698726 
L 387.637145 232.017881 
L 393.555327 232.017881 
L 393.555327 312.80125 
" clip-path="url(#pdbc05d76c9)" style="fill: none; stroke: #e377c2; stroke-width: 1.2; stroke-linejoin: miter"/>
   </g>
   <g id="patch_10">
    <path d="M 50.300781 271.798125 
L 50.300781 22.318125 
" style="fill: none; stroke: #000000; stroke-width: 0.8; stroke-linejoin: miter; stroke-linecap: square"/>
   </g>
   <g id="patch_11">
    <path d="M 440.900781 271.798125 
L 440.900781 22.318125 
" style="fill: none; stroke: #000000; stroke-width: 0.8; stroke-linejoin: miter; stroke-linecap: square"/>
   </g>
   <g id="patch_12">
    <path d="M 50.300781 271.798125 
L 440.900781 271.798125 
" style="fill: none; stroke: #000000; stroke-width: 0.8; stroke-linejoin: miter; stroke-linecap: square"/>
   </g>
   <g id="patch_13">
    <path d="M 50.300781 22.318125 
L 440.900781 22.318125 
" style="fill: none; stroke: #000000; stroke-width: 0.8; stroke-linejoin: miter; stroke-linecap: square"/>
   </g>
   <g id="text_19">
    <!-- Positive importance log histogram -->
    <g transform="translate(142.907031 16.318125) scale(0.12 -0.12)">
     <defs>
      <path id="DejaVuSans-33" d="M 1259 4147 
L 1259 2394 
L 2053 2394 
Q 2494 2394 2734 2622 
Q 2975 2850 2975 3272 
Q 2975 3691 2734 3919 
Q 2494 4147 2053 4147 
L 1259 4147 
z
M 628 4666 
L 2053 4666 
Q 2838 4666 3239 4311 
Q 3641 3956 3641 3272 
Q 3641 2581 3239 2228 
Q 2838 1875 2053 1875 
L 1259 1875 
L 1259 0 
L 628 0 
L 628 4666 
z
" transform="scale(0.015625)"/>
      <path id="DejaVuSans-4a" d="M 2906 1791 
Q 2906 2416 2648 2759 
Q 2391 3103 1925 3103 
Q 1463 3103 1205 2759 
Q 947 2416 947 1791 
Q 947 1169 1205 825 
Q 1463 481 1925 481 
Q 2391 481 2648 825 
Q 2906 1169 2906 1791 
z
M 3481 434 
Q 3481 -459 3084 -895 
Q 2688 -1331 1869 -1331 
Q 1566 -1331 1297 -1286 
Q 1028 -1241 775 -1147 
L 775 -588 
Q 1028 -725 1275 -790 
Q 1522 -856 1778 -856 
Q 2344 -856 2625 -561 
Q 2906 -266 2906 331 
L 2906 616 
Q 2728 306 2450 153 
Q 2172 0 1784 0 
Q 1141 0 747 490 
Q 353 981 353 1791 
Q 353 2603 747 3093 
Q 1141 3584 1784 3584 
Q 2172 3584 2450 3431 
Q 2728 3278 2906 2969 
L 2906 3500 
L 3481 3500 
L 3481 434 
z
" transform="scale(0.015625)"/>
      <path id="DejaVuSans-4b" d="M 3513 2113 
L 3513 0 
L 2938 0 
L 2938 2094 
Q 2938 2591 2744 2837 
Q 2550 3084 2163 3084 
Q 1697 3084 1428 2787 
Q 1159 2491 1159 1978 
L 1159 0 
L 581 0 
L 581 4863 
L 1159 4863 
L 1159 2956 
Q 1366 3272 1645 3428 
Q 1925 3584 2291 3584 
Q 2894 3584 3203 3211 
Q 3513 2838 3513 2113 
z
" transform="scale(0.015625)"/>
     </defs>
     <use xlink:href="#DejaVuSans-33"/>
     <use xlink:href="#DejaVuSans-52" transform="translate(56.734375 0)"/>
     <use xlink:href="#DejaVuSans-56" transform="translate(117.921875 0)"/>
     <use xlink:href="#DejaVuSans-4c" transform="translate(170.015625 0)"/>
     <use xlink:href="#DejaVuSans-57" transform="translate(197.796875 0)"/>
     <use xlink:href="#DejaVuSans-4c" transform="translate(237 0)"/>
     <use xlink:href="#DejaVuSans-59" transform="translate(264.78125 0)"/>
     <use xlink:href="#DejaVuSans-48" transform="translate(323.96875 0)"/>
     <use xlink:href="#DejaVuSans-3" transform="translate(385.5 0)"/>
     <use xlink:href="#DejaVuSans-4c" transform="translate(417.28125 0)"/>
     <use xlink:href="#DejaVuSans-50" transform="translate(445.0625 0)"/>
     <use xlink:href="#DejaVuSans-53" transform="translate(542.46875 0)"/>
     <use xlink:href="#DejaVuSans-52" transform="translate(605.953125 0)"/>
     <use xlink:href="#DejaVuSans-55" transform="translate(667.140625 0)"/>
     <use xlink:href="#DejaVuSans-57" transform="translate(708.25 0)"/>
     <use xlink:href="#DejaVuSans-44" transform="translate(747.453125 0)"/>
     <use xlink:href="#DejaVuSans-51" transform="translate(808.734375 0)"/>
     <use xlink:href="#DejaVuSans-46" transform="translate(872.109375 0)"/>
     <use xlink:href="#DejaVuSans-48" transform="translate(927.09375 0)"/>
     <use xlink:href="#DejaVuSans-3" transform="translate(988.625 0)"/>
     <use xlink:href="#DejaVuSans-4f" transform="translate(1020.40625 0)"/>
     <use xlink:href="#DejaVuSans-52" transform="translate(1048.1875 0)"/>
     <use xlink:href="#DejaVuSans-4a" transform="translate(1109.375 0)"/>
     <use xlink:href="#DejaVuSans-3" transform="translate(1172.859375 0)"/>
     <use xlink:href="#DejaVuSans-4b" transform="translate(1204.640625 0)"/>
     <use xlink:href="#DejaVuSans-4c" transform="translate(1268.015625 0)"/>
     <use xlink:href="#DejaVuSans-56" transform="translate(1295.796875 0)"/>
     <use xlink:href="#DejaVuSans-57" transform="translate(1347.890625 0)"/>
     <use xlink:href="#DejaVuSans-52" transform="translate(1387.09375 0)"/>
     <use xlink:href="#DejaVuSans-4a" transform="translate(1448.28125 0)"/>
     <use xlink:href="#DejaVuSans-55" transform="translate(1511.765625 0)"/>
     <use xlink:href="#DejaVuSans-44" transform="translate(1552.875 0)"/>
     <use xlink:href="#DejaVuSans-50" transform="translate(1614.15625 0)"/>
    </g>
   </g>
   <g id="legend_1">
    <g id="patch_14">
     <path d="M 356.742188 101.421953 
L 436.000781 101.421953 
Q 437.400781 101.421953 437.400781 100.021953 
L 437.400781 27.218125 
Q 437.400781 25.818125 436.000781 25.818125 
L 356.742188 25.818125 
Q 355.342188 25.818125 355.342188 27.218125 
L 355.342188 100.021953 
Q 355.342188 101.421953 356.742188 101.421953 
z
" style="fill: #ffffff; opacity: 0.8; stroke: #cccccc; stroke-linejoin: miter"/>
    </g>
    <g id="patch_15">
     <path d="M 358.142188 33.937031 
L 372.142188 33.937031 
L 372.142188 29.037031 
L 358.142188 29.037031 
L 358.142188 33.937031 
z
" style="fill: none; stroke: #1f77b4; stroke-width: 1.2; stroke-linejoin: miter"/>
    </g>
    <g id="text_20">
     <!-- pretrain -->
     <g transform="translate(377.742188 33.937031) scale(0.07 -0.07)">
      <use xlink:href="#DejaVuSans-53"/>
      <use xlink:href="#DejaVuSans-55" transform="translate(63.484375 0)"/>
      <use xlink:href="#DejaVuSans-48" transform="translate(102.390625 0)"/>
      <use xlink:href="#DejaVuSans-57" transform="translate(163.921875 0)"/>
      <use xlink:href="#DejaVuSans-55" transform="translate(203.125 0)"/>
      <use xlink:href="#DejaVuSans-44" transform="translate(244.234375 0)"/>
      <use xlink:href="#DejaVuSans-4c" transform="translate(305.515625 0)"/>
      <use xlink:href="#DejaVuSans-51" transform="translate(333.296875 0)"/>
     </g>
    </g>
    <g id="patch_16">
     <path d="M 358.142188 44.437578 
L 372.142188 44.437578 
L 372.142188 39.537578 
L 358.142188 39.537578 
L 358.142188 44.437578 
z
" style="fill: none; stroke: #ff7f0e; stroke-width: 1.2; stroke-linejoin: miter"/>
    </g>
    <g id="text_21">
     <!-- direct-1234 -->
     <g transform="translate(377.742188 44.437578) scale(0.07 -0.07)">
      <defs>
       <path id="DejaVuSans-10" d="M 313 2009 
L 1997 2009 
L 1997 1497 
L 313 1497 
L 313 2009 
z
" transform="scale(0.015625)"/>
      </defs>
      <use xlink:href="#DejaVuSans-47"/>
      <use xlink:href="#DejaVuSans-4c" transform="translate(63.484375 0)"/>
      <use xlink:href="#DejaVuSans-55" transform="translate(91.265625 0)"/>
      <use xlink:href="#DejaVuSans-48" transform="translate(130.171875 0)"/>
      <use xlink:href="#DejaVuSans-46" transform="translate(191.703125 0)"/>
      <use xlink:href="#DejaVuSans-57" transform="translate(246.6875 0)"/>
      <use xlink:href="#DejaVuSans-10" transform="translate(285.890625 0)"/>
      <use xlink:href="#DejaVuSans-14" transform="translate(321.96875 0)"/>
      <use xlink:href="#DejaVuSans-15" transform="translate(385.59375 0)"/>
      <use xlink:href="#DejaVuSans-16" transform="translate(449.21875 0)"/>
      <use xlink:href="#DejaVuSans-17" transform="translate(512.84375 0)"/>
     </g>
    </g>
    <g id="patch_17">
     <path d="M 358.142188 54.938125 
L 372.142188 54.938125 
L 372.142188 50.038125 
L 358.142188 50.038125 
L 358.142188 54.938125 
z
" style="fill: none; stroke: #2ca02c; stroke-width: 1.2; stroke-linejoin: miter"/>
    </g>
    <g id="text_22">
     <!-- direct-1337 -->
     <g transform="translate(377.742188 54.938125) scale(0.07 -0.07)">
      <use xlink:href="#DejaVuSans-47"/>
      <use xlink:href="#DejaVuSans-4c" transform="translate(63.484375 0)"/>
      <use xlink:href="#DejaVuSans-55" transform="translate(91.265625 0)"/>
      <use xlink:href="#DejaVuSans-48" transform="translate(130.171875 0)"/>
      <use xlink:href="#DejaVuSans-46" transform="translate(191.703125 0)"/>
      <use xlink:href="#DejaVuSans-57" transform="translate(246.6875 0)"/>
      <use xlink:href="#DejaVuSans-10" transform="translate(285.890625 0)"/>
      <use xlink:href="#DejaVuSans-14" transform="translate(321.96875 0)"/>
      <use xlink:href="#DejaVuSans-16" transform="translate(385.59375 0)"/>
      <use xlink:href="#DejaVuSans-16" transform="translate(449.21875 0)"/>
      <use xlink:href="#DejaVuSans-1a" transform="translate(512.84375 0)"/>
     </g>
    </g>
    <g id="patch_18">
     <path d="M 358.142188 65.438672 
L 372.142188 65.438672 
L 372.142188 60.538672 
L 358.142188 60.538672 
L 358.142188 65.438672 
z
" style="fill: none; stroke: #d62728; stroke-width: 1.2; stroke-linejoin: miter"/>
    </g>
    <g id="text_23">
     <!-- direct-2027 -->
     <g transform="translate(377.742188 65.438672) scale(0.07 -0.07)">
      <use xlink:href="#DejaVuSans-47"/>
      <use xlink:href="#DejaVuSans-4c" transform="translate(63.484375 0)"/>
      <use xlink:href="#DejaVuSans-55" transform="translate(91.265625 0)"/>
      <use xlink:href="#DejaVuSans-48" transform="translate(130.171875 0)"/>
      <use xlink:href="#DejaVuSans-46" transform="translate(191.703125 0)"/>
      <use xlink:href="#DejaVuSans-57" transform="translate(246.6875 0)"/>
      <use xlink:href="#DejaVuSans-10" transform="translate(285.890625 0)"/>
      <use xlink:href="#DejaVuSans-15" transform="translate(321.96875 0)"/>
      <use xlink:href="#DejaVuSans-13" transform="translate(385.59375 0)"/>
      <use xlink:href="#DejaVuSans-15" transform="translate(449.21875 0)"/>
      <use xlink:href="#DejaVuSans-1a" transform="translate(512.84375 0)"/>
     </g>
    </g>
    <g id="patch_19">
     <path d="M 358.142188 75.939219 
L 372.142188 75.939219 
L 372.142188 71.039219 
L 358.142188 71.039219 
L 358.142188 75.939219 
z
" style="fill: none; stroke: #9467bd; stroke-width: 1.2; stroke-linejoin: miter"/>
    </g>
    <g id="text_24">
     <!-- pretrained-1234 -->
     <g transform="translate(377.742188 75.939219) scale(0.07 -0.07)">
      <use xlink:href="#DejaVuSans-53"/>
      <use xlink:href="#DejaVuSans-55" transform="translate(63.484375 0)"/>
      <use xlink:href="#DejaVuSans-48" transform="translate(102.390625 0)"/>
      <use xlink:href="#DejaVuSans-57" transform="translate(163.921875 0)"/>
      <use xlink:href="#DejaVuSans-55" transform="translate(203.125 0)"/>
      <use xlink:href="#DejaVuSans-44" transform="translate(244.234375 0)"/>
      <use xlink:href="#DejaVuSans-4c" transform="translate(305.515625 0)"/>
      <use xlink:href="#DejaVuSans-51" transform="translate(333.296875 0)"/>
      <use xlink:href="#DejaVuSans-48" transform="translate(396.671875 0)"/>
      <use xlink:href="#DejaVuSans-47" transform="translate(458.203125 0)"/>
      <use xlink:href="#DejaVuSans-10" transform="translate(521.6875 0)"/>
      <use xlink:href="#DejaVuSans-14" transform="translate(557.765625 0)"/>
      <use xlink:href="#DejaVuSans-15" transform="translate(621.390625 0)"/>
      <use xlink:href="#DejaVuSans-16" transform="translate(685.015625 0)"/>
      <use xlink:href="#DejaVuSans-17" transform="translate(748.640625 0)"/>
     </g>
    </g>
    <g id="patch_20">
     <path d="M 358.142188 86.439766 
L 372.142188 86.439766 
L 372.142188 81.539766 
L 358.142188 81.539766 
L 358.142188 86.439766 
z
" style="fill: none; stroke: #8c564b; stroke-width: 1.2; stroke-linejoin: miter"/>
    </g>
    <g id="text_25">
     <!-- pretrained-1337 -->
     <g transform="translate(377.742188 86.439766) scale(0.07 -0.07)">
      <use xlink:href="#DejaVuSans-53"/>
      <use xlink:href="#DejaVuSans-55" transform="translate(63.484375 0)"/>
      <use xlink:href="#DejaVuSans-48" transform="translate(102.390625 0)"/>
      <use xlink:href="#DejaVuSans-57" transform="translate(163.921875 0)"/>
      <use xlink:href="#DejaVuSans-55" transform="translate(203.125 0)"/>
      <use xlink:href="#DejaVuSans-44" transform="translate(244.234375 0)"/>
      <use xlink:href="#DejaVuSans-4c" transform="translate(305.515625 0)"/>
      <use xlink:href="#DejaVuSans-51" transform="translate(333.296875 0)"/>
      <use xlink:href="#DejaVuSans-48" transform="translate(396.671875 0)"/>
      <use xlink:href="#DejaVuSans-47" transform="translate(458.203125 0)"/>
      <use xlink:href="#DejaVuSans-10" transform="translate(521.6875 0)"/>
      <use xlink:href="#DejaVuSans-14" transform="translate(557.765625 0)"/>
      <use xlink:href="#DejaVuSans-16" transform="translate(621.390625 0)"/>
      <use xlink:href="#DejaVuSans-16" transform="translate(685.015625 0)"/>
      <use xlink:href="#DejaVuSans-1a" transform="translate(748.640625 0)"/>
     </g>
    </g>
    <g id="patch_21">
     <path d="M 358.142188 96.940312 
L 372.142188 96.940312 
L 372.142188 92.040312 
L 358.142188 92.040312 
L 358.142188 96.940312 
z
" style="fill: none; stroke: #e377c2; stroke-width: 1.2; stroke-linejoin: miter"/>
    </g>
    <g id="text_26">
     <!-- pretrained-2027 -->
     <g transform="translate(377.742188 96.940312) scale(0.07 -0.07)">
      <use xlink:href="#DejaVuSans-53"/>
      <use xlink:href="#DejaVuSans-55" transform="translate(63.484375 0)"/>
      <use xlink:href="#DejaVuSans-48" transform="translate(102.390625 0)"/>
      <use xlink:href="#DejaVuSans-57" transform="translate(163.921875 0)"/>
      <use xlink:href="#DejaVuSans-55" transform="translate(203.125 0)"/>
      <use xlink:href="#DejaVuSans-44" transform="translate(244.234375 0)"/>
      <use xlink:href="#DejaVuSans-4c" transform="translate(305.515625 0)"/>
      <use xlink:href="#DejaVuSans-51" transform="translate(333.296875 0)"/>
      <use xlink:href="#DejaVuSans-48" transform="translate(396.671875 0)"/>
      <use xlink:href="#DejaVuSans-47" transform="translate(458.203125 0)"/>
      <use xlink:href="#DejaVuSans-10" transform="translate(521.6875 0)"/>
      <use xlink:href="#DejaVuSans-15" transform="translate(557.765625 0)"/>
      <use xlink:href="#DejaVuSans-13" transform="translate(621.390625 0)"/>
      <use xlink:href="#DejaVuSans-15" transform="translate(685.015625 0)"/>
      <use xlink:href="#DejaVuSans-1a" transform="translate(748.640625 0)"/>
     </g>
    </g>
   </g>
  </g>
 </g>
 <defs>
  <clipPath id="pdbc05d76c9">
   <rect x="50.300781" y="22.318125" width="390.6" height="249.48"/>
  </clipPath>
 </defs>
</svg>
