<?xml version="1.0" encoding="utf-8" standalone="no"?>
<!DOCTYPE svg PUBLIC "-//W3C//DTD SVG 1.1//EN"
  "http://www.w3.org/Graphics/SVG/1.1/DTD/svg11.dtd">
<svg xmlns:xlink="http://www.w3.org/1999/xlink" width="449.5pt" height="311.80125pt" viewBox="0 0 449.5 311.80125" xmlns="http://www.w3.org/2000/svg" version="1.1">
 <metadata>
  <rdf:RDF xmlns:dc="http://purl.org/dc/elements/1.1/" xmlns:cc="http://creativecommons.org/ns#" xmlns:rdf="http://www.w3.org/1999/02/22-rdf-syntax-ns#">
   <cc:Work>
    <dc:type rdf:resource="http://purl.org/dc/dcmitype/StillImage"/>
    <dc:format>image/svg+xml</dc:format>
    <dc:creator>
     <cc:Agent>
      <dc:title>param_importance_nlp.analysis.reporting</dc:title>
     </cc:Agent>
    </dc:creator>
   </cc:Work>
  </rdf:RDF>
 </metadata>
 <defs>
  <style type="text/css">*{stroke-linejoin: round; stroke-linecap: butt}</style>
 </defs>
 <g id="figure_1">
  <g id="patch_1">
   <path d="M 0 311.80125 
L 449.5 311.80125 
L 449.5 0 
L 0 0 
z
" style="fill: #ffffff"/>
  </g>
  <g id="axes_1">
   <g id="patch_2">
    <path d="M 51.7 271.798125 
L 442.3 271.798125 
L 442.3 22.318125 
L 51.7 22.318125 
z
" style="fill: #ffffff"/>
   </g>
   <g id="matplotlib.axis_1">
    <g id="xtick_1">
     <g id="line2d_1">
      <defs>
       <path id="ma1647659f6" d="M 0 0 
L 0 3.5 
" style="stroke: #000000; stroke-width: 0.8"/>
      </defs>
      <g>
       <use xlink:href="#ma1647659f6" x="54.970805" y="271.798125" style="stroke: #000000; stroke-width: 0.8"/>
      </g>
     </g>
     <g id="text_1">
      <!-- $\mathdefault{10^{-27}}$ -->
      <g transform="translate(41.020805 288.198125) scale(0.1 -0.1)">
       <defs>
        <path id="DejaVuSans-14" d="M 794 531 
L 1825 531 
L 1825 4091 
L 703 3866 
L 703 4441 
L 1819 4666 
L 2450 4666 
L 2450 531 
L 3481 531 
L 3481 0 
L 794 0 
L 794 531 
z
" transform="scale(0.015625)"/>
        <path id="DejaVuSans-13" d="M 2034 4250 
Q 1547 4250 1301 3770 
Q 1056 3291 1056 2328 
Q 1056 1369 1301 889 
Q 1547 409 2034 409 
Q 2525 409 2770 889 
Q 3016 1369 3016 2328 
Q 3016 3291 2770 3770 
Q 2525 4250 2034 4250 
z
M 2034 4750 
Q 2819 4750 3233 4129 
Q 3647 3509 3647 2328 
Q 3647 1150 3233 529 
Q 2819 -91 2034 -91 
Q 1250 -91 836 529 
Q 422 1150 422 2328 
Q 422 3509 836 4129 
Q 1250 4750 2034 4750 
z
" transform="scale(0.015625)"/>
        <path id="DejaVuSans-c9c" d="M 678 2272 
L 4684 2272 
L 4684 1741 
L 678 1741 
L 678 2272 
z
" transform="scale(0.015625)"/>
        <path id="DejaVuSans-15" d="M 1228 531 
L 3431 531 
L 3431 0 
L 469 0 
L 469 531 
Q 828 903 1448 1529 
Q 2069 2156 2228 2338 
Q 2531 2678 2651 2914 
Q 2772 3150 2772 3378 
Q 2772 3750 2511 3984 
Q 2250 4219 1831 4219 
Q 1534 4219 1204 4116 
Q 875 4013 500 3803 
L 500 4441 
Q 881 4594 1212 4672 
Q 1544 4750 1819 4750 
Q 2544 4750 2975 4387 
Q 3406 4025 3406 3419 
Q 3406 3131 3298 2873 
Q 3191 2616 2906 2266 
Q 2828 2175 2409 1742 
Q 1991 1309 1228 531 
z
" transform="scale(0.015625)"/>
        <path id="DejaVuSans-1a" d="M 525 4666 
L 3525 4666 
L 3525 4397 
L 1831 0 
L 1172 0 
L 2766 4134 
L 525 4134 
L 525 4666 
z
" transform="scale(0.015625)"/>
       </defs>
       <use xlink:href="#DejaVuSans-14" transform="translate(0 0.746875)"/>
       <use xlink:href="#DejaVuSans-13" transform="translate(63.623047 0.746875)"/>
       <use xlink:href="#DejaVuSans-c9c" transform="translate(128.203125 42.046875) scale(0.7)"/>
       <use xlink:href="#DejaVuSans-15" transform="translate(186.855469 42.046875) scale(0.7)"/>
       <use xlink:href="#DejaVuSans-1a" transform="translate(231.391602 42.046875) scale(0.7)"/>
      </g>
     </g>
    </g>
    <g id="xtick_2">
     <g id="line2d_2">
      <g>
       <use xlink:href="#ma1647659f6" x="105.361489" y="271.798125" style="stroke: #000000; stroke-width: 0.8"/>
      </g>
     </g>
     <g id="text_2">
      <!-- $\mathdefault{10^{-24}}$ -->
      <g transform="translate(91.411489 288.198125) scale(0.1 -0.1)">
       <defs>
        <path id="DejaVuSans-17" d="M 2419 4116 
L 825 1625 
L 2419 1625 
L 2419 4116 
z
M 2253 4666 
L 3047 4666 
L 3047 1625 
L 3713 1625 
L 3713 1100 
L 3047 1100 
L 3047 0 
L 2419 0 
L 2419 1100 
L 313 1100 
L 313 1709 
L 2253 4666 
z
" transform="scale(0.015625)"/>
       </defs>
       <use xlink:href="#DejaVuSans-14" transform="translate(0 0.746875)"/>
       <use xlink:href="#DejaVuSans-13" transform="translate(63.623047 0.746875)"/>
       <use xlink:href="#DejaVuSans-c9c" transform="translate(128.203125 42.046875) scale(0.7)"/>
       <use xlink:href="#DejaVuSans-15" transform="translate(186.855469 42.046875) scale(0.7)"/>
       <use xlink:href="#DejaVuSans-17" transform="translate(231.391602 42.046875) scale(0.7)"/>
      </g>
     </g>
    </g>
    <g id="xtick_3">
     <g id="line2d_3">
      <g>
       <use xlink:href="#ma1647659f6" x="155.752173" y="271.798125" style="stroke: #000000; stroke-width: 0.8"/>
      </g>
     </g>
     <g id="text_3">
      <!-- $\mathdefault{10^{-21}}$ -->
      <g transform="translate(141.802173 288.198125) scale(0.1 -0.1)">
       <use xlink:href="#DejaVuSans-14" transform="translate(0 0.746875)"/>
       <use xlink:href="#DejaVuSans-13" transform="translate(63.623047 0.746875)"/>
       <use xlink:href="#DejaVuSans-c9c" transform="translate(128.203125 42.046875) scale(0.7)"/>
       <use xlink:href="#DejaVuSans-15" transform="translate(186.855469 42.046875) scale(0.7)"/>
       <use xlink:href="#DejaVuSans-14" transform="translate(231.391602 42.046875) scale(0.7)"/>
      </g>
     </g>
    </g>
    <g id="xtick_4">
     <g id="line2d_4">
      <g>
       <use xlink:href="#ma1647659f6" x="206.142857" y="271.798125" style="stroke: #000000; stroke-width: 0.8"/>
      </g>
     </g>
     <g id="text_4">
      <!-- $\mathdefault{10^{-18}}$ -->
      <g transform="translate(192.192857 288.198125) scale(0.1 -0.1)">
       <defs>
        <path id="DejaVuSans-1b" d="M 2034 2216 
Q 1584 2216 1326 1975 
Q 1069 1734 1069 1313 
Q 1069 891 1326 650 
Q 1584 409 2034 409 
Q 2484 409 2743 651 
Q 3003 894 3003 1313 
Q 3003 1734 2745 1975 
Q 2488 2216 2034 2216 
z
M 1403 2484 
Q 997 2584 770 2862 
Q 544 3141 544 3541 
Q 544 4100 942 4425 
Q 1341 4750 2034 4750 
Q 2731 4750 3128 4425 
Q 3525 4100 3525 3541 
Q 3525 3141 3298 2862 
Q 3072 2584 2669 2484 
Q 3125 2378 3379 2068 
Q 3634 1759 3634 1313 
Q 3634 634 3220 271 
Q 2806 -91 2034 -91 
Q 1263 -91 848 271 
Q 434 634 434 1313 
Q 434 1759 690 2068 
Q 947 2378 1403 2484 
z
M 1172 3481 
Q 1172 3119 1398 2916 
Q 1625 2713 2034 2713 
Q 2441 2713 2670 2916 
Q 2900 3119 2900 3481 
Q 2900 3844 2670 4047 
Q 2441 4250 2034 4250 
Q 1625 4250 1398 4047 
Q 1172 3844 1172 3481 
z
" transform="scale(0.015625)"/>
       </defs>
       <use xlink:href="#DejaVuSans-14" transform="translate(0 0.746875)"/>
       <use xlink:href="#DejaVuSans-13" transform="translate(63.623047 0.746875)"/>
       <use xlink:href="#DejaVuSans-c9c" transform="translate(128.203125 42.046875) scale(0.7)"/>
       <use xlink:href="#DejaVuSans-14" transform="translate(186.855469 42.046875) scale(0.7)"/>
       <use xlink:href="#DejaVuSans-1b" transform="translate(231.391602 42.046875) scale(0.7)"/>
      </g>
     </g>
    </g>
    <g id="xtick_5">
     <g id="line2d_5">
      <g>
       <use xlink:href="#ma1647659f6" x="256.533541" y="271.798125" style="stroke: #000000; stroke-width: 0.8"/>
      </g>
     </g>
     <g id="text_5">
      <!-- $\mathdefault{10^{-15}}$ -->
      <g transform="translate(242.583541 288.098125) scale(0.1 -0.1)">
       <defs>
        <path id="DejaVuSans-18" d="M 691 4666 
L 3169 4666 
L 3169 4134 
L 1269 4134 
L 1269 2991 
Q 1406 3038 1543 3061 
Q 1681 3084 1819 3084 
Q 2600 3084 3056 2656 
Q 3513 2228 3513 1497 
Q 3513 744 3044 326 
Q 2575 -91 1722 -91 
Q 1428 -91 1123 -41 
Q 819 9 494 109 
L 494 744 
Q 775 591 1075 516 
Q 1375 441 1709 441 
Q 2250 441 2565 725 
Q 2881 1009 2881 1497 
Q 2881 1984 2565 2268 
Q 2250 2553 1709 2553 
Q 1456 2553 1204 2497 
Q 953 2441 691 2322 
L 691 4666 
z
" transform="scale(0.015625)"/>
       </defs>
       <use xlink:href="#DejaVuSans-14" transform="translate(0 0.665625)"/>
       <use xlink:href="#DejaVuSans-13" transform="translate(63.623047 0.665625)"/>
       <use xlink:href="#DejaVuSans-c9c" transform="translate(128.203125 41.965625) scale(0.7)"/>
       <use xlink:href="#DejaVuSans-14" transform="translate(186.855469 41.965625) scale(0.7)"/>
       <use xlink:href="#DejaVuSans-18" transform="translate(231.391602 41.965625) scale(0.7)"/>
      </g>
     </g>
    </g>
    <g id="xtick_6">
     <g id="line2d_6">
      <g>
       <use xlink:href="#ma1647659f6" x="306.924225" y="271.798125" style="stroke: #000000; stroke-width: 0.8"/>
      </g>
     </g>
     <g id="text_6">
      <!-- $\mathdefault{10^{-12}}$ -->
      <g transform="translate(292.974225 288.198125) scale(0.1 -0.1)">
       <use xlink:href="#DejaVuSans-14" transform="translate(0 0.746875)"/>
       <use xlink:href="#DejaVuSans-13" transform="translate(63.623047 0.746875)"/>
       <use xlink:href="#DejaVuSans-c9c" transform="translate(128.203125 42.046875) scale(0.7)"/>
       <use xlink:href="#DejaVuSans-14" transform="translate(186.855469 42.046875) scale(0.7)"/>
       <use xlink:href="#DejaVuSans-15" transform="translate(231.391602 42.046875) scale(0.7)"/>
      </g>
     </g>
    </g>
    <g id="xtick_7">
     <g id="line2d_7">
      <g>
       <use xlink:href="#ma1647659f6" x="357.314909" y="271.798125" style="stroke: #000000; stroke-width: 0.8"/>
      </g>
     </g>
     <g id="text_7">
      <!-- $\mathdefault{10^{-9}}$ -->
      <g transform="translate(345.564909 288.198125) scale(0.1 -0.1)">
       <defs>
        <path id="DejaVuSans-1c" d="M 703 97 
L 703 672 
Q 941 559 1184 500 
Q 1428 441 1663 441 
Q 2288 441 2617 861 
Q 2947 1281 2994 2138 
Q 2813 1869 2534 1725 
Q 2256 1581 1919 1581 
Q 1219 1581 811 2004 
Q 403 2428 403 3163 
Q 403 3881 828 4315 
Q 1253 4750 1959 4750 
Q 2769 4750 3195 4129 
Q 3622 3509 3622 2328 
Q 3622 1225 3098 567 
Q 2575 -91 1691 -91 
Q 1453 -91 1209 -44 
Q 966 3 703 97 
z
M 1959 2075 
Q 2384 2075 2632 2365 
Q 2881 2656 2881 3163 
Q 2881 3666 2632 3958 
Q 2384 4250 1959 4250 
Q 1534 4250 1286 3958 
Q 1038 3666 1038 3163 
Q 1038 2656 1286 2365 
Q 1534 2075 1959 2075 
z
" transform="scale(0.015625)"/>
       </defs>
       <use xlink:href="#DejaVuSans-14" transform="translate(0 0.746875)"/>
       <use xlink:href="#DejaVuSans-13" transform="translate(63.623047 0.746875)"/>
       <use xlink:href="#DejaVuSans-c9c" transform="translate(128.203125 42.046875) scale(0.7)"/>
       <use xlink:href="#DejaVuSans-1c" transform="translate(186.855469 42.046875) scale(0.7)"/>
      </g>
     </g>
    </g>
    <g id="xtick_8">
     <g id="line2d_8">
      <g>
       <use xlink:href="#ma1647659f6" x="407.705593" y="271.798125" style="stroke: #000000; stroke-width: 0.8"/>
      </g>
     </g>
     <g id="text_8">
      <!-- $\mathdefault{10^{-6}}$ -->
      <g transform="translate(395.955593 288.198125) scale(0.1 -0.1)">
       <defs>
        <path id="DejaVuSans-19" d="M 2113 2584 
Q 1688 2584 1439 2293 
Q 1191 2003 1191 1497 
Q 1191 994 1439 701 
Q 1688 409 2113 409 
Q 2538 409 2786 701 
Q 3034 994 3034 1497 
Q 3034 2003 2786 2293 
Q 2538 2584 2113 2584 
z
M 3366 4563 
L 3366 3988 
Q 3128 4100 2886 4159 
Q 2644 4219 2406 4219 
Q 1781 4219 1451 3797 
Q 1122 3375 1075 2522 
Q 1259 2794 1537 2939 
Q 1816 3084 2150 3084 
Q 2853 3084 3261 2657 
Q 3669 2231 3669 1497 
Q 3669 778 3244 343 
Q 2819 -91 2113 -91 
Q 1303 -91 875 529 
Q 447 1150 447 2328 
Q 447 3434 972 4092 
Q 1497 4750 2381 4750 
Q 2619 4750 2861 4703 
Q 3103 4656 3366 4563 
z
" transform="scale(0.015625)"/>
       </defs>
       <use xlink:href="#DejaVuSans-14" transform="translate(0 0.746875)"/>
       <use xlink:href="#DejaVuSans-13" transform="translate(63.623047 0.746875)"/>
       <use xlink:href="#DejaVuSans-c9c" transform="translate(128.203125 42.046875) scale(0.7)"/>
       <use xlink:href="#DejaVuSans-19" transform="translate(186.855469 42.046875) scale(0.7)"/>
      </g>
     </g>
    </g>
    <g id="text_9">
     <!-- positive importance (sampled) -->
     <g transform="translate(170.3875 302.198906) scale(0.1 -0.1)">
      <defs>
       <path id="DejaVuSans-53" d="M 1159 525 
L 1159 -1331 
L 581 -1331 
L 581 3500 
L 1159 3500 
L 1159 2969 
Q 1341 3281 1617 3432 
Q 1894 3584 2278 3584 
Q 2916 3584 3314 3078 
Q 3713 2572 3713 1747 
Q 3713 922 3314 415 
Q 2916 -91 2278 -91 
Q 1894 -91 1617 61 
Q 1341 213 1159 525 
z
M 3116 1747 
Q 3116 2381 2855 2742 
Q 2594 3103 2138 3103 
Q 1681 3103 1420 2742 
Q 1159 2381 1159 1747 
Q 1159 1113 1420 752 
Q 1681 391 2138 391 
Q 2594 391 2855 752 
Q 3116 1113 3116 1747 
z
" transform="scale(0.015625)"/>
       <path id="DejaVuSans-52" d="M 1959 3097 
Q 1497 3097 1228 2736 
Q 959 2375 959 1747 
Q 959 1119 1226 758 
Q 1494 397 1959 397 
Q 2419 397 2687 759 
Q 2956 1122 2956 1747 
Q 2956 2369 2687 2733 
Q 2419 3097 1959 3097 
z
M 1959 3584 
Q 2709 3584 3137 3096 
Q 3566 2609 3566 1747 
Q 3566 888 3137 398 
Q 2709 -91 1959 -91 
Q 1206 -91 779 398 
Q 353 888 353 1747 
Q 353 2609 779 3096 
Q 1206 3584 1959 3584 
z
" transform="scale(0.015625)"/>
       <path id="DejaVuSans-56" d="M 2834 3397 
L 2834 2853 
Q 2591 2978 2328 3040 
Q 2066 3103 1784 3103 
Q 1356 3103 1142 2972 
Q 928 2841 928 2578 
Q 928 2378 1081 2264 
Q 1234 2150 1697 2047 
L 1894 2003 
Q 2506 1872 2764 1633 
Q 3022 1394 3022 966 
Q 3022 478 2636 193 
Q 2250 -91 1575 -91 
Q 1294 -91 989 -36 
Q 684 19 347 128 
L 347 722 
Q 666 556 975 473 
Q 1284 391 1588 391 
Q 1994 391 2212 530 
Q 2431 669 2431 922 
Q 2431 1156 2273 1281 
Q 2116 1406 1581 1522 
L 1381 1569 
Q 847 1681 609 1914 
Q 372 2147 372 2553 
Q 372 3047 722 3315 
Q 1072 3584 1716 3584 
Q 2034 3584 2315 3537 
Q 2597 3491 2834 3397 
z
" transform="scale(0.015625)"/>
       <path id="DejaVuSans-4c" d="M 603 3500 
L 1178 3500 
L 1178 0 
L 603 0 
L 603 3500 
z
M 603 4863 
L 1178 4863 
L 1178 4134 
L 603 4134 
L 603 4863 
z
" transform="scale(0.015625)"/>
       <path id="DejaVuSans-57" d="M 1172 4494 
L 1172 3500 
L 2356 3500 
L 2356 3053 
L 1172 3053 
L 1172 1153 
Q 1172 725 1289 603 
Q 1406 481 1766 481 
L 2356 481 
L 2356 0 
L 1766 0 
Q 1100 0 847 248 
Q 594 497 594 1153 
L 594 3053 
L 172 3053 
L 172 3500 
L 594 3500 
L 594 4494 
L 1172 4494 
z
" transform="scale(0.015625)"/>
       <path id="DejaVuSans-59" d="M 191 3500 
L 800 3500 
L 1894 563 
L 2988 3500 
L 3597 3500 
L 2284 0 
L 1503 0 
L 191 3500 
z
" transform="scale(0.015625)"/>
       <path id="DejaVuSans-48" d="M 3597 1894 
L 3597 1613 
L 953 1613 
Q 991 1019 1311 708 
Q 1631 397 2203 397 
Q 2534 397 2845 478 
Q 3156 559 3463 722 
L 3463 178 
Q 3153 47 2828 -22 
Q 2503 -91 2169 -91 
Q 1331 -91 842 396 
Q 353 884 353 1716 
Q 353 2575 817 3079 
Q 1281 3584 2069 3584 
Q 2775 3584 3186 3129 
Q 3597 2675 3597 1894 
z
M 3022 2063 
Q 3016 2534 2758 2815 
Q 2500 3097 2075 3097 
Q 1594 3097 1305 2825 
Q 1016 2553 972 2059 
L 3022 2063 
z
" transform="scale(0.015625)"/>
       <path id="DejaVuSans-3" transform="scale(0.015625)"/>
       <path id="DejaVuSans-50" d="M 3328 2828 
Q 3544 3216 3844 3400 
Q 4144 3584 4550 3584 
Q 5097 3584 5394 3201 
Q 5691 2819 5691 2113 
L 5691 0 
L 5113 0 
L 5113 2094 
Q 5113 2597 4934 2840 
Q 4756 3084 4391 3084 
Q 3944 3084 3684 2787 
Q 3425 2491 3425 1978 
L 3425 0 
L 2847 0 
L 2847 2094 
Q 2847 2600 2669 2842 
Q 2491 3084 2119 3084 
Q 1678 3084 1418 2786 
Q 1159 2488 1159 1978 
L 1159 0 
L 581 0 
L 581 3500 
L 1159 3500 
L 1159 2956 
Q 1356 3278 1631 3431 
Q 1906 3584 2284 3584 
Q 2666 3584 2933 3390 
Q 3200 3197 3328 2828 
z
" transform="scale(0.015625)"/>
       <path id="DejaVuSans-55" d="M 2631 2963 
Q 2534 3019 2420 3045 
Q 2306 3072 2169 3072 
Q 1681 3072 1420 2755 
Q 1159 2438 1159 1844 
L 1159 0 
L 581 0 
L 581 3500 
L 1159 3500 
L 1159 2956 
Q 1341 3275 1631 3429 
Q 1922 3584 2338 3584 
Q 2397 3584 2469 3576 
Q 2541 3569 2628 3553 
L 2631 2963 
z
" transform="scale(0.015625)"/>
       <path id="DejaVuSans-44" d="M 2194 1759 
Q 1497 1759 1228 1600 
Q 959 1441 959 1056 
Q 959 750 1161 570 
Q 1363 391 1709 391 
Q 2188 391 2477 730 
Q 2766 1069 2766 1631 
L 2766 1759 
L 2194 1759 
z
M 3341 1997 
L 3341 0 
L 2766 0 
L 2766 531 
Q 2569 213 2275 61 
Q 1981 -91 1556 -91 
Q 1019 -91 701 211 
Q 384 513 384 1019 
Q 384 1609 779 1909 
Q 1175 2209 1959 2209 
L 2766 2209 
L 2766 2266 
Q 2766 2663 2505 2880 
Q 2244 3097 1772 3097 
Q 1472 3097 1187 3025 
Q 903 2953 641 2809 
L 641 3341 
Q 956 3463 1253 3523 
Q 1550 3584 1831 3584 
Q 2591 3584 2966 3190 
Q 3341 2797 3341 1997 
z
" transform="scale(0.015625)"/>
       <path id="DejaVuSans-51" d="M 3513 2113 
L 3513 0 
L 2938 0 
L 2938 2094 
Q 2938 2591 2744 2837 
Q 2550 3084 2163 3084 
Q 1697 3084 1428 2787 
Q 1159 2491 1159 1978 
L 1159 0 
L 581 0 
L 581 3500 
L 1159 3500 
L 1159 2956 
Q 1366 3272 1645 3428 
Q 1925 3584 2291 3584 
Q 2894 3584 3203 3211 
Q 3513 2838 3513 2113 
z
" transform="scale(0.015625)"/>
       <path id="DejaVuSans-46" d="M 3122 3366 
L 3122 2828 
Q 2878 2963 2633 3030 
Q 2388 3097 2138 3097 
Q 1578 3097 1268 2742 
Q 959 2388 959 1747 
Q 959 1106 1268 751 
Q 1578 397 2138 397 
Q 2388 397 2633 464 
Q 2878 531 3122 666 
L 3122 134 
Q 2881 22 2623 -34 
Q 2366 -91 2075 -91 
Q 1284 -91 818 406 
Q 353 903 353 1747 
Q 353 2603 823 3093 
Q 1294 3584 2113 3584 
Q 2378 3584 2631 3529 
Q 2884 3475 3122 3366 
z
" transform="scale(0.015625)"/>
       <path id="DejaVuSans-b" d="M 1984 4856 
Q 1566 4138 1362 3434 
Q 1159 2731 1159 2009 
Q 1159 1288 1364 580 
Q 1569 -128 1984 -844 
L 1484 -844 
Q 1016 -109 783 600 
Q 550 1309 550 2009 
Q 550 2706 781 3412 
Q 1013 4119 1484 4856 
L 1984 4856 
z
" transform="scale(0.015625)"/>
       <path id="DejaVuSans-4f" d="M 603 4863 
L 1178 4863 
L 1178 0 
L 603 0 
L 603 4863 
z
" transform="scale(0.015625)"/>
       <path id="DejaVuSans-47" d="M 2906 2969 
L 2906 4863 
L 3481 4863 
L 3481 0 
L 2906 0 
L 2906 525 
Q 2725 213 2448 61 
Q 2172 -91 1784 -91 
Q 1150 -91 751 415 
Q 353 922 353 1747 
Q 353 2572 751 3078 
Q 1150 3584 1784 3584 
Q 2172 3584 2448 3432 
Q 2725 3281 2906 2969 
z
M 947 1747 
Q 947 1113 1208 752 
Q 1469 391 1925 391 
Q 2381 391 2643 752 
Q 2906 1113 2906 1747 
Q 2906 2381 2643 2742 
Q 2381 3103 1925 3103 
Q 1469 3103 1208 2742 
Q 947 2381 947 1747 
z
" transform="scale(0.015625)"/>
       <path id="DejaVuSans-c" d="M 513 4856 
L 1013 4856 
Q 1481 4119 1714 3412 
Q 1947 2706 1947 2009 
Q 1947 1309 1714 600 
Q 1481 -109 1013 -844 
L 513 -844 
Q 928 -128 1133 580 
Q 1338 1288 1338 2009 
Q 1338 2731 1133 3434 
Q 928 4138 513 4856 
z
" transform="scale(0.015625)"/>
      </defs>
      <use xlink:href="#DejaVuSans-53"/>
      <use xlink:href="#DejaVuSans-52" transform="translate(63.484375 0)"/>
      <use xlink:href="#DejaVuSans-56" transform="translate(124.671875 0)"/>
      <use xlink:href="#DejaVuSans-4c" transform="translate(176.765625 0)"/>
      <use xlink:href="#DejaVuSans-57" transform="translate(204.546875 0)"/>
      <use xlink:href="#DejaVuSans-4c" transform="translate(243.75 0)"/>
      <use xlink:href="#DejaVuSans-59" transform="translate(271.53125 0)"/>
      <use xlink:href="#DejaVuSans-48" transform="translate(330.71875 0)"/>
      <use xlink:href="#DejaVuSans-3" transform="translate(392.25 0)"/>
      <use xlink:href="#DejaVuSans-4c" transform="translate(424.03125 0)"/>
      <use xlink:href="#DejaVuSans-50" transform="translate(451.8125 0)"/>
      <use xlink:href="#DejaVuSans-53" transform="translate(549.21875 0)"/>
      <use xlink:href="#DejaVuSans-52" transform="translate(612.703125 0)"/>
      <use xlink:href="#DejaVuSans-55" transform="translate(673.890625 0)"/>
      <use xlink:href="#DejaVuSans-57" transform="translate(715 0)"/>
      <use xlink:href="#DejaVuSans-44" transform="translate(754.203125 0)"/>
      <use xlink:href="#DejaVuSans-51" transform="translate(815.484375 0)"/>
      <use xlink:href="#DejaVuSans-46" transform="translate(878.859375 0)"/>
      <use xlink:href="#DejaVuSans-48" transform="translate(933.84375 0)"/>
      <use xlink:href="#DejaVuSans-3" transform="translate(995.375 0)"/>
      <use xlink:href="#DejaVuSans-b" transform="translate(1027.15625 0)"/>
      <use xlink:href="#DejaVuSans-56" transform="translate(1066.171875 0)"/>
      <use xlink:href="#DejaVuSans-44" transform="translate(1118.265625 0)"/>
      <use xlink:href="#DejaVuSans-50" transform="translate(1179.546875 0)"/>
      <use xlink:href="#DejaVuSans-53" transform="translate(1276.953125 0)"/>
      <use xlink:href="#DejaVuSans-4f" transform="translate(1340.4375 0)"/>
      <use xlink:href="#DejaVuSans-48" transform="translate(1368.21875 0)"/>
      <use xlink:href="#DejaVuSans-47" transform="translate(1429.75 0)"/>
      <use xlink:href="#DejaVuSans-c" transform="translate(1493.234375 0)"/>
     </g>
    </g>
   </g>
   <g id="matplotlib.axis_2">
    <g id="ytick_1">
     <g id="line2d_9">
      <defs>
       <path id="m48c4980e81" d="M 0 0 
L -3.5 0 
" style="stroke: #000000; stroke-width: 0.8"/>
      </defs>
      <g>
       <use xlink:href="#m48c4980e81" x="51.7" y="260.487108" style="stroke: #000000; stroke-width: 0.8"/>
      </g>
     </g>
     <g id="text_10">
      <!-- $\mathdefault{10^{-5}}$ -->
      <g transform="translate(21.2 265.137108) scale(0.1 -0.1)">
       <use xlink:href="#DejaVuSans-14" transform="translate(0 0.665625)"/>
       <use xlink:href="#DejaVuSans-13" transform="translate(63.623047 0.665625)"/>
       <use xlink:href="#DejaVuSans-c9c" transform="translate(128.203125 41.965625) scale(0.7)"/>
       <use xlink:href="#DejaVuSans-18" transform="translate(186.855469 41.965625) scale(0.7)"/>
      </g>
     </g>
    </g>
    <g id="ytick_2">
     <g id="line2d_10">
      <g>
       <use xlink:href="#m48c4980e81" x="51.7" y="215.121312" style="stroke: #000000; stroke-width: 0.8"/>
      </g>
     </g>
     <g id="text_11">
      <!-- $\mathdefault{10^{-4}}$ -->
      <g transform="translate(21.2 219.771312) scale(0.1 -0.1)">
       <use xlink:href="#DejaVuSans-14" transform="translate(0 0.665625)"/>
       <use xlink:href="#DejaVuSans-13" transform="translate(63.623047 0.665625)"/>
       <use xlink:href="#DejaVuSans-c9c" transform="translate(128.203125 41.965625) scale(0.7)"/>
       <use xlink:href="#DejaVuSans-17" transform="translate(186.855469 41.965625) scale(0.7)"/>
      </g>
     </g>
    </g>
    <g id="ytick_3">
     <g id="line2d_11">
      <g>
       <use xlink:href="#m48c4980e81" x="51.7" y="169.755515" style="stroke: #000000; stroke-width: 0.8"/>
      </g>
     </g>
     <g id="text_12">
      <!-- $\mathdefault{10^{-3}}$ -->
      <g transform="translate(21.2 174.455515) scale(0.1 -0.1)">
       <defs>
        <path id="DejaVuSans-16" d="M 2597 2516 
Q 3050 2419 3304 2112 
Q 3559 1806 3559 1356 
Q 3559 666 3084 287 
Q 2609 -91 1734 -91 
Q 1441 -91 1130 -33 
Q 819 25 488 141 
L 488 750 
Q 750 597 1062 519 
Q 1375 441 1716 441 
Q 2309 441 2620 675 
Q 2931 909 2931 1356 
Q 2931 1769 2642 2001 
Q 2353 2234 1838 2234 
L 1294 2234 
L 1294 2753 
L 1863 2753 
Q 2328 2753 2575 2939 
Q 2822 3125 2822 3475 
Q 2822 3834 2567 4026 
Q 2313 4219 1838 4219 
Q 1578 4219 1281 4162 
Q 984 4106 628 3988 
L 628 4550 
Q 988 4650 1302 4700 
Q 1616 4750 1894 4750 
Q 2613 4750 3031 4423 
Q 3450 4097 3450 3541 
Q 3450 3153 3228 2886 
Q 3006 2619 2597 2516 
z
" transform="scale(0.015625)"/>
       </defs>
       <use xlink:href="#DejaVuSans-14" transform="translate(0 0.746875)"/>
       <use xlink:href="#DejaVuSans-13" transform="translate(63.623047 0.746875)"/>
       <use xlink:href="#DejaVuSans-c9c" transform="translate(128.203125 42.046875) scale(0.7)"/>
       <use xlink:href="#DejaVuSans-16" transform="translate(186.855469 42.046875) scale(0.7)"/>
      </g>
     </g>
    </g>
    <g id="ytick_4">
     <g id="line2d_12">
      <g>
       <use xlink:href="#m48c4980e81" x="51.7" y="124.389718" style="stroke: #000000; stroke-width: 0.8"/>
      </g>
     </g>
     <g id="text_13">
      <!-- $\mathdefault{10^{-2}}$ -->
      <g transform="translate(21.2 129.089718) scale(0.1 -0.1)">
       <use xlink:href="#DejaVuSans-14" transform="translate(0 0.746875)"/>
       <use xlink:href="#DejaVuSans-13" transform="translate(63.623047 0.746875)"/>
       <use xlink:href="#DejaVuSans-c9c" transform="translate(128.203125 42.046875) scale(0.7)"/>
       <use xlink:href="#DejaVuSans-15" transform="translate(186.855469 42.046875) scale(0.7)"/>
      </g>
     </g>
    </g>
    <g id="ytick_5">
     <g id="line2d_13">
      <g>
       <use xlink:href="#m48c4980e81" x="51.7" y="79.023922" style="stroke: #000000; stroke-width: 0.8"/>
      </g>
     </g>
     <g id="text_14">
      <!-- $\mathdefault{10^{-1}}$ -->
      <g transform="translate(21.2 83.673922) scale(0.1 -0.1)">
       <use xlink:href="#DejaVuSans-14" transform="translate(0 0.665625)"/>
       <use xlink:href="#DejaVuSans-13" transform="translate(63.623047 0.665625)"/>
       <use xlink:href="#DejaVuSans-c9c" transform="translate(128.203125 41.965625) scale(0.7)"/>
       <use xlink:href="#DejaVuSans-14" transform="translate(186.855469 41.965625) scale(0.7)"/>
      </g>
     </g>
    </g>
    <g id="ytick_6">
     <g id="line2d_14">
      <g>
       <use xlink:href="#m48c4980e81" x="51.7" y="33.658125" style="stroke: #000000; stroke-width: 0.8"/>
      </g>
     </g>
     <g id="text_15">
      <!-- $\mathdefault{10^{0}}$ -->
      <g transform="translate(27.1 38.358125) scale(0.1 -0.1)">
       <use xlink:href="#DejaVuSans-14" transform="translate(0 0.746875)"/>
       <use xlink:href="#DejaVuSans-13" transform="translate(63.623047 0.746875)"/>
       <use xlink:href="#DejaVuSans-13" transform="translate(128.203125 42.046875) scale(0.7)"/>
      </g>
     </g>
    </g>
    <g id="ytick_7">
     <g id="line2d_15">
      <defs>
       <path id="mf79cc0ae06" d="M 0 0 
L -2 0 
" style="stroke: #000000; stroke-width: 0.6"/>
      </defs>
      <g>
       <use xlink:href="#mf79cc0ae06" x="51.7" y="270.551454" style="stroke: #000000; stroke-width: 0.6"/>
      </g>
     </g>
    </g>
    <g id="ytick_8">
     <g id="line2d_16">
      <g>
       <use xlink:href="#mf79cc0ae06" x="51.7" y="267.514359" style="stroke: #000000; stroke-width: 0.6"/>
      </g>
     </g>
    </g>
    <g id="ytick_9">
     <g id="line2d_17">
      <g>
       <use xlink:href="#mf79cc0ae06" x="51.7" y="264.883508" style="stroke: #000000; stroke-width: 0.6"/>
      </g>
     </g>
    </g>
    <g id="ytick_10">
     <g id="line2d_18">
      <g>
       <use xlink:href="#mf79cc0ae06" x="51.7" y="262.562933" style="stroke: #000000; stroke-width: 0.6"/>
      </g>
     </g>
    </g>
    <g id="ytick_11">
     <g id="line2d_19">
      <g>
       <use xlink:href="#mf79cc0ae06" x="51.7" y="246.830643" style="stroke: #000000; stroke-width: 0.6"/>
      </g>
     </g>
    </g>
    <g id="ytick_12">
     <g id="line2d_20">
      <g>
       <use xlink:href="#mf79cc0ae06" x="51.7" y="238.842123" style="stroke: #000000; stroke-width: 0.6"/>
      </g>
     </g>
    </g>
    <g id="ytick_13">
     <g id="line2d_21">
      <g>
       <use xlink:href="#mf79cc0ae06" x="51.7" y="233.174177" style="stroke: #000000; stroke-width: 0.6"/>
      </g>
     </g>
    </g>
    <g id="ytick_14">
     <g id="line2d_22">
      <g>
       <use xlink:href="#mf79cc0ae06" x="51.7" y="228.777777" style="stroke: #000000; stroke-width: 0.6"/>
      </g>
     </g>
    </g>
    <g id="ytick_15">
     <g id="line2d_23">
      <g>
       <use xlink:href="#mf79cc0ae06" x="51.7" y="225.185657" style="stroke: #000000; stroke-width: 0.6"/>
      </g>
     </g>
    </g>
    <g id="ytick_16">
     <g id="line2d_24">
      <g>
       <use xlink:href="#mf79cc0ae06" x="51.7" y="222.148563" style="stroke: #000000; stroke-width: 0.6"/>
      </g>
     </g>
    </g>
    <g id="ytick_17">
     <g id="line2d_25">
      <g>
       <use xlink:href="#mf79cc0ae06" x="51.7" y="219.517712" style="stroke: #000000; stroke-width: 0.6"/>
      </g>
     </g>
    </g>
    <g id="ytick_18">
     <g id="line2d_26">
      <g>
       <use xlink:href="#mf79cc0ae06" x="51.7" y="217.197137" style="stroke: #000000; stroke-width: 0.6"/>
      </g>
     </g>
    </g>
    <g id="ytick_19">
     <g id="line2d_27">
      <g>
       <use xlink:href="#mf79cc0ae06" x="51.7" y="201.464846" style="stroke: #000000; stroke-width: 0.6"/>
      </g>
     </g>
    </g>
    <g id="ytick_20">
     <g id="line2d_28">
      <g>
       <use xlink:href="#mf79cc0ae06" x="51.7" y="193.476326" style="stroke: #000000; stroke-width: 0.6"/>
      </g>
     </g>
    </g>
    <g id="ytick_21">
     <g id="line2d_29">
      <g>
       <use xlink:href="#mf79cc0ae06" x="51.7" y="187.808381" style="stroke: #000000; stroke-width: 0.6"/>
      </g>
     </g>
    </g>
    <g id="ytick_22">
     <g id="line2d_30">
      <g>
       <use xlink:href="#mf79cc0ae06" x="51.7" y="183.411981" style="stroke: #000000; stroke-width: 0.6"/>
      </g>
     </g>
    </g>
    <g id="ytick_23">
     <g id="line2d_31">
      <g>
       <use xlink:href="#mf79cc0ae06" x="51.7" y="179.81986" style="stroke: #000000; stroke-width: 0.6"/>
      </g>
     </g>
    </g>
    <g id="ytick_24">
     <g id="line2d_32">
      <g>
       <use xlink:href="#mf79cc0ae06" x="51.7" y="176.782766" style="stroke: #000000; stroke-width: 0.6"/>
      </g>
     </g>
    </g>
    <g id="ytick_25">
     <g id="line2d_33">
      <g>
       <use xlink:href="#mf79cc0ae06" x="51.7" y="174.151915" style="stroke: #000000; stroke-width: 0.6"/>
      </g>
     </g>
    </g>
    <g id="ytick_26">
     <g id="line2d_34">
      <g>
       <use xlink:href="#mf79cc0ae06" x="51.7" y="171.83134" style="stroke: #000000; stroke-width: 0.6"/>
      </g>
     </g>
    </g>
    <g id="ytick_27">
     <g id="line2d_35">
      <g>
       <use xlink:href="#mf79cc0ae06" x="51.7" y="156.099049" style="stroke: #000000; stroke-width: 0.6"/>
      </g>
     </g>
    </g>
    <g id="ytick_28">
     <g id="line2d_36">
      <g>
       <use xlink:href="#mf79cc0ae06" x="51.7" y="148.110529" style="stroke: #000000; stroke-width: 0.6"/>
      </g>
     </g>
    </g>
    <g id="ytick_29">
     <g id="line2d_37">
      <g>
       <use xlink:href="#mf79cc0ae06" x="51.7" y="142.442584" style="stroke: #000000; stroke-width: 0.6"/>
      </g>
     </g>
    </g>
    <g id="ytick_30">
     <g id="line2d_38">
      <g>
       <use xlink:href="#mf79cc0ae06" x="51.7" y="138.046184" style="stroke: #000000; stroke-width: 0.6"/>
      </g>
     </g>
    </g>
    <g id="ytick_31">
     <g id="line2d_39">
      <g>
       <use xlink:href="#mf79cc0ae06" x="51.7" y="134.454064" style="stroke: #000000; stroke-width: 0.6"/>
      </g>
     </g>
    </g>
    <g id="ytick_32">
     <g id="line2d_40">
      <g>
       <use xlink:href="#mf79cc0ae06" x="51.7" y="131.416969" style="stroke: #000000; stroke-width: 0.6"/>
      </g>
     </g>
    </g>
    <g id="ytick_33">
     <g id="line2d_41">
      <g>
       <use xlink:href="#mf79cc0ae06" x="51.7" y="128.786118" style="stroke: #000000; stroke-width: 0.6"/>
      </g>
     </g>
    </g>
    <g id="ytick_34">
     <g id="line2d_42">
      <g>
       <use xlink:href="#mf79cc0ae06" x="51.7" y="126.465543" style="stroke: #000000; stroke-width: 0.6"/>
      </g>
     </g>
    </g>
    <g id="ytick_35">
     <g id="line2d_43">
      <g>
       <use xlink:href="#mf79cc0ae06" x="51.7" y="110.733253" style="stroke: #000000; stroke-width: 0.6"/>
      </g>
     </g>
    </g>
    <g id="ytick_36">
     <g id="line2d_44">
      <g>
       <use xlink:href="#mf79cc0ae06" x="51.7" y="102.744733" style="stroke: #000000; stroke-width: 0.6"/>
      </g>
     </g>
    </g>
    <g id="ytick_37">
     <g id="line2d_45">
      <g>
       <use xlink:href="#mf79cc0ae06" x="51.7" y="97.076787" style="stroke: #000000; stroke-width: 0.6"/>
      </g>
     </g>
    </g>
    <g id="ytick_38">
     <g id="line2d_46">
      <g>
       <use xlink:href="#mf79cc0ae06" x="51.7" y="92.680387" style="stroke: #000000; stroke-width: 0.6"/>
      </g>
     </g>
    </g>
    <g id="ytick_39">
     <g id="line2d_47">
      <g>
       <use xlink:href="#mf79cc0ae06" x="51.7" y="89.088267" style="stroke: #000000; stroke-width: 0.6"/>
      </g>
     </g>
    </g>
    <g id="ytick_40">
     <g id="line2d_48">
      <g>
       <use xlink:href="#mf79cc0ae06" x="51.7" y="86.051173" style="stroke: #000000; stroke-width: 0.6"/>
      </g>
     </g>
    </g>
    <g id="ytick_41">
     <g id="line2d_49">
      <g>
       <use xlink:href="#mf79cc0ae06" x="51.7" y="83.420322" style="stroke: #000000; stroke-width: 0.6"/>
      </g>
     </g>
    </g>
    <g id="ytick_42">
     <g id="line2d_50">
      <g>
       <use xlink:href="#mf79cc0ae06" x="51.7" y="81.099747" style="stroke: #000000; stroke-width: 0.6"/>
      </g>
     </g>
    </g>
    <g id="ytick_43">
     <g id="line2d_51">
      <g>
       <use xlink:href="#mf79cc0ae06" x="51.7" y="65.367456" style="stroke: #000000; stroke-width: 0.6"/>
      </g>
     </g>
    </g>
    <g id="ytick_44">
     <g id="line2d_52">
      <g>
       <use xlink:href="#mf79cc0ae06" x="51.7" y="57.378936" style="stroke: #000000; stroke-width: 0.6"/>
      </g>
     </g>
    </g>
    <g id="ytick_45">
     <g id="line2d_53">
      <g>
       <use xlink:href="#mf79cc0ae06" x="51.7" y="51.710991" style="stroke: #000000; stroke-width: 0.6"/>
      </g>
     </g>
    </g>
    <g id="ytick_46">
     <g id="line2d_54">
      <g>
       <use xlink:href="#mf79cc0ae06" x="51.7" y="47.314591" style="stroke: #000000; stroke-width: 0.6"/>
      </g>
     </g>
    </g>
    <g id="ytick_47">
     <g id="line2d_55">
      <g>
       <use xlink:href="#mf79cc0ae06" x="51.7" y="43.72247" style="stroke: #000000; stroke-width: 0.6"/>
      </g>
     </g>
    </g>
    <g id="ytick_48">
     <g id="line2d_56">
      <g>
       <use xlink:href="#mf79cc0ae06" x="51.7" y="40.685376" style="stroke: #000000; stroke-width: 0.6"/>
      </g>
     </g>
    </g>
    <g id="ytick_49">
     <g id="line2d_57">
      <g>
       <use xlink:href="#mf79cc0ae06" x="51.7" y="38.054525" style="stroke: #000000; stroke-width: 0.6"/>
      </g>
     </g>
    </g>
    <g id="ytick_50">
     <g id="line2d_58">
      <g>
       <use xlink:href="#mf79cc0ae06" x="51.7" y="35.73395" style="stroke: #000000; stroke-width: 0.6"/>
      </g>
     </g>
    </g>
    <g id="text_16">
     <!-- CCDF -->
     <g transform="translate(14.797656 160.766719) rotate(-90) scale(0.1 -0.1)">
      <defs>
       <path id="DejaVuSans-26" d="M 4122 4306 
L 4122 3641 
Q 3803 3938 3442 4084 
Q 3081 4231 2675 4231 
Q 1875 4231 1450 3742 
Q 1025 3253 1025 2328 
Q 1025 1406 1450 917 
Q 1875 428 2675 428 
Q 3081 428 3442 575 
Q 3803 722 4122 1019 
L 4122 359 
Q 3791 134 3420 21 
Q 3050 -91 2638 -91 
Q 1578 -91 968 557 
Q 359 1206 359 2328 
Q 359 3453 968 4101 
Q 1578 4750 2638 4750 
Q 3056 4750 3426 4639 
Q 3797 4528 4122 4306 
z
" transform="scale(0.015625)"/>
       <path id="DejaVuSans-27" d="M 1259 4147 
L 1259 519 
L 2022 519 
Q 2988 519 3436 956 
Q 3884 1394 3884 2338 
Q 3884 3275 3436 3711 
Q 2988 4147 2022 4147 
L 1259 4147 
z
M 628 4666 
L 1925 4666 
Q 3281 4666 3915 4102 
Q 4550 3538 4550 2338 
Q 4550 1131 3912 565 
Q 3275 0 1925 0 
L 628 0 
L 628 4666 
z
" transform="scale(0.015625)"/>
       <path id="DejaVuSans-29" d="M 628 4666 
L 3309 4666 
L 3309 4134 
L 1259 4134 
L 1259 2759 
L 3109 2759 
L 3109 2228 
L 1259 2228 
L 1259 0 
L 628 0 
L 628 4666 
z
" transform="scale(0.015625)"/>
      </defs>
      <use xlink:href="#DejaVuSans-26"/>
      <use xlink:href="#DejaVuSans-26" transform="translate(69.828125 0)"/>
      <use xlink:href="#DejaVuSans-27" transform="translate(139.65625 0)"/>
      <use xlink:href="#DejaVuSans-29" transform="translate(216.65625 0)"/>
     </g>
    </g>
   </g>
   <g id="line2d_59">
    <path d="M 163.727362 33.658125 
L 267.720382 33.770915 
L 274.824931 34.081332 
L 278.39784 34.508473 
L 278.777386 34.571614 
L 280.755389 34.918348 
L 281.868608 35.124934 
L 285.223714 35.835872 
L 285.545332 35.912048 
L 286.242339 36.074208 
L 288.03041 36.54965 
L 288.209845 36.599984 
L 288.750566 36.75061 
L 288.950053 36.810721 
L 289.428084 36.955508 
L 290.2442 37.19299 
L 290.743044 37.344905 
L 291.026139 37.430263 
L 291.445591 37.568861 
L 291.562994 37.609088 
L 291.785964 37.678171 
L 292.344831 37.868307 
L 292.587756 37.953269 
L 293.140754 38.13866 
L 293.279374 38.186772 
L 294.056087 38.467605 
L 294.211495 38.524608 
L 294.624694 38.680824 
L 298.435574 40.147392 
L 299.005388 40.376648 
L 299.348612 40.51784 
L 299.846139 40.727166 
L 300.573024 41.003086 
L 301.965688 41.54588 
L 302.758086 41.852726 
L 306.712423 43.323948 
L 307.464937 43.593261 
L 307.850774 43.739841 
L 311.386697 45.001142 
L 311.730723 45.12858 
L 311.862189 45.178087 
L 312.03719 45.249384 
L 312.499307 45.424639 
L 312.975247 45.60617 
L 313.573497 45.837292 
L 313.748939 45.903303 
L 316.38138 47.057989 
L 318.550893 48.170502 
L 318.678321 48.233247 
L 319.149638 48.511811 
L 321.488706 50.130626 
L 321.633286 50.249349 
L 322.764206 51.262901 
L 322.934185 51.423641 
L 323.147688 51.642642 
L 323.30984 51.80801 
L 323.520823 52.024834 
L 323.642543 52.155074 
L 323.942552 52.497578 
L 324.477428 53.121869 
L 324.60133 53.286291 
L 324.790323 53.514704 
L 324.908525 53.654122 
L 328.588628 59.172741 
L 328.729752 59.406085 
L 328.847175 59.613474 
L 328.967438 59.802232 
L 329.408231 60.534157 
L 329.535798 60.757738 
L 330.143687 61.795669 
L 330.534998 62.421929 
L 330.623923 62.564319 
L 330.749511 62.787206 
L 330.826763 62.938374 
L 331.032134 63.287685 
L 331.136844 63.455288 
L 331.301217 63.737531 
L 331.376163 63.889791 
L 331.897044 64.708339 
L 332.010585 64.908761 
L 332.134269 65.115139 
L 333.638093 67.65991 
L 333.750173 67.822388 
L 333.860624 68.044899 
L 334.151832 68.558991 
L 334.262989 68.746649 
L 334.378946 68.95859 
L 334.751094 69.614565 
L 334.863473 69.822495 
L 335.135574 70.288069 
L 335.313606 70.613689 
L 335.687036 71.324201 
L 335.860869 71.633629 
L 336.151795 72.157145 
L 336.333013 72.504123 
L 336.478395 72.717861 
L 336.758078 73.20228 
L 336.866259 73.408927 
L 337.03681 73.732067 
L 337.135629 73.910861 
L 337.26702 74.14205 
L 337.658887 74.924332 
L 337.798858 75.200274 
L 337.913621 75.430749 
L 338.097285 75.764031 
L 338.291966 76.167801 
L 338.381759 76.337507 
L 338.565244 76.71995 
L 338.75719 77.079549 
L 338.832941 77.235695 
L 338.962919 77.49872 
L 339.077591 77.754202 
L 339.316627 78.288624 
L 339.480274 78.686078 
L 339.59601 78.951641 
L 339.712487 79.200913 
L 339.832647 79.471537 
L 340.260731 80.462904 
L 340.468006 81.005199 
L 340.671357 81.392996 
L 340.784468 81.668617 
L 341.293621 82.844865 
L 341.406394 83.102854 
L 341.469552 83.261242 
L 341.911601 84.311399 
L 342.004037 84.498077 
L 342.576409 86.055993 
L 342.687816 86.423097 
L 342.952864 87.133766 
L 343.469603 88.579195 
L 343.618582 89.029753 
L 343.843539 89.696667 
L 343.974588 90.104465 
L 344.018218 90.246945 
L 344.434725 91.611483 
L 344.5807 92.053736 
L 344.784554 92.722459 
L 344.897041 93.0414 
L 345.024085 93.386028 
L 345.196168 93.93346 
L 345.488277 94.978383 
L 345.625647 95.431428 
L 346.411614 98.303594 
L 346.746257 99.61122 
L 346.871049 100.105432 
L 346.943719 100.313616 
L 347.096131 100.831968 
L 347.278604 101.654659 
L 347.413888 102.133378 
L 347.655178 103.120488 
L 347.779631 103.595424 
L 348.075624 104.835405 
L 348.253539 105.633896 
L 348.326267 106.018415 
L 348.913008 108.313767 
L 349.030801 108.772797 
L 349.362465 110.150612 
L 349.423703 110.381837 
L 349.688407 111.457308 
L 349.745018 111.652737 
L 349.876458 112.197723 
L 349.931579 112.42216 
L 350.101232 113.245259 
L 350.319502 114.092546 
L 350.472251 114.662285 
L 350.531832 114.880258 
L 351.011186 117.094573 
L 351.085691 117.36898 
L 351.239538 118.115201 
L 351.292504 118.317128 
L 351.497532 119.191604 
L 351.700714 120.059133 
L 352.055008 121.813797 
L 352.111431 121.987691 
L 352.37631 123.212714 
L 352.433305 123.493509 
L 352.570542 124.242875 
L 352.638494 124.578659 
L 352.806187 125.433637 
L 352.906641 125.790531 
L 353.02406 126.305648 
L 353.600786 128.88066 
L 353.736736 129.459066 
L 354.189953 131.331774 
L 354.242727 131.52922 
L 354.656881 133.339113 
L 354.872911 134.42508 
L 355.073659 135.714146 
L 355.143996 136.139388 
L 355.279932 136.794972 
L 355.40522 137.168838 
L 355.621297 138.255056 
L 356.766333 143.424187 
L 356.883323 144.110006 
L 357.40579 146.565251 
L 357.551857 147.057829 
L 357.794202 148.081546 
L 358.338656 150.377508 
L 358.629596 151.283512 
L 358.719479 151.752633 
L 358.793566 152.152284 
L 358.971434 153.145878 
L 359.048896 153.402308 
L 359.230954 154.372183 
L 359.470966 155.971801 
L 359.780237 156.771997 
L 360.051971 158.700917 
L 360.462807 160.466466 
L 360.554063 161.347858 
L 360.681451 161.869799 
L 360.745471 162.405944 
L 360.969762 162.957088 
L 361.163649 163.668433 
L 361.348822 163.813836 
L 361.450071 164.256599 
L 361.596722 164.557401 
L 361.845206 165.330132 
L 361.953324 166.134411 
L 362.132362 166.633226 
L 362.415551 166.802344 
L 362.520872 167.493717 
L 362.671531 167.848719 
L 362.840885 168.393513 
L 363.056308 168.953801 
L 363.076427 169.144161 
L 363.490213 169.530489 
L 363.571627 169.924545 
L 363.622162 170.326642 
L 363.905173 170.945608 
L 364.074905 171.369326 
L 364.259549 171.584652 
L 364.327895 172.022494 
L 364.927196 172.245119 
L 365.219059 172.928498 
L 365.457558 173.161662 
L 365.514658 173.397618 
L 365.911277 173.878182 
L 366.155573 174.37076 
L 366.264399 174.87597 
L 366.365804 175.394477 
L 366.850874 176.474315 
L 367.057124 177.324898 
L 367.563211 179.144848 
L 367.794159 179.790877 
L 368.50759 181.505185 
L 369.093906 181.866702 
L 369.142417 182.610266 
L 369.284146 182.992844 
L 369.285529 183.382997 
L 369.606031 183.781033 
L 370.708969 184.187277 
L 371.035616 185.901585 
L 371.417914 186.354527 
L 372.17857 188.789984 
L 372.430977 189.315404 
L 372.593793 190.981364 
L 374.007118 194.806648 
L 374.185512 195.523167 
L 374.685541 196.266732 
L 374.70043 197.039463 
L 375.038777 197.843742 
L 375.180648 198.682257 
L 375.660697 199.558051 
L 375.957116 200.474593 
L 377.296885 201.435863 
L 377.733441 202.446449 
L 378.498452 203.511688 
L 378.95216 204.637829 
L 380.384485 205.832263 
L 380.968481 207.103808 
L 381.890925 208.463114 
L 382.053305 209.923197 
L 382.404632 211.500208 
L 383.181351 213.214516 
L 385.150395 215.092328 
L 387.419376 219.488728 
L 387.679449 222.119579 
L 388.923959 225.156674 
L 389.8969 228.748794 
L 392.048622 233.145194 
L 400.24095 238.813139 
L 403.104262 246.801659 
L 408.620083 260.458125 
L 408.620083 260.458125 
" clip-path="url(#pa5275b0269)" style="fill: none; stroke: #1f77b4; stroke-opacity: 0.8; stroke-width: 1.5; stroke-linecap: square"/>
   </g>
   <g id="line2d_60">
    <path d="M 155.59095 33.658125 
L 225.1022 33.772722 
L 226.019479 33.791552 
L 230.535487 33.936259 
L 233.406267 34.092747 
L 234.062742 34.140755 
L 237.117576 34.401987 
L 242.242801 35.022047 
L 246.671282 35.791666 
L 247.960098 36.053625 
L 248.129915 36.088028 
L 248.80746 36.232495 
L 248.960397 36.263509 
L 250.291887 36.544856 
L 250.733839 36.649119 
L 253.990531 37.412931 
L 255.086026 37.687724 
L 255.882826 37.868541 
L 255.998313 37.894508 
L 257.062824 38.14041 
L 257.862611 38.321339 
L 258.14738 38.390689 
L 258.729058 38.527889 
L 259.178724 38.621708 
L 259.999697 38.782848 
L 260.569552 38.915973 
L 261.92349 39.18231 
L 265.767769 39.833943 
L 266.667907 39.96133 
L 266.803643 39.976796 
L 275.449054 40.806821 
L 278.536843 41.003602 
L 279.461669 41.057283 
L 281.80943 41.213349 
L 282.74059 41.271276 
L 286.461387 41.526635 
L 289.982052 41.830624 
L 291.74586 41.99601 
L 292.531859 42.072725 
L 300.515962 43.083291 
L 300.64022 43.105846 
L 301.60951 43.256334 
L 301.770999 43.281934 
L 304.985244 43.872565 
L 308.292398 44.588045 
L 308.688027 44.676007 
L 309.787391 44.951123 
L 309.911342 44.981684 
L 310.524249 45.149056 
L 310.791128 45.223403 
L 311.406125 45.393755 
L 312.256739 45.627329 
L 312.865147 45.821567 
L 314.328651 46.315709 
L 314.746179 46.468551 
L 315.290481 46.678069 
L 315.422651 46.726439 
L 315.889 46.919159 
L 316.915889 47.319331 
L 317.032249 47.37631 
L 317.612036 47.622605 
L 317.721819 47.669797 
L 318.031639 47.812567 
L 318.580926 48.054566 
L 318.842525 48.166788 
L 319.7047 48.56627 
L 320.469807 48.952862 
L 320.730357 49.080701 
L 325.974166 52.240977 
L 326.143698 52.368894 
L 326.549567 52.65471 
L 326.67323 52.742584 
L 327.212475 53.14227 
L 327.488351 53.362144 
L 327.640859 53.481195 
L 327.87242 53.659409 
L 328.555751 54.213136 
L 328.820431 54.439633 
L 329.235881 54.793815 
L 329.471269 54.985102 
L 329.685407 55.150767 
L 329.850001 55.266222 
L 330.116421 55.503717 
L 331.916242 57.057491 
L 332.048994 57.178129 
L 332.224755 57.327692 
L 332.403058 57.494286 
L 334.313872 59.36917 
L 334.526681 59.550323 
L 334.652359 59.68542 
L 335.146441 60.195888 
L 335.352507 60.411984 
L 335.547038 60.616748 
L 335.680688 60.750503 
L 335.838482 60.924955 
L 336.060799 61.145216 
L 336.232286 61.327279 
L 336.418691 61.5213 
L 336.605666 61.701709 
L 336.716537 61.835762 
L 336.915094 62.033828 
L 337.116735 62.254131 
L 338.419214 63.588119 
L 338.69397 63.876282 
L 338.824919 63.996927 
L 339.021224 64.183989 
L 339.792438 65.028837 
L 339.926926 65.182708 
L 340.089404 65.367706 
L 340.547231 65.87439 
L 340.703577 66.058277 
L 340.911782 66.280447 
L 341.041475 66.422067 
L 341.2572 66.645739 
L 341.39914 66.808799 
L 341.557313 66.978634 
L 342.175467 67.667397 
L 342.315846 67.842002 
L 342.51652 68.052448 
L 350.440827 77.200186 
L 350.570394 77.380679 
L 350.831378 77.716327 
L 350.945658 77.868667 
L 351.287339 78.296784 
L 351.402922 78.460969 
L 351.559423 78.707386 
L 355.965053 86.136789 
L 356.183177 86.51263 
L 356.356511 86.880904 
L 356.497487 87.180562 
L 356.731419 87.634909 
L 356.840055 87.875845 
L 358.090827 90.453704 
L 358.163595 90.610301 
L 358.386642 91.110728 
L 358.56252 91.47344 
L 358.696822 91.833392 
L 359.279506 93.317021 
L 359.403928 93.612987 
L 359.485776 93.849825 
L 359.700815 94.359368 
L 360.096451 95.356804 
L 360.343793 95.848731 
L 360.878055 97.169564 
L 362.132083 100.716617 
L 362.228036 100.905083 
L 362.510024 101.724834 
L 362.571812 101.979161 
L 363.165967 103.87538 
L 363.37054 104.401991 
L 364.101628 106.651458 
L 364.242609 107.040597 
L 364.424273 107.649773 
L 364.5185 107.896657 
L 364.64601 108.433174 
L 364.797556 109.007555 
L 365.060972 109.836134 
L 365.247728 110.502833 
L 365.321232 110.713553 
L 365.520517 111.372464 
L 365.586342 111.605781 
L 366.402515 114.508596 
L 366.515033 114.828468 
L 366.852824 116.047871 
L 367.044923 116.899174 
L 367.7959 119.56173 
L 367.840603 119.718564 
L 368.13368 120.873671 
L 368.222535 121.104599 
L 368.349829 121.574737 
L 368.588058 122.100743 
L 368.672071 122.391637 
L 369.362867 124.709394 
L 369.47463 125.171183 
L 369.580328 125.485168 
L 369.689257 126.019858 
L 369.88212 126.93511 
L 369.98401 127.336623 
L 370.073545 127.805743 
L 370.279208 129.06147 
L 370.368362 129.412448 
L 371.308131 133.913754 
L 371.374806 134.11708 
L 371.64744 135.426813 
L 371.792574 136.183823 
L 372.150797 137.400968 
L 372.272802 137.939444 
L 372.396896 138.340519 
L 372.544807 138.905677 
L 372.621912 139.273952 
L 372.742382 139.595189 
L 372.87442 140.087084 
L 372.985921 140.705461 
L 373.245644 142.003675 
L 373.355171 142.311046 
L 373.643496 143.52485 
L 373.782433 143.857103 
L 373.942252 144.608401 
L 374.157616 145.317187 
L 374.270476 146.202824 
L 374.384438 146.430597 
L 374.736795 148.020339 
L 374.871495 148.779829 
L 374.950557 149.039641 
L 375.064179 149.931292 
L 375.205727 150.865216 
L 375.281815 151.251545 
L 375.887577 153.74355 
L 376.014898 154.078438 
L 376.34102 155.35749 
L 376.669643 157.24732 
L 376.952406 158.758327 
L 377.072559 159.63412 
L 377.163466 160.087062 
L 377.236802 160.394914 
L 377.387966 161.511932 
L 377.454987 162.010747 
L 377.56696 162.696107 
L 377.897522 164.521682 
L 378.055135 165.104053 
L 379.185157 169.999267 
L 379.316961 171.03646 
L 379.669065 173.290586 
L 379.897715 174.522369 
L 380.103324 175.168398 
L 380.394423 177.244223 
L 381.518683 180.403312 
L 381.593542 181.279106 
L 381.977124 182.670422 
L 382.312472 183.655733 
L 382.540151 185.232743 
L 382.854114 186.947051 
L 383.101239 188.178835 
L 383.233097 190.184169 
L 383.352402 190.900689 
L 383.353186 191.644253 
L 383.996737 192.416984 
L 384.221034 193.221264 
L 385.004894 194.059778 
L 385.318641 194.935572 
L 385.451762 196.813384 
L 386.280927 197.82397 
L 387.186399 200.015351 
L 388.161663 201.209784 
L 388.295862 202.481329 
L 390.06531 203.840635 
L 391.769556 205.300718 
L 392.39554 206.877729 
L 392.639766 208.592037 
L 394.133335 210.469849 
L 394.226496 212.545674 
L 394.650521 214.866249 
L 395.348033 217.4971 
L 397.134891 220.534195 
L 398.953229 228.522715 
L 400.149394 234.19066 
L 410.280786 242.179181 
L 424.545455 255.835646 
L 424.545455 255.835646 
" clip-path="url(#pa5275b0269)" style="fill: none; stroke: #ff7f0e; stroke-opacity: 0.8; stroke-width: 1.5; stroke-linecap: square"/>
   </g>
   <g id="line2d_61">
    <path d="M 122.401589 33.658125 
L 224.342405 33.770167 
L 235.877422 34.309957 
L 236.708135 34.385112 
L 241.706798 35.01052 
L 241.993454 35.054909 
L 243.072111 35.227531 
L 243.709159 35.332052 
L 244.952093 35.557596 
L 245.163465 35.593329 
L 246.341288 35.820788 
L 248.067696 36.179161 
L 248.922936 36.365114 
L 249.084819 36.402344 
L 249.899073 36.586373 
L 251.713416 36.998338 
L 251.825008 37.019031 
L 252.740298 37.229856 
L 252.957491 37.284341 
L 254.104082 37.552664 
L 254.28703 37.59495 
L 255.196777 37.812679 
L 255.794498 37.958559 
L 256.512457 38.134302 
L 257.065449 38.273765 
L 257.783607 38.447902 
L 257.97244 38.48865 
L 259.261111 38.778213 
L 259.417702 38.815439 
L 266.314511 40.092342 
L 275.408865 41.15518 
L 278.409066 41.391562 
L 283.817677 41.844273 
L 287.880194 42.213467 
L 288.518211 42.266668 
L 291.352393 42.542286 
L 291.518984 42.557168 
L 296.464983 43.138023 
L 296.850134 43.186502 
L 298.015678 43.332657 
L 298.309031 43.375899 
L 300.379732 43.672159 
L 300.885593 43.744428 
L 305.474694 44.521437 
L 306.16914 44.645621 
L 307.235118 44.861981 
L 307.533349 44.917106 
L 308.433904 45.108817 
L 310.966826 45.713328 
L 311.097902 45.746003 
L 311.676246 45.893021 
L 312.19179 46.039741 
L 312.783377 46.203584 
L 312.918515 46.247003 
L 313.501558 46.421163 
L 314.415394 46.688949 
L 314.554552 46.727158 
L 317.78055 47.909794 
L 318.08742 48.052708 
L 318.549292 48.227464 
L 318.948478 48.40273 
L 319.661441 48.730123 
L 320.296971 49.022212 
L 321.16438 49.449442 
L 321.413477 49.574907 
L 321.895665 49.816363 
L 322.107639 49.924825 
L 322.538291 50.171212 
L 322.800579 50.328672 
L 323.130668 50.506159 
L 323.321771 50.614957 
L 323.764267 50.86242 
L 324.657727 51.393846 
L 325.410839 51.878916 
L 325.66188 52.048159 
L 325.896281 52.194573 
L 326.202707 52.400106 
L 326.374262 52.518616 
L 326.67858 52.72692 
L 326.877326 52.852042 
L 327.081471 52.993928 
L 327.736215 53.44147 
L 328.157573 53.725314 
L 328.598257 54.04276 
L 328.854688 54.231744 
L 329.529089 54.7741 
L 329.731948 54.915906 
L 330.352582 55.394097 
L 330.706448 55.700877 
L 330.869306 55.844924 
L 330.992372 55.950561 
L 331.285186 56.197186 
L 331.807871 56.663788 
L 332.258432 57.055657 
L 332.432291 57.198463 
L 332.755844 57.478859 
L 332.985118 57.688852 
L 333.244584 57.939556 
L 333.407449 58.099283 
L 333.552555 58.231649 
L 333.975211 58.629738 
L 334.094866 58.73988 
L 334.23303 58.867669 
L 334.482286 59.095806 
L 334.770837 59.346815 
L 334.921119 59.510082 
L 335.289739 59.884107 
L 335.417864 60.003411 
L 335.935391 60.517207 
L 336.052623 60.62277 
L 336.271636 60.829665 
L 336.749107 61.324087 
L 336.908255 61.474968 
L 337.151424 61.711762 
L 337.328948 61.889677 
L 337.774625 62.321849 
L 337.926572 62.479522 
L 338.081661 62.621105 
L 338.352157 62.858996 
L 338.484199 63.016618 
L 338.613414 63.149869 
L 338.793361 63.340196 
L 339.105582 63.650883 
L 339.866199 64.466404 
L 339.986642 64.595473 
L 340.228681 64.848888 
L 340.468597 65.111758 
L 340.628568 65.267458 
L 340.779125 65.423147 
L 341.293823 65.927221 
L 341.435777 66.079182 
L 341.578599 66.242751 
L 341.82274 66.49596 
L 341.973486 66.661709 
L 344.527936 69.420042 
L 344.658047 69.556836 
L 344.822713 69.745909 
L 344.949125 69.914812 
L 345.096986 70.050352 
L 345.394852 70.37243 
L 345.523397 70.525742 
L 345.704517 70.683522 
L 345.917456 70.93499 
L 346.14983 71.206472 
L 346.442537 71.524309 
L 346.621299 71.700642 
L 346.871834 71.986449 
L 347.089266 72.218117 
L 347.214299 72.370531 
L 347.57292 72.822232 
L 347.712041 72.953739 
L 347.843091 73.087974 
L 348.168827 73.437945 
L 348.47105 73.771309 
L 349.158603 74.497028 
L 349.286159 74.650229 
L 349.75154 75.186773 
L 350.329337 75.89516 
L 350.518291 76.149993 
L 350.645497 76.32318 
L 350.939953 76.649857 
L 351.051433 76.80522 
L 351.669989 77.654394 
L 351.91604 77.997007 
L 352.160061 78.369794 
L 352.402732 78.735019 
L 352.527567 78.887979 
L 352.923971 79.49409 
L 353.161212 79.886185 
L 353.291337 80.100996 
L 353.925628 81.203291 
L 354.036189 81.402064 
L 354.148357 81.591495 
L 354.838641 82.837488 
L 354.973983 83.09643 
L 355.664156 84.43822 
L 355.752077 84.569963 
L 356.117405 85.184184 
L 356.285052 85.528094 
L 356.419551 85.768941 
L 356.75463 86.436873 
L 356.920576 86.792471 
L 357.036757 87.038145 
L 357.266153 87.538881 
L 357.467404 88.032967 
L 357.779858 88.808377 
L 358.116017 89.662576 
L 358.717375 91.013019 
L 358.863894 91.313186 
L 359.019784 91.698501 
L 359.187427 92.110875 
L 359.29856 92.330141 
L 359.468095 92.726078 
L 359.638489 93.170999 
L 359.997795 94.135081 
L 360.307375 94.929519 
L 360.462541 95.307711 
L 360.583517 95.652665 
L 360.639535 95.804042 
L 361.047735 96.90991 
L 361.131153 97.071302 
L 361.387213 97.807915 
L 361.509595 98.147277 
L 361.654531 98.593332 
L 361.759367 98.980927 
L 361.969618 99.679905 
L 363.724305 105.072291 
L 363.851352 105.507401 
L 363.969996 105.903486 
L 364.080973 106.297738 
L 364.178558 106.629043 
L 364.444187 107.498395 
L 364.534094 107.786178 
L 365.001522 109.338152 
L 365.07827 109.560117 
L 368.430486 122.467362 
L 368.748407 124.019883 
L 371.175854 133.840989 
L 371.273068 134.125062 
L 371.356656 134.454812 
L 371.509921 135.002713 
L 371.572521 135.304172 
L 371.687418 135.698666 
L 371.773354 136.056084 
L 371.948486 136.697605 
L 372.03186 136.979068 
L 372.173084 137.651889 
L 372.27393 138.096874 
L 372.382119 138.706266 
L 372.465624 139.2289 
L 372.635979 140.039801 
L 372.718379 140.317691 
L 372.810894 140.599558 
L 372.968511 141.00107 
L 373.131533 141.950754 
L 373.240234 142.694318 
L 373.37168 143.401484 
L 373.475202 143.665062 
L 374.181429 146.210806 
L 374.357142 147.138136 
L 374.516723 147.863449 
L 374.665871 148.701963 
L 374.858461 149.667516 
L 374.969719 150.400703 
L 375.219024 151.554327 
L 375.33692 152.259849 
L 376.818592 159.493406 
L 376.829723 159.642102 
L 376.99352 159.942904 
L 377.199033 161.033418 
L 377.427406 162.018729 
L 377.649578 162.358429 
L 377.805544 162.87922 
L 377.950218 163.779016 
L 378.407743 166.122621 
L 378.5042 166.970155 
L 378.577171 167.630622 
L 378.677869 168.314001 
L 378.865242 168.547165 
L 379.103294 170.007249 
L 379.199587 170.519021 
L 379.558445 173.00229 
L 380.111941 176.890688 
L 380.215345 177.620479 
L 380.482126 177.995769 
L 380.721679 179.57278 
L 380.737522 179.987577 
L 381.061388 180.844325 
L 381.39756 182.203631 
L 381.619265 183.1649 
L 381.842002 185.240725 
L 381.976789 186.955033 
L 382.40594 187.5613 
L 383.05805 188.186817 
L 383.071477 188.832846 
L 383.289287 189.500778 
L 383.691568 190.192151 
L 383.694889 190.908671 
L 384.24248 191.652235 
L 384.371213 193.229245 
L 385.238462 194.06776 
L 385.340933 194.943554 
L 385.723693 195.860096 
L 385.999893 196.821366 
L 386.559926 197.831952 
L 386.599363 198.897191 
L 387.52644 203.848617 
L 388.413266 205.3087 
L 388.798638 206.885711 
L 390.617916 208.600019 
L 392.271699 210.477831 
L 392.495078 212.553656 
L 392.574613 214.874231 
L 392.784406 217.505082 
L 393.78099 220.542177 
L 395.801007 224.134297 
L 399.413298 228.530697 
L 399.443587 234.198642 
L 407.236591 242.187162 
L 412.789754 255.843628 
L 412.789754 255.843628 
" clip-path="url(#pa5275b0269)" style="fill: none; stroke: #2ca02c; stroke-opacity: 0.8; stroke-width: 1.5; stroke-linecap: square"/>
   </g>
   <g id="line2d_62">
    <path d="M 136.997707 33.658125 
L 225.359182 33.780168 
L 230.743059 33.959345 
L 231.13284 33.975047 
L 234.160557 34.154223 
L 244.977583 35.440159 
L 245.630216 35.56061 
L 248.333578 36.117589 
L 248.504802 36.150382 
L 249.284859 36.31831 
L 255.718193 37.773565 
L 256.591632 37.974595 
L 258.204072 38.356314 
L 258.909797 38.520285 
L 269.462754 40.321376 
L 272.296513 40.607707 
L 272.562851 40.633977 
L 275.142148 40.844689 
L 276.72715 40.959562 
L 291.243229 42.091547 
L 292.009799 42.163975 
L 294.952226 42.482504 
L 300.461303 43.251131 
L 300.727659 43.29093 
L 301.757726 43.448886 
L 302.000068 43.496479 
L 302.843257 43.635816 
L 303.858831 43.80283 
L 305.204557 44.049275 
L 305.363383 44.081833 
L 306.011807 44.213029 
L 306.163123 44.245859 
L 306.811358 44.380304 
L 307.05362 44.435804 
L 307.950524 44.637608 
L 311.127542 45.435305 
L 311.266953 45.4716 
L 311.852348 45.644003 
L 312.329836 45.780989 
L 313.371264 46.107974 
L 313.490967 46.14882 
L 314.136748 46.365731 
L 314.69675 46.538983 
L 315.17242 46.712804 
L 315.307152 46.759288 
L 315.757418 46.923826 
L 317.047671 47.421337 
L 317.438423 47.576863 
L 317.759172 47.719369 
L 318.144366 47.879841 
L 318.423824 47.997186 
L 319.034147 48.26275 
L 319.295828 48.388723 
L 319.725867 48.599421 
L 320.044975 48.758667 
L 320.158341 48.809168 
L 320.532109 49.001606 
L 320.71369 49.096898 
L 321.419301 49.456595 
L 321.691275 49.600541 
L 321.99942 49.756268 
L 322.709937 50.150192 
L 322.822229 50.211901 
L 323.053134 50.35102 
L 323.189987 50.424453 
L 323.671901 50.729252 
L 324.021876 50.953488 
L 324.798865 51.405468 
L 328.925148 54.433768 
L 329.040151 54.521991 
L 329.2841 54.711967 
L 329.963007 55.302862 
L 330.165484 55.45905 
L 331.208224 56.329909 
L 331.508125 56.578895 
L 331.715719 56.748797 
L 331.890537 56.907191 
L 332.200353 57.215483 
L 332.69065 57.685894 
L 333.503883 58.429037 
L 333.668316 58.580382 
L 333.778054 58.68933 
L 333.989745 58.896478 
L 334.112825 59.012609 
L 334.364742 59.288104 
L 334.596379 59.512789 
L 334.913368 59.839624 
L 335.094335 60.039311 
L 335.254139 60.184426 
L 335.406539 60.335445 
L 335.637634 60.552936 
L 335.956258 60.900626 
L 336.209791 61.173791 
L 336.400059 61.353961 
L 336.533767 61.491714 
L 336.692712 61.632499 
L 336.865615 61.799243 
L 337.064292 62.012569 
L 337.253843 62.215478 
L 337.376548 62.349782 
L 337.701637 62.689603 
L 338.905407 63.924476 
L 339.111214 64.131782 
L 340.472407 65.672727 
L 340.598399 65.811211 
L 340.838522 66.082083 
L 341.295545 66.556982 
L 341.407094 66.705848 
L 341.613211 66.904306 
L 341.782751 67.091172 
L 342.149164 67.475857 
L 342.288671 67.659847 
L 342.42206 67.808851 
L 342.582818 68.005966 
L 342.755619 68.205073 
L 342.890291 68.353922 
L 344.796586 70.397215 
L 344.927086 70.537709 
L 345.138723 70.738063 
L 345.580056 71.220344 
L 345.896928 71.584409 
L 346.199458 71.927483 
L 346.318423 72.088132 
L 346.640703 72.384915 
L 346.753144 72.511697 
L 347.000267 72.791344 
L 347.259937 73.041864 
L 347.43931 73.247202 
L 347.554965 73.377804 
L 347.685394 73.524358 
L 348.012967 73.849517 
L 348.482767 74.334768 
L 348.610465 74.486665 
L 349.674663 75.756494 
L 349.828187 75.932587 
L 349.961774 76.09737 
L 350.111304 76.274381 
L 350.246584 76.431128 
L 350.406376 76.617796 
L 350.718293 76.983032 
L 350.844448 77.159146 
L 351.024763 77.391851 
L 351.156523 77.562413 
L 351.662977 78.223881 
L 352.00036 78.72822 
L 352.112868 78.895941 
L 352.326475 79.223131 
L 353.19144 80.467998 
L 353.30409 80.607998 
L 353.442807 80.860889 
L 353.659001 81.211563 
L 353.878283 81.548743 
L 354.171118 81.981396 
L 354.62077 82.743354 
L 354.74016 83.010135 
L 354.859955 83.209536 
L 355.408669 84.215254 
L 355.535935 84.453556 
L 355.873178 85.09444 
L 355.984185 85.312786 
L 356.086347 85.516241 
L 356.221517 85.816615 
L 356.458769 86.211204 
L 356.57157 86.438726 
L 356.750939 86.83869 
L 358.005095 89.442552 
L 358.130391 89.629585 
L 358.205652 89.831352 
L 360.212765 94.624379 
L 360.373421 95.024661 
L 360.675799 95.710419 
L 360.800022 96.103946 
L 361.031472 96.687978 
L 361.178576 97.107976 
L 361.271885 97.403592 
L 361.39492 97.793999 
L 361.639258 98.3712 
L 361.711786 98.598818 
L 361.829722 98.945252 
L 362.287914 100.299663 
L 362.396923 100.640257 
L 362.711083 101.565337 
L 362.799327 101.785739 
L 362.909709 102.21789 
L 363.028088 102.610148 
L 363.147911 103.027227 
L 363.251056 103.393116 
L 365.669766 111.710734 
L 365.867114 112.499191 
L 366.004048 112.954353 
L 366.140703 113.477512 
L 366.459067 114.341585 
L 366.581567 114.888058 
L 366.709271 115.308095 
L 367.090306 116.540893 
L 367.231132 117.032412 
L 367.642516 118.437127 
L 367.70054 118.640912 
L 367.842994 119.458387 
L 368.018703 120.049494 
L 368.099361 120.250538 
L 368.210197 120.679528 
L 368.529861 121.458869 
L 368.781042 122.450241 
L 368.934259 123.000103 
L 369.101293 123.685669 
L 369.401832 124.978074 
L 369.495147 125.210626 
L 369.868003 126.582932 
L 370.050563 127.466327 
L 370.332465 128.792352 
L 370.417904 129.106587 
L 370.571124 129.980941 
L 370.675451 130.484001 
L 370.825378 131.210588 
L 370.918803 131.602152 
L 371.040036 132.334657 
L 371.084078 132.559826 
L 372.422857 138.052418 
L 372.590119 138.815176 
L 372.692329 139.076135 
L 372.871312 139.825762 
L 373.101759 140.948694 
L 373.173543 141.298444 
L 373.324438 141.594722 
L 373.492374 142.636757 
L 373.562217 143.082381 
L 373.785087 144.005057 
L 373.848105 144.414112 
L 373.985828 145.044073 
L 374.18633 145.916634 
L 374.274286 146.597389 
L 374.386933 147.064655 
L 374.498432 147.382438 
L 374.910486 149.944759 
L 375.034046 150.220318 
L 375.080269 150.499785 
L 375.184942 150.688324 
L 375.287117 151.559812 
L 376.522035 158.070577 
L 376.711174 158.348076 
L 376.820063 158.915083 
L 377.482524 162.193332 
L 377.691476 162.709574 
L 378.345175 166.547316 
L 378.600202 166.97564 
L 378.663401 167.861278 
L 378.835162 168.08905 
L 379.306393 171.865304 
L 379.430028 172.42826 
L 379.874849 174.220596 
L 380.195925 174.535837 
L 380.309279 175.513001 
L 380.620291 178.001255 
L 380.960444 178.383832 
L 381.178624 180.41678 
L 381.185963 180.849811 
L 381.445396 181.292574 
L 381.700476 182.683889 
L 381.810849 184.180972 
L 382.943811 184.706393 
L 383.011918 185.801237 
L 383.051956 186.960519 
L 383.333343 187.566786 
L 383.591405 188.838331 
L 383.84077 189.506263 
L 383.98165 190.914156 
L 384.184436 191.65772 
L 384.253895 194.073246 
L 384.923153 194.949039 
L 385.331127 195.865582 
L 385.412363 196.826851 
L 385.744045 197.837438 
L 386.691257 198.902676 
L 387.211025 200.028818 
L 387.274642 202.494797 
L 388.757612 205.314186 
L 389.669317 208.605505 
L 389.789114 210.483317 
L 390.344568 212.559142 
L 390.581933 214.879717 
L 392.156512 217.510568 
L 395.151162 220.547662 
L 397.354307 224.139783 
L 399.03179 228.536183 
L 400.776538 234.204128 
L 400.857266 242.192648 
L 402.481041 255.849114 
L 402.481041 255.849114 
" clip-path="url(#pa5275b0269)" style="fill: none; stroke: #d62728; stroke-opacity: 0.8; stroke-width: 1.5; stroke-linecap: square"/>
   </g>
   <g id="line2d_63">
    <path d="M 93.545562 33.658125 
L 138.977667 33.782625 
L 161.022975 34.249235 
L 162.280193 34.30025 
L 166.746967 34.517637 
L 167.345236 34.548964 
L 170.008774 34.699766 
L 170.178425 34.709509 
L 173.432955 34.923229 
L 173.803848 34.952274 
L 176.191918 35.12207 
L 176.728518 35.163266 
L 179.040301 35.361562 
L 179.315735 35.384718 
L 181.0427 35.54373 
L 185.031333 35.915157 
L 185.165766 35.929723 
L 189.371099 36.364928 
L 189.493286 36.384419 
L 191.246972 36.574024 
L 191.528467 36.60358 
L 193.281029 36.807326 
L 193.996304 36.888359 
L 195.857449 37.073989 
L 196.084355 37.09806 
L 198.017086 37.304007 
L 199.356659 37.442107 
L 200.423572 37.545561 
L 201.804922 37.688741 
L 208.587969 38.317282 
L 208.742397 38.335005 
L 210.44031 38.485655 
L 212.73703 38.691878 
L 214.873859 38.860246 
L 215.36127 38.899631 
L 217.177281 39.03761 
L 217.71964 39.077351 
L 220.172829 39.241433 
L 220.408365 39.263658 
L 245.441247 40.4039 
L 270.246063 40.787057 
L 285.919195 40.947274 
L 297.429626 41.258445 
L 297.552296 41.267262 
L 298.788576 41.32798 
L 300.849756 41.454804 
L 302.411155 41.572744 
L 304.084648 41.71243 
L 312.997516 43.169854 
L 313.323181 43.252175 
L 313.89586 43.396558 
L 314.057581 43.448205 
L 314.591392 43.606446 
L 316.757533 44.282384 
L 317.160819 44.419882 
L 317.378135 44.509773 
L 318.254793 44.851888 
L 318.510801 44.962826 
L 319.277278 45.295382 
L 319.395233 45.350906 
L 320.229757 45.729264 
L 320.388225 45.801745 
L 320.724955 45.947046 
L 321.225134 46.185647 
L 321.411062 46.274036 
L 321.809652 46.480717 
L 322.362064 46.781732 
L 322.5665 46.898743 
L 322.974033 47.126954 
L 323.192374 47.266455 
L 324.452047 48.081719 
L 324.687103 48.231312 
L 324.809382 48.309425 
L 325.042522 48.453354 
L 325.524853 48.786876 
L 325.665347 48.889937 
L 326.621396 49.592075 
L 326.828003 49.745158 
L 326.943894 49.837469 
L 327.201831 50.054941 
L 327.378592 50.187395 
L 327.582538 50.340534 
L 328.800164 51.376484 
L 328.912515 51.474933 
L 330.569159 52.972633 
L 331.532153 53.951648 
L 331.673551 54.099088 
L 331.912127 54.355866 
L 332.032947 54.487677 
L 332.282614 54.759075 
L 332.492536 55.003989 
L 334.152624 56.853857 
L 334.282693 56.998654 
L 334.396549 57.132189 
L 334.663383 57.430361 
L 334.82016 57.603033 
L 335.17873 58.049202 
L 335.365144 58.276133 
L 336.253095 59.370529 
L 336.39184 59.526782 
L 336.818428 60.054536 
L 336.958807 60.233643 
L 337.130192 60.430908 
L 337.291269 60.637041 
L 337.43865 60.83543 
L 337.768525 61.248433 
L 337.926755 61.473591 
L 338.060538 61.64649 
L 338.185469 61.814663 
L 345.015177 70.742676 
L 345.206087 70.978632 
L 345.38928 71.210729 
L 345.552753 71.459195 
L 345.70185 71.635177 
L 346.403178 72.588039 
L 346.601567 72.883853 
L 346.713868 73.043578 
L 346.844454 73.208326 
L 346.989286 73.41387 
L 347.295124 73.797 
L 347.432328 73.985593 
L 347.627465 74.260144 
L 347.742029 74.43939 
L 347.899564 74.676276 
L 348.446075 75.475299 
L 348.639542 75.750417 
L 348.808554 76.04016 
L 351.263961 80.41243 
L 351.385084 80.65507 
L 351.77034 81.412724 
L 351.893599 81.733876 
L 352.092935 82.150868 
L 352.219789 82.386401 
L 352.475896 82.899498 
L 352.585913 83.190434 
L 352.704199 83.460692 
L 352.8261 83.734708 
L 352.897269 83.922728 
L 353.010735 84.138441 
L 353.130551 84.36309 
L 353.243581 84.630118 
L 353.342713 84.813519 
L 353.453241 85.079973 
L 353.680087 85.641403 
L 353.847116 86.100928 
L 354.049744 86.630119 
L 354.196582 87.034679 
L 354.312359 87.295138 
L 354.422805 87.624664 
L 354.625331 88.141419 
L 354.806716 88.56643 
L 354.877367 88.75376 
L 355.002121 89.050596 
L 355.302793 89.977626 
L 355.489176 90.53402 
L 355.587496 90.759241 
L 356.231947 92.441863 
L 356.342289 92.700124 
L 357.342464 95.748887 
L 357.456228 96.108135 
L 357.525343 96.281249 
L 357.941328 97.556792 
L 358.08958 97.98357 
L 361.959929 111.174915 
L 362.07697 111.613905 
L 362.136556 111.929778 
L 362.26455 112.413289 
L 362.302905 112.563427 
L 362.760026 114.295181 
L 362.847206 114.520866 
L 363.384384 116.425935 
L 363.532019 117.069742 
L 363.625374 117.48747 
L 363.781354 118.076703 
L 363.83661 118.240509 
L 364.29424 120.118321 
L 364.373444 120.463091 
L 364.760985 121.818013 
L 364.891241 122.328632 
L 365.053402 123.131974 
L 365.133814 123.534314 
L 365.249833 123.99393 
L 365.838973 125.57298 
L 365.966736 125.893782 
L 367.444461 131.320637 
L 367.73334 132.415481 
L 367.914681 132.871042 
L 368.067084 133.37675 
L 368.162146 133.774787 
L 368.317107 134.345902 
L 368.529301 135.278219 
L 368.621371 135.452576 
L 369.282044 137.871908 
L 369.401278 138.12099 
L 370.177657 141.563284 
L 370.296927 141.743213 
L 370.420485 142.355129 
L 370.501696 142.668365 
L 370.698989 143.506879 
L 370.845647 144.313905 
L 370.991253 144.59043 
L 371.214321 145.516921 
L 371.352172 146.10951 
L 371.745433 147.673992 
L 371.745859 147.755574 
L 371.878737 147.919759 
L 372.087659 148.252292 
L 372.344161 148.848082 
L 372.56348 149.551804 
L 372.689266 150.188879 
L 372.815715 150.56239 
L 373.326689 152.544172 
L 373.409484 152.859412 
L 373.5416 153.396288 
L 374.197272 156.32483 
L 374.27334 156.579055 
L 374.36842 157.362023 
L 374.402747 157.495597 
L 374.578199 157.765494 
L 374.650236 158.316638 
L 374.743287 159.027983 
L 374.902825 159.319871 
L 375.359985 161.007465 
L 375.509957 161.825097 
L 375.644063 162.161894 
L 375.847228 162.678136 
L 376.112134 163.029969 
L 376.230295 163.753063 
L 376.470636 164.695928 
L 376.487894 165.284094 
L 376.7021 165.890361 
L 376.965766 167.382044 
L 377.276267 168.757168 
L 377.796981 172.113332 
L 377.956606 172.396821 
L 377.958145 172.684448 
L 378.593332 173.272615 
L 378.679539 173.878881 
L 379.049733 175.481563 
L 379.051353 175.818359 
L 379.246571 176.509732 
L 379.346624 177.969816 
L 380.083709 180.385341 
L 380.436044 180.818372 
L 380.658312 182.177678 
L 380.959083 182.65245 
L 381.198837 184.149534 
L 381.538751 184.674954 
L 381.545047 185.214772 
L 381.831677 185.769798 
L 381.936083 186.92908 
L 382.417407 187.535347 
L 382.471826 188.160864 
L 382.915966 188.806892 
L 383.525404 190.166198 
L 383.641224 192.399013 
L 383.752038 193.203292 
L 383.988941 194.041807 
L 384.03614 194.917601 
L 385.013625 198.871238 
L 385.045609 199.997379 
L 385.199989 201.191813 
L 385.501259 202.463358 
L 385.555059 203.822664 
L 386.442401 206.859758 
L 386.7594 208.574066 
L 387.040075 212.527703 
L 388.975866 214.848278 
L 389.079655 217.479129 
L 389.676175 224.108344 
L 393.474919 228.504744 
L 394.100679 234.172689 
L 408.492584 242.161209 
L 423.36023 255.817675 
L 423.36023 255.817675 
" clip-path="url(#pa5275b0269)" style="fill: none; stroke: #9467bd; stroke-opacity: 0.8; stroke-width: 1.5; stroke-linecap: square"/>
   </g>
   <g id="line2d_64">
    <path d="M 89.115823 33.658125 
L 137.087453 33.774986 
L 138.233883 33.787288 
L 165.186936 34.452874 
L 180.06123 35.504451 
L 180.391539 35.534066 
L 181.670681 35.659601 
L 182.316051 35.721008 
L 190.279698 36.542414 
L 191.043032 36.619103 
L 196.249245 37.186228 
L 197.976212 37.366404 
L 200.470286 37.625905 
L 200.624015 37.645445 
L 209.470169 38.501671 
L 210.181128 38.563661 
L 211.726243 38.696604 
L 213.797823 38.872017 
L 216.983867 39.127888 
L 229.157419 39.911951 
L 233.447372 40.104115 
L 233.770597 40.120733 
L 249.62623 40.621643 
L 270.703804 40.900364 
L 280.356721 41.00188 
L 290.830208 41.160069 
L 298.78957 41.472148 
L 298.994451 41.486249 
L 301.404876 41.660372 
L 305.392693 42.048796 
L 308.8412 42.541138 
L 310.288631 42.800927 
L 311.333965 42.99153 
L 311.446074 43.01358 
L 312.151184 43.155287 
L 312.260948 43.18359 
L 313.086333 43.385715 
L 314.786204 43.829295 
L 315.302119 43.974488 
L 316.11699 44.233527 
L 317.295048 44.645354 
L 317.685322 44.781787 
L 318.804331 45.230484 
L 319.219117 45.385517 
L 319.973806 45.732418 
L 320.430383 45.944925 
L 320.54426 45.998529 
L 324.869363 48.379524 
L 325.043155 48.478795 
L 326.375121 49.418796 
L 326.48835 49.510066 
L 327.645157 50.366827 
L 328.311673 50.893492 
L 328.74582 51.264375 
L 328.871554 51.362792 
L 329.121731 51.59581 
L 329.311532 51.752076 
L 329.516278 51.934809 
L 330.85546 53.15402 
L 330.969688 53.281952 
L 331.10619 53.41412 
L 331.361093 53.659099 
L 331.80636 54.099155 
L 334.856347 57.393162 
L 334.970214 57.515886 
L 335.168939 57.746697 
L 335.463462 58.07565 
L 335.604282 58.2383 
L 335.972115 58.679305 
L 337.399624 60.416807 
L 337.641863 60.686448 
L 337.874837 60.974799 
L 340.241455 63.958729 
L 340.681181 64.494385 
L 340.858519 64.723657 
L 341.249456 65.241117 
L 341.480526 65.563536 
L 341.912459 66.141435 
L 342.091585 66.377688 
L 342.231359 66.534573 
L 342.394308 66.763561 
L 342.664529 67.121656 
L 342.779958 67.296982 
L 342.964615 67.55596 
L 343.094148 67.688842 
L 344.566218 69.729144 
L 344.670516 69.860336 
L 345.118085 70.492475 
L 345.240486 70.666378 
L 345.599768 71.18408 
L 347.667048 74.218381 
L 347.800375 74.393146 
L 348.067827 74.783575 
L 349.219171 76.669638 
L 350.658054 79.249002 
L 350.777052 79.436643 
L 350.915342 79.700829 
L 351.052749 79.960755 
L 352.211232 82.344226 
L 352.580864 83.173499 
L 352.990603 84.129533 
L 353.126551 84.386613 
L 353.249811 84.673662 
L 353.338055 84.853957 
L 354.373354 87.357762 
L 354.515187 87.742356 
L 354.688342 88.206049 
L 354.802763 88.555052 
L 354.857803 88.697218 
L 354.99823 89.138313 
L 355.160914 89.551159 
L 355.785976 91.425565 
L 355.873933 91.642126 
L 356.095531 92.330963 
L 356.697681 94.077832 
L 356.786846 94.35837 
L 356.906631 94.7369 
L 357.100651 95.270256 
L 357.221978 95.713407 
L 357.457567 96.418505 
L 357.699973 97.281689 
L 358.076823 98.557437 
L 358.626751 100.454759 
L 358.712167 100.715619 
L 361.840512 111.552695 
L 362.066524 112.553017 
L 362.438391 113.679159 
L 362.546873 114.148279 
L 362.605298 114.357085 
L 363.106456 116.359742 
L 363.18485 116.643952 
L 363.310547 117.0695 
L 363.610858 118.202729 
L 363.736519 118.701076 
L 363.85625 119.154887 
L 364.2921 120.644421 
L 364.606835 121.94487 
L 364.869007 122.731711 
L 365.279484 124.257183 
L 365.525411 124.810084 
L 365.780113 125.776452 
L 365.853061 126.073136 
L 366.547372 128.530058 
L 366.680105 129.155574 
L 366.798188 129.475941 
L 366.999199 130.435596 
L 367.354327 132.394962 
L 367.515344 132.58314 
L 367.57156 132.849646 
L 367.720083 133.591737 
L 367.930204 134.362876 
L 368.106751 134.993734 
L 368.560185 136.970089 
L 368.826476 137.74093 
L 368.934564 137.938446 
L 369.106108 138.74893 
L 369.196081 139.0092 
L 369.76231 141.050123 
L 369.892114 141.760186 
L 370.932352 145.38849 
L 371.065267 145.607 
L 371.171066 146.277458 
L 371.941122 149.658536 
L 372.025512 150.298568 
L 372.153681 150.579363 
L 373.173163 153.965177 
L 373.360772 154.88172 
L 374.126942 157.782467 
L 374.300266 158.333611 
L 374.773606 160.549665 
L 374.966915 160.864906 
L 375.581938 164.330324 
L 375.894762 165.703166 
L 376.052526 165.907334 
L 376.167969 167.17888 
L 376.341563 167.846812 
L 376.747587 169.499455 
L 376.871094 169.998269 
L 376.982195 170.510041 
L 377.036177 170.771 
L 377.508436 171.303522 
L 377.588167 172.130306 
L 378.281576 173.590389 
L 378.574441 174.841738 
L 378.84822 175.498536 
L 379.110419 175.835332 
L 379.502647 178.369367 
L 379.82828 179.157556 
L 380.017088 179.978597 
L 380.571104 181.73105 
L 381.028362 182.194651 
L 381.074495 182.669424 
L 381.456428 183.654735 
L 381.833926 184.166507 
L 381.9227 185.231745 
L 382.194526 185.786771 
L 382.305644 187.55232 
L 382.581148 188.177837 
L 382.845088 190.183171 
L 383.170076 190.899691 
L 383.343294 191.643255 
L 383.552686 194.934574 
L 383.973679 196.812386 
L 384.755231 197.822972 
L 384.789638 198.888211 
L 385.123768 200.014353 
L 385.173568 202.480331 
L 386.175925 203.839637 
L 386.379864 205.299721 
L 386.464908 206.876731 
L 387.680549 208.591039 
L 387.83991 212.544676 
L 388.192727 214.865251 
L 388.461665 220.533197 
L 390.594466 224.125317 
L 399.450021 228.521717 
L 401.290629 234.189662 
L 403.56454 242.178183 
L 405.205764 255.834648 
L 405.205764 255.834648 
" clip-path="url(#pa5275b0269)" style="fill: none; stroke: #8c564b; stroke-opacity: 0.8; stroke-width: 1.5; stroke-linecap: square"/>
   </g>
   <g id="line2d_65">
    <path d="M 69.454545 33.658125 
L 138.141417 33.769955 
L 161.55651 34.269483 
L 162.793278 34.318179 
L 166.385192 34.491521 
L 167.545034 34.555124 
L 171.370448 34.792046 
L 176.575849 35.18518 
L 178.149949 35.319616 
L 180.260425 35.507518 
L 182.306713 35.693633 
L 190.219196 36.506282 
L 191.02287 36.596718 
L 192.539764 36.752556 
L 193.890783 36.893755 
L 195.626309 37.068277 
L 195.962448 37.102714 
L 199.294449 37.433809 
L 200.853823 37.589738 
L 202.78274 37.777943 
L 229.57348 39.822565 
L 232.612319 39.975293 
L 232.912565 39.992833 
L 265.837132 40.780117 
L 295.329982 41.210203 
L 297.614847 41.315528 
L 303.324699 41.70761 
L 311.28911 42.864777 
L 311.404284 42.889074 
L 312.716492 43.19312 
L 312.968832 43.25677 
L 313.57947 43.402682 
L 313.80318 43.464551 
L 314.632148 43.673718 
L 315.050659 43.796869 
L 315.581997 43.962418 
L 315.701713 43.998226 
L 316.386432 44.210609 
L 316.521924 44.256267 
L 321.899686 46.503766 
L 322.274021 46.706872 
L 322.7373 46.972315 
L 323.197576 47.228959 
L 323.493155 47.399092 
L 323.898223 47.640585 
L 324.04229 47.739751 
L 324.490437 48.024237 
L 324.82182 48.224387 
L 325.232334 48.513889 
L 325.590882 48.779741 
L 325.827772 48.93189 
L 326.980142 49.783031 
L 327.16027 49.920937 
L 327.459865 50.159865 
L 327.654442 50.328332 
L 327.783806 50.438525 
L 328.870788 51.359523 
L 329.068022 51.518841 
L 329.229017 51.653945 
L 329.448397 51.843906 
L 329.578068 51.958516 
L 330.276509 52.610861 
L 330.718346 53.013828 
L 330.909972 53.199938 
L 331.035617 53.330863 
L 331.207033 53.509072 
L 331.731103 54.062711 
L 331.918241 54.234222 
L 332.249213 54.58179 
L 332.605595 54.958384 
L 332.916706 55.282416 
L 333.600258 56.006551 
L 333.745144 56.165415 
L 333.858659 56.294065 
L 334.07192 56.518058 
L 334.979681 57.570962 
L 335.107742 57.697323 
L 335.444645 58.08479 
L 335.788662 58.468601 
L 336.039364 58.76167 
L 336.161549 58.908507 
L 336.304876 59.118116 
L 336.652285 59.545072 
L 336.825037 59.733468 
L 336.935541 59.857558 
L 337.083285 60.040412 
L 337.40699 60.397717 
L 337.532729 60.549504 
L 337.698496 60.753724 
L 337.820223 60.896357 
L 338.000173 61.112262 
L 342.68017 67.138908 
L 342.905048 67.427598 
L 343.088339 67.661636 
L 343.848569 68.712166 
L 343.953565 68.841185 
L 345.784376 71.298933 
L 345.908464 71.463111 
L 346.155475 71.809463 
L 346.314498 72.019885 
L 350.553353 78.647352 
L 350.666622 78.854019 
L 350.767501 79.020429 
L 351.283866 80.041652 
L 351.360354 80.221099 
L 351.482213 80.455778 
L 351.589246 80.736778 
L 351.707975 80.999769 
L 351.804846 81.207702 
L 351.983367 81.58192 
L 352.05699 81.747365 
L 352.19701 82.009775 
L 353.283149 84.392134 
L 353.366458 84.553318 
L 353.710005 85.438272 
L 354.052126 86.357611 
L 354.304355 87.031411 
L 354.413344 87.3905 
L 354.615484 87.963299 
L 355.804988 91.148871 
L 355.883897 91.329732 
L 356.389119 92.799494 
L 356.465808 93.021606 
L 357.113631 94.811283 
L 357.254649 95.255436 
L 357.3616 95.5649 
L 357.575719 96.192839 
L 357.649395 96.463023 
L 357.81328 97.014767 
L 357.902917 97.265035 
L 358.015063 97.685058 
L 358.686572 100.061189 
L 358.765409 100.250774 
L 358.91117 100.800567 
L 359.02911 101.25789 
L 359.155279 101.813137 
L 359.209829 101.964417 
L 359.332562 102.466305 
L 359.652571 103.30375 
L 359.854686 103.991457 
L 359.973005 104.321993 
L 360.117791 104.87007 
L 360.870803 107.683048 
L 361.765095 110.727266 
L 361.834846 110.965627 
L 362.085371 112.002137 
L 362.353842 113.012024 
L 362.510368 113.537066 
L 362.663156 113.988002 
L 362.80271 114.49474 
L 363.176689 115.902633 
L 363.255273 116.180247 
L 363.35388 116.629365 
L 363.44632 117.037362 
L 363.510212 117.17526 
L 363.872846 118.480276 
L 363.974297 118.910021 
L 364.340075 120.077319 
L 364.449565 120.461861 
L 365.060652 122.528605 
L 365.175411 123.198103 
L 365.325411 123.818317 
L 365.503795 124.559086 
L 365.587616 124.888942 
L 365.753946 125.30265 
L 365.835393 125.460058 
L 366.12603 126.738628 
L 366.304928 127.136091 
L 366.423374 127.366865 
L 366.52229 127.659187 
L 366.703248 128.532303 
L 366.855822 129.062717 
L 367.033831 129.510512 
L 368.14622 133.27811 
L 368.242198 133.474936 
L 368.922812 136.139726 
L 369.140819 137.067056 
L 369.20402 137.499032 
L 369.332169 138.040198 
L 369.838624 140.367008 
L 369.943709 140.592823 
L 371.009857 145.318434 
L 371.10389 145.904414 
L 371.384552 147.131401 
L 371.44517 147.450471 
L 371.57373 147.69321 
L 371.747581 148.271511 
L 372.032602 149.21602 
L 372.244547 150.023965 
L 372.352802 150.487565 
L 372.504609 150.866464 
L 372.616753 151.155497 
L 372.766623 151.746605 
L 372.829485 152.150765 
L 372.941809 152.459421 
L 373.421845 154.306149 
L 373.506056 154.650801 
L 374.044091 156.985868 
L 374.204672 157.784712 
L 374.432152 158.476085 
L 374.516438 158.759574 
L 374.746409 159.192605 
L 374.856872 159.785194 
L 375.148396 160.867151 
L 375.34094 162.181112 
L 375.463996 162.523766 
L 375.517293 163.049187 
L 375.637531 163.407417 
L 375.714413 163.772282 
L 375.825449 164.144031 
L 376.445739 166.535096 
L 376.641198 166.96342 
L 376.866566 167.401263 
L 377.022307 168.540431 
L 377.223538 169.749529 
L 377.326696 170.254739 
L 377.497534 170.773245 
L 377.676862 171.037707 
L 378.054532 173.291833 
L 378.189803 173.8981 
L 378.339031 174.523617 
L 378.508908 175.169645 
L 378.762784 175.837578 
L 378.7986 176.528951 
L 379.102984 177.24547 
L 379.256487 178.371612 
L 379.414969 178.761766 
L 379.538115 179.980842 
L 379.900803 180.837591 
L 380.29409 182.196896 
L 380.294159 182.671669 
L 380.714717 183.158166 
L 380.774454 184.168752 
L 381.099294 185.233991 
L 381.203849 186.948299 
L 381.63591 187.554566 
L 381.835907 188.180082 
L 381.840498 188.826111 
L 382.011583 189.494043 
L 382.064401 190.185416 
L 382.824883 190.901936 
L 383.148227 192.418231 
L 383.557904 194.061025 
L 383.650469 194.936819 
L 384.240445 196.814631 
L 384.676387 197.825218 
L 384.71831 200.016598 
L 384.959187 201.211031 
L 385.673321 202.482577 
L 386.020352 203.841882 
L 386.78748 205.301966 
L 387.914204 208.593285 
L 388.325981 210.471097 
L 388.580585 212.546922 
L 388.582597 214.867497 
L 390.31096 217.498348 
L 390.475209 220.535442 
L 390.87944 224.127562 
L 392.185396 228.523962 
L 392.300219 234.191908 
L 393.853112 242.180428 
L 394.930229 255.836893 
L 394.930229 255.836893 
" clip-path="url(#pa5275b0269)" style="fill: none; stroke: #e377c2; stroke-opacity: 0.8; stroke-width: 1.5; stroke-linecap: square"/>
   </g>
   <g id="patch_3">
    <path d="M 51.7 271.798125 
L 51.7 22.318125 
" style="fill: none; stroke: #000000; stroke-width: 0.8; stroke-linejoin: miter; stroke-linecap: square"/>
   </g>
   <g id="patch_4">
    <path d="M 442.3 271.798125 
L 442.3 22.318125 
" style="fill: none; stroke: #000000; stroke-width: 0.8; stroke-linejoin: miter; stroke-linecap: square"/>
   </g>
   <g id="patch_5">
    <path d="M 51.7 271.798125 
L 442.3 271.798125 
" style="fill: none; stroke: #000000; stroke-width: 0.8; stroke-linejoin: miter; stroke-linecap: square"/>
   </g>
   <g id="patch_6">
    <path d="M 51.7 22.318125 
L 442.3 22.318125 
" style="fill: none; stroke: #000000; stroke-width: 0.8; stroke-linejoin: miter; stroke-linecap: square"/>
   </g>
   <g id="text_17">
    <!-- Importance distributions -->
    <g transform="translate(173.392188 16.318125) scale(0.12 -0.12)">
     <defs>
      <path id="DejaVuSans-2c" d="M 628 4666 
L 1259 4666 
L 1259 0 
L 628 0 
L 628 4666 
z
" transform="scale(0.015625)"/>
      <path id="DejaVuSans-45" d="M 3116 1747 
Q 3116 2381 2855 2742 
Q 2594 3103 2138 3103 
Q 1681 3103 1420 2742 
Q 1159 2381 1159 1747 
Q 1159 1113 1420 752 
Q 1681 391 2138 391 
Q 2594 391 2855 752 
Q 3116 1113 3116 1747 
z
M 1159 2969 
Q 1341 3281 1617 3432 
Q 1894 3584 2278 3584 
Q 2916 3584 3314 3078 
Q 3713 2572 3713 1747 
Q 3713 922 3314 415 
Q 2916 -91 2278 -91 
Q 1894 -91 1617 61 
Q 1341 213 1159 525 
L 1159 0 
L 581 0 
L 581 4863 
L 1159 4863 
L 1159 2969 
z
" transform="scale(0.015625)"/>
      <path id="DejaVuSans-58" d="M 544 1381 
L 544 3500 
L 1119 3500 
L 1119 1403 
Q 1119 906 1312 657 
Q 1506 409 1894 409 
Q 2359 409 2629 706 
Q 2900 1003 2900 1516 
L 2900 3500 
L 3475 3500 
L 3475 0 
L 2900 0 
L 2900 538 
Q 2691 219 2414 64 
Q 2138 -91 1772 -91 
Q 1169 -91 856 284 
Q 544 659 544 1381 
z
M 1991 3584 
L 1991 3584 
z
" transform="scale(0.015625)"/>
     </defs>
     <use xlink:href="#DejaVuSans-2c"/>
     <use xlink:href="#DejaVuSans-50" transform="translate(29.5 0)"/>
     <use xlink:href="#DejaVuSans-53" transform="translate(126.90625 0)"/>
     <use xlink:href="#DejaVuSans-52" transform="translate(190.390625 0)"/>
     <use xlink:href="#DejaVuSans-55" transform="translate(251.578125 0)"/>
     <use xlink:href="#DejaVuSans-57" transform="translate(292.6875 0)"/>
     <use xlink:href="#DejaVuSans-44" transform="translate(331.890625 0)"/>
     <use xlink:href="#DejaVuSans-51" transform="translate(393.171875 0)"/>
     <use xlink:href="#DejaVuSans-46" transform="translate(456.546875 0)"/>
     <use xlink:href="#DejaVuSans-48" transform="translate(511.53125 0)"/>
     <use xlink:href="#DejaVuSans-3" transform="translate(573.0625 0)"/>
     <use xlink:href="#DejaVuSans-47" transform="translate(604.84375 0)"/>
     <use xlink:href="#DejaVuSans-4c" transform="translate(668.328125 0)"/>
     <use xlink:href="#DejaVuSans-56" transform="translate(696.109375 0)"/>
     <use xlink:href="#DejaVuSans-57" transform="translate(748.203125 0)"/>
     <use xlink:href="#DejaVuSans-55" transform="translate(787.40625 0)"/>
     <use xlink:href="#DejaVuSans-4c" transform="translate(828.515625 0)"/>
     <use xlink:href="#DejaVuSans-45" transform="translate(856.296875 0)"/>
     <use xlink:href="#DejaVuSans-58" transform="translate(919.78125 0)"/>
     <use xlink:href="#DejaVuSans-57" transform="translate(983.15625 0)"/>
     <use xlink:href="#DejaVuSans-4c" transform="translate(1022.359375 0)"/>
     <use xlink:href="#DejaVuSans-52" transform="translate(1050.140625 0)"/>
     <use xlink:href="#DejaVuSans-51" transform="translate(1111.328125 0)"/>
     <use xlink:href="#DejaVuSans-56" transform="translate(1174.703125 0)"/>
    </g>
   </g>
   <g id="legend_1">
    <g id="patch_7">
     <path d="M 56.6 268.298125 
L 135.858594 268.298125 
Q 137.258594 268.298125 137.258594 266.898125 
L 137.258594 194.094297 
Q 137.258594 192.694297 135.858594 192.694297 
L 56.6 192.694297 
Q 55.2 192.694297 55.2 194.094297 
L 55.2 266.898125 
Q 55.2 268.298125 56.6 268.298125 
z
" style="fill: #ffffff; opacity: 0.8; stroke: #cccccc; stroke-linejoin: miter"/>
    </g>
    <g id="line2d_66">
     <path d="M 58 198.363203 
L 65 198.363203 
L 72 198.363203 
" style="fill: none; stroke: #1f77b4; stroke-opacity: 0.8; stroke-width: 1.5; stroke-linecap: square"/>
    </g>
    <g id="text_18">
     <!-- pretrain -->
     <g transform="translate(77.6 200.813203) scale(0.07 -0.07)">
      <use xlink:href="#DejaVuSans-53"/>
      <use xlink:href="#DejaVuSans-55" transform="translate(63.484375 0)"/>
      <use xlink:href="#DejaVuSans-48" transform="translate(102.390625 0)"/>
      <use xlink:href="#DejaVuSans-57" transform="translate(163.921875 0)"/>
      <use xlink:href="#DejaVuSans-55" transform="translate(203.125 0)"/>
      <use xlink:href="#DejaVuSans-44" transform="translate(244.234375 0)"/>
      <use xlink:href="#DejaVuSans-4c" transform="translate(305.515625 0)"/>
      <use xlink:href="#DejaVuSans-51" transform="translate(333.296875 0)"/>
     </g>
    </g>
    <g id="line2d_67">
     <path d="M 58 208.86375 
L 65 208.86375 
L 72 208.86375 
" style="fill: none; stroke: #ff7f0e; stroke-opacity: 0.8; stroke-width: 1.5; stroke-linecap: square"/>
    </g>
    <g id="text_19">
     <!-- direct-1234 -->
     <g transform="translate(77.6 211.31375) scale(0.07 -0.07)">
      <defs>
       <path id="DejaVuSans-10" d="M 313 2009 
L 1997 2009 
L 1997 1497 
L 313 1497 
L 313 2009 
z
" transform="scale(0.015625)"/>
      </defs>
      <use xlink:href="#DejaVuSans-47"/>
      <use xlink:href="#DejaVuSans-4c" transform="translate(63.484375 0)"/>
      <use xlink:href="#DejaVuSans-55" transform="translate(91.265625 0)"/>
      <use xlink:href="#DejaVuSans-48" transform="translate(130.171875 0)"/>
      <use xlink:href="#DejaVuSans-46" transform="translate(191.703125 0)"/>
      <use xlink:href="#DejaVuSans-57" transform="translate(246.6875 0)"/>
      <use xlink:href="#DejaVuSans-10" transform="translate(285.890625 0)"/>
      <use xlink:href="#DejaVuSans-14" transform="translate(321.96875 0)"/>
      <use xlink:href="#DejaVuSans-15" transform="translate(385.59375 0)"/>
      <use xlink:href="#DejaVuSans-16" transform="translate(449.21875 0)"/>
      <use xlink:href="#DejaVuSans-17" transform="translate(512.84375 0)"/>
     </g>
    </g>
    <g id="line2d_68">
     <path d="M 58 219.364297 
L 65 219.364297 
L 72 219.364297 
" style="fill: none; stroke: #2ca02c; stroke-opacity: 0.8; stroke-width: 1.5; stroke-linecap: square"/>
    </g>
    <g id="text_20">
     <!-- direct-1337 -->
     <g transform="translate(77.6 221.814297) scale(0.07 -0.07)">
      <use xlink:href="#DejaVuSans-47"/>
      <use xlink:href="#DejaVuSans-4c" transform="translate(63.484375 0)"/>
      <use xlink:href="#DejaVuSans-55" transform="translate(91.265625 0)"/>
      <use xlink:href="#DejaVuSans-48" transform="translate(130.171875 0)"/>
      <use xlink:href="#DejaVuSans-46" transform="translate(191.703125 0)"/>
      <use xlink:href="#DejaVuSans-57" transform="translate(246.6875 0)"/>
      <use xlink:href="#DejaVuSans-10" transform="translate(285.890625 0)"/>
      <use xlink:href="#DejaVuSans-14" transform="translate(321.96875 0)"/>
      <use xlink:href="#DejaVuSans-16" transform="translate(385.59375 0)"/>
      <use xlink:href="#DejaVuSans-16" transform="translate(449.21875 0)"/>
      <use xlink:href="#DejaVuSans-1a" transform="translate(512.84375 0)"/>
     </g>
    </g>
    <g id="line2d_69">
     <path d="M 58 229.864844 
L 65 229.864844 
L 72 229.864844 
" style="fill: none; stroke: #d62728; stroke-opacity: 0.8; stroke-width: 1.5; stroke-linecap: square"/>
    </g>
    <g id="text_21">
     <!-- direct-2027 -->
     <g transform="translate(77.6 232.314844) scale(0.07 -0.07)">
      <use xlink:href="#DejaVuSans-47"/>
      <use xlink:href="#DejaVuSans-4c" transform="translate(63.484375 0)"/>
      <use xlink:href="#DejaVuSans-55" transform="translate(91.265625 0)"/>
      <use xlink:href="#DejaVuSans-48" transform="translate(130.171875 0)"/>
      <use xlink:href="#DejaVuSans-46" transform="translate(191.703125 0)"/>
      <use xlink:href="#DejaVuSans-57" transform="translate(246.6875 0)"/>
      <use xlink:href="#DejaVuSans-10" transform="translate(285.890625 0)"/>
      <use xlink:href="#DejaVuSans-15" transform="translate(321.96875 0)"/>
      <use xlink:href="#DejaVuSans-13" transform="translate(385.59375 0)"/>
      <use xlink:href="#DejaVuSans-15" transform="translate(449.21875 0)"/>
      <use xlink:href="#DejaVuSans-1a" transform="translate(512.84375 0)"/>
     </g>
    </g>
    <g id="line2d_70">
     <path d="M 58 240.365391 
L 65 240.365391 
L 72 240.365391 
" style="fill: none; stroke: #9467bd; stroke-opacity: 0.8; stroke-width: 1.5; stroke-linecap: square"/>
    </g>
    <g id="text_22">
     <!-- pretrained-1234 -->
     <g transform="translate(77.6 242.815391) scale(0.07 -0.07)">
      <use xlink:href="#DejaVuSans-53"/>
      <use xlink:href="#DejaVuSans-55" transform="translate(63.484375 0)"/>
      <use xlink:href="#DejaVuSans-48" transform="translate(102.390625 0)"/>
      <use xlink:href="#DejaVuSans-57" transform="translate(163.921875 0)"/>
      <use xlink:href="#DejaVuSans-55" transform="translate(203.125 0)"/>
      <use xlink:href="#DejaVuSans-44" transform="translate(244.234375 0)"/>
      <use xlink:href="#DejaVuSans-4c" transform="translate(305.515625 0)"/>
      <use xlink:href="#DejaVuSans-51" transform="translate(333.296875 0)"/>
      <use xlink:href="#DejaVuSans-48" transform="translate(396.671875 0)"/>
      <use xlink:href="#DejaVuSans-47" transform="translate(458.203125 0)"/>
      <use xlink:href="#DejaVuSans-10" transform="translate(521.6875 0)"/>
      <use xlink:href="#DejaVuSans-14" transform="translate(557.765625 0)"/>
      <use xlink:href="#DejaVuSans-15" transform="translate(621.390625 0)"/>
      <use xlink:href="#DejaVuSans-16" transform="translate(685.015625 0)"/>
      <use xlink:href="#DejaVuSans-17" transform="translate(748.640625 0)"/>
     </g>
    </g>
    <g id="line2d_71">
     <path d="M 58 250.865937 
L 65 250.865937 
L 72 250.865937 
" style="fill: none; stroke: #8c564b; stroke-opacity: 0.8; stroke-width: 1.5; stroke-linecap: square"/>
    </g>
    <g id="text_23">
     <!-- pretrained-1337 -->
     <g transform="translate(77.6 253.315937) scale(0.07 -0.07)">
      <use xlink:href="#DejaVuSans-53"/>
      <use xlink:href="#DejaVuSans-55" transform="translate(63.484375 0)"/>
      <use xlink:href="#DejaVuSans-48" transform="translate(102.390625 0)"/>
      <use xlink:href="#DejaVuSans-57" transform="translate(163.921875 0)"/>
      <use xlink:href="#DejaVuSans-55" transform="translate(203.125 0)"/>
      <use xlink:href="#DejaVuSans-44" transform="translate(244.234375 0)"/>
      <use xlink:href="#DejaVuSans-4c" transform="translate(305.515625 0)"/>
      <use xlink:href="#DejaVuSans-51" transform="translate(333.296875 0)"/>
      <use xlink:href="#DejaVuSans-48" transform="translate(396.671875 0)"/>
      <use xlink:href="#DejaVuSans-47" transform="translate(458.203125 0)"/>
      <use xlink:href="#DejaVuSans-10" transform="translate(521.6875 0)"/>
      <use xlink:href="#DejaVuSans-14" transform="translate(557.765625 0)"/>
      <use xlink:href="#DejaVuSans-16" transform="translate(621.390625 0)"/>
      <use xlink:href="#DejaVuSans-16" transform="translate(685.015625 0)"/>
      <use xlink:href="#DejaVuSans-1a" transform="translate(748.640625 0)"/>
     </g>
    </g>
    <g id="line2d_72">
     <path d="M 58 261.366484 
L 65 261.366484 
L 72 261.366484 
" style="fill: none; stroke: #e377c2; stroke-opacity: 0.8; stroke-width: 1.5; stroke-linecap: square"/>
    </g>
    <g id="text_24">
     <!-- pretrained-2027 -->
     <g transform="translate(77.6 263.816484) scale(0.07 -0.07)">
      <use xlink:href="#DejaVuSans-53"/>
      <use xlink:href="#DejaVuSans-55" transform="translate(63.484375 0)"/>
      <use xlink:href="#DejaVuSans-48" transform="translate(102.390625 0)"/>
      <use xlink:href="#DejaVuSans-57" transform="translate(163.921875 0)"/>
      <use xlink:href="#DejaVuSans-55" transform="translate(203.125 0)"/>
      <use xlink:href="#DejaVuSans-44" transform="translate(244.234375 0)"/>
      <use xlink:href="#DejaVuSans-4c" transform="translate(305.515625 0)"/>
      <use xlink:href="#DejaVuSans-51" transform="translate(333.296875 0)"/>
      <use xlink:href="#DejaVuSans-48" transform="translate(396.671875 0)"/>
      <use xlink:href="#DejaVuSans-47" transform="translate(458.203125 0)"/>
      <use xlink:href="#DejaVuSans-10" transform="translate(521.6875 0)"/>
      <use xlink:href="#DejaVuSans-15" transform="translate(557.765625 0)"/>
      <use xlink:href="#DejaVuSans-13" transform="translate(621.390625 0)"/>
      <use xlink:href="#DejaVuSans-15" transform="translate(685.015625 0)"/>
      <use xlink:href="#DejaVuSans-1a" transform="translate(748.640625 0)"/>
     </g>
    </g>
   </g>
  </g>
 </g>
 <defs>
  <clipPath id="pa5275b0269">
   <rect x="51.7" y="22.318125" width="390.6" height="249.48"/>
  </clipPath>
 </defs>
</svg>
