<?xml version="1.0" encoding="utf-8" standalone="no"?>
<!DOCTYPE svg PUBLIC "-//W3C//DTD SVG 1.1//EN"
  "http://www.w3.org/Graphics/SVG/1.1/DTD/svg11.dtd">
<svg xmlns:xlink="http://www.w3.org/1999/xlink" width="386.103906pt" height="337.718906pt" viewBox="0 0 386.103906 337.718906" xmlns="http://www.w3.org/2000/svg" version="1.1">
 <metadata>
  <rdf:RDF xmlns:dc="http://purl.org/dc/elements/1.1/" xmlns:cc="http://creativecommons.org/ns#" xmlns:rdf="http://www.w3.org/1999/02/22-rdf-syntax-ns#">
   <cc:Work>
    <dc:type rdf:resource="http://purl.org/dc/dcmitype/StillImage"/>
    <dc:format>image/svg+xml</dc:format>
    <dc:creator>
     <cc:Agent>
      <dc:title>param_importance_nlp.analysis.reporting</dc:title>
     </cc:Agent>
    </dc:creator>
   </cc:Work>
  </rdf:RDF>
 </metadata>
 <defs>
  <style type="text/css">*{stroke-linejoin: round; stroke-linecap: butt}</style>
 </defs>
 <g id="figure_1">
  <g id="patch_1">
   <path d="M 0 337.718906 
L 386.103906 337.718906 
L 386.103906 0 
L 0 0 
z
" style="fill: #ffffff"/>
  </g>
  <g id="axes_1">
   <g id="patch_2">
    <path d="M 44.103906 299.518125 
L 378.903906 299.518125 
L 378.903906 22.318125 
L 44.103906 22.318125 
z
" style="fill: #ffffff"/>
   </g>
   <g id="matplotlib.axis_1">
    <g id="xtick_1">
     <g id="line2d_1">
      <defs>
       <path id="ma1647659f6" d="M 0 0 
L 0 3.5 
" style="stroke: #000000; stroke-width: 0.8"/>
      </defs>
      <g>
       <use xlink:href="#ma1647659f6" x="59.322088" y="299.518125" style="stroke: #000000; stroke-width: 0.8"/>
      </g>
     </g>
     <g id="text_1">
      <!-- 0.0 -->
      <g transform="translate(51.370526 314.115781) scale(0.1 -0.1)">
       <defs>
        <path id="DejaVuSans-13" d="M 2034 4250 
Q 1547 4250 1301 3770 
Q 1056 3291 1056 2328 
Q 1056 1369 1301 889 
Q 1547 409 2034 409 
Q 2525 409 2770 889 
Q 3016 1369 3016 2328 
Q 3016 3291 2770 3770 
Q 2525 4250 2034 4250 
z
M 2034 4750 
Q 2819 4750 3233 4129 
Q 3647 3509 3647 2328 
Q 3647 1150 3233 529 
Q 2819 -91 2034 -91 
Q 1250 -91 836 529 
Q 422 1150 422 2328 
Q 422 3509 836 4129 
Q 1250 4750 2034 4750 
z
" transform="scale(0.015625)"/>
        <path id="DejaVuSans-11" d="M 684 794 
L 1344 794 
L 1344 0 
L 684 0 
L 684 794 
z
" transform="scale(0.015625)"/>
       </defs>
       <use xlink:href="#DejaVuSans-13"/>
       <use xlink:href="#DejaVuSans-11" transform="translate(63.625 0)"/>
       <use xlink:href="#DejaVuSans-13" transform="translate(95.40625 0)"/>
      </g>
     </g>
    </g>
    <g id="xtick_2">
     <g id="line2d_2">
      <g>
       <use xlink:href="#ma1647659f6" x="120.194815" y="299.518125" style="stroke: #000000; stroke-width: 0.8"/>
      </g>
     </g>
     <g id="text_2">
      <!-- 0.2 -->
      <g transform="translate(112.243253 314.115781) scale(0.1 -0.1)">
       <defs>
        <path id="DejaVuSans-15" d="M 1228 531 
L 3431 531 
L 3431 0 
L 469 0 
L 469 531 
Q 828 903 1448 1529 
Q 2069 2156 2228 2338 
Q 2531 2678 2651 2914 
Q 2772 3150 2772 3378 
Q 2772 3750 2511 3984 
Q 2250 4219 1831 4219 
Q 1534 4219 1204 4116 
Q 875 4013 500 3803 
L 500 4441 
Q 881 4594 1212 4672 
Q 1544 4750 1819 4750 
Q 2544 4750 2975 4387 
Q 3406 4025 3406 3419 
Q 3406 3131 3298 2873 
Q 3191 2616 2906 2266 
Q 2828 2175 2409 1742 
Q 1991 1309 1228 531 
z
" transform="scale(0.015625)"/>
       </defs>
       <use xlink:href="#DejaVuSans-13"/>
       <use xlink:href="#DejaVuSans-11" transform="translate(63.625 0)"/>
       <use xlink:href="#DejaVuSans-15" transform="translate(95.40625 0)"/>
      </g>
     </g>
    </g>
    <g id="xtick_3">
     <g id="line2d_3">
      <g>
       <use xlink:href="#ma1647659f6" x="181.067543" y="299.518125" style="stroke: #000000; stroke-width: 0.8"/>
      </g>
     </g>
     <g id="text_3">
      <!-- 0.4 -->
      <g transform="translate(173.11598 314.115781) scale(0.1 -0.1)">
       <defs>
        <path id="DejaVuSans-17" d="M 2419 4116 
L 825 1625 
L 2419 1625 
L 2419 4116 
z
M 2253 4666 
L 3047 4666 
L 3047 1625 
L 3713 1625 
L 3713 1100 
L 3047 1100 
L 3047 0 
L 2419 0 
L 2419 1100 
L 313 1100 
L 313 1709 
L 2253 4666 
z
" transform="scale(0.015625)"/>
       </defs>
       <use xlink:href="#DejaVuSans-13"/>
       <use xlink:href="#DejaVuSans-11" transform="translate(63.625 0)"/>
       <use xlink:href="#DejaVuSans-17" transform="translate(95.40625 0)"/>
      </g>
     </g>
    </g>
    <g id="xtick_4">
     <g id="line2d_4">
      <g>
       <use xlink:href="#ma1647659f6" x="241.94027" y="299.518125" style="stroke: #000000; stroke-width: 0.8"/>
      </g>
     </g>
     <g id="text_4">
      <!-- 0.6 -->
      <g transform="translate(233.988707 314.115781) scale(0.1 -0.1)">
       <defs>
        <path id="DejaVuSans-19" d="M 2113 2584 
Q 1688 2584 1439 2293 
Q 1191 2003 1191 1497 
Q 1191 994 1439 701 
Q 1688 409 2113 409 
Q 2538 409 2786 701 
Q 3034 994 3034 1497 
Q 3034 2003 2786 2293 
Q 2538 2584 2113 2584 
z
M 3366 4563 
L 3366 3988 
Q 3128 4100 2886 4159 
Q 2644 4219 2406 4219 
Q 1781 4219 1451 3797 
Q 1122 3375 1075 2522 
Q 1259 2794 1537 2939 
Q 1816 3084 2150 3084 
Q 2853 3084 3261 2657 
Q 3669 2231 3669 1497 
Q 3669 778 3244 343 
Q 2819 -91 2113 -91 
Q 1303 -91 875 529 
Q 447 1150 447 2328 
Q 447 3434 972 4092 
Q 1497 4750 2381 4750 
Q 2619 4750 2861 4703 
Q 3103 4656 3366 4563 
z
" transform="scale(0.015625)"/>
       </defs>
       <use xlink:href="#DejaVuSans-13"/>
       <use xlink:href="#DejaVuSans-11" transform="translate(63.625 0)"/>
       <use xlink:href="#DejaVuSans-19" transform="translate(95.40625 0)"/>
      </g>
     </g>
    </g>
    <g id="xtick_5">
     <g id="line2d_5">
      <g>
       <use xlink:href="#ma1647659f6" x="302.812997" y="299.518125" style="stroke: #000000; stroke-width: 0.8"/>
      </g>
     </g>
     <g id="text_5">
      <!-- 0.8 -->
      <g transform="translate(294.861435 314.115781) scale(0.1 -0.1)">
       <defs>
        <path id="DejaVuSans-1b" d="M 2034 2216 
Q 1584 2216 1326 1975 
Q 1069 1734 1069 1313 
Q 1069 891 1326 650 
Q 1584 409 2034 409 
Q 2484 409 2743 651 
Q 3003 894 3003 1313 
Q 3003 1734 2745 1975 
Q 2488 2216 2034 2216 
z
M 1403 2484 
Q 997 2584 770 2862 
Q 544 3141 544 3541 
Q 544 4100 942 4425 
Q 1341 4750 2034 4750 
Q 2731 4750 3128 4425 
Q 3525 4100 3525 3541 
Q 3525 3141 3298 2862 
Q 3072 2584 2669 2484 
Q 3125 2378 3379 2068 
Q 3634 1759 3634 1313 
Q 3634 634 3220 271 
Q 2806 -91 2034 -91 
Q 1263 -91 848 271 
Q 434 634 434 1313 
Q 434 1759 690 2068 
Q 947 2378 1403 2484 
z
M 1172 3481 
Q 1172 3119 1398 2916 
Q 1625 2713 2034 2713 
Q 2441 2713 2670 2916 
Q 2900 3119 2900 3481 
Q 2900 3844 2670 4047 
Q 2441 4250 2034 4250 
Q 1625 4250 1398 4047 
Q 1172 3844 1172 3481 
z
" transform="scale(0.015625)"/>
       </defs>
       <use xlink:href="#DejaVuSans-13"/>
       <use xlink:href="#DejaVuSans-11" transform="translate(63.625 0)"/>
       <use xlink:href="#DejaVuSans-1b" transform="translate(95.40625 0)"/>
      </g>
     </g>
    </g>
    <g id="xtick_6">
     <g id="line2d_6">
      <g>
       <use xlink:href="#ma1647659f6" x="363.685724" y="299.518125" style="stroke: #000000; stroke-width: 0.8"/>
      </g>
     </g>
     <g id="text_6">
      <!-- 1.0 -->
      <g transform="translate(355.734162 314.115781) scale(0.1 -0.1)">
       <defs>
        <path id="DejaVuSans-14" d="M 794 531 
L 1825 531 
L 1825 4091 
L 703 3866 
L 703 4441 
L 1819 4666 
L 2450 4666 
L 2450 531 
L 3481 531 
L 3481 0 
L 794 0 
L 794 531 
z
" transform="scale(0.015625)"/>
       </defs>
       <use xlink:href="#DejaVuSans-14"/>
       <use xlink:href="#DejaVuSans-11" transform="translate(63.625 0)"/>
       <use xlink:href="#DejaVuSans-13" transform="translate(95.40625 0)"/>
      </g>
     </g>
    </g>
    <g id="text_7">
     <!-- cumulative parameter fraction (deterministic sample) -->
     <g transform="translate(76.892969 328.116563) scale(0.1 -0.1)">
      <defs>
       <path id="DejaVuSans-46" d="M 3122 3366 
L 3122 2828 
Q 2878 2963 2633 3030 
Q 2388 3097 2138 3097 
Q 1578 3097 1268 2742 
Q 959 2388 959 1747 
Q 959 1106 1268 751 
Q 1578 397 2138 397 
Q 2388 397 2633 464 
Q 2878 531 3122 666 
L 3122 134 
Q 2881 22 2623 -34 
Q 2366 -91 2075 -91 
Q 1284 -91 818 406 
Q 353 903 353 1747 
Q 353 2603 823 3093 
Q 1294 3584 2113 3584 
Q 2378 3584 2631 3529 
Q 2884 3475 3122 3366 
z
" transform="scale(0.015625)"/>
       <path id="DejaVuSans-58" d="M 544 1381 
L 544 3500 
L 1119 3500 
L 1119 1403 
Q 1119 906 1312 657 
Q 1506 409 1894 409 
Q 2359 409 2629 706 
Q 2900 1003 2900 1516 
L 2900 3500 
L 3475 3500 
L 3475 0 
L 2900 0 
L 2900 538 
Q 2691 219 2414 64 
Q 2138 -91 1772 -91 
Q 1169 -91 856 284 
Q 544 659 544 1381 
z
M 1991 3584 
L 1991 3584 
z
" transform="scale(0.015625)"/>
       <path id="DejaVuSans-50" d="M 3328 2828 
Q 3544 3216 3844 3400 
Q 4144 3584 4550 3584 
Q 5097 3584 5394 3201 
Q 5691 2819 5691 2113 
L 5691 0 
L 5113 0 
L 5113 2094 
Q 5113 2597 4934 2840 
Q 4756 3084 4391 3084 
Q 3944 3084 3684 2787 
Q 3425 2491 3425 1978 
L 3425 0 
L 2847 0 
L 2847 2094 
Q 2847 2600 2669 2842 
Q 2491 3084 2119 3084 
Q 1678 3084 1418 2786 
Q 1159 2488 1159 1978 
L 1159 0 
L 581 0 
L 581 3500 
L 1159 3500 
L 1159 2956 
Q 1356 3278 1631 3431 
Q 1906 3584 2284 3584 
Q 2666 3584 2933 3390 
Q 3200 3197 3328 2828 
z
" transform="scale(0.015625)"/>
       <path id="DejaVuSans-4f" d="M 603 4863 
L 1178 4863 
L 1178 0 
L 603 0 
L 603 4863 
z
" transform="scale(0.015625)"/>
       <path id="DejaVuSans-44" d="M 2194 1759 
Q 1497 1759 1228 1600 
Q 959 1441 959 1056 
Q 959 750 1161 570 
Q 1363 391 1709 391 
Q 2188 391 2477 730 
Q 2766 1069 2766 1631 
L 2766 1759 
L 2194 1759 
z
M 3341 1997 
L 3341 0 
L 2766 0 
L 2766 531 
Q 2569 213 2275 61 
Q 1981 -91 1556 -91 
Q 1019 -91 701 211 
Q 384 513 384 1019 
Q 384 1609 779 1909 
Q 1175 2209 1959 2209 
L 2766 2209 
L 2766 2266 
Q 2766 2663 2505 2880 
Q 2244 3097 1772 3097 
Q 1472 3097 1187 3025 
Q 903 2953 641 2809 
L 641 3341 
Q 956 3463 1253 3523 
Q 1550 3584 1831 3584 
Q 2591 3584 2966 3190 
Q 3341 2797 3341 1997 
z
" transform="scale(0.015625)"/>
       <path id="DejaVuSans-57" d="M 1172 4494 
L 1172 3500 
L 2356 3500 
L 2356 3053 
L 1172 3053 
L 1172 1153 
Q 1172 725 1289 603 
Q 1406 481 1766 481 
L 2356 481 
L 2356 0 
L 1766 0 
Q 1100 0 847 248 
Q 594 497 594 1153 
L 594 3053 
L 172 3053 
L 172 3500 
L 594 3500 
L 594 4494 
L 1172 4494 
z
" transform="scale(0.015625)"/>
       <path id="DejaVuSans-4c" d="M 603 3500 
L 1178 3500 
L 1178 0 
L 603 0 
L 603 3500 
z
M 603 4863 
L 1178 4863 
L 1178 4134 
L 603 4134 
L 603 4863 
z
" transform="scale(0.015625)"/>
       <path id="DejaVuSans-59" d="M 191 3500 
L 800 3500 
L 1894 563 
L 2988 3500 
L 3597 3500 
L 2284 0 
L 1503 0 
L 191 3500 
z
" transform="scale(0.015625)"/>
       <path id="DejaVuSans-48" d="M 3597 1894 
L 3597 1613 
L 953 1613 
Q 991 1019 1311 708 
Q 1631 397 2203 397 
Q 2534 397 2845 478 
Q 3156 559 3463 722 
L 3463 178 
Q 3153 47 2828 -22 
Q 2503 -91 2169 -91 
Q 1331 -91 842 396 
Q 353 884 353 1716 
Q 353 2575 817 3079 
Q 1281 3584 2069 3584 
Q 2775 3584 3186 3129 
Q 3597 2675 3597 1894 
z
M 3022 2063 
Q 3016 2534 2758 2815 
Q 2500 3097 2075 3097 
Q 1594 3097 1305 2825 
Q 1016 2553 972 2059 
L 3022 2063 
z
" transform="scale(0.015625)"/>
       <path id="DejaVuSans-3" transform="scale(0.015625)"/>
       <path id="DejaVuSans-53" d="M 1159 525 
L 1159 -1331 
L 581 -1331 
L 581 3500 
L 1159 3500 
L 1159 2969 
Q 1341 3281 1617 3432 
Q 1894 3584 2278 3584 
Q 2916 3584 3314 3078 
Q 3713 2572 3713 1747 
Q 3713 922 3314 415 
Q 2916 -91 2278 -91 
Q 1894 -91 1617 61 
Q 1341 213 1159 525 
z
M 3116 1747 
Q 3116 2381 2855 2742 
Q 2594 3103 2138 3103 
Q 1681 3103 1420 2742 
Q 1159 2381 1159 1747 
Q 1159 1113 1420 752 
Q 1681 391 2138 391 
Q 2594 391 2855 752 
Q 3116 1113 3116 1747 
z
" transform="scale(0.015625)"/>
       <path id="DejaVuSans-55" d="M 2631 2963 
Q 2534 3019 2420 3045 
Q 2306 3072 2169 3072 
Q 1681 3072 1420 2755 
Q 1159 2438 1159 1844 
L 1159 0 
L 581 0 
L 581 3500 
L 1159 3500 
L 1159 2956 
Q 1341 3275 1631 3429 
Q 1922 3584 2338 3584 
Q 2397 3584 2469 3576 
Q 2541 3569 2628 3553 
L 2631 2963 
z
" transform="scale(0.015625)"/>
       <path id="DejaVuSans-49" d="M 2375 4863 
L 2375 4384 
L 1825 4384 
Q 1516 4384 1395 4259 
Q 1275 4134 1275 3809 
L 1275 3500 
L 2222 3500 
L 2222 3053 
L 1275 3053 
L 1275 0 
L 697 0 
L 697 3053 
L 147 3053 
L 147 3500 
L 697 3500 
L 697 3744 
Q 697 4328 969 4595 
Q 1241 4863 1831 4863 
L 2375 4863 
z
" transform="scale(0.015625)"/>
       <path id="DejaVuSans-52" d="M 1959 3097 
Q 1497 3097 1228 2736 
Q 959 2375 959 1747 
Q 959 1119 1226 758 
Q 1494 397 1959 397 
Q 2419 397 2687 759 
Q 2956 1122 2956 1747 
Q 2956 2369 2687 2733 
Q 2419 3097 1959 3097 
z
M 1959 3584 
Q 2709 3584 3137 3096 
Q 3566 2609 3566 1747 
Q 3566 888 3137 398 
Q 2709 -91 1959 -91 
Q 1206 -91 779 398 
Q 353 888 353 1747 
Q 353 2609 779 3096 
Q 1206 3584 1959 3584 
z
" transform="scale(0.015625)"/>
       <path id="DejaVuSans-51" d="M 3513 2113 
L 3513 0 
L 2938 0 
L 2938 2094 
Q 2938 2591 2744 2837 
Q 2550 3084 2163 3084 
Q 1697 3084 1428 2787 
Q 1159 2491 1159 1978 
L 1159 0 
L 581 0 
L 581 3500 
L 1159 3500 
L 1159 2956 
Q 1366 3272 1645 3428 
Q 1925 3584 2291 3584 
Q 2894 3584 3203 3211 
Q 3513 2838 3513 2113 
z
" transform="scale(0.015625)"/>
       <path id="DejaVuSans-b" d="M 1984 4856 
Q 1566 4138 1362 3434 
Q 1159 2731 1159 2009 
Q 1159 1288 1364 580 
Q 1569 -128 1984 -844 
L 1484 -844 
Q 1016 -109 783 600 
Q 550 1309 550 2009 
Q 550 2706 781 3412 
Q 1013 4119 1484 4856 
L 1984 4856 
z
" transform="scale(0.015625)"/>
       <path id="DejaVuSans-47" d="M 2906 2969 
L 2906 4863 
L 3481 4863 
L 3481 0 
L 2906 0 
L 2906 525 
Q 2725 213 2448 61 
Q 2172 -91 1784 -91 
Q 1150 -91 751 415 
Q 353 922 353 1747 
Q 353 2572 751 3078 
Q 1150 3584 1784 3584 
Q 2172 3584 2448 3432 
Q 2725 3281 2906 2969 
z
M 947 1747 
Q 947 1113 1208 752 
Q 1469 391 1925 391 
Q 2381 391 2643 752 
Q 2906 1113 2906 1747 
Q 2906 2381 2643 2742 
Q 2381 3103 1925 3103 
Q 1469 3103 1208 2742 
Q 947 2381 947 1747 
z
" transform="scale(0.015625)"/>
       <path id="DejaVuSans-56" d="M 2834 3397 
L 2834 2853 
Q 2591 2978 2328 3040 
Q 2066 3103 1784 3103 
Q 1356 3103 1142 2972 
Q 928 2841 928 2578 
Q 928 2378 1081 2264 
Q 1234 2150 1697 2047 
L 1894 2003 
Q 2506 1872 2764 1633 
Q 3022 1394 3022 966 
Q 3022 478 2636 193 
Q 2250 -91 1575 -91 
Q 1294 -91 989 -36 
Q 684 19 347 128 
L 347 722 
Q 666 556 975 473 
Q 1284 391 1588 391 
Q 1994 391 2212 530 
Q 2431 669 2431 922 
Q 2431 1156 2273 1281 
Q 2116 1406 1581 1522 
L 1381 1569 
Q 847 1681 609 1914 
Q 372 2147 372 2553 
Q 372 3047 722 3315 
Q 1072 3584 1716 3584 
Q 2034 3584 2315 3537 
Q 2597 3491 2834 3397 
z
" transform="scale(0.015625)"/>
       <path id="DejaVuSans-c" d="M 513 4856 
L 1013 4856 
Q 1481 4119 1714 3412 
Q 1947 2706 1947 2009 
Q 1947 1309 1714 600 
Q 1481 -109 1013 -844 
L 513 -844 
Q 928 -128 1133 580 
Q 1338 1288 1338 2009 
Q 1338 2731 1133 3434 
Q 928 4138 513 4856 
z
" transform="scale(0.015625)"/>
      </defs>
      <use xlink:href="#DejaVuSans-46"/>
      <use xlink:href="#DejaVuSans-58" transform="translate(54.984375 0)"/>
      <use xlink:href="#DejaVuSans-50" transform="translate(118.359375 0)"/>
      <use xlink:href="#DejaVuSans-58" transform="translate(215.765625 0)"/>
      <use xlink:href="#DejaVuSans-4f" transform="translate(279.140625 0)"/>
      <use xlink:href="#DejaVuSans-44" transform="translate(306.921875 0)"/>
      <use xlink:href="#DejaVuSans-57" transform="translate(368.203125 0)"/>
      <use xlink:href="#DejaVuSans-4c" transform="translate(407.40625 0)"/>
      <use xlink:href="#DejaVuSans-59" transform="translate(435.1875 0)"/>
      <use xlink:href="#DejaVuSans-48" transform="translate(494.375 0)"/>
      <use xlink:href="#DejaVuSans-3" transform="translate(555.90625 0)"/>
      <use xlink:href="#DejaVuSans-53" transform="translate(587.6875 0)"/>
      <use xlink:href="#DejaVuSans-44" transform="translate(651.171875 0)"/>
      <use xlink:href="#DejaVuSans-55" transform="translate(712.453125 0)"/>
      <use xlink:href="#DejaVuSans-44" transform="translate(753.5625 0)"/>
      <use xlink:href="#DejaVuSans-50" transform="translate(814.84375 0)"/>
      <use xlink:href="#DejaVuSans-48" transform="translate(912.25 0)"/>
      <use xlink:href="#DejaVuSans-57" transform="translate(973.78125 0)"/>
      <use xlink:href="#DejaVuSans-48" transform="translate(1012.984375 0)"/>
      <use xlink:href="#DejaVuSans-55" transform="translate(1074.515625 0)"/>
      <use xlink:href="#DejaVuSans-3" transform="translate(1115.625 0)"/>
      <use xlink:href="#DejaVuSans-49" transform="translate(1147.40625 0)"/>
      <use xlink:href="#DejaVuSans-55" transform="translate(1182.609375 0)"/>
      <use xlink:href="#DejaVuSans-44" transform="translate(1223.71875 0)"/>
      <use xlink:href="#DejaVuSans-46" transform="translate(1285 0)"/>
      <use xlink:href="#DejaVuSans-57" transform="translate(1339.984375 0)"/>
      <use xlink:href="#DejaVuSans-4c" transform="translate(1379.1875 0)"/>
      <use xlink:href="#DejaVuSans-52" transform="translate(1406.96875 0)"/>
      <use xlink:href="#DejaVuSans-51" transform="translate(1468.15625 0)"/>
      <use xlink:href="#DejaVuSans-3" transform="translate(1531.53125 0)"/>
      <use xlink:href="#DejaVuSans-b" transform="translate(1563.3125 0)"/>
      <use xlink:href="#DejaVuSans-47" transform="translate(1602.328125 0)"/>
      <use xlink:href="#DejaVuSans-48" transform="translate(1665.8125 0)"/>
      <use xlink:href="#DejaVuSans-57" transform="translate(1727.34375 0)"/>
      <use xlink:href="#DejaVuSans-48" transform="translate(1766.546875 0)"/>
      <use xlink:href="#DejaVuSans-55" transform="translate(1828.078125 0)"/>
      <use xlink:href="#DejaVuSans-50" transform="translate(1867.4375 0)"/>
      <use xlink:href="#DejaVuSans-4c" transform="translate(1964.84375 0)"/>
      <use xlink:href="#DejaVuSans-51" transform="translate(1992.625 0)"/>
      <use xlink:href="#DejaVuSans-4c" transform="translate(2056 0)"/>
      <use xlink:href="#DejaVuSans-56" transform="translate(2083.78125 0)"/>
      <use xlink:href="#DejaVuSans-57" transform="translate(2135.875 0)"/>
      <use xlink:href="#DejaVuSans-4c" transform="translate(2175.078125 0)"/>
      <use xlink:href="#DejaVuSans-46" transform="translate(2202.859375 0)"/>
      <use xlink:href="#DejaVuSans-3" transform="translate(2257.84375 0)"/>
      <use xlink:href="#DejaVuSans-56" transform="translate(2289.625 0)"/>
      <use xlink:href="#DejaVuSans-44" transform="translate(2341.71875 0)"/>
      <use xlink:href="#DejaVuSans-50" transform="translate(2403 0)"/>
      <use xlink:href="#DejaVuSans-53" transform="translate(2500.40625 0)"/>
      <use xlink:href="#DejaVuSans-4f" transform="translate(2563.890625 0)"/>
      <use xlink:href="#DejaVuSans-48" transform="translate(2591.671875 0)"/>
      <use xlink:href="#DejaVuSans-c" transform="translate(2653.203125 0)"/>
     </g>
    </g>
   </g>
   <g id="matplotlib.axis_2">
    <g id="ytick_1">
     <g id="line2d_7">
      <defs>
       <path id="m48c4980e81" d="M 0 0 
L -3.5 0 
" style="stroke: #000000; stroke-width: 0.8"/>
      </defs>
      <g>
       <use xlink:href="#m48c4980e81" x="44.103906" y="286.918125" style="stroke: #000000; stroke-width: 0.8"/>
      </g>
     </g>
     <g id="text_8">
      <!-- 0.0 -->
      <g transform="translate(21.200781 290.716953) scale(0.1 -0.1)">
       <use xlink:href="#DejaVuSans-13"/>
       <use xlink:href="#DejaVuSans-11" transform="translate(63.625 0)"/>
       <use xlink:href="#DejaVuSans-13" transform="translate(95.40625 0)"/>
      </g>
     </g>
    </g>
    <g id="ytick_2">
     <g id="line2d_8">
      <g>
       <use xlink:href="#m48c4980e81" x="44.103906" y="236.518125" style="stroke: #000000; stroke-width: 0.8"/>
      </g>
     </g>
     <g id="text_9">
      <!-- 0.2 -->
      <g transform="translate(21.200781 240.316953) scale(0.1 -0.1)">
       <use xlink:href="#DejaVuSans-13"/>
       <use xlink:href="#DejaVuSans-11" transform="translate(63.625 0)"/>
       <use xlink:href="#DejaVuSans-15" transform="translate(95.40625 0)"/>
      </g>
     </g>
    </g>
    <g id="ytick_3">
     <g id="line2d_9">
      <g>
       <use xlink:href="#m48c4980e81" x="44.103906" y="186.118125" style="stroke: #000000; stroke-width: 0.8"/>
      </g>
     </g>
     <g id="text_10">
      <!-- 0.4 -->
      <g transform="translate(21.200781 189.916953) scale(0.1 -0.1)">
       <use xlink:href="#DejaVuSans-13"/>
       <use xlink:href="#DejaVuSans-11" transform="translate(63.625 0)"/>
       <use xlink:href="#DejaVuSans-17" transform="translate(95.40625 0)"/>
      </g>
     </g>
    </g>
    <g id="ytick_4">
     <g id="line2d_10">
      <g>
       <use xlink:href="#m48c4980e81" x="44.103906" y="135.718125" style="stroke: #000000; stroke-width: 0.8"/>
      </g>
     </g>
     <g id="text_11">
      <!-- 0.6 -->
      <g transform="translate(21.200781 139.516953) scale(0.1 -0.1)">
       <use xlink:href="#DejaVuSans-13"/>
       <use xlink:href="#DejaVuSans-11" transform="translate(63.625 0)"/>
       <use xlink:href="#DejaVuSans-19" transform="translate(95.40625 0)"/>
      </g>
     </g>
    </g>
    <g id="ytick_5">
     <g id="line2d_11">
      <g>
       <use xlink:href="#m48c4980e81" x="44.103906" y="85.318125" style="stroke: #000000; stroke-width: 0.8"/>
      </g>
     </g>
     <g id="text_12">
      <!-- 0.8 -->
      <g transform="translate(21.200781 89.116953) scale(0.1 -0.1)">
       <use xlink:href="#DejaVuSans-13"/>
       <use xlink:href="#DejaVuSans-11" transform="translate(63.625 0)"/>
       <use xlink:href="#DejaVuSans-1b" transform="translate(95.40625 0)"/>
      </g>
     </g>
    </g>
    <g id="ytick_6">
     <g id="line2d_12">
      <g>
       <use xlink:href="#m48c4980e81" x="44.103906" y="34.918125" style="stroke: #000000; stroke-width: 0.8"/>
      </g>
     </g>
     <g id="text_13">
      <!-- 1.0 -->
      <g transform="translate(21.200781 38.716953) scale(0.1 -0.1)">
       <use xlink:href="#DejaVuSans-14"/>
       <use xlink:href="#DejaVuSans-11" transform="translate(63.625 0)"/>
       <use xlink:href="#DejaVuSans-13" transform="translate(95.40625 0)"/>
      </g>
     </g>
    </g>
    <g id="text_14">
     <!-- cumulative positive mass -->
     <g transform="translate(14.798438 224.647813) rotate(-90) scale(0.1 -0.1)">
      <use xlink:href="#DejaVuSans-46"/>
      <use xlink:href="#DejaVuSans-58" transform="translate(54.984375 0)"/>
      <use xlink:href="#DejaVuSans-50" transform="translate(118.359375 0)"/>
      <use xlink:href="#DejaVuSans-58" transform="translate(215.765625 0)"/>
      <use xlink:href="#DejaVuSans-4f" transform="translate(279.140625 0)"/>
      <use xlink:href="#DejaVuSans-44" transform="translate(306.921875 0)"/>
      <use xlink:href="#DejaVuSans-57" transform="translate(368.203125 0)"/>
      <use xlink:href="#DejaVuSans-4c" transform="translate(407.40625 0)"/>
      <use xlink:href="#DejaVuSans-59" transform="translate(435.1875 0)"/>
      <use xlink:href="#DejaVuSans-48" transform="translate(494.375 0)"/>
      <use xlink:href="#DejaVuSans-3" transform="translate(555.90625 0)"/>
      <use xlink:href="#DejaVuSans-53" transform="translate(587.6875 0)"/>
      <use xlink:href="#DejaVuSans-52" transform="translate(651.171875 0)"/>
      <use xlink:href="#DejaVuSans-56" transform="translate(712.359375 0)"/>
      <use xlink:href="#DejaVuSans-4c" transform="translate(764.453125 0)"/>
      <use xlink:href="#DejaVuSans-57" transform="translate(792.234375 0)"/>
      <use xlink:href="#DejaVuSans-4c" transform="translate(831.4375 0)"/>
      <use xlink:href="#DejaVuSans-59" transform="translate(859.21875 0)"/>
      <use xlink:href="#DejaVuSans-48" transform="translate(918.40625 0)"/>
      <use xlink:href="#DejaVuSans-3" transform="translate(979.9375 0)"/>
      <use xlink:href="#DejaVuSans-50" transform="translate(1011.71875 0)"/>
      <use xlink:href="#DejaVuSans-44" transform="translate(1109.125 0)"/>
      <use xlink:href="#DejaVuSans-56" transform="translate(1170.40625 0)"/>
      <use xlink:href="#DejaVuSans-56" transform="translate(1222.5 0)"/>
     </g>
    </g>
   </g>
   <g id="line2d_13">
    <path d="M 59.322088 286.918125 
L 145.758317 286.807025 
L 179.134834 286.565499 
L 197.061852 286.226869 
L 210.021655 285.765759 
L 221.033532 285.156963 
L 231.12623 284.378691 
L 240.951088 283.399923 
L 250.432015 282.231711 
L 259.374219 280.907443 
L 267.951186 279.411295 
L 275.870728 277.804683 
L 282.959357 276.146064 
L 289.521437 274.385156 
L 295.322608 272.606117 
L 300.612448 270.760545 
L 305.41835 268.849992 
L 309.874234 266.83966 
L 314.013579 264.723723 
L 317.812037 262.530294 
L 321.385266 260.206786 
L 324.495863 257.925122 
L 327.636895 255.343392 
L 330.52835 252.677615 
L 333.383281 249.733991 
L 336.076899 246.639931 
L 338.499634 243.538914 
L 340.876714 240.137955 
L 343.247706 236.347549 
L 345.490866 232.351168 
L 347.706634 227.944683 
L 349.736739 223.41849 
L 351.705972 218.484843 
L 353.611288 213.116862 
L 355.391815 207.408719 
L 357.04451 201.349391 
L 358.468932 195.254403 
L 359.72291 188.917827 
L 360.86123 182.023737 
L 361.780408 175.114205 
L 362.550448 167.563512 
L 363.095259 160.062249 
L 363.43919 152.28544 
L 363.600503 141.575888 
L 363.667463 120.802948 
L 363.685724 34.918125 
L 363.685724 34.918125 
" clip-path="url(#pc665a7ddc0)" style="fill: none; stroke: #1f77b4; stroke-opacity: 0.8; stroke-width: 1.5; stroke-linecap: square"/>
   </g>
   <g id="line2d_14">
    <path d="M 59.322088 286.918125 
L 241.590252 286.807022 
L 260.62211 286.537617 
L 274.671535 286.123055 
L 285.905597 285.575892 
L 294.817364 284.923531 
L 302.319928 284.15896 
L 308.589819 283.3018 
L 313.703128 282.388099 
L 318.219884 281.359119 
L 322.076172 280.258836 
L 325.436346 279.07443 
L 328.35215 277.822457 
L 331.146208 276.370741 
L 333.517201 274.889313 
L 335.720794 273.254405 
L 337.72655 271.494488 
L 339.637954 269.528362 
L 341.613274 267.180521 
L 343.466848 264.630068 
L 345.171284 261.907432 
L 346.939637 258.665365 
L 348.601463 255.151727 
L 350.18111 251.298388 
L 351.739452 246.909918 
L 353.29475 241.865636 
L 354.673517 236.622487 
L 356.055328 230.51698 
L 357.400615 223.516433 
L 358.621114 215.92173 
L 359.738128 207.554026 
L 360.754703 198.21436 
L 361.56431 188.731747 
L 362.389135 176.353253 
L 362.958295 164.380362 
L 363.402666 150.09794 
L 363.627895 136.168609 
L 363.679637 117.602487 
L 363.685724 34.918125 
L 363.685724 34.918125 
" clip-path="url(#pc665a7ddc0)" style="fill: none; stroke: #ff7f0e; stroke-opacity: 0.8; stroke-width: 1.5; stroke-linecap: square"/>
   </g>
   <g id="line2d_15">
    <path d="M 59.322088 286.918125 
L 241.218928 286.807017 
L 257.998495 286.531806 
L 270.641761 286.10895 
L 280.594452 285.563166 
L 288.943146 284.888852 
L 296.025688 284.102953 
L 302.091655 283.213828 
L 307.29323 282.23368 
L 311.755201 281.172311 
L 315.760626 279.996189 
L 319.199935 278.759367 
L 322.450539 277.352299 
L 325.162419 275.946401 
L 327.709943 274.37923 
L 330.035281 272.688867 
L 332.20235 270.8401 
L 334.141146 268.894352 
L 336.095161 266.610442 
L 337.939604 264.116712 
L 339.811441 261.206367 
L 341.668059 257.896032 
L 343.524677 254.118342 
L 345.344772 249.887581 
L 346.960943 245.57142 
L 348.689728 240.29245 
L 350.400252 234.345386 
L 351.934244 228.192757 
L 353.486499 221.021047 
L 354.962663 213.087796 
L 356.396215 204.16856 
L 357.668455 194.838327 
L 358.870692 184.410532 
L 359.996837 172.715853 
L 360.982975 160.088191 
L 361.850412 146.194692 
L 362.541317 131.486919 
L 363.083084 115.233366 
L 363.463539 97.312029 
L 363.649201 78.84277 
L 363.682681 54.076126 
L 363.685724 34.918125 
L 363.685724 34.918125 
" clip-path="url(#pc665a7ddc0)" style="fill: none; stroke: #2ca02c; stroke-opacity: 0.8; stroke-width: 1.5; stroke-linecap: square"/>
   </g>
   <g id="line2d_16">
    <path d="M 59.322088 286.918125 
L 237.883103 286.807014 
L 255.003557 286.5357 
L 267.88727 286.117495 
L 278.421295 285.558708 
L 287.113921 284.879543 
L 294.40343 284.091816 
L 300.688539 283.19567 
L 306.097081 282.208769 
L 310.790368 281.128751 
L 314.917539 279.953796 
L 318.569903 278.69323 
L 321.787026 277.353209 
L 324.632826 275.940066 
L 327.274703 274.372167 
L 329.654826 272.698816 
L 331.754935 270.959634 
L 333.699819 269.067208 
L 335.635572 266.872259 
L 337.449579 264.479634 
L 339.257499 261.721782 
L 341.044114 258.587925 
L 342.745506 255.161252 
L 344.486466 251.141412 
L 346.193946 246.633975 
L 347.843597 241.656312 
L 349.447594 236.113945 
L 350.975499 230.018764 
L 352.518623 222.947881 
L 354.000874 215.087088 
L 355.455732 206.121781 
L 356.831455 196.223491 
L 358.051954 185.890058 
L 359.278539 173.629956 
L 360.295114 161.294549 
L 361.220379 147.252836 
L 362.048248 131.124552 
L 362.699586 114.316143 
L 363.23831 94.392501 
L 363.551804 74.765864 
L 363.670506 53.620845 
L 363.685724 34.918125 
L 363.685724 34.918125 
" clip-path="url(#pc665a7ddc0)" style="fill: none; stroke: #d62728; stroke-opacity: 0.8; stroke-width: 1.5; stroke-linecap: square"/>
   </g>
   <g id="line2d_17">
    <path d="M 59.322088 286.918125 
L 221.420074 286.807044 
L 238.75967 286.511448 
L 252.994757 286.049681 
L 264.858852 285.448129 
L 275.012423 284.717076 
L 283.972888 283.851686 
L 291.72503 282.886806 
L 298.518426 281.818057 
L 304.356121 280.68122 
L 309.618568 279.434388 
L 314.174892 278.12595 
L 318.244234 276.72724 
L 321.917903 275.231123 
L 325.040674 273.719978 
L 327.962564 272.065143 
L 330.622703 270.300163 
L 333.036306 268.437846 
L 335.379906 266.340894 
L 337.662634 263.988882 
L 339.86927 261.390269 
L 341.875026 258.703798 
L 343.941655 255.566622 
L 345.950455 252.096664 
L 347.925775 248.214259 
L 349.785437 244.068822 
L 351.565964 239.553156 
L 353.221703 234.715858 
L 354.780044 229.499991 
L 356.231859 223.875929 
L 357.595408 217.672646 
L 358.858517 210.889029 
L 360.027274 203.364736 
L 361.037761 195.329737 
L 361.819975 187.351553 
L 362.46827 178.470677 
L 363.000906 168.066775 
L 363.384404 155.728807 
L 363.609634 141.161448 
L 363.679637 127.695784 
L 363.685724 34.918125 
L 363.685724 34.918125 
" clip-path="url(#pc665a7ddc0)" style="fill: none; stroke: #9467bd; stroke-opacity: 0.8; stroke-width: 1.5; stroke-linecap: square"/>
   </g>
   <g id="line2d_18">
    <path d="M 59.322088 286.918125 
L 219.094735 286.807033 
L 234.133343 286.508182 
L 246.563554 286.044298 
L 257.079317 285.435556 
L 266.274143 284.687375 
L 274.473699 283.803738 
L 281.866692 282.785323 
L 288.407466 281.664498 
L 294.245161 280.439913 
L 299.507608 279.111017 
L 304.197852 277.703365 
L 308.513728 276.179394 
L 312.360884 274.591235 
L 315.848892 272.905213 
L 319.105583 271.089772 
L 322.079215 269.179005 
L 324.925015 267.077682 
L 327.48167 264.918834 
L 329.886143 262.601908 
L 332.199306 260.067804 
L 334.329852 257.413925 
L 336.48779 254.367937 
L 338.621379 250.952785 
L 340.675834 247.22472 
L 342.666372 243.128297 
L 344.65691 238.506121 
L 346.525703 233.596647 
L 348.388408 228.055104 
L 350.245026 221.826821 
L 352.001204 215.155609 
L 353.647812 208.009788 
L 355.27007 199.942399 
L 356.715797 191.610381 
L 358.003255 182.863204 
L 359.251146 172.810816 
L 360.313375 162.535624 
L 361.253859 151.23886 
L 361.984332 139.802233 
L 362.638714 126.278014 
L 363.125695 111.350473 
L 363.466583 93.91181 
L 363.637026 73.588038 
L 363.682681 44.839425 
L 363.685724 34.918125 
L 363.685724 34.918125 
" clip-path="url(#pc665a7ddc0)" style="fill: none; stroke: #8c564b; stroke-opacity: 0.8; stroke-width: 1.5; stroke-linecap: square"/>
   </g>
   <g id="line2d_19">
    <path d="M 59.322088 286.918125 
L 217.639877 286.807023 
L 232.212808 286.511652 
L 244.369092 286.048554 
L 254.985295 285.426958 
L 264.365783 284.657756 
L 272.556208 283.769409 
L 279.952244 282.747022 
L 286.43519 281.635453 
L 292.32767 280.402378 
L 297.510983 279.098371 
L 302.295579 277.673022 
L 306.602324 276.15578 
L 310.583401 274.516899 
L 314.126194 272.817221 
L 317.446801 270.980556 
L 320.435652 269.08123 
L 323.247972 267.032253 
L 325.804626 264.900908 
L 328.221274 262.604208 
L 330.510088 260.122634 
L 332.707594 257.400318 
L 334.829008 254.422518 
L 336.929117 251.086908 
L 338.950092 247.44504 
L 340.928455 243.427706 
L 343.001172 238.706597 
L 344.906488 233.801008 
L 346.805717 228.286059 
L 348.744514 221.969964 
L 350.546346 215.328591 
L 352.22339 208.290799 
L 353.775644 200.838991 
L 355.361379 192.129175 
L 356.816237 182.934954 
L 358.128044 173.178744 
L 359.318106 162.729867 
L 360.35903 151.644729 
L 361.250815 139.836882 
L 361.990419 127.205592 
L 362.626539 112.292714 
L 363.13787 95.112669 
L 363.478757 75.338794 
L 363.652244 51.776012 
L 363.685724 34.918125 
L 363.685724 34.918125 
" clip-path="url(#pc665a7ddc0)" style="fill: none; stroke: #e377c2; stroke-opacity: 0.8; stroke-width: 1.5; stroke-linecap: square"/>
   </g>
   <g id="line2d_20">
    <path d="M 59.322088 286.918125 
L 363.685724 34.918125 
" clip-path="url(#pc665a7ddc0)" style="fill: none; stroke-dasharray: 5.55,2.4; stroke-dashoffset: 0; stroke: #808080; stroke-width: 1.5"/>
   </g>
   <g id="patch_3">
    <path d="M 44.103906 299.518125 
L 44.103906 22.318125 
" style="fill: none; stroke: #000000; stroke-width: 0.8; stroke-linejoin: miter; stroke-linecap: square"/>
   </g>
   <g id="patch_4">
    <path d="M 378.903906 299.518125 
L 378.903906 22.318125 
" style="fill: none; stroke: #000000; stroke-width: 0.8; stroke-linejoin: miter; stroke-linecap: square"/>
   </g>
   <g id="patch_5">
    <path d="M 44.103906 299.518125 
L 378.903906 299.518125 
" style="fill: none; stroke: #000000; stroke-width: 0.8; stroke-linejoin: miter; stroke-linecap: square"/>
   </g>
   <g id="patch_6">
    <path d="M 44.103906 22.318125 
L 378.903906 22.318125 
" style="fill: none; stroke: #000000; stroke-width: 0.8; stroke-linejoin: miter; stroke-linecap: square"/>
   </g>
   <g id="text_15">
    <!-- Positive importance Lorenz curves -->
    <g transform="translate(108.548594 16.318125) scale(0.12 -0.12)">
     <defs>
      <path id="DejaVuSans-33" d="M 1259 4147 
L 1259 2394 
L 2053 2394 
Q 2494 2394 2734 2622 
Q 2975 2850 2975 3272 
Q 2975 3691 2734 3919 
Q 2494 4147 2053 4147 
L 1259 4147 
z
M 628 4666 
L 2053 4666 
Q 2838 4666 3239 4311 
Q 3641 3956 3641 3272 
Q 3641 2581 3239 2228 
Q 2838 1875 2053 1875 
L 1259 1875 
L 1259 0 
L 628 0 
L 628 4666 
z
" transform="scale(0.015625)"/>
      <path id="DejaVuSans-2f" d="M 628 4666 
L 1259 4666 
L 1259 531 
L 3531 531 
L 3531 0 
L 628 0 
L 628 4666 
z
" transform="scale(0.015625)"/>
      <path id="DejaVuSans-5d" d="M 353 3500 
L 3084 3500 
L 3084 2975 
L 922 459 
L 3084 459 
L 3084 0 
L 275 0 
L 275 525 
L 2438 3041 
L 353 3041 
L 353 3500 
z
" transform="scale(0.015625)"/>
     </defs>
     <use xlink:href="#DejaVuSans-33"/>
     <use xlink:href="#DejaVuSans-52" transform="translate(56.734375 0)"/>
     <use xlink:href="#DejaVuSans-56" transform="translate(117.921875 0)"/>
     <use xlink:href="#DejaVuSans-4c" transform="translate(170.015625 0)"/>
     <use xlink:href="#DejaVuSans-57" transform="translate(197.796875 0)"/>
     <use xlink:href="#DejaVuSans-4c" transform="translate(237 0)"/>
     <use xlink:href="#DejaVuSans-59" transform="translate(264.78125 0)"/>
     <use xlink:href="#DejaVuSans-48" transform="translate(323.96875 0)"/>
     <use xlink:href="#DejaVuSans-3" transform="translate(385.5 0)"/>
     <use xlink:href="#DejaVuSans-4c" transform="translate(417.28125 0)"/>
     <use xlink:href="#DejaVuSans-50" transform="translate(445.0625 0)"/>
     <use xlink:href="#DejaVuSans-53" transform="translate(542.46875 0)"/>
     <use xlink:href="#DejaVuSans-52" transform="translate(605.953125 0)"/>
     <use xlink:href="#DejaVuSans-55" transform="translate(667.140625 0)"/>
     <use xlink:href="#DejaVuSans-57" transform="translate(708.25 0)"/>
     <use xlink:href="#DejaVuSans-44" transform="translate(747.453125 0)"/>
     <use xlink:href="#DejaVuSans-51" transform="translate(808.734375 0)"/>
     <use xlink:href="#DejaVuSans-46" transform="translate(872.109375 0)"/>
     <use xlink:href="#DejaVuSans-48" transform="translate(927.09375 0)"/>
     <use xlink:href="#DejaVuSans-3" transform="translate(988.625 0)"/>
     <use xlink:href="#DejaVuSans-2f" transform="translate(1020.40625 0)"/>
     <use xlink:href="#DejaVuSans-52" transform="translate(1074.375 0)"/>
     <use xlink:href="#DejaVuSans-55" transform="translate(1135.5625 0)"/>
     <use xlink:href="#DejaVuSans-48" transform="translate(1174.46875 0)"/>
     <use xlink:href="#DejaVuSans-51" transform="translate(1236 0)"/>
     <use xlink:href="#DejaVuSans-5d" transform="translate(1299.375 0)"/>
     <use xlink:href="#DejaVuSans-3" transform="translate(1351.859375 0)"/>
     <use xlink:href="#DejaVuSans-46" transform="translate(1383.640625 0)"/>
     <use xlink:href="#DejaVuSans-58" transform="translate(1438.625 0)"/>
     <use xlink:href="#DejaVuSans-55" transform="translate(1502 0)"/>
     <use xlink:href="#DejaVuSans-59" transform="translate(1543.109375 0)"/>
     <use xlink:href="#DejaVuSans-48" transform="translate(1602.296875 0)"/>
     <use xlink:href="#DejaVuSans-56" transform="translate(1663.828125 0)"/>
    </g>
   </g>
   <g id="legend_1">
    <g id="patch_7">
     <path d="M 49.003906 111.9225 
L 128.2625 111.9225 
Q 129.6625 111.9225 129.6625 110.5225 
L 129.6625 27.218125 
Q 129.6625 25.818125 128.2625 25.818125 
L 49.003906 25.818125 
Q 47.603906 25.818125 47.603906 27.218125 
L 47.603906 110.5225 
Q 47.603906 111.9225 49.003906 111.9225 
z
" style="fill: #ffffff; opacity: 0.8; stroke: #cccccc; stroke-linejoin: miter"/>
    </g>
    <g id="line2d_21">
     <path d="M 50.403906 31.487031 
L 57.403906 31.487031 
L 64.403906 31.487031 
" style="fill: none; stroke: #1f77b4; stroke-opacity: 0.8; stroke-width: 1.5; stroke-linecap: square"/>
    </g>
    <g id="text_16">
     <!-- pretrain -->
     <g transform="translate(70.003906 33.937031) scale(0.07 -0.07)">
      <use xlink:href="#DejaVuSans-53"/>
      <use xlink:href="#DejaVuSans-55" transform="translate(63.484375 0)"/>
      <use xlink:href="#DejaVuSans-48" transform="translate(102.390625 0)"/>
      <use xlink:href="#DejaVuSans-57" transform="translate(163.921875 0)"/>
      <use xlink:href="#DejaVuSans-55" transform="translate(203.125 0)"/>
      <use xlink:href="#DejaVuSans-44" transform="translate(244.234375 0)"/>
      <use xlink:href="#DejaVuSans-4c" transform="translate(305.515625 0)"/>
      <use xlink:href="#DejaVuSans-51" transform="translate(333.296875 0)"/>
     </g>
    </g>
    <g id="line2d_22">
     <path d="M 50.403906 41.987578 
L 57.403906 41.987578 
L 64.403906 41.987578 
" style="fill: none; stroke: #ff7f0e; stroke-opacity: 0.8; stroke-width: 1.5; stroke-linecap: square"/>
    </g>
    <g id="text_17">
     <!-- direct-1234 -->
     <g transform="translate(70.003906 44.437578) scale(0.07 -0.07)">
      <defs>
       <path id="DejaVuSans-10" d="M 313 2009 
L 1997 2009 
L 1997 1497 
L 313 1497 
L 313 2009 
z
" transform="scale(0.015625)"/>
       <path id="DejaVuSans-16" d="M 2597 2516 
Q 3050 2419 3304 2112 
Q 3559 1806 3559 1356 
Q 3559 666 3084 287 
Q 2609 -91 1734 -91 
Q 1441 -91 1130 -33 
Q 819 25 488 141 
L 488 750 
Q 750 597 1062 519 
Q 1375 441 1716 441 
Q 2309 441 2620 675 
Q 2931 909 2931 1356 
Q 2931 1769 2642 2001 
Q 2353 2234 1838 2234 
L 1294 2234 
L 1294 2753 
L 1863 2753 
Q 2328 2753 2575 2939 
Q 2822 3125 2822 3475 
Q 2822 3834 2567 4026 
Q 2313 4219 1838 4219 
Q 1578 4219 1281 4162 
Q 984 4106 628 3988 
L 628 4550 
Q 988 4650 1302 4700 
Q 1616 4750 1894 4750 
Q 2613 4750 3031 4423 
Q 3450 4097 3450 3541 
Q 3450 3153 3228 2886 
Q 3006 2619 2597 2516 
z
" transform="scale(0.015625)"/>
      </defs>
      <use xlink:href="#DejaVuSans-47"/>
      <use xlink:href="#DejaVuSans-4c" transform="translate(63.484375 0)"/>
      <use xlink:href="#DejaVuSans-55" transform="translate(91.265625 0)"/>
      <use xlink:href="#DejaVuSans-48" transform="translate(130.171875 0)"/>
      <use xlink:href="#DejaVuSans-46" transform="translate(191.703125 0)"/>
      <use xlink:href="#DejaVuSans-57" transform="translate(246.6875 0)"/>
      <use xlink:href="#DejaVuSans-10" transform="translate(285.890625 0)"/>
      <use xlink:href="#DejaVuSans-14" transform="translate(321.96875 0)"/>
      <use xlink:href="#DejaVuSans-15" transform="translate(385.59375 0)"/>
      <use xlink:href="#DejaVuSans-16" transform="translate(449.21875 0)"/>
      <use xlink:href="#DejaVuSans-17" transform="translate(512.84375 0)"/>
     </g>
    </g>
    <g id="line2d_23">
     <path d="M 50.403906 52.488125 
L 57.403906 52.488125 
L 64.403906 52.488125 
" style="fill: none; stroke: #2ca02c; stroke-opacity: 0.8; stroke-width: 1.5; stroke-linecap: square"/>
    </g>
    <g id="text_18">
     <!-- direct-1337 -->
     <g transform="translate(70.003906 54.938125) scale(0.07 -0.07)">
      <defs>
       <path id="DejaVuSans-1a" d="M 525 4666 
L 3525 4666 
L 3525 4397 
L 1831 0 
L 1172 0 
L 2766 4134 
L 525 4134 
L 525 4666 
z
" transform="scale(0.015625)"/>
      </defs>
      <use xlink:href="#DejaVuSans-47"/>
      <use xlink:href="#DejaVuSans-4c" transform="translate(63.484375 0)"/>
      <use xlink:href="#DejaVuSans-55" transform="translate(91.265625 0)"/>
      <use xlink:href="#DejaVuSans-48" transform="translate(130.171875 0)"/>
      <use xlink:href="#DejaVuSans-46" transform="translate(191.703125 0)"/>
      <use xlink:href="#DejaVuSans-57" transform="translate(246.6875 0)"/>
      <use xlink:href="#DejaVuSans-10" transform="translate(285.890625 0)"/>
      <use xlink:href="#DejaVuSans-14" transform="translate(321.96875 0)"/>
      <use xlink:href="#DejaVuSans-16" transform="translate(385.59375 0)"/>
      <use xlink:href="#DejaVuSans-16" transform="translate(449.21875 0)"/>
      <use xlink:href="#DejaVuSans-1a" transform="translate(512.84375 0)"/>
     </g>
    </g>
    <g id="line2d_24">
     <path d="M 50.403906 62.988672 
L 57.403906 62.988672 
L 64.403906 62.988672 
" style="fill: none; stroke: #d62728; stroke-opacity: 0.8; stroke-width: 1.5; stroke-linecap: square"/>
    </g>
    <g id="text_19">
     <!-- direct-2027 -->
     <g transform="translate(70.003906 65.438672) scale(0.07 -0.07)">
      <use xlink:href="#DejaVuSans-47"/>
      <use xlink:href="#DejaVuSans-4c" transform="translate(63.484375 0)"/>
      <use xlink:href="#DejaVuSans-55" transform="translate(91.265625 0)"/>
      <use xlink:href="#DejaVuSans-48" transform="translate(130.171875 0)"/>
      <use xlink:href="#DejaVuSans-46" transform="translate(191.703125 0)"/>
      <use xlink:href="#DejaVuSans-57" transform="translate(246.6875 0)"/>
      <use xlink:href="#DejaVuSans-10" transform="translate(285.890625 0)"/>
      <use xlink:href="#DejaVuSans-15" transform="translate(321.96875 0)"/>
      <use xlink:href="#DejaVuSans-13" transform="translate(385.59375 0)"/>
      <use xlink:href="#DejaVuSans-15" transform="translate(449.21875 0)"/>
      <use xlink:href="#DejaVuSans-1a" transform="translate(512.84375 0)"/>
     </g>
    </g>
    <g id="line2d_25">
     <path d="M 50.403906 73.489219 
L 57.403906 73.489219 
L 64.403906 73.489219 
" style="fill: none; stroke: #9467bd; stroke-opacity: 0.8; stroke-width: 1.5; stroke-linecap: square"/>
    </g>
    <g id="text_20">
     <!-- pretrained-1234 -->
     <g transform="translate(70.003906 75.939219) scale(0.07 -0.07)">
      <use xlink:href="#DejaVuSans-53"/>
      <use xlink:href="#DejaVuSans-55" transform="translate(63.484375 0)"/>
      <use xlink:href="#DejaVuSans-48" transform="translate(102.390625 0)"/>
      <use xlink:href="#DejaVuSans-57" transform="translate(163.921875 0)"/>
      <use xlink:href="#DejaVuSans-55" transform="translate(203.125 0)"/>
      <use xlink:href="#DejaVuSans-44" transform="translate(244.234375 0)"/>
      <use xlink:href="#DejaVuSans-4c" transform="translate(305.515625 0)"/>
      <use xlink:href="#DejaVuSans-51" transform="translate(333.296875 0)"/>
      <use xlink:href="#DejaVuSans-48" transform="translate(396.671875 0)"/>
      <use xlink:href="#DejaVuSans-47" transform="translate(458.203125 0)"/>
      <use xlink:href="#DejaVuSans-10" transform="translate(521.6875 0)"/>
      <use xlink:href="#DejaVuSans-14" transform="translate(557.765625 0)"/>
      <use xlink:href="#DejaVuSans-15" transform="translate(621.390625 0)"/>
      <use xlink:href="#DejaVuSans-16" transform="translate(685.015625 0)"/>
      <use xlink:href="#DejaVuSans-17" transform="translate(748.640625 0)"/>
     </g>
    </g>
    <g id="line2d_26">
     <path d="M 50.403906 83.989766 
L 57.403906 83.989766 
L 64.403906 83.989766 
" style="fill: none; stroke: #8c564b; stroke-opacity: 0.8; stroke-width: 1.5; stroke-linecap: square"/>
    </g>
    <g id="text_21">
     <!-- pretrained-1337 -->
     <g transform="translate(70.003906 86.439766) scale(0.07 -0.07)">
      <use xlink:href="#DejaVuSans-53"/>
      <use xlink:href="#DejaVuSans-55" transform="translate(63.484375 0)"/>
      <use xlink:href="#DejaVuSans-48" transform="translate(102.390625 0)"/>
      <use xlink:href="#DejaVuSans-57" transform="translate(163.921875 0)"/>
      <use xlink:href="#DejaVuSans-55" transform="translate(203.125 0)"/>
      <use xlink:href="#DejaVuSans-44" transform="translate(244.234375 0)"/>
      <use xlink:href="#DejaVuSans-4c" transform="translate(305.515625 0)"/>
      <use xlink:href="#DejaVuSans-51" transform="translate(333.296875 0)"/>
      <use xlink:href="#DejaVuSans-48" transform="translate(396.671875 0)"/>
      <use xlink:href="#DejaVuSans-47" transform="translate(458.203125 0)"/>
      <use xlink:href="#DejaVuSans-10" transform="translate(521.6875 0)"/>
      <use xlink:href="#DejaVuSans-14" transform="translate(557.765625 0)"/>
      <use xlink:href="#DejaVuSans-16" transform="translate(621.390625 0)"/>
      <use xlink:href="#DejaVuSans-16" transform="translate(685.015625 0)"/>
      <use xlink:href="#DejaVuSans-1a" transform="translate(748.640625 0)"/>
     </g>
    </g>
    <g id="line2d_27">
     <path d="M 50.403906 94.490313 
L 57.403906 94.490313 
L 64.403906 94.490313 
" style="fill: none; stroke: #e377c2; stroke-opacity: 0.8; stroke-width: 1.5; stroke-linecap: square"/>
    </g>
    <g id="text_22">
     <!-- pretrained-2027 -->
     <g transform="translate(70.003906 96.940313) scale(0.07 -0.07)">
      <use xlink:href="#DejaVuSans-53"/>
      <use xlink:href="#DejaVuSans-55" transform="translate(63.484375 0)"/>
      <use xlink:href="#DejaVuSans-48" transform="translate(102.390625 0)"/>
      <use xlink:href="#DejaVuSans-57" transform="translate(163.921875 0)"/>
      <use xlink:href="#DejaVuSans-55" transform="translate(203.125 0)"/>
      <use xlink:href="#DejaVuSans-44" transform="translate(244.234375 0)"/>
      <use xlink:href="#DejaVuSans-4c" transform="translate(305.515625 0)"/>
      <use xlink:href="#DejaVuSans-51" transform="translate(333.296875 0)"/>
      <use xlink:href="#DejaVuSans-48" transform="translate(396.671875 0)"/>
      <use xlink:href="#DejaVuSans-47" transform="translate(458.203125 0)"/>
      <use xlink:href="#DejaVuSans-10" transform="translate(521.6875 0)"/>
      <use xlink:href="#DejaVuSans-15" transform="translate(557.765625 0)"/>
      <use xlink:href="#DejaVuSans-13" transform="translate(621.390625 0)"/>
      <use xlink:href="#DejaVuSans-15" transform="translate(685.015625 0)"/>
      <use xlink:href="#DejaVuSans-1a" transform="translate(748.640625 0)"/>
     </g>
    </g>
    <g id="line2d_28">
     <path d="M 50.403906 104.990859 
L 57.403906 104.990859 
L 64.403906 104.990859 
" style="fill: none; stroke-dasharray: 5.55,2.4; stroke-dashoffset: 0; stroke: #808080; stroke-width: 1.5"/>
    </g>
    <g id="text_23">
     <!-- equality -->
     <g transform="translate(70.003906 107.440859) scale(0.07 -0.07)">
      <defs>
       <path id="DejaVuSans-54" d="M 947 1747 
Q 947 1113 1208 752 
Q 1469 391 1925 391 
Q 2381 391 2643 752 
Q 2906 1113 2906 1747 
Q 2906 2381 2643 2742 
Q 2381 3103 1925 3103 
Q 1469 3103 1208 2742 
Q 947 2381 947 1747 
z
M 2906 525 
Q 2725 213 2448 61 
Q 2172 -91 1784 -91 
Q 1150 -91 751 415 
Q 353 922 353 1747 
Q 353 2572 751 3078 
Q 1150 3584 1784 3584 
Q 2172 3584 2448 3432 
Q 2725 3281 2906 2969 
L 2906 3500 
L 3481 3500 
L 3481 -1331 
L 2906 -1331 
L 2906 525 
z
" transform="scale(0.015625)"/>
       <path id="DejaVuSans-5c" d="M 2059 -325 
Q 1816 -950 1584 -1140 
Q 1353 -1331 966 -1331 
L 506 -1331 
L 506 -850 
L 844 -850 
Q 1081 -850 1212 -737 
Q 1344 -625 1503 -206 
L 1606 56 
L 191 3500 
L 800 3500 
L 1894 763 
L 2988 3500 
L 3597 3500 
L 2059 -325 
z
" transform="scale(0.015625)"/>
      </defs>
      <use xlink:href="#DejaVuSans-48"/>
      <use xlink:href="#DejaVuSans-54" transform="translate(61.53125 0)"/>
      <use xlink:href="#DejaVuSans-58" transform="translate(125.015625 0)"/>
      <use xlink:href="#DejaVuSans-44" transform="translate(188.390625 0)"/>
      <use xlink:href="#DejaVuSans-4f" transform="translate(249.671875 0)"/>
      <use xlink:href="#DejaVuSans-4c" transform="translate(277.453125 0)"/>
      <use xlink:href="#DejaVuSans-57" transform="translate(305.234375 0)"/>
      <use xlink:href="#DejaVuSans-5c" transform="translate(344.4375 0)"/>
     </g>
    </g>
   </g>
  </g>
 </g>
 <defs>
  <clipPath id="pc665a7ddc0">
   <rect x="44.103906" y="22.318125" width="334.8" height="277.2"/>
  </clipPath>
 </defs>
</svg>
