<?xml version="1.0" encoding="utf-8" standalone="no"?>
<!DOCTYPE svg PUBLIC "-//W3C//DTD SVG 1.1//EN"
  "http://www.w3.org/Graphics/SVG/1.1/DTD/svg11.dtd">
<svg xmlns:xlink="http://www.w3.org/1999/xlink" width="486.165469pt" height="324.345387pt" viewBox="0 0 486.165469 324.345387" xmlns="http://www.w3.org/2000/svg" version="1.1">
 <metadata>
  <rdf:RDF xmlns:dc="http://purl.org/dc/elements/1.1/" xmlns:cc="http://creativecommons.org/ns#" xmlns:rdf="http://www.w3.org/1999/02/22-rdf-syntax-ns#">
   <cc:Work>
    <dc:type rdf:resource="http://purl.org/dc/dcmitype/StillImage"/>
    <dc:format>image/svg+xml</dc:format>
    <dc:creator>
     <cc:Agent>
      <dc:title>param_importance_nlp.analysis.reporting</dc:title>
     </cc:Agent>
    </dc:creator>
   </cc:Work>
  </rdf:RDF>
 </metadata>
 <defs>
  <style type="text/css">*{stroke-linejoin: round; stroke-linecap: butt}</style>
 </defs>
 <g id="figure_1">
  <g id="patch_1">
   <path d="M 0 324.345387 
L 486.165469 324.345387 
L 486.165469 0 
L 0 0 
z
" style="fill: #ffffff"/>
  </g>
  <g id="axes_1">
   <g id="patch_2">
    <path d="M 49.305469 271.798125 
L 478.965469 271.798125 
L 478.965469 22.318125 
L 49.305469 22.318125 
z
" style="fill: #ffffff"/>
   </g>
   <g id="FillBetweenPolyCollection_1">
    <path d="M 83.85979 200.245165 
L 83.857302 200.245165 
L 83.857928 198.665212 
L 83.858455 197.085259 
L 83.858298 195.505306 
L 83.857519 193.925353 
L 83.857484 192.3454 
L 83.858256 190.765447 
L 83.858152 189.185494 
L 83.856692 187.60554 
L 83.856273 186.025587 
L 83.85785 184.445634 
L 83.858491 182.865681 
L 83.858473 181.285728 
L 83.857768 179.705775 
L 83.856286 178.125822 
L 83.856777 176.545869 
L 83.858164 174.965916 
L 83.858329 173.385963 
L 83.8576 171.80601 
L 83.857404 170.226057 
L 83.857897 168.646104 
L 83.856371 167.066151 
L 83.853064 165.486198 
L 83.851524 163.906245 
L 83.851889 162.326292 
L 83.852628 160.746339 
L 83.853763 159.166386 
L 83.851231 157.586433 
L 83.846908 156.00648 
L 83.844409 154.426527 
L 83.841226 152.846574 
L 83.835238 151.266621 
L 83.827186 149.686668 
L 83.821499 148.106714 
L 83.815998 146.526761 
L 83.81001 144.946808 
L 83.799333 143.366855 
L 83.776547 141.786902 
L 83.740094 140.206949 
L 83.68696 138.626996 
L 83.626656 137.047043 
L 83.494205 135.46709 
L 83.236756 133.887137 
L 82.767996 132.307184 
L 81.978917 130.727231 
L 80.842415 129.147278 
L 79.555211 127.567325 
L 78.511878 125.987372 
L 77.781996 124.407419 
L 77.025312 122.827466 
L 76.21985 121.247513 
L 75.517978 119.66756 
L 74.928007 118.087607 
L 74.541066 116.507654 
L 74.418859 114.927701 
L 74.720657 113.347748 
L 75.359442 111.767795 
L 76.021163 110.187842 
L 76.551973 108.607888 
L 76.867324 107.027935 
L 76.815951 105.447982 
L 76.360306 103.868029 
L 75.46907 102.288076 
L 73.898531 100.708123 
L 71.628581 99.12817 
L 69.52797 97.548217 
L 68.835469 95.968264 
L 70.063064 94.388311 
L 72.19946 92.808358 
L 74.097445 91.228405 
L 75.503785 89.648452 
L 76.516315 88.068499 
L 77.422978 86.488546 
L 78.373692 84.908593 
L 79.539316 83.32864 
L 80.832682 81.748687 
L 81.923936 80.168734 
L 82.698648 78.588781 
L 83.194584 77.008828 
L 83.491325 75.428875 
L 83.67613 73.848922 
L 83.772862 72.268969 
L 83.802611 70.689016 
L 83.816997 69.109063 
L 83.825045 67.529109 
L 83.832165 65.949156 
L 83.84336 64.369203 
L 83.848969 62.78925 
L 83.849814 61.209297 
L 83.851518 59.629344 
L 83.852278 58.049391 
L 83.85287 56.469438 
L 83.855153 54.889485 
L 83.857313 53.309532 
L 83.858158 51.729579 
L 83.857442 50.149626 
L 83.856602 48.569673 
L 83.856948 46.98972 
L 83.857473 45.409767 
L 83.857263 43.829814 
L 83.859828 43.829814 
L 83.859828 43.829814 
L 83.859618 45.409767 
L 83.860144 46.98972 
L 83.860489 48.569673 
L 83.859649 50.149626 
L 83.858934 51.729579 
L 83.859778 53.309532 
L 83.861938 54.889485 
L 83.864221 56.469438 
L 83.864813 58.049391 
L 83.865573 59.629344 
L 83.867278 61.209297 
L 83.868122 62.78925 
L 83.873731 64.369203 
L 83.884927 65.949156 
L 83.892047 67.529109 
L 83.900095 69.109063 
L 83.914481 70.689016 
L 83.94423 72.268969 
L 84.040961 73.848922 
L 84.225766 75.428875 
L 84.522507 77.008828 
L 85.018443 78.588781 
L 85.793155 80.168734 
L 86.88441 81.748687 
L 88.177775 83.32864 
L 89.343399 84.908593 
L 90.294113 86.488546 
L 91.200777 88.068499 
L 92.213307 89.648452 
L 93.619646 91.228405 
L 95.517631 92.808358 
L 97.654028 94.388311 
L 98.881623 95.968264 
L 98.189121 97.548217 
L 96.088511 99.12817 
L 93.81856 100.708123 
L 92.248021 102.288076 
L 91.356786 103.868029 
L 90.90114 105.447982 
L 90.849767 107.027935 
L 91.165118 108.607888 
L 91.695929 110.187842 
L 92.35765 111.767795 
L 92.996434 113.347748 
L 93.298232 114.927701 
L 93.176025 116.507654 
L 92.789084 118.087607 
L 92.199114 119.66756 
L 91.497242 121.247513 
L 90.691779 122.827466 
L 89.935095 124.407419 
L 89.205213 125.987372 
L 88.16188 127.567325 
L 86.874676 129.147278 
L 85.738175 130.727231 
L 84.949095 132.307184 
L 84.480336 133.887137 
L 84.222886 135.46709 
L 84.090435 137.047043 
L 84.030131 138.626996 
L 83.976997 140.206949 
L 83.940545 141.786902 
L 83.917759 143.366855 
L 83.907082 144.946808 
L 83.901094 146.526761 
L 83.895593 148.106714 
L 83.889905 149.686668 
L 83.881853 151.266621 
L 83.875866 152.846574 
L 83.872682 154.426527 
L 83.870184 156.00648 
L 83.86586 157.586433 
L 83.863329 159.166386 
L 83.864464 160.746339 
L 83.865202 162.326292 
L 83.865567 163.906245 
L 83.864027 165.486198 
L 83.86072 167.066151 
L 83.859195 168.646104 
L 83.859688 170.226057 
L 83.859492 171.80601 
L 83.858762 173.385963 
L 83.858927 174.965916 
L 83.860314 176.545869 
L 83.860805 178.125822 
L 83.859323 179.705775 
L 83.858618 181.285728 
L 83.8586 182.865681 
L 83.859241 184.445634 
L 83.860818 186.025587 
L 83.860399 187.60554 
L 83.85894 189.185494 
L 83.858835 190.765447 
L 83.859607 192.3454 
L 83.859572 193.925353 
L 83.858793 195.505306 
L 83.858636 197.085259 
L 83.859164 198.665212 
L 83.85979 200.245165 
z
" clip-path="url(#p19053bc11a)" style="fill: #1f77b4; fill-opacity: 0.3"/>
   </g>
   <g id="FillBetweenPolyCollection_2">
    <path d="M 143.953088 205.44197 
L 143.948619 205.44197 
L 143.947747 203.70678 
L 143.946601 201.971589 
L 143.945 200.236399 
L 143.943378 198.501209 
L 143.942261 196.766018 
L 143.941454 195.030828 
L 143.940478 193.295637 
L 143.939061 191.560447 
L 143.936538 189.825257 
L 143.932311 188.090066 
L 143.927347 186.354876 
L 143.92381 184.619686 
L 143.923342 182.884495 
L 143.925611 181.149305 
L 143.927922 179.414115 
L 143.927179 177.678924 
L 143.922804 175.943734 
L 143.916092 174.208544 
L 143.904882 172.473353 
L 143.879155 170.738163 
L 143.82284 169.002973 
L 143.720151 167.267782 
L 143.558237 165.532592 
L 143.318565 163.797401 
L 142.967469 162.062211 
L 142.462748 160.327021 
L 141.771078 158.59183 
L 140.885358 156.85664 
L 139.833762 155.12145 
L 138.665678 153.386259 
L 137.433776 151.651069 
L 136.211855 149.915879 
L 135.109664 148.180688 
L 134.244838 146.445498 
L 133.725772 144.710308 
L 133.643116 142.975117 
L 134.026852 141.239927 
L 134.822848 139.504737 
L 135.921875 137.769546 
L 137.179651 136.034356 
L 138.421957 134.299165 
L 139.499541 132.563975 
L 140.342922 130.828785 
L 140.935461 129.093594 
L 141.274214 127.358404 
L 141.376652 125.623214 
L 141.285888 123.888023 
L 141.056909 122.152833 
L 140.741922 120.417643 
L 140.365357 118.682452 
L 139.912335 116.947262 
L 139.366478 115.212072 
L 138.74198 113.476881 
L 138.057718 111.741691 
L 137.30121 110.006501 
L 136.428015 108.27131 
L 135.399239 106.53612 
L 134.241028 104.800929 
L 133.047325 103.065739 
L 131.89446 101.330549 
L 130.807392 99.595358 
L 129.850335 97.860168 
L 129.175634 96.124978 
L 128.927776 94.389787 
L 129.157004 92.654597 
L 129.837948 90.919407 
L 130.877253 89.184216 
L 132.108111 87.449026 
L 133.345885 85.713836 
L 134.43648 83.978645 
L 135.280077 82.243455 
L 135.88732 80.508265 
L 136.402768 78.773074 
L 137.011375 77.037884 
L 137.81705 75.302693 
L 138.809555 73.567503 
L 139.897528 71.832313 
L 140.955064 70.097122 
L 141.873251 68.361932 
L 142.595864 66.626742 
L 143.118264 64.891551 
L 143.468732 63.156361 
L 143.688833 61.421171 
L 143.817651 59.68598 
L 143.886289 57.95079 
L 143.918282 56.2156 
L 143.930793 54.480409 
L 143.935562 52.745219 
L 143.93902 51.010029 
L 143.94293 49.274838 
L 143.946464 47.539648 
L 143.948545 45.804457 
L 143.949231 44.069267 
L 143.949462 42.334077 
L 143.94985 40.598886 
L 143.950198 38.863696 
L 143.950142 37.128506 
L 143.94976 35.393315 
L 143.949538 33.658125 
L 143.952169 33.658125 
L 143.952169 33.658125 
L 143.951947 35.393315 
L 143.951565 37.128506 
L 143.951508 38.863696 
L 143.951857 40.598886 
L 143.952244 42.334077 
L 143.952476 44.069267 
L 143.953162 45.804457 
L 143.955243 47.539648 
L 143.958777 49.274838 
L 143.962687 51.010029 
L 143.966145 52.745219 
L 143.970914 54.480409 
L 143.983424 56.2156 
L 144.015418 57.95079 
L 144.084056 59.68598 
L 144.212873 61.421171 
L 144.432974 63.156361 
L 144.783443 64.891551 
L 145.305843 66.626742 
L 146.028455 68.361932 
L 146.946642 70.097122 
L 148.004179 71.832313 
L 149.092151 73.567503 
L 150.084656 75.302693 
L 150.890332 77.037884 
L 151.498939 78.773074 
L 152.014387 80.508265 
L 152.62163 82.243455 
L 153.465226 83.978645 
L 154.555822 85.713836 
L 155.793596 87.449026 
L 157.024454 89.184216 
L 158.063759 90.919407 
L 158.744703 92.654597 
L 158.97393 94.389787 
L 158.726073 96.124978 
L 158.051372 97.860168 
L 157.094314 99.595358 
L 156.007246 101.330549 
L 154.854381 103.065739 
L 153.660679 104.800929 
L 152.502468 106.53612 
L 151.473692 108.27131 
L 150.600497 110.006501 
L 149.843989 111.741691 
L 149.159727 113.476881 
L 148.535229 115.212072 
L 147.989372 116.947262 
L 147.536349 118.682452 
L 147.159784 120.417643 
L 146.844798 122.152833 
L 146.615819 123.888023 
L 146.525055 125.623214 
L 146.627493 127.358404 
L 146.966246 129.093594 
L 147.558784 130.828785 
L 148.402165 132.563975 
L 149.479749 134.299165 
L 150.722055 136.034356 
L 151.979831 137.769546 
L 153.078858 139.504737 
L 153.874854 141.239927 
L 154.258591 142.975117 
L 154.175935 144.710308 
L 153.656869 146.445498 
L 152.792042 148.180688 
L 151.689852 149.915879 
L 150.46793 151.651069 
L 149.236028 153.386259 
L 148.067945 155.12145 
L 147.016349 156.85664 
L 146.130628 158.59183 
L 145.438958 160.327021 
L 144.934238 162.062211 
L 144.583142 163.797401 
L 144.34347 165.532592 
L 144.181556 167.267782 
L 144.078867 169.002973 
L 144.022552 170.738163 
L 143.996825 172.473353 
L 143.985615 174.208544 
L 143.978902 175.943734 
L 143.974528 177.678924 
L 143.973785 179.414115 
L 143.976096 181.149305 
L 143.978365 182.884495 
L 143.977896 184.619686 
L 143.97436 186.354876 
L 143.969396 188.090066 
L 143.965169 189.825257 
L 143.962646 191.560447 
L 143.961229 193.295637 
L 143.960252 195.030828 
L 143.959446 196.766018 
L 143.958329 198.501209 
L 143.956707 200.236399 
L 143.955106 201.971589 
L 143.95396 203.70678 
L 143.953088 205.44197 
z
" clip-path="url(#p19053bc11a)" style="fill: #1f77b4; fill-opacity: 0.3"/>
   </g>
   <g id="FillBetweenPolyCollection_3">
    <path d="M 204.044518 226.640336 
L 204.041804 226.640336 
L 204.042091 224.766864 
L 204.042635 222.893392 
L 204.042997 221.01992 
L 204.043106 219.146448 
L 204.043021 217.272976 
L 204.042689 215.399503 
L 204.042138 213.526031 
L 204.041721 211.652559 
L 204.041629 209.779087 
L 204.041329 207.905615 
L 204.040296 206.032143 
L 204.038885 204.158671 
L 204.037865 202.285199 
L 204.037383 200.411727 
L 204.036569 198.538255 
L 204.034777 196.664783 
L 204.032936 194.791311 
L 204.031798 192.917839 
L 204.030288 191.044367 
L 204.02785 189.170895 
L 204.026008 187.297423 
L 204.025984 185.423951 
L 204.026369 183.550479 
L 204.024844 181.677007 
L 204.021407 179.803535 
L 204.017534 177.930063 
L 204.012141 176.056591 
L 203.999572 174.183119 
L 203.972151 172.309647 
L 203.922731 170.436175 
L 203.841225 168.562703 
L 203.709 166.689231 
L 203.496116 164.815759 
L 203.160461 162.942287 
L 202.651986 161.068815 
L 201.928926 159.195343 
L 200.974941 157.321871 
L 199.794877 155.448399 
L 198.423544 153.574927 
L 196.96361 151.701454 
L 195.568883 149.827982 
L 194.388151 147.95451 
L 193.5504 146.081038 
L 193.149055 144.207566 
L 193.233701 142.334094 
L 193.825343 140.460622 
L 194.855389 138.58715 
L 196.119662 136.713678 
L 197.38791 134.840206 
L 198.522799 132.966734 
L 199.463158 131.093262 
L 200.153345 129.21979 
L 200.554722 127.346318 
L 200.70135 125.472846 
L 200.679102 123.599374 
L 200.548878 121.725902 
L 200.317463 119.85243 
L 199.982256 117.978958 
L 199.568267 116.105486 
L 199.10014 114.232014 
L 198.568852 112.358542 
L 197.930047 110.48507 
L 197.122608 108.611598 
L 196.108193 106.738126 
L 194.892523 104.864654 
L 193.531757 102.991182 
L 192.147373 101.11771 
L 190.895276 99.244238 
L 189.902248 97.370766 
L 189.248856 95.497294 
L 189.020084 93.623822 
L 189.316283 91.75035 
L 190.135133 89.876878 
L 191.312027 88.003406 
L 192.617758 86.129933 
L 193.820672 84.256461 
L 194.712993 82.382989 
L 195.259996 80.509517 
L 195.699762 78.636045 
L 196.350923 76.762573 
L 197.35304 74.889101 
L 198.632023 73.015629 
L 200.004214 71.142157 
L 201.270273 69.268685 
L 202.284886 67.395213 
L 203.000873 65.521741 
L 203.459633 63.648269 
L 203.735782 61.774797 
L 203.891829 59.901325 
L 203.971385 58.027853 
L 204.007353 56.154381 
L 204.022897 54.280909 
L 204.03056 52.407437 
L 204.035246 50.533965 
L 204.038295 48.660493 
L 204.039999 46.787021 
L 204.040628 44.913549 
L 204.040823 43.040077 
L 204.041203 41.166605 
L 204.045119 41.166605 
L 204.045119 41.166605 
L 204.045499 43.040077 
L 204.045694 44.913549 
L 204.046323 46.787021 
L 204.048027 48.660493 
L 204.051076 50.533965 
L 204.055762 52.407437 
L 204.063426 54.280909 
L 204.07897 56.154381 
L 204.114937 58.027853 
L 204.194493 59.901325 
L 204.35054 61.774797 
L 204.626689 63.648269 
L 205.08545 65.521741 
L 205.801436 67.395213 
L 206.816049 69.268685 
L 208.082108 71.142157 
L 209.4543 73.015629 
L 210.733282 74.889101 
L 211.735399 76.762573 
L 212.38656 78.636045 
L 212.826326 80.509517 
L 213.373329 82.382989 
L 214.26565 84.256461 
L 215.468564 86.129933 
L 216.774295 88.003406 
L 217.95119 89.876878 
L 218.770039 91.75035 
L 219.066238 93.623822 
L 218.837466 95.497294 
L 218.184074 97.370766 
L 217.191046 99.244238 
L 215.938949 101.11771 
L 214.554565 102.991182 
L 213.193799 104.864654 
L 211.978129 106.738126 
L 210.963715 108.611598 
L 210.156275 110.48507 
L 209.51747 112.358542 
L 208.986182 114.232014 
L 208.518055 116.105486 
L 208.104066 117.978958 
L 207.768859 119.85243 
L 207.537444 121.725902 
L 207.40722 123.599374 
L 207.384972 125.472846 
L 207.5316 127.346318 
L 207.932977 129.21979 
L 208.623164 131.093262 
L 209.563523 132.966734 
L 210.698412 134.840206 
L 211.966661 136.713678 
L 213.230933 138.58715 
L 214.260979 140.460622 
L 214.852622 142.334094 
L 214.937268 144.207566 
L 214.535922 146.081038 
L 213.698171 147.95451 
L 212.517439 149.827982 
L 211.122712 151.701454 
L 209.662778 153.574927 
L 208.291445 155.448399 
L 207.111382 157.321871 
L 206.157396 159.195343 
L 205.434336 161.068815 
L 204.925861 162.942287 
L 204.590206 164.815759 
L 204.377322 166.689231 
L 204.245097 168.562703 
L 204.163591 170.436175 
L 204.114171 172.309647 
L 204.086751 174.183119 
L 204.074181 176.056591 
L 204.068788 177.930063 
L 204.064915 179.803535 
L 204.061478 181.677007 
L 204.059953 183.550479 
L 204.060338 185.423951 
L 204.060314 187.297423 
L 204.058472 189.170895 
L 204.056034 191.044367 
L 204.054524 192.917839 
L 204.053386 194.791311 
L 204.051545 196.664783 
L 204.049753 198.538255 
L 204.048939 200.411727 
L 204.048457 202.285199 
L 204.047437 204.158671 
L 204.046026 206.032143 
L 204.044993 207.905615 
L 204.044693 209.779087 
L 204.044602 211.652559 
L 204.044185 213.526031 
L 204.043633 215.399503 
L 204.043301 217.272976 
L 204.043216 219.146448 
L 204.043325 221.01992 
L 204.043687 222.893392 
L 204.044232 224.766864 
L 204.044518 226.640336 
z
" clip-path="url(#p19053bc11a)" style="fill: #1f77b4; fill-opacity: 0.3"/>
   </g>
   <g id="FillBetweenPolyCollection_4">
    <path d="M 264.138537 217.317654 
L 264.1324 217.317654 
L 264.131439 215.604858 
L 264.130552 213.892062 
L 264.129797 212.179267 
L 264.129644 210.466471 
L 264.130111 208.753675 
L 264.130642 207.04088 
L 264.130999 205.328084 
L 264.131445 203.615288 
L 264.13216 201.902493 
L 264.132879 200.189697 
L 264.133029 198.476901 
L 264.132257 196.764105 
L 264.130636 195.05131 
L 264.128456 193.338514 
L 264.126401 191.625718 
L 264.125457 189.912923 
L 264.125847 188.200127 
L 264.12681 186.487331 
L 264.127601 184.774536 
L 264.127789 183.06174 
L 264.126884 181.348944 
L 264.124308 179.636148 
L 264.119709 177.923353 
L 264.112768 176.210557 
L 264.101429 174.497761 
L 264.08031 172.784966 
L 264.042394 171.07217 
L 263.981442 169.359374 
L 263.889772 167.646579 
L 263.751043 165.933783 
L 263.535354 164.220987 
L 263.20813 162.508191 
L 262.747684 160.795396 
L 262.145596 159.0826 
L 261.389714 157.369804 
L 260.461738 155.657009 
L 259.357117 153.944213 
L 258.111197 152.231417 
L 256.815198 150.518622 
L 255.610312 148.805826 
L 254.648587 147.09303 
L 254.027376 145.380234 
L 253.775479 143.667439 
L 253.908177 141.954643 
L 254.441097 140.241847 
L 255.338888 138.529052 
L 256.481482 136.816256 
L 257.701273 135.10346 
L 258.849852 133.390665 
L 259.824015 131.677869 
L 260.561057 129.965073 
L 261.035457 128.252277 
L 261.2579 126.539482 
L 261.275468 124.826686 
L 261.155838 123.11389 
L 260.944365 121.401095 
L 260.642599 119.688299 
L 260.244976 117.975503 
L 259.778837 116.262708 
L 259.280757 114.549912 
L 258.7407 112.837116 
L 258.104514 111.12432 
L 257.331792 109.411525 
L 256.423671 107.698729 
L 255.400383 105.985933 
L 254.281531 104.273138 
L 253.096207 102.560342 
L 251.901651 100.847546 
L 250.789205 99.134751 
L 249.877929 97.421955 
L 249.290172 95.709159 
L 249.112392 93.996363 
L 249.380106 92.283568 
L 250.078887 90.570772 
L 251.133066 88.857976 
L 252.407644 87.145181 
L 253.716261 85.432385 
L 254.841861 83.719589 
L 255.632341 82.006794 
L 256.118288 80.293998 
L 256.503657 78.581202 
L 257.01479 76.868406 
L 257.768403 75.155611 
L 258.759022 73.442815 
L 259.89232 71.730019 
L 261.015107 70.017224 
L 261.984274 68.304428 
L 262.735537 66.591632 
L 263.276329 64.878837 
L 263.64062 63.166041 
L 263.867244 61.453245 
L 263.99615 59.740449 
L 264.063694 58.027654 
L 264.097474 56.314858 
L 264.114468 54.602062 
L 264.122823 52.889267 
L 264.126296 51.176471 
L 264.127844 49.463675 
L 264.129671 47.75088 
L 264.141267 47.75088 
L 264.141267 47.75088 
L 264.143094 49.463675 
L 264.144642 51.176471 
L 264.148114 52.889267 
L 264.156469 54.602062 
L 264.173464 56.314858 
L 264.207244 58.027654 
L 264.274788 59.740449 
L 264.403694 61.453245 
L 264.630317 63.166041 
L 264.994609 64.878837 
L 265.535401 66.591632 
L 266.286663 68.304428 
L 267.255831 70.017224 
L 268.378618 71.730019 
L 269.511915 73.442815 
L 270.502534 75.155611 
L 271.256147 76.868406 
L 271.76728 78.581202 
L 272.152649 80.293998 
L 272.638597 82.006794 
L 273.429076 83.719589 
L 274.554676 85.432385 
L 275.863294 87.145181 
L 277.137871 88.857976 
L 278.19205 90.570772 
L 278.890832 92.283568 
L 279.158546 93.996363 
L 278.980765 95.709159 
L 278.393008 97.421955 
L 277.481732 99.134751 
L 276.369286 100.847546 
L 275.174731 102.560342 
L 273.989406 104.273138 
L 272.870555 105.985933 
L 271.847267 107.698729 
L 270.939146 109.411525 
L 270.166423 111.12432 
L 269.530237 112.837116 
L 268.99018 114.549912 
L 268.492101 116.262708 
L 268.025961 117.975503 
L 267.628338 119.688299 
L 267.326572 121.401095 
L 267.115099 123.11389 
L 266.995469 124.826686 
L 267.013038 126.539482 
L 267.23548 128.252277 
L 267.709881 129.965073 
L 268.446922 131.677869 
L 269.421085 133.390665 
L 270.569664 135.10346 
L 271.789455 136.816256 
L 272.93205 138.529052 
L 273.82984 140.241847 
L 274.36276 141.954643 
L 274.495459 143.667439 
L 274.243561 145.380234 
L 273.62235 147.09303 
L 272.660626 148.805826 
L 271.45574 150.518622 
L 270.159741 152.231417 
L 268.91382 153.944213 
L 267.809199 155.657009 
L 266.881223 157.369804 
L 266.125341 159.0826 
L 265.523254 160.795396 
L 265.062808 162.508191 
L 264.735583 164.220987 
L 264.519895 165.933783 
L 264.381165 167.646579 
L 264.289496 169.359374 
L 264.228544 171.07217 
L 264.190628 172.784966 
L 264.169509 174.497761 
L 264.158169 176.210557 
L 264.151228 177.923353 
L 264.146629 179.636148 
L 264.144054 181.348944 
L 264.143149 183.06174 
L 264.143337 184.774536 
L 264.144127 186.487331 
L 264.145091 188.200127 
L 264.145481 189.912923 
L 264.144537 191.625718 
L 264.142482 193.338514 
L 264.140301 195.05131 
L 264.138681 196.764105 
L 264.137908 198.476901 
L 264.138058 200.189697 
L 264.138777 201.902493 
L 264.139492 203.615288 
L 264.139938 205.328084 
L 264.140295 207.04088 
L 264.140827 208.753675 
L 264.141294 210.466471 
L 264.14114 212.179267 
L 264.140385 213.892062 
L 264.139499 215.604858 
L 264.138537 217.317654 
z
" clip-path="url(#p19053bc11a)" style="fill: #1f77b4; fill-opacity: 0.3"/>
   </g>
   <g id="FillBetweenPolyCollection_5">
    <path d="M 324.236375 245.07096 
L 324.219178 245.07096 
L 324.215417 242.943123 
L 324.210584 240.815286 
L 324.203456 238.68745 
L 324.192408 236.559613 
L 324.176106 234.431777 
L 324.154062 232.30394 
L 324.126607 230.176104 
L 324.094085 228.048267 
L 324.055708 225.92043 
L 324.008926 223.792594 
L 323.949937 221.664757 
L 323.875232 219.536921 
L 323.783267 217.409084 
L 323.67459 215.281248 
L 323.549368 213.153411 
L 323.404018 211.025574 
L 323.230538 208.897738 
L 323.020182 206.769901 
L 322.768875 204.642065 
L 322.479987 202.514228 
L 322.162452 200.386392 
L 321.826426 198.258555 
L 321.481248 196.130718 
L 321.137931 194.002882 
L 320.812345 191.875045 
L 320.52416 189.747209 
L 320.292978 187.619372 
L 320.136151 185.491536 
L 320.067194 183.363699 
L 320.090724 181.235863 
L 320.197059 179.108026 
L 320.364193 176.980189 
L 320.56769 174.852353 
L 320.790485 172.724516 
L 321.025333 170.59668 
L 321.269775 168.468843 
L 321.520101 166.341007 
L 321.770589 164.21317 
L 322.016583 162.085333 
L 322.255468 159.957497 
L 322.484717 157.82966 
L 322.700962 155.701824 
L 322.900965 153.573987 
L 323.081991 151.446151 
L 323.241473 149.318314 
L 323.378237 147.190477 
L 323.494585 145.062641 
L 323.595472 142.934804 
L 323.684351 140.806968 
L 323.760399 138.679131 
L 323.820336 136.551295 
L 323.862019 134.423458 
L 323.885353 132.295621 
L 323.889741 130.167785 
L 323.870683 128.039948 
L 323.818409 125.912112 
L 323.718878 123.784275 
L 323.5547 121.656439 
L 323.303843 119.528602 
L 322.93694 117.400765 
L 322.416022 115.272929 
L 321.697324 113.145092 
L 320.739343 111.017256 
L 319.515014 108.889419 
L 318.025141 106.761583 
L 316.310547 104.633746 
L 314.46157 102.50591 
L 312.623201 100.378073 
L 310.990723 98.250236 
L 309.785814 96.1224 
L 309.2047 93.994563 
L 309.346314 91.866727 
L 310.154357 89.73889 
L 311.420267 87.611054 
L 312.868855 85.483217 
L 314.287599 83.35538 
L 315.611953 81.227544 
L 316.900786 79.099707 
L 318.22707 76.971871 
L 319.582454 74.844034 
L 320.869999 72.716198 
L 321.969939 70.588361 
L 322.809304 68.460524 
L 323.386193 66.332688 
L 323.749555 64.204851 
L 323.964088 62.077015 
L 324.085542 59.949178 
L 324.152644 57.821342 
L 324.189162 55.693505 
L 324.2087 53.565668 
L 324.218803 51.437832 
L 324.223688 49.309995 
L 324.2258 47.182159 
L 324.226591 45.054322 
L 324.226865 42.926486 
L 324.226972 40.798649 
L 324.227007 38.670812 
L 324.227003 36.542976 
L 324.227031 34.415139 
L 324.228521 34.415139 
L 324.228521 34.415139 
L 324.22855 36.542976 
L 324.228546 38.670812 
L 324.22858 40.798649 
L 324.228688 42.926486 
L 324.228962 45.054322 
L 324.229753 47.182159 
L 324.231865 49.309995 
L 324.23675 51.437832 
L 324.246853 53.565668 
L 324.266391 55.693505 
L 324.302909 57.821342 
L 324.370011 59.949178 
L 324.491465 62.077015 
L 324.705998 64.204851 
L 325.069359 66.332688 
L 325.646249 68.460524 
L 326.485614 70.588361 
L 327.585554 72.716198 
L 328.873099 74.844034 
L 330.228483 76.971871 
L 331.554767 79.099707 
L 332.8436 81.227544 
L 334.167953 83.35538 
L 335.586698 85.483217 
L 337.035286 87.611054 
L 338.301196 89.73889 
L 339.109239 91.866727 
L 339.250853 93.994563 
L 338.669739 96.1224 
L 337.46483 98.250236 
L 335.832352 100.378073 
L 333.993983 102.50591 
L 332.145006 104.633746 
L 330.430412 106.761583 
L 328.940539 108.889419 
L 327.716209 111.017256 
L 326.758229 113.145092 
L 326.039531 115.272929 
L 325.518613 117.400765 
L 325.15171 119.528602 
L 324.900852 121.656439 
L 324.736675 123.784275 
L 324.637144 125.912112 
L 324.58487 128.039948 
L 324.565812 130.167785 
L 324.5702 132.295621 
L 324.593534 134.423458 
L 324.635217 136.551295 
L 324.695154 138.679131 
L 324.771202 140.806968 
L 324.860081 142.934804 
L 324.960968 145.062641 
L 325.077316 147.190477 
L 325.21408 149.318314 
L 325.373561 151.446151 
L 325.554588 153.573987 
L 325.754591 155.701824 
L 325.970836 157.82966 
L 326.200085 159.957497 
L 326.43897 162.085333 
L 326.684964 164.21317 
L 326.935452 166.341007 
L 327.185778 168.468843 
L 327.43022 170.59668 
L 327.665068 172.724516 
L 327.887863 174.852353 
L 328.09136 176.980189 
L 328.258494 179.108026 
L 328.364829 181.235863 
L 328.388359 183.363699 
L 328.319401 185.491536 
L 328.162575 187.619372 
L 327.931392 189.747209 
L 327.643208 191.875045 
L 327.317622 194.002882 
L 326.974305 196.130718 
L 326.629127 198.258555 
L 326.293101 200.386392 
L 325.975566 202.514228 
L 325.686678 204.642065 
L 325.435371 206.769901 
L 325.225015 208.897738 
L 325.051535 211.025574 
L 324.906184 213.153411 
L 324.780963 215.281248 
L 324.672286 217.409084 
L 324.580321 219.536921 
L 324.505616 221.664757 
L 324.446627 223.792594 
L 324.399845 225.92043 
L 324.361468 228.048267 
L 324.328946 230.176104 
L 324.301491 232.30394 
L 324.279447 234.431777 
L 324.263145 236.559613 
L 324.252097 238.68745 
L 324.244969 240.815286 
L 324.240136 242.943123 
L 324.236375 245.07096 
z
" clip-path="url(#p19053bc11a)" style="fill: #1f77b4; fill-opacity: 0.3"/>
   </g>
   <g id="FillBetweenPolyCollection_6">
    <path d="M 384.327935 247.900276 
L 384.312233 247.900276 
L 384.309337 245.860987 
L 384.306234 243.821697 
L 384.30246 241.782407 
L 384.297327 239.743117 
L 384.290122 237.703827 
L 384.279861 235.664537 
L 384.264787 233.625247 
L 384.242398 231.585957 
L 384.210395 229.546667 
L 384.168048 227.507377 
L 384.116837 225.468087 
L 384.059525 223.428797 
L 383.997984 221.389507 
L 383.93134 219.350217 
L 383.855694 217.310927 
L 383.764926 215.271637 
L 383.651338 213.232347 
L 383.506417 211.193058 
L 383.323153 209.153768 
L 383.099446 207.114478 
L 382.839398 205.075188 
L 382.550393 203.035898 
L 382.238567 200.996608 
L 381.907616 198.957318 
L 381.562579 196.918028 
L 381.214791 194.878738 
L 380.882635 192.839448 
L 380.586913 190.800158 
L 380.345049 188.760868 
L 380.168909 186.721578 
L 380.066121 184.682288 
L 380.040563 182.642998 
L 380.09005 180.603708 
L 380.204678 178.564418 
L 380.369164 176.525129 
L 380.567656 174.485839 
L 380.787566 172.446549 
L 381.021115 170.407259 
L 381.264648 168.367969 
L 381.516172 166.328679 
L 381.772657 164.289389 
L 382.028918 162.250099 
L 382.278307 160.210809 
L 382.51421 158.171519 
L 382.731631 156.132229 
L 382.928403 154.092939 
L 383.105336 152.053649 
L 383.265033 150.014359 
L 383.409957 147.975069 
L 383.540657 145.935779 
L 383.655236 143.896489 
L 383.750789 141.8572 
L 383.825653 139.81791 
L 383.880401 137.77862 
L 383.917239 135.73933 
L 383.938953 133.70004 
L 383.947558 131.66075 
L 383.942111 129.62146 
L 383.916418 127.58217 
L 383.858107 125.54288 
L 383.749627 123.50359 
L 383.570389 121.4643 
L 383.298592 119.42501 
L 382.911586 117.38572 
L 382.385128 115.34643 
L 381.693058 113.30714 
L 380.808529 111.26785 
L 379.707966 109.22856 
L 378.380052 107.189271 
L 376.840567 105.149981 
L 375.147944 103.110691 
L 373.4107 101.071401 
L 371.782339 99.032111 
L 370.444153 96.992821 
L 369.573708 94.953531 
L 369.297007 92.914241 
L 369.63803 90.874951 
L 370.497493 88.835661 
L 371.686444 86.796371 
L 373.006099 84.757081 
L 374.329549 82.717791 
L 375.633429 80.678501 
L 376.95871 78.639211 
L 378.332087 76.599921 
L 379.711034 74.560631 
L 380.99317 72.521342 
L 382.072964 70.482052 
L 382.894029 68.442762 
L 383.462376 66.403472 
L 383.825637 64.364182 
L 384.043619 62.324892 
L 384.168583 60.285602 
L 384.238265 58.246312 
L 384.276619 56.207022 
L 384.29744 54.167732 
L 384.308291 52.128442 
L 384.313525 50.089152 
L 384.31591 48.049862 
L 384.317159 46.010572 
L 384.323009 46.010572 
L 384.323009 46.010572 
L 384.324258 48.049862 
L 384.326643 50.089152 
L 384.331877 52.128442 
L 384.342728 54.167732 
L 384.363549 56.207022 
L 384.401903 58.246312 
L 384.471585 60.285602 
L 384.59655 62.324892 
L 384.814531 64.364182 
L 385.177792 66.403472 
L 385.746139 68.442762 
L 386.567204 70.482052 
L 387.646998 72.521342 
L 388.929134 74.560631 
L 390.308081 76.599921 
L 391.681458 78.639211 
L 393.006739 80.678501 
L 394.31062 82.717791 
L 395.63407 84.757081 
L 396.953724 86.796371 
L 398.142675 88.835661 
L 399.002138 90.874951 
L 399.343161 92.914241 
L 399.066461 94.953531 
L 398.196016 96.992821 
L 396.85783 99.032111 
L 395.229469 101.071401 
L 393.492224 103.110691 
L 391.799601 105.149981 
L 390.260117 107.189271 
L 388.932202 109.22856 
L 387.831639 111.26785 
L 386.94711 113.30714 
L 386.25504 115.34643 
L 385.728583 117.38572 
L 385.341576 119.42501 
L 385.069779 121.4643 
L 384.890541 123.50359 
L 384.782061 125.54288 
L 384.723751 127.58217 
L 384.698057 129.62146 
L 384.69261 131.66075 
L 384.701215 133.70004 
L 384.722929 135.73933 
L 384.759767 137.77862 
L 384.814515 139.81791 
L 384.88938 141.8572 
L 384.984933 143.896489 
L 385.099511 145.935779 
L 385.230211 147.975069 
L 385.375136 150.014359 
L 385.534832 152.053649 
L 385.711765 154.092939 
L 385.908537 156.132229 
L 386.125958 158.171519 
L 386.361862 160.210809 
L 386.611251 162.250099 
L 386.867511 164.289389 
L 387.123996 166.328679 
L 387.375521 168.367969 
L 387.619053 170.407259 
L 387.852602 172.446549 
L 388.072512 174.485839 
L 388.271004 176.525129 
L 388.435491 178.564418 
L 388.550118 180.603708 
L 388.599605 182.642998 
L 388.574047 184.682288 
L 388.471259 186.721578 
L 388.295119 188.760868 
L 388.053255 190.800158 
L 387.757533 192.839448 
L 387.425377 194.878738 
L 387.077589 196.918028 
L 386.732552 198.957318 
L 386.401601 200.996608 
L 386.089776 203.035898 
L 385.80077 205.075188 
L 385.540722 207.114478 
L 385.317015 209.153768 
L 385.133751 211.193058 
L 384.988831 213.232347 
L 384.875242 215.271637 
L 384.784474 217.310927 
L 384.708829 219.350217 
L 384.642185 221.389507 
L 384.580643 223.428797 
L 384.523331 225.468087 
L 384.472121 227.507377 
L 384.429773 229.546667 
L 384.397771 231.585957 
L 384.375381 233.625247 
L 384.360307 235.664537 
L 384.350046 237.703827 
L 384.342842 239.743117 
L 384.337708 241.782407 
L 384.333934 243.821697 
L 384.330831 245.860987 
L 384.327935 247.900276 
z
" clip-path="url(#p19053bc11a)" style="fill: #1f77b4; fill-opacity: 0.3"/>
   </g>
   <g id="FillBetweenPolyCollection_7">
    <path d="M 444.41314 260.458125 
L 444.411644 260.458125 
L 444.411577 258.358282 
L 444.411421 256.258439 
L 444.410977 254.158596 
L 444.41011 252.058753 
L 444.408776 249.958909 
L 444.406887 247.859066 
L 444.404168 245.759223 
L 444.400138 243.65938 
L 444.394239 241.559537 
L 444.386019 239.459694 
L 444.375268 237.359851 
L 444.361906 235.260008 
L 444.345539 233.160164 
L 444.325141 231.060321 
L 444.299239 228.960478 
L 444.266305 226.860635 
L 444.224764 224.760792 
L 444.172591 222.660949 
L 444.107243 220.561106 
L 444.026367 218.461263 
L 443.928404 216.361419 
L 443.811643 214.261576 
L 443.672349 212.161733 
L 443.504611 210.06189 
L 443.302722 207.962047 
L 443.063477 205.862204 
L 442.786405 203.762361 
L 442.473545 201.662518 
L 442.130926 199.562674 
L 441.770785 197.462831 
L 441.411429 195.362988 
L 441.073462 193.263145 
L 440.775324 191.163302 
L 440.532464 189.063459 
L 440.359422 186.963616 
L 440.268763 184.863773 
L 440.264504 182.76393 
L 440.336914 180.664086 
L 440.466324 178.564243 
L 440.633123 176.4644 
L 440.824071 174.364557 
L 441.03088 172.264714 
L 441.246583 170.164871 
L 441.465675 168.065028 
L 441.686386 165.965185 
L 441.910171 163.865341 
L 442.138528 161.765498 
L 442.3709 159.665655 
L 442.604127 157.565812 
L 442.83179 155.465969 
L 443.044771 153.366126 
L 443.234834 151.266283 
L 443.398772 149.16644 
L 443.538994 147.066596 
L 443.660369 144.966753 
L 443.766416 142.86691 
L 443.857468 140.767067 
L 443.931587 138.667224 
L 443.987311 136.567381 
L 444.025636 134.467538 
L 444.048894 132.367695 
L 444.057183 130.267851 
L 444.045348 128.168008 
L 444.002214 126.068165 
L 443.911271 123.968322 
L 443.751765 121.868479 
L 443.499943 119.768636 
L 443.129588 117.668793 
L 442.611426 115.56895 
L 441.91361 113.469107 
L 441.006038 111.369263 
L 439.867291 109.26942 
L 438.491005 107.169577 
L 436.89333 105.069734 
L 435.127624 102.969891 
L 433.305574 100.870048 
L 431.608117 98.770205 
L 430.263155 96.670362 
L 429.483612 94.570518 
L 429.389315 92.470675 
L 429.95419 90.370832 
L 431.011736 88.270989 
L 432.323593 86.171146 
L 433.682865 84.071303 
L 434.996894 81.97146 
L 436.293121 79.871617 
L 437.639929 77.771773 
L 439.046996 75.67193 
L 440.429487 73.572087 
L 441.656894 71.472244 
L 442.630893 69.372401 
L 443.326721 67.272558 
L 443.781808 65.172715 
L 444.059701 63.072872 
L 444.220807 60.973028 
L 444.310457 58.873185 
L 444.358748 56.773342 
L 444.384281 54.673499 
L 444.397824 52.573656 
L 444.42696 52.573656 
L 444.42696 52.573656 
L 444.440502 54.673499 
L 444.466035 56.773342 
L 444.514327 58.873185 
L 444.603977 60.973028 
L 444.765082 63.072872 
L 445.042975 65.172715 
L 445.498062 67.272558 
L 446.193891 69.372401 
L 447.16789 71.472244 
L 448.395296 73.572087 
L 449.777788 75.67193 
L 451.184855 77.771773 
L 452.531663 79.871617 
L 453.82789 81.97146 
L 455.141918 84.071303 
L 456.50119 86.171146 
L 457.813048 88.270989 
L 458.870594 90.370832 
L 459.435469 92.470675 
L 459.341172 94.570518 
L 458.561628 96.670362 
L 457.216666 98.770205 
L 455.51921 100.870048 
L 453.697159 102.969891 
L 451.931454 105.069734 
L 450.333778 107.169577 
L 448.957492 109.26942 
L 447.818746 111.369263 
L 446.911173 113.469107 
L 446.213358 115.56895 
L 445.695196 117.668793 
L 445.324841 119.768636 
L 445.073018 121.868479 
L 444.913513 123.968322 
L 444.82257 126.068165 
L 444.779436 128.168008 
L 444.7676 130.267851 
L 444.77589 132.367695 
L 444.799148 134.467538 
L 444.837473 136.567381 
L 444.893197 138.667224 
L 444.967315 140.767067 
L 445.058367 142.86691 
L 445.164415 144.966753 
L 445.285789 147.066596 
L 445.426012 149.16644 
L 445.58995 151.266283 
L 445.780013 153.366126 
L 445.992993 155.465969 
L 446.220657 157.565812 
L 446.453884 159.665655 
L 446.686256 161.765498 
L 446.914612 163.865341 
L 447.138397 165.965185 
L 447.359109 168.065028 
L 447.5782 170.164871 
L 447.793904 172.264714 
L 448.000712 174.364557 
L 448.191661 176.4644 
L 448.358459 178.564243 
L 448.48787 180.664086 
L 448.56028 182.76393 
L 448.556021 184.863773 
L 448.465362 186.963616 
L 448.29232 189.063459 
L 448.04946 191.163302 
L 447.751322 193.263145 
L 447.413355 195.362988 
L 447.053999 197.462831 
L 446.693857 199.562674 
L 446.351238 201.662518 
L 446.038379 203.762361 
L 445.761307 205.862204 
L 445.522062 207.962047 
L 445.320173 210.06189 
L 445.152435 212.161733 
L 445.013141 214.261576 
L 444.89638 216.361419 
L 444.798416 218.461263 
L 444.717541 220.561106 
L 444.652192 222.660949 
L 444.600019 224.760792 
L 444.558478 226.860635 
L 444.525545 228.960478 
L 444.499642 231.060321 
L 444.479244 233.160164 
L 444.462878 235.260008 
L 444.449516 237.359851 
L 444.438765 239.459694 
L 444.430544 241.559537 
L 444.424646 243.65938 
L 444.420616 245.759223 
L 444.417896 247.859066 
L 444.416008 249.958909 
L 444.414673 252.058753 
L 444.413807 254.158596 
L 444.413363 256.258439 
L 444.413207 258.358282 
L 444.41314 260.458125 
z
" clip-path="url(#p19053bc11a)" style="fill: #1f77b4; fill-opacity: 0.3"/>
   </g>
   <g id="matplotlib.axis_1">
    <g id="xtick_1">
     <g id="line2d_1">
      <defs>
       <path id="ma1647659f6" d="M 0 0 
L 0 3.5 
" style="stroke: #000000; stroke-width: 0.8"/>
      </defs>
      <g>
       <use xlink:href="#ma1647659f6" x="83.858546" y="271.798125" style="stroke: #000000; stroke-width: 0.8"/>
      </g>
     </g>
     <g id="text_1">
      <!-- pretrain -->
      <g transform="translate(73.52896 299.081633) rotate(-35) scale(0.07 -0.07)">
       <defs>
        <path id="DejaVuSans-53" d="M 1159 525 
L 1159 -1331 
L 581 -1331 
L 581 3500 
L 1159 3500 
L 1159 2969 
Q 1341 3281 1617 3432 
Q 1894 3584 2278 3584 
Q 2916 3584 3314 3078 
Q 3713 2572 3713 1747 
Q 3713 922 3314 415 
Q 2916 -91 2278 -91 
Q 1894 -91 1617 61 
Q 1341 213 1159 525 
z
M 3116 1747 
Q 3116 2381 2855 2742 
Q 2594 3103 2138 3103 
Q 1681 3103 1420 2742 
Q 1159 2381 1159 1747 
Q 1159 1113 1420 752 
Q 1681 391 2138 391 
Q 2594 391 2855 752 
Q 3116 1113 3116 1747 
z
" transform="scale(0.015625)"/>
        <path id="DejaVuSans-55" d="M 2631 2963 
Q 2534 3019 2420 3045 
Q 2306 3072 2169 3072 
Q 1681 3072 1420 2755 
Q 1159 2438 1159 1844 
L 1159 0 
L 581 0 
L 581 3500 
L 1159 3500 
L 1159 2956 
Q 1341 3275 1631 3429 
Q 1922 3584 2338 3584 
Q 2397 3584 2469 3576 
Q 2541 3569 2628 3553 
L 2631 2963 
z
" transform="scale(0.015625)"/>
        <path id="DejaVuSans-48" d="M 3597 1894 
L 3597 1613 
L 953 1613 
Q 991 1019 1311 708 
Q 1631 397 2203 397 
Q 2534 397 2845 478 
Q 3156 559 3463 722 
L 3463 178 
Q 3153 47 2828 -22 
Q 2503 -91 2169 -91 
Q 1331 -91 842 396 
Q 353 884 353 1716 
Q 353 2575 817 3079 
Q 1281 3584 2069 3584 
Q 2775 3584 3186 3129 
Q 3597 2675 3597 1894 
z
M 3022 2063 
Q 3016 2534 2758 2815 
Q 2500 3097 2075 3097 
Q 1594 3097 1305 2825 
Q 1016 2553 972 2059 
L 3022 2063 
z
" transform="scale(0.015625)"/>
        <path id="DejaVuSans-57" d="M 1172 4494 
L 1172 3500 
L 2356 3500 
L 2356 3053 
L 1172 3053 
L 1172 1153 
Q 1172 725 1289 603 
Q 1406 481 1766 481 
L 2356 481 
L 2356 0 
L 1766 0 
Q 1100 0 847 248 
Q 594 497 594 1153 
L 594 3053 
L 172 3053 
L 172 3500 
L 594 3500 
L 594 4494 
L 1172 4494 
z
" transform="scale(0.015625)"/>
        <path id="DejaVuSans-44" d="M 2194 1759 
Q 1497 1759 1228 1600 
Q 959 1441 959 1056 
Q 959 750 1161 570 
Q 1363 391 1709 391 
Q 2188 391 2477 730 
Q 2766 1069 2766 1631 
L 2766 1759 
L 2194 1759 
z
M 3341 1997 
L 3341 0 
L 2766 0 
L 2766 531 
Q 2569 213 2275 61 
Q 1981 -91 1556 -91 
Q 1019 -91 701 211 
Q 384 513 384 1019 
Q 384 1609 779 1909 
Q 1175 2209 1959 2209 
L 2766 2209 
L 2766 2266 
Q 2766 2663 2505 2880 
Q 2244 3097 1772 3097 
Q 1472 3097 1187 3025 
Q 903 2953 641 2809 
L 641 3341 
Q 956 3463 1253 3523 
Q 1550 3584 1831 3584 
Q 2591 3584 2966 3190 
Q 3341 2797 3341 1997 
z
" transform="scale(0.015625)"/>
        <path id="DejaVuSans-4c" d="M 603 3500 
L 1178 3500 
L 1178 0 
L 603 0 
L 603 3500 
z
M 603 4863 
L 1178 4863 
L 1178 4134 
L 603 4134 
L 603 4863 
z
" transform="scale(0.015625)"/>
        <path id="DejaVuSans-51" d="M 3513 2113 
L 3513 0 
L 2938 0 
L 2938 2094 
Q 2938 2591 2744 2837 
Q 2550 3084 2163 3084 
Q 1697 3084 1428 2787 
Q 1159 2491 1159 1978 
L 1159 0 
L 581 0 
L 581 3500 
L 1159 3500 
L 1159 2956 
Q 1366 3272 1645 3428 
Q 1925 3584 2291 3584 
Q 2894 3584 3203 3211 
Q 3513 2838 3513 2113 
z
" transform="scale(0.015625)"/>
       </defs>
       <use xlink:href="#DejaVuSans-53"/>
       <use xlink:href="#DejaVuSans-55" transform="translate(63.484375 0)"/>
       <use xlink:href="#DejaVuSans-48" transform="translate(102.390625 0)"/>
       <use xlink:href="#DejaVuSans-57" transform="translate(163.921875 0)"/>
       <use xlink:href="#DejaVuSans-55" transform="translate(203.125 0)"/>
       <use xlink:href="#DejaVuSans-44" transform="translate(244.234375 0)"/>
       <use xlink:href="#DejaVuSans-4c" transform="translate(305.515625 0)"/>
       <use xlink:href="#DejaVuSans-51" transform="translate(333.296875 0)"/>
      </g>
     </g>
    </g>
    <g id="xtick_2">
     <g id="line2d_2">
      <g>
       <use xlink:href="#ma1647659f6" x="143.950853" y="271.798125" style="stroke: #000000; stroke-width: 0.8"/>
      </g>
     </g>
     <g id="text_2">
      <!-- direct-1234 -->
      <g transform="translate(128.466434 306.30054) rotate(-35) scale(0.07 -0.07)">
       <defs>
        <path id="DejaVuSans-47" d="M 2906 2969 
L 2906 4863 
L 3481 4863 
L 3481 0 
L 2906 0 
L 2906 525 
Q 2725 213 2448 61 
Q 2172 -91 1784 -91 
Q 1150 -91 751 415 
Q 353 922 353 1747 
Q 353 2572 751 3078 
Q 1150 3584 1784 3584 
Q 2172 3584 2448 3432 
Q 2725 3281 2906 2969 
z
M 947 1747 
Q 947 1113 1208 752 
Q 1469 391 1925 391 
Q 2381 391 2643 752 
Q 2906 1113 2906 1747 
Q 2906 2381 2643 2742 
Q 2381 3103 1925 3103 
Q 1469 3103 1208 2742 
Q 947 2381 947 1747 
z
" transform="scale(0.015625)"/>
        <path id="DejaVuSans-46" d="M 3122 3366 
L 3122 2828 
Q 2878 2963 2633 3030 
Q 2388 3097 2138 3097 
Q 1578 3097 1268 2742 
Q 959 2388 959 1747 
Q 959 1106 1268 751 
Q 1578 397 2138 397 
Q 2388 397 2633 464 
Q 2878 531 3122 666 
L 3122 134 
Q 2881 22 2623 -34 
Q 2366 -91 2075 -91 
Q 1284 -91 818 406 
Q 353 903 353 1747 
Q 353 2603 823 3093 
Q 1294 3584 2113 3584 
Q 2378 3584 2631 3529 
Q 2884 3475 3122 3366 
z
" transform="scale(0.015625)"/>
        <path id="DejaVuSans-10" d="M 313 2009 
L 1997 2009 
L 1997 1497 
L 313 1497 
L 313 2009 
z
" transform="scale(0.015625)"/>
        <path id="DejaVuSans-14" d="M 794 531 
L 1825 531 
L 1825 4091 
L 703 3866 
L 703 4441 
L 1819 4666 
L 2450 4666 
L 2450 531 
L 3481 531 
L 3481 0 
L 794 0 
L 794 531 
z
" transform="scale(0.015625)"/>
        <path id="DejaVuSans-15" d="M 1228 531 
L 3431 531 
L 3431 0 
L 469 0 
L 469 531 
Q 828 903 1448 1529 
Q 2069 2156 2228 2338 
Q 2531 2678 2651 2914 
Q 2772 3150 2772 3378 
Q 2772 3750 2511 3984 
Q 2250 4219 1831 4219 
Q 1534 4219 1204 4116 
Q 875 4013 500 3803 
L 500 4441 
Q 881 4594 1212 4672 
Q 1544 4750 1819 4750 
Q 2544 4750 2975 4387 
Q 3406 4025 3406 3419 
Q 3406 3131 3298 2873 
Q 3191 2616 2906 2266 
Q 2828 2175 2409 1742 
Q 1991 1309 1228 531 
z
" transform="scale(0.015625)"/>
        <path id="DejaVuSans-16" d="M 2597 2516 
Q 3050 2419 3304 2112 
Q 3559 1806 3559 1356 
Q 3559 666 3084 287 
Q 2609 -91 1734 -91 
Q 1441 -91 1130 -33 
Q 819 25 488 141 
L 488 750 
Q 750 597 1062 519 
Q 1375 441 1716 441 
Q 2309 441 2620 675 
Q 2931 909 2931 1356 
Q 2931 1769 2642 2001 
Q 2353 2234 1838 2234 
L 1294 2234 
L 1294 2753 
L 1863 2753 
Q 2328 2753 2575 2939 
Q 2822 3125 2822 3475 
Q 2822 3834 2567 4026 
Q 2313 4219 1838 4219 
Q 1578 4219 1281 4162 
Q 984 4106 628 3988 
L 628 4550 
Q 988 4650 1302 4700 
Q 1616 4750 1894 4750 
Q 2613 4750 3031 4423 
Q 3450 4097 3450 3541 
Q 3450 3153 3228 2886 
Q 3006 2619 2597 2516 
z
" transform="scale(0.015625)"/>
        <path id="DejaVuSans-17" d="M 2419 4116 
L 825 1625 
L 2419 1625 
L 2419 4116 
z
M 2253 4666 
L 3047 4666 
L 3047 1625 
L 3713 1625 
L 3713 1100 
L 3047 1100 
L 3047 0 
L 2419 0 
L 2419 1100 
L 313 1100 
L 313 1709 
L 2253 4666 
z
" transform="scale(0.015625)"/>
       </defs>
       <use xlink:href="#DejaVuSans-47"/>
       <use xlink:href="#DejaVuSans-4c" transform="translate(63.484375 0)"/>
       <use xlink:href="#DejaVuSans-55" transform="translate(91.265625 0)"/>
       <use xlink:href="#DejaVuSans-48" transform="translate(130.171875 0)"/>
       <use xlink:href="#DejaVuSans-46" transform="translate(191.703125 0)"/>
       <use xlink:href="#DejaVuSans-57" transform="translate(246.6875 0)"/>
       <use xlink:href="#DejaVuSans-10" transform="translate(285.890625 0)"/>
       <use xlink:href="#DejaVuSans-14" transform="translate(321.96875 0)"/>
       <use xlink:href="#DejaVuSans-15" transform="translate(385.59375 0)"/>
       <use xlink:href="#DejaVuSans-16" transform="translate(449.21875 0)"/>
       <use xlink:href="#DejaVuSans-17" transform="translate(512.84375 0)"/>
      </g>
     </g>
    </g>
    <g id="xtick_3">
     <g id="line2d_3">
      <g>
       <use xlink:href="#ma1647659f6" x="204.043161" y="271.798125" style="stroke: #000000; stroke-width: 0.8"/>
      </g>
     </g>
     <g id="text_3">
      <!-- direct-1337 -->
      <g transform="translate(188.558742 306.30054) rotate(-35) scale(0.07 -0.07)">
       <defs>
        <path id="DejaVuSans-1a" d="M 525 4666 
L 3525 4666 
L 3525 4397 
L 1831 0 
L 1172 0 
L 2766 4134 
L 525 4134 
L 525 4666 
z
" transform="scale(0.015625)"/>
       </defs>
       <use xlink:href="#DejaVuSans-47"/>
       <use xlink:href="#DejaVuSans-4c" transform="translate(63.484375 0)"/>
       <use xlink:href="#DejaVuSans-55" transform="translate(91.265625 0)"/>
       <use xlink:href="#DejaVuSans-48" transform="translate(130.171875 0)"/>
       <use xlink:href="#DejaVuSans-46" transform="translate(191.703125 0)"/>
       <use xlink:href="#DejaVuSans-57" transform="translate(246.6875 0)"/>
       <use xlink:href="#DejaVuSans-10" transform="translate(285.890625 0)"/>
       <use xlink:href="#DejaVuSans-14" transform="translate(321.96875 0)"/>
       <use xlink:href="#DejaVuSans-16" transform="translate(385.59375 0)"/>
       <use xlink:href="#DejaVuSans-16" transform="translate(449.21875 0)"/>
       <use xlink:href="#DejaVuSans-1a" transform="translate(512.84375 0)"/>
      </g>
     </g>
    </g>
    <g id="xtick_4">
     <g id="line2d_4">
      <g>
       <use xlink:href="#ma1647659f6" x="264.135469" y="271.798125" style="stroke: #000000; stroke-width: 0.8"/>
      </g>
     </g>
     <g id="text_4">
      <!-- direct-2027 -->
      <g transform="translate(248.651049 306.30054) rotate(-35) scale(0.07 -0.07)">
       <defs>
        <path id="DejaVuSans-13" d="M 2034 4250 
Q 1547 4250 1301 3770 
Q 1056 3291 1056 2328 
Q 1056 1369 1301 889 
Q 1547 409 2034 409 
Q 2525 409 2770 889 
Q 3016 1369 3016 2328 
Q 3016 3291 2770 3770 
Q 2525 4250 2034 4250 
z
M 2034 4750 
Q 2819 4750 3233 4129 
Q 3647 3509 3647 2328 
Q 3647 1150 3233 529 
Q 2819 -91 2034 -91 
Q 1250 -91 836 529 
Q 422 1150 422 2328 
Q 422 3509 836 4129 
Q 1250 4750 2034 4750 
z
" transform="scale(0.015625)"/>
       </defs>
       <use xlink:href="#DejaVuSans-47"/>
       <use xlink:href="#DejaVuSans-4c" transform="translate(63.484375 0)"/>
       <use xlink:href="#DejaVuSans-55" transform="translate(91.265625 0)"/>
       <use xlink:href="#DejaVuSans-48" transform="translate(130.171875 0)"/>
       <use xlink:href="#DejaVuSans-46" transform="translate(191.703125 0)"/>
       <use xlink:href="#DejaVuSans-57" transform="translate(246.6875 0)"/>
       <use xlink:href="#DejaVuSans-10" transform="translate(285.890625 0)"/>
       <use xlink:href="#DejaVuSans-15" transform="translate(321.96875 0)"/>
       <use xlink:href="#DejaVuSans-13" transform="translate(385.59375 0)"/>
       <use xlink:href="#DejaVuSans-15" transform="translate(449.21875 0)"/>
       <use xlink:href="#DejaVuSans-1a" transform="translate(512.84375 0)"/>
      </g>
     </g>
    </g>
    <g id="xtick_5">
     <g id="line2d_5">
      <g>
       <use xlink:href="#ma1647659f6" x="324.227776" y="271.798125" style="stroke: #000000; stroke-width: 0.8"/>
      </g>
     </g>
     <g id="text_5">
      <!-- pretrained-1234 -->
      <g transform="translate(301.982985 315.767868) rotate(-35) scale(0.07 -0.07)">
       <use xlink:href="#DejaVuSans-53"/>
       <use xlink:href="#DejaVuSans-55" transform="translate(63.484375 0)"/>
       <use xlink:href="#DejaVuSans-48" transform="translate(102.390625 0)"/>
       <use xlink:href="#DejaVuSans-57" transform="translate(163.921875 0)"/>
       <use xlink:href="#DejaVuSans-55" transform="translate(203.125 0)"/>
       <use xlink:href="#DejaVuSans-44" transform="translate(244.234375 0)"/>
       <use xlink:href="#DejaVuSans-4c" transform="translate(305.515625 0)"/>
       <use xlink:href="#DejaVuSans-51" transform="translate(333.296875 0)"/>
       <use xlink:href="#DejaVuSans-48" transform="translate(396.671875 0)"/>
       <use xlink:href="#DejaVuSans-47" transform="translate(458.203125 0)"/>
       <use xlink:href="#DejaVuSans-10" transform="translate(521.6875 0)"/>
       <use xlink:href="#DejaVuSans-14" transform="translate(557.765625 0)"/>
       <use xlink:href="#DejaVuSans-15" transform="translate(621.390625 0)"/>
       <use xlink:href="#DejaVuSans-16" transform="translate(685.015625 0)"/>
       <use xlink:href="#DejaVuSans-17" transform="translate(748.640625 0)"/>
      </g>
     </g>
    </g>
    <g id="xtick_6">
     <g id="line2d_6">
      <g>
       <use xlink:href="#ma1647659f6" x="384.320084" y="271.798125" style="stroke: #000000; stroke-width: 0.8"/>
      </g>
     </g>
     <g id="text_6">
      <!-- pretrained-1337 -->
      <g transform="translate(362.075292 315.767868) rotate(-35) scale(0.07 -0.07)">
       <use xlink:href="#DejaVuSans-53"/>
       <use xlink:href="#DejaVuSans-55" transform="translate(63.484375 0)"/>
       <use xlink:href="#DejaVuSans-48" transform="translate(102.390625 0)"/>
       <use xlink:href="#DejaVuSans-57" transform="translate(163.921875 0)"/>
       <use xlink:href="#DejaVuSans-55" transform="translate(203.125 0)"/>
       <use xlink:href="#DejaVuSans-44" transform="translate(244.234375 0)"/>
       <use xlink:href="#DejaVuSans-4c" transform="translate(305.515625 0)"/>
       <use xlink:href="#DejaVuSans-51" transform="translate(333.296875 0)"/>
       <use xlink:href="#DejaVuSans-48" transform="translate(396.671875 0)"/>
       <use xlink:href="#DejaVuSans-47" transform="translate(458.203125 0)"/>
       <use xlink:href="#DejaVuSans-10" transform="translate(521.6875 0)"/>
       <use xlink:href="#DejaVuSans-14" transform="translate(557.765625 0)"/>
       <use xlink:href="#DejaVuSans-16" transform="translate(621.390625 0)"/>
       <use xlink:href="#DejaVuSans-16" transform="translate(685.015625 0)"/>
       <use xlink:href="#DejaVuSans-1a" transform="translate(748.640625 0)"/>
      </g>
     </g>
    </g>
    <g id="xtick_7">
     <g id="line2d_7">
      <g>
       <use xlink:href="#ma1647659f6" x="444.412392" y="271.798125" style="stroke: #000000; stroke-width: 0.8"/>
      </g>
     </g>
     <g id="text_7">
      <!-- pretrained-2027 -->
      <g transform="translate(422.1676 315.767868) rotate(-35) scale(0.07 -0.07)">
       <use xlink:href="#DejaVuSans-53"/>
       <use xlink:href="#DejaVuSans-55" transform="translate(63.484375 0)"/>
       <use xlink:href="#DejaVuSans-48" transform="translate(102.390625 0)"/>
       <use xlink:href="#DejaVuSans-57" transform="translate(163.921875 0)"/>
       <use xlink:href="#DejaVuSans-55" transform="translate(203.125 0)"/>
       <use xlink:href="#DejaVuSans-44" transform="translate(244.234375 0)"/>
       <use xlink:href="#DejaVuSans-4c" transform="translate(305.515625 0)"/>
       <use xlink:href="#DejaVuSans-51" transform="translate(333.296875 0)"/>
       <use xlink:href="#DejaVuSans-48" transform="translate(396.671875 0)"/>
       <use xlink:href="#DejaVuSans-47" transform="translate(458.203125 0)"/>
       <use xlink:href="#DejaVuSans-10" transform="translate(521.6875 0)"/>
       <use xlink:href="#DejaVuSans-15" transform="translate(557.765625 0)"/>
       <use xlink:href="#DejaVuSans-13" transform="translate(621.390625 0)"/>
       <use xlink:href="#DejaVuSans-15" transform="translate(685.015625 0)"/>
       <use xlink:href="#DejaVuSans-1a" transform="translate(748.640625 0)"/>
      </g>
     </g>
    </g>
   </g>
   <g id="matplotlib.axis_2">
    <g id="ytick_1">
     <g id="line2d_8">
      <defs>
       <path id="m48c4980e81" d="M 0 0 
L -3.5 0 
" style="stroke: #000000; stroke-width: 0.8"/>
      </defs>
      <g>
       <use xlink:href="#m48c4980e81" x="49.305469" y="248.252352" style="stroke: #000000; stroke-width: 0.8"/>
      </g>
     </g>
     <g id="text_8">
      <!-- −25 -->
      <g transform="translate(21.200781 252.05118) scale(0.1 -0.1)">
       <defs>
        <path id="DejaVuSans-c9c" d="M 678 2272 
L 4684 2272 
L 4684 1741 
L 678 1741 
L 678 2272 
z
" transform="scale(0.015625)"/>
        <path id="DejaVuSans-18" d="M 691 4666 
L 3169 4666 
L 3169 4134 
L 1269 4134 
L 1269 2991 
Q 1406 3038 1543 3061 
Q 1681 3084 1819 3084 
Q 2600 3084 3056 2656 
Q 3513 2228 3513 1497 
Q 3513 744 3044 326 
Q 2575 -91 1722 -91 
Q 1428 -91 1123 -41 
Q 819 9 494 109 
L 494 744 
Q 775 591 1075 516 
Q 1375 441 1709 441 
Q 2250 441 2565 725 
Q 2881 1009 2881 1497 
Q 2881 1984 2565 2268 
Q 2250 2553 1709 2553 
Q 1456 2553 1204 2497 
Q 953 2441 691 2322 
L 691 4666 
z
" transform="scale(0.015625)"/>
       </defs>
       <use xlink:href="#DejaVuSans-c9c"/>
       <use xlink:href="#DejaVuSans-15" transform="translate(83.796875 0)"/>
       <use xlink:href="#DejaVuSans-18" transform="translate(147.421875 0)"/>
      </g>
     </g>
    </g>
    <g id="ytick_2">
     <g id="line2d_9">
      <g>
       <use xlink:href="#m48c4980e81" x="49.305469" y="194.610656" style="stroke: #000000; stroke-width: 0.8"/>
      </g>
     </g>
     <g id="text_9">
      <!-- −20 -->
      <g transform="translate(21.200781 198.409484) scale(0.1 -0.1)">
       <use xlink:href="#DejaVuSans-c9c"/>
       <use xlink:href="#DejaVuSans-15" transform="translate(83.796875 0)"/>
       <use xlink:href="#DejaVuSans-13" transform="translate(147.421875 0)"/>
      </g>
     </g>
    </g>
    <g id="ytick_3">
     <g id="line2d_10">
      <g>
       <use xlink:href="#m48c4980e81" x="49.305469" y="140.96896" style="stroke: #000000; stroke-width: 0.8"/>
      </g>
     </g>
     <g id="text_10">
      <!-- −15 -->
      <g transform="translate(21.200781 144.767788) scale(0.1 -0.1)">
       <use xlink:href="#DejaVuSans-c9c"/>
       <use xlink:href="#DejaVuSans-14" transform="translate(83.796875 0)"/>
       <use xlink:href="#DejaVuSans-18" transform="translate(147.421875 0)"/>
      </g>
     </g>
    </g>
    <g id="ytick_4">
     <g id="line2d_11">
      <g>
       <use xlink:href="#m48c4980e81" x="49.305469" y="87.327264" style="stroke: #000000; stroke-width: 0.8"/>
      </g>
     </g>
     <g id="text_11">
      <!-- −10 -->
      <g transform="translate(21.200781 91.126092) scale(0.1 -0.1)">
       <use xlink:href="#DejaVuSans-c9c"/>
       <use xlink:href="#DejaVuSans-14" transform="translate(83.796875 0)"/>
       <use xlink:href="#DejaVuSans-13" transform="translate(147.421875 0)"/>
      </g>
     </g>
    </g>
    <g id="ytick_5">
     <g id="line2d_12">
      <g>
       <use xlink:href="#m48c4980e81" x="49.305469" y="33.685568" style="stroke: #000000; stroke-width: 0.8"/>
      </g>
     </g>
     <g id="text_12">
      <!-- −5 -->
      <g transform="translate(27.563281 37.484396) scale(0.1 -0.1)">
       <use xlink:href="#DejaVuSans-c9c"/>
       <use xlink:href="#DejaVuSans-18" transform="translate(83.796875 0)"/>
      </g>
     </g>
    </g>
    <g id="text_13">
     <!-- log10 positive importance (deterministic sample) -->
     <g transform="translate(14.798438 270.435469) rotate(-90) scale(0.1 -0.1)">
      <defs>
       <path id="DejaVuSans-4f" d="M 603 4863 
L 1178 4863 
L 1178 0 
L 603 0 
L 603 4863 
z
" transform="scale(0.015625)"/>
       <path id="DejaVuSans-52" d="M 1959 3097 
Q 1497 3097 1228 2736 
Q 959 2375 959 1747 
Q 959 1119 1226 758 
Q 1494 397 1959 397 
Q 2419 397 2687 759 
Q 2956 1122 2956 1747 
Q 2956 2369 2687 2733 
Q 2419 3097 1959 3097 
z
M 1959 3584 
Q 2709 3584 3137 3096 
Q 3566 2609 3566 1747 
Q 3566 888 3137 398 
Q 2709 -91 1959 -91 
Q 1206 -91 779 398 
Q 353 888 353 1747 
Q 353 2609 779 3096 
Q 1206 3584 1959 3584 
z
" transform="scale(0.015625)"/>
       <path id="DejaVuSans-4a" d="M 2906 1791 
Q 2906 2416 2648 2759 
Q 2391 3103 1925 3103 
Q 1463 3103 1205 2759 
Q 947 2416 947 1791 
Q 947 1169 1205 825 
Q 1463 481 1925 481 
Q 2391 481 2648 825 
Q 2906 1169 2906 1791 
z
M 3481 434 
Q 3481 -459 3084 -895 
Q 2688 -1331 1869 -1331 
Q 1566 -1331 1297 -1286 
Q 1028 -1241 775 -1147 
L 775 -588 
Q 1028 -725 1275 -790 
Q 1522 -856 1778 -856 
Q 2344 -856 2625 -561 
Q 2906 -266 2906 331 
L 2906 616 
Q 2728 306 2450 153 
Q 2172 0 1784 0 
Q 1141 0 747 490 
Q 353 981 353 1791 
Q 353 2603 747 3093 
Q 1141 3584 1784 3584 
Q 2172 3584 2450 3431 
Q 2728 3278 2906 2969 
L 2906 3500 
L 3481 3500 
L 3481 434 
z
" transform="scale(0.015625)"/>
       <path id="DejaVuSans-3" transform="scale(0.015625)"/>
       <path id="DejaVuSans-56" d="M 2834 3397 
L 2834 2853 
Q 2591 2978 2328 3040 
Q 2066 3103 1784 3103 
Q 1356 3103 1142 2972 
Q 928 2841 928 2578 
Q 928 2378 1081 2264 
Q 1234 2150 1697 2047 
L 1894 2003 
Q 2506 1872 2764 1633 
Q 3022 1394 3022 966 
Q 3022 478 2636 193 
Q 2250 -91 1575 -91 
Q 1294 -91 989 -36 
Q 684 19 347 128 
L 347 722 
Q 666 556 975 473 
Q 1284 391 1588 391 
Q 1994 391 2212 530 
Q 2431 669 2431 922 
Q 2431 1156 2273 1281 
Q 2116 1406 1581 1522 
L 1381 1569 
Q 847 1681 609 1914 
Q 372 2147 372 2553 
Q 372 3047 722 3315 
Q 1072 3584 1716 3584 
Q 2034 3584 2315 3537 
Q 2597 3491 2834 3397 
z
" transform="scale(0.015625)"/>
       <path id="DejaVuSans-59" d="M 191 3500 
L 800 3500 
L 1894 563 
L 2988 3500 
L 3597 3500 
L 2284 0 
L 1503 0 
L 191 3500 
z
" transform="scale(0.015625)"/>
       <path id="DejaVuSans-50" d="M 3328 2828 
Q 3544 3216 3844 3400 
Q 4144 3584 4550 3584 
Q 5097 3584 5394 3201 
Q 5691 2819 5691 2113 
L 5691 0 
L 5113 0 
L 5113 2094 
Q 5113 2597 4934 2840 
Q 4756 3084 4391 3084 
Q 3944 3084 3684 2787 
Q 3425 2491 3425 1978 
L 3425 0 
L 2847 0 
L 2847 2094 
Q 2847 2600 2669 2842 
Q 2491 3084 2119 3084 
Q 1678 3084 1418 2786 
Q 1159 2488 1159 1978 
L 1159 0 
L 581 0 
L 581 3500 
L 1159 3500 
L 1159 2956 
Q 1356 3278 1631 3431 
Q 1906 3584 2284 3584 
Q 2666 3584 2933 3390 
Q 3200 3197 3328 2828 
z
" transform="scale(0.015625)"/>
       <path id="DejaVuSans-b" d="M 1984 4856 
Q 1566 4138 1362 3434 
Q 1159 2731 1159 2009 
Q 1159 1288 1364 580 
Q 1569 -128 1984 -844 
L 1484 -844 
Q 1016 -109 783 600 
Q 550 1309 550 2009 
Q 550 2706 781 3412 
Q 1013 4119 1484 4856 
L 1984 4856 
z
" transform="scale(0.015625)"/>
       <path id="DejaVuSans-c" d="M 513 4856 
L 1013 4856 
Q 1481 4119 1714 3412 
Q 1947 2706 1947 2009 
Q 1947 1309 1714 600 
Q 1481 -109 1013 -844 
L 513 -844 
Q 928 -128 1133 580 
Q 1338 1288 1338 2009 
Q 1338 2731 1133 3434 
Q 928 4138 513 4856 
z
" transform="scale(0.015625)"/>
      </defs>
      <use xlink:href="#DejaVuSans-4f"/>
      <use xlink:href="#DejaVuSans-52" transform="translate(27.78125 0)"/>
      <use xlink:href="#DejaVuSans-4a" transform="translate(88.96875 0)"/>
      <use xlink:href="#DejaVuSans-14" transform="translate(152.453125 0)"/>
      <use xlink:href="#DejaVuSans-13" transform="translate(216.078125 0)"/>
      <use xlink:href="#DejaVuSans-3" transform="translate(279.703125 0)"/>
      <use xlink:href="#DejaVuSans-53" transform="translate(311.484375 0)"/>
      <use xlink:href="#DejaVuSans-52" transform="translate(374.96875 0)"/>
      <use xlink:href="#DejaVuSans-56" transform="translate(436.15625 0)"/>
      <use xlink:href="#DejaVuSans-4c" transform="translate(488.25 0)"/>
      <use xlink:href="#DejaVuSans-57" transform="translate(516.03125 0)"/>
      <use xlink:href="#DejaVuSans-4c" transform="translate(555.234375 0)"/>
      <use xlink:href="#DejaVuSans-59" transform="translate(583.015625 0)"/>
      <use xlink:href="#DejaVuSans-48" transform="translate(642.203125 0)"/>
      <use xlink:href="#DejaVuSans-3" transform="translate(703.734375 0)"/>
      <use xlink:href="#DejaVuSans-4c" transform="translate(735.515625 0)"/>
      <use xlink:href="#DejaVuSans-50" transform="translate(763.296875 0)"/>
      <use xlink:href="#DejaVuSans-53" transform="translate(860.703125 0)"/>
      <use xlink:href="#DejaVuSans-52" transform="translate(924.1875 0)"/>
      <use xlink:href="#DejaVuSans-55" transform="translate(985.375 0)"/>
      <use xlink:href="#DejaVuSans-57" transform="translate(1026.484375 0)"/>
      <use xlink:href="#DejaVuSans-44" transform="translate(1065.6875 0)"/>
      <use xlink:href="#DejaVuSans-51" transform="translate(1126.96875 0)"/>
      <use xlink:href="#DejaVuSans-46" transform="translate(1190.34375 0)"/>
      <use xlink:href="#DejaVuSans-48" transform="translate(1245.328125 0)"/>
      <use xlink:href="#DejaVuSans-3" transform="translate(1306.859375 0)"/>
      <use xlink:href="#DejaVuSans-b" transform="translate(1338.640625 0)"/>
      <use xlink:href="#DejaVuSans-47" transform="translate(1377.65625 0)"/>
      <use xlink:href="#DejaVuSans-48" transform="translate(1441.140625 0)"/>
      <use xlink:href="#DejaVuSans-57" transform="translate(1502.671875 0)"/>
      <use xlink:href="#DejaVuSans-48" transform="translate(1541.875 0)"/>
      <use xlink:href="#DejaVuSans-55" transform="translate(1603.40625 0)"/>
      <use xlink:href="#DejaVuSans-50" transform="translate(1642.765625 0)"/>
      <use xlink:href="#DejaVuSans-4c" transform="translate(1740.171875 0)"/>
      <use xlink:href="#DejaVuSans-51" transform="translate(1767.953125 0)"/>
      <use xlink:href="#DejaVuSans-4c" transform="translate(1831.328125 0)"/>
      <use xlink:href="#DejaVuSans-56" transform="translate(1859.109375 0)"/>
      <use xlink:href="#DejaVuSans-57" transform="translate(1911.203125 0)"/>
      <use xlink:href="#DejaVuSans-4c" transform="translate(1950.40625 0)"/>
      <use xlink:href="#DejaVuSans-46" transform="translate(1978.1875 0)"/>
      <use xlink:href="#DejaVuSans-3" transform="translate(2033.171875 0)"/>
      <use xlink:href="#DejaVuSans-56" transform="translate(2064.953125 0)"/>
      <use xlink:href="#DejaVuSans-44" transform="translate(2117.046875 0)"/>
      <use xlink:href="#DejaVuSans-50" transform="translate(2178.328125 0)"/>
      <use xlink:href="#DejaVuSans-53" transform="translate(2275.734375 0)"/>
      <use xlink:href="#DejaVuSans-4f" transform="translate(2339.21875 0)"/>
      <use xlink:href="#DejaVuSans-48" transform="translate(2367 0)"/>
      <use xlink:href="#DejaVuSans-c" transform="translate(2428.53125 0)"/>
     </g>
    </g>
   </g>
   <g id="LineCollection_1">
    <path d="M 76.347007 102.392865 
L 91.370084 102.392865 
" clip-path="url(#p19053bc11a)" style="fill: none; stroke: #1f77b4; stroke-width: 1.5"/>
    <path d="M 136.439315 102.411176 
L 151.462392 102.411176 
" clip-path="url(#p19053bc11a)" style="fill: none; stroke: #1f77b4; stroke-width: 1.5"/>
    <path d="M 196.531623 102.821585 
L 211.5547 102.821585 
" clip-path="url(#p19053bc11a)" style="fill: none; stroke: #1f77b4; stroke-width: 1.5"/>
    <path d="M 256.62393 102.476888 
L 271.647007 102.476888 
" clip-path="url(#p19053bc11a)" style="fill: none; stroke: #1f77b4; stroke-width: 1.5"/>
    <path d="M 316.716238 98.347373 
L 331.739315 98.347373 
" clip-path="url(#p19053bc11a)" style="fill: none; stroke: #1f77b4; stroke-width: 1.5"/>
    <path d="M 376.808546 98.465603 
L 391.831623 98.465603 
" clip-path="url(#p19053bc11a)" style="fill: none; stroke: #1f77b4; stroke-width: 1.5"/>
    <path d="M 436.900853 98.297386 
L 451.92393 98.297386 
" clip-path="url(#p19053bc11a)" style="fill: none; stroke: #1f77b4; stroke-width: 1.5"/>
   </g>
   <g id="patch_3">
    <path d="M 49.305469 271.798125 
L 49.305469 22.318125 
" style="fill: none; stroke: #000000; stroke-width: 0.8; stroke-linejoin: miter; stroke-linecap: square"/>
   </g>
   <g id="patch_4">
    <path d="M 478.965469 271.798125 
L 478.965469 22.318125 
" style="fill: none; stroke: #000000; stroke-width: 0.8; stroke-linejoin: miter; stroke-linecap: square"/>
   </g>
   <g id="patch_5">
    <path d="M 49.305469 271.798125 
L 478.965469 271.798125 
" style="fill: none; stroke: #000000; stroke-width: 0.8; stroke-linejoin: miter; stroke-linecap: square"/>
   </g>
   <g id="patch_6">
    <path d="M 49.305469 22.318125 
L 478.965469 22.318125 
" style="fill: none; stroke: #000000; stroke-width: 0.8; stroke-linejoin: miter; stroke-linecap: square"/>
   </g>
   <g id="text_14">
    <!-- Positive importance violin distribution -->
    <g transform="translate(150.787031 16.318125) scale(0.12 -0.12)">
     <defs>
      <path id="DejaVuSans-33" d="M 1259 4147 
L 1259 2394 
L 2053 2394 
Q 2494 2394 2734 2622 
Q 2975 2850 2975 3272 
Q 2975 3691 2734 3919 
Q 2494 4147 2053 4147 
L 1259 4147 
z
M 628 4666 
L 2053 4666 
Q 2838 4666 3239 4311 
Q 3641 3956 3641 3272 
Q 3641 2581 3239 2228 
Q 2838 1875 2053 1875 
L 1259 1875 
L 1259 0 
L 628 0 
L 628 4666 
z
" transform="scale(0.015625)"/>
      <path id="DejaVuSans-45" d="M 3116 1747 
Q 3116 2381 2855 2742 
Q 2594 3103 2138 3103 
Q 1681 3103 1420 2742 
Q 1159 2381 1159 1747 
Q 1159 1113 1420 752 
Q 1681 391 2138 391 
Q 2594 391 2855 752 
Q 3116 1113 3116 1747 
z
M 1159 2969 
Q 1341 3281 1617 3432 
Q 1894 3584 2278 3584 
Q 2916 3584 3314 3078 
Q 3713 2572 3713 1747 
Q 3713 922 3314 415 
Q 2916 -91 2278 -91 
Q 1894 -91 1617 61 
Q 1341 213 1159 525 
L 1159 0 
L 581 0 
L 581 4863 
L 1159 4863 
L 1159 2969 
z
" transform="scale(0.015625)"/>
      <path id="DejaVuSans-58" d="M 544 1381 
L 544 3500 
L 1119 3500 
L 1119 1403 
Q 1119 906 1312 657 
Q 1506 409 1894 409 
Q 2359 409 2629 706 
Q 2900 1003 2900 1516 
L 2900 3500 
L 3475 3500 
L 3475 0 
L 2900 0 
L 2900 538 
Q 2691 219 2414 64 
Q 2138 -91 1772 -91 
Q 1169 -91 856 284 
Q 544 659 544 1381 
z
M 1991 3584 
L 1991 3584 
z
" transform="scale(0.015625)"/>
     </defs>
     <use xlink:href="#DejaVuSans-33"/>
     <use xlink:href="#DejaVuSans-52" transform="translate(56.734375 0)"/>
     <use xlink:href="#DejaVuSans-56" transform="translate(117.921875 0)"/>
     <use xlink:href="#DejaVuSans-4c" transform="translate(170.015625 0)"/>
     <use xlink:href="#DejaVuSans-57" transform="translate(197.796875 0)"/>
     <use xlink:href="#DejaVuSans-4c" transform="translate(237 0)"/>
     <use xlink:href="#DejaVuSans-59" transform="translate(264.78125 0)"/>
     <use xlink:href="#DejaVuSans-48" transform="translate(323.96875 0)"/>
     <use xlink:href="#DejaVuSans-3" transform="translate(385.5 0)"/>
     <use xlink:href="#DejaVuSans-4c" transform="translate(417.28125 0)"/>
     <use xlink:href="#DejaVuSans-50" transform="translate(445.0625 0)"/>
     <use xlink:href="#DejaVuSans-53" transform="translate(542.46875 0)"/>
     <use xlink:href="#DejaVuSans-52" transform="translate(605.953125 0)"/>
     <use xlink:href="#DejaVuSans-55" transform="translate(667.140625 0)"/>
     <use xlink:href="#DejaVuSans-57" transform="translate(708.25 0)"/>
     <use xlink:href="#DejaVuSans-44" transform="translate(747.453125 0)"/>
     <use xlink:href="#DejaVuSans-51" transform="translate(808.734375 0)"/>
     <use xlink:href="#DejaVuSans-46" transform="translate(872.109375 0)"/>
     <use xlink:href="#DejaVuSans-48" transform="translate(927.09375 0)"/>
     <use xlink:href="#DejaVuSans-3" transform="translate(988.625 0)"/>
     <use xlink:href="#DejaVuSans-59" transform="translate(1020.40625 0)"/>
     <use xlink:href="#DejaVuSans-4c" transform="translate(1079.59375 0)"/>
     <use xlink:href="#DejaVuSans-52" transform="translate(1107.375 0)"/>
     <use xlink:href="#DejaVuSans-4f" transform="translate(1168.5625 0)"/>
     <use xlink:href="#DejaVuSans-4c" transform="translate(1196.34375 0)"/>
     <use xlink:href="#DejaVuSans-51" transform="translate(1224.125 0)"/>
     <use xlink:href="#DejaVuSans-3" transform="translate(1287.5 0)"/>
     <use xlink:href="#DejaVuSans-47" transform="translate(1319.28125 0)"/>
     <use xlink:href="#DejaVuSans-4c" transform="translate(1382.765625 0)"/>
     <use xlink:href="#DejaVuSans-56" transform="translate(1410.546875 0)"/>
     <use xlink:href="#DejaVuSans-57" transform="translate(1462.640625 0)"/>
     <use xlink:href="#DejaVuSans-55" transform="translate(1501.84375 0)"/>
     <use xlink:href="#DejaVuSans-4c" transform="translate(1542.953125 0)"/>
     <use xlink:href="#DejaVuSans-45" transform="translate(1570.734375 0)"/>
     <use xlink:href="#DejaVuSans-58" transform="translate(1634.21875 0)"/>
     <use xlink:href="#DejaVuSans-57" transform="translate(1697.59375 0)"/>
     <use xlink:href="#DejaVuSans-4c" transform="translate(1736.796875 0)"/>
     <use xlink:href="#DejaVuSans-52" transform="translate(1764.578125 0)"/>
     <use xlink:href="#DejaVuSans-51" transform="translate(1825.765625 0)"/>
    </g>
   </g>
  </g>
 </g>
 <defs>
  <clipPath id="p19053bc11a">
   <rect x="49.305469" y="22.318125" width="429.66" height="249.48"/>
  </clipPath>
 </defs>
</svg>
