<?xml version="1.0" encoding="utf-8" standalone="no"?>
<!DOCTYPE svg PUBLIC "-//W3C//DTD SVG 1.1//EN"
  "http://www.w3.org/Graphics/SVG/1.1/DTD/svg11.dtd">
<svg xmlns:xlink="http://www.w3.org/1999/xlink" width="441.903906pt" height="311.80125pt" viewBox="0 0 441.903906 311.80125" xmlns="http://www.w3.org/2000/svg" version="1.1">
 <metadata>
  <rdf:RDF xmlns:dc="http://purl.org/dc/elements/1.1/" xmlns:cc="http://creativecommons.org/ns#" xmlns:rdf="http://www.w3.org/1999/02/22-rdf-syntax-ns#">
   <cc:Work>
    <dc:type rdf:resource="http://purl.org/dc/dcmitype/StillImage"/>
    <dc:format>image/svg+xml</dc:format>
    <dc:creator>
     <cc:Agent>
      <dc:title>param_importance_nlp.analysis.reporting</dc:title>
     </cc:Agent>
    </dc:creator>
   </cc:Work>
  </rdf:RDF>
 </metadata>
 <defs>
  <style type="text/css">*{stroke-linejoin: round; stroke-linecap: butt}</style>
 </defs>
 <g id="figure_1">
  <g id="patch_1">
   <path d="M 0 311.80125 
L 441.903906 311.80125 
L 441.903906 0 
L 0 0 
z
" style="fill: #ffffff"/>
  </g>
  <g id="axes_1">
   <g id="patch_2">
    <path d="M 44.103906 271.798125 
L 434.703906 271.798125 
L 434.703906 22.318125 
L 44.103906 22.318125 
z
" style="fill: #ffffff"/>
   </g>
   <g id="matplotlib.axis_1">
    <g id="xtick_1">
     <g id="line2d_1">
      <defs>
       <path id="ma1647659f6" d="M 0 0 
L 0 3.5 
" style="stroke: #000000; stroke-width: 0.8"/>
      </defs>
      <g>
       <use xlink:href="#ma1647659f6" x="61.858452" y="271.798125" style="stroke: #000000; stroke-width: 0.8"/>
      </g>
     </g>
     <g id="text_1">
      <!-- $\mathdefault{10^{-3}}$ -->
      <g transform="translate(50.108452 288.198125) scale(0.1 -0.1)">
       <defs>
        <path id="DejaVuSans-14" d="M 794 531 
L 1825 531 
L 1825 4091 
L 703 3866 
L 703 4441 
L 1819 4666 
L 2450 4666 
L 2450 531 
L 3481 531 
L 3481 0 
L 794 0 
L 794 531 
z
" transform="scale(0.015625)"/>
        <path id="DejaVuSans-13" d="M 2034 4250 
Q 1547 4250 1301 3770 
Q 1056 3291 1056 2328 
Q 1056 1369 1301 889 
Q 1547 409 2034 409 
Q 2525 409 2770 889 
Q 3016 1369 3016 2328 
Q 3016 3291 2770 3770 
Q 2525 4250 2034 4250 
z
M 2034 4750 
Q 2819 4750 3233 4129 
Q 3647 3509 3647 2328 
Q 3647 1150 3233 529 
Q 2819 -91 2034 -91 
Q 1250 -91 836 529 
Q 422 1150 422 2328 
Q 422 3509 836 4129 
Q 1250 4750 2034 4750 
z
" transform="scale(0.015625)"/>
        <path id="DejaVuSans-c9c" d="M 678 2272 
L 4684 2272 
L 4684 1741 
L 678 1741 
L 678 2272 
z
" transform="scale(0.015625)"/>
        <path id="DejaVuSans-16" d="M 2597 2516 
Q 3050 2419 3304 2112 
Q 3559 1806 3559 1356 
Q 3559 666 3084 287 
Q 2609 -91 1734 -91 
Q 1441 -91 1130 -33 
Q 819 25 488 141 
L 488 750 
Q 750 597 1062 519 
Q 1375 441 1716 441 
Q 2309 441 2620 675 
Q 2931 909 2931 1356 
Q 2931 1769 2642 2001 
Q 2353 2234 1838 2234 
L 1294 2234 
L 1294 2753 
L 1863 2753 
Q 2328 2753 2575 2939 
Q 2822 3125 2822 3475 
Q 2822 3834 2567 4026 
Q 2313 4219 1838 4219 
Q 1578 4219 1281 4162 
Q 984 4106 628 3988 
L 628 4550 
Q 988 4650 1302 4700 
Q 1616 4750 1894 4750 
Q 2613 4750 3031 4423 
Q 3450 4097 3450 3541 
Q 3450 3153 3228 2886 
Q 3006 2619 2597 2516 
z
" transform="scale(0.015625)"/>
       </defs>
       <use xlink:href="#DejaVuSans-14" transform="translate(0 0.746875)"/>
       <use xlink:href="#DejaVuSans-13" transform="translate(63.623047 0.746875)"/>
       <use xlink:href="#DejaVuSans-c9c" transform="translate(128.203125 42.046875) scale(0.7)"/>
       <use xlink:href="#DejaVuSans-16" transform="translate(186.855469 42.046875) scale(0.7)"/>
      </g>
     </g>
    </g>
    <g id="xtick_2">
     <g id="line2d_2">
      <g>
       <use xlink:href="#ma1647659f6" x="132.876634" y="271.798125" style="stroke: #000000; stroke-width: 0.8"/>
      </g>
     </g>
     <g id="text_2">
      <!-- $\mathdefault{10^{-2}}$ -->
      <g transform="translate(121.126634 288.198125) scale(0.1 -0.1)">
       <defs>
        <path id="DejaVuSans-15" d="M 1228 531 
L 3431 531 
L 3431 0 
L 469 0 
L 469 531 
Q 828 903 1448 1529 
Q 2069 2156 2228 2338 
Q 2531 2678 2651 2914 
Q 2772 3150 2772 3378 
Q 2772 3750 2511 3984 
Q 2250 4219 1831 4219 
Q 1534 4219 1204 4116 
Q 875 4013 500 3803 
L 500 4441 
Q 881 4594 1212 4672 
Q 1544 4750 1819 4750 
Q 2544 4750 2975 4387 
Q 3406 4025 3406 3419 
Q 3406 3131 3298 2873 
Q 3191 2616 2906 2266 
Q 2828 2175 2409 1742 
Q 1991 1309 1228 531 
z
" transform="scale(0.015625)"/>
       </defs>
       <use xlink:href="#DejaVuSans-14" transform="translate(0 0.746875)"/>
       <use xlink:href="#DejaVuSans-13" transform="translate(63.623047 0.746875)"/>
       <use xlink:href="#DejaVuSans-c9c" transform="translate(128.203125 42.046875) scale(0.7)"/>
       <use xlink:href="#DejaVuSans-15" transform="translate(186.855469 42.046875) scale(0.7)"/>
      </g>
     </g>
    </g>
    <g id="xtick_3">
     <g id="line2d_3">
      <g>
       <use xlink:href="#ma1647659f6" x="203.894815" y="271.798125" style="stroke: #000000; stroke-width: 0.8"/>
      </g>
     </g>
     <g id="text_3">
      <!-- $\mathdefault{10^{-1}}$ -->
      <g transform="translate(192.144815 288.098125) scale(0.1 -0.1)">
       <use xlink:href="#DejaVuSans-14" transform="translate(0 0.665625)"/>
       <use xlink:href="#DejaVuSans-13" transform="translate(63.623047 0.665625)"/>
       <use xlink:href="#DejaVuSans-c9c" transform="translate(128.203125 41.965625) scale(0.7)"/>
       <use xlink:href="#DejaVuSans-14" transform="translate(186.855469 41.965625) scale(0.7)"/>
      </g>
     </g>
    </g>
    <g id="xtick_4">
     <g id="line2d_4">
      <g>
       <use xlink:href="#ma1647659f6" x="274.912997" y="271.798125" style="stroke: #000000; stroke-width: 0.8"/>
      </g>
     </g>
     <g id="text_4">
      <!-- $\mathdefault{10^{0}}$ -->
      <g transform="translate(266.112997 288.198125) scale(0.1 -0.1)">
       <use xlink:href="#DejaVuSans-14" transform="translate(0 0.746875)"/>
       <use xlink:href="#DejaVuSans-13" transform="translate(63.623047 0.746875)"/>
       <use xlink:href="#DejaVuSans-13" transform="translate(128.203125 42.046875) scale(0.7)"/>
      </g>
     </g>
    </g>
    <g id="xtick_5">
     <g id="line2d_5">
      <g>
       <use xlink:href="#ma1647659f6" x="345.931179" y="271.798125" style="stroke: #000000; stroke-width: 0.8"/>
      </g>
     </g>
     <g id="text_5">
      <!-- $\mathdefault{10^{1}}$ -->
      <g transform="translate(337.131179 288.098125) scale(0.1 -0.1)">
       <use xlink:href="#DejaVuSans-14" transform="translate(0 0.665625)"/>
       <use xlink:href="#DejaVuSans-13" transform="translate(63.623047 0.665625)"/>
       <use xlink:href="#DejaVuSans-14" transform="translate(128.203125 41.965625) scale(0.7)"/>
      </g>
     </g>
    </g>
    <g id="xtick_6">
     <g id="line2d_6">
      <g>
       <use xlink:href="#ma1647659f6" x="416.949361" y="271.798125" style="stroke: #000000; stroke-width: 0.8"/>
      </g>
     </g>
     <g id="text_6">
      <!-- $\mathdefault{10^{2}}$ -->
      <g transform="translate(408.149361 288.198125) scale(0.1 -0.1)">
       <use xlink:href="#DejaVuSans-14" transform="translate(0 0.746875)"/>
       <use xlink:href="#DejaVuSans-13" transform="translate(63.623047 0.746875)"/>
       <use xlink:href="#DejaVuSans-15" transform="translate(128.203125 42.046875) scale(0.7)"/>
      </g>
     </g>
    </g>
    <g id="xtick_7">
     <g id="line2d_7">
      <defs>
       <path id="m5e4e8f4181" d="M 0 0 
L 0 2 
" style="stroke: #000000; stroke-width: 0.6"/>
      </defs>
      <g>
       <use xlink:href="#m5e4e8f4181" x="46.103157" y="271.798125" style="stroke: #000000; stroke-width: 0.6"/>
      </g>
     </g>
    </g>
    <g id="xtick_8">
     <g id="line2d_8">
      <g>
       <use xlink:href="#m5e4e8f4181" x="50.857596" y="271.798125" style="stroke: #000000; stroke-width: 0.6"/>
      </g>
     </g>
    </g>
    <g id="xtick_9">
     <g id="line2d_9">
      <g>
       <use xlink:href="#m5e4e8f4181" x="54.976079" y="271.798125" style="stroke: #000000; stroke-width: 0.6"/>
      </g>
     </g>
    </g>
    <g id="xtick_10">
     <g id="line2d_10">
      <g>
       <use xlink:href="#m5e4e8f4181" x="58.608838" y="271.798125" style="stroke: #000000; stroke-width: 0.6"/>
      </g>
     </g>
    </g>
    <g id="xtick_11">
     <g id="line2d_11">
      <g>
       <use xlink:href="#m5e4e8f4181" x="83.237055" y="271.798125" style="stroke: #000000; stroke-width: 0.6"/>
      </g>
     </g>
    </g>
    <g id="xtick_12">
     <g id="line2d_12">
      <g>
       <use xlink:href="#m5e4e8f4181" x="95.742736" y="271.798125" style="stroke: #000000; stroke-width: 0.6"/>
      </g>
     </g>
    </g>
    <g id="xtick_13">
     <g id="line2d_13">
      <g>
       <use xlink:href="#m5e4e8f4181" x="104.615658" y="271.798125" style="stroke: #000000; stroke-width: 0.6"/>
      </g>
     </g>
    </g>
    <g id="xtick_14">
     <g id="line2d_14">
      <g>
       <use xlink:href="#m5e4e8f4181" x="111.498031" y="271.798125" style="stroke: #000000; stroke-width: 0.6"/>
      </g>
     </g>
    </g>
    <g id="xtick_15">
     <g id="line2d_15">
      <g>
       <use xlink:href="#m5e4e8f4181" x="117.121339" y="271.798125" style="stroke: #000000; stroke-width: 0.6"/>
      </g>
     </g>
    </g>
    <g id="xtick_16">
     <g id="line2d_16">
      <g>
       <use xlink:href="#m5e4e8f4181" x="121.875778" y="271.798125" style="stroke: #000000; stroke-width: 0.6"/>
      </g>
     </g>
    </g>
    <g id="xtick_17">
     <g id="line2d_17">
      <g>
       <use xlink:href="#m5e4e8f4181" x="125.994261" y="271.798125" style="stroke: #000000; stroke-width: 0.6"/>
      </g>
     </g>
    </g>
    <g id="xtick_18">
     <g id="line2d_18">
      <g>
       <use xlink:href="#m5e4e8f4181" x="129.62702" y="271.798125" style="stroke: #000000; stroke-width: 0.6"/>
      </g>
     </g>
    </g>
    <g id="xtick_19">
     <g id="line2d_19">
      <g>
       <use xlink:href="#m5e4e8f4181" x="154.255236" y="271.798125" style="stroke: #000000; stroke-width: 0.6"/>
      </g>
     </g>
    </g>
    <g id="xtick_20">
     <g id="line2d_20">
      <g>
       <use xlink:href="#m5e4e8f4181" x="166.760918" y="271.798125" style="stroke: #000000; stroke-width: 0.6"/>
      </g>
     </g>
    </g>
    <g id="xtick_21">
     <g id="line2d_21">
      <g>
       <use xlink:href="#m5e4e8f4181" x="175.633839" y="271.798125" style="stroke: #000000; stroke-width: 0.6"/>
      </g>
     </g>
    </g>
    <g id="xtick_22">
     <g id="line2d_22">
      <g>
       <use xlink:href="#m5e4e8f4181" x="182.516212" y="271.798125" style="stroke: #000000; stroke-width: 0.6"/>
      </g>
     </g>
    </g>
    <g id="xtick_23">
     <g id="line2d_23">
      <g>
       <use xlink:href="#m5e4e8f4181" x="188.139521" y="271.798125" style="stroke: #000000; stroke-width: 0.6"/>
      </g>
     </g>
    </g>
    <g id="xtick_24">
     <g id="line2d_24">
      <g>
       <use xlink:href="#m5e4e8f4181" x="192.89396" y="271.798125" style="stroke: #000000; stroke-width: 0.6"/>
      </g>
     </g>
    </g>
    <g id="xtick_25">
     <g id="line2d_25">
      <g>
       <use xlink:href="#m5e4e8f4181" x="197.012442" y="271.798125" style="stroke: #000000; stroke-width: 0.6"/>
      </g>
     </g>
    </g>
    <g id="xtick_26">
     <g id="line2d_26">
      <g>
       <use xlink:href="#m5e4e8f4181" x="200.645202" y="271.798125" style="stroke: #000000; stroke-width: 0.6"/>
      </g>
     </g>
    </g>
    <g id="xtick_27">
     <g id="line2d_27">
      <g>
       <use xlink:href="#m5e4e8f4181" x="225.273418" y="271.798125" style="stroke: #000000; stroke-width: 0.6"/>
      </g>
     </g>
    </g>
    <g id="xtick_28">
     <g id="line2d_28">
      <g>
       <use xlink:href="#m5e4e8f4181" x="237.779099" y="271.798125" style="stroke: #000000; stroke-width: 0.6"/>
      </g>
     </g>
    </g>
    <g id="xtick_29">
     <g id="line2d_29">
      <g>
       <use xlink:href="#m5e4e8f4181" x="246.652021" y="271.798125" style="stroke: #000000; stroke-width: 0.6"/>
      </g>
     </g>
    </g>
    <g id="xtick_30">
     <g id="line2d_30">
      <g>
       <use xlink:href="#m5e4e8f4181" x="253.534394" y="271.798125" style="stroke: #000000; stroke-width: 0.6"/>
      </g>
     </g>
    </g>
    <g id="xtick_31">
     <g id="line2d_31">
      <g>
       <use xlink:href="#m5e4e8f4181" x="259.157702" y="271.798125" style="stroke: #000000; stroke-width: 0.6"/>
      </g>
     </g>
    </g>
    <g id="xtick_32">
     <g id="line2d_32">
      <g>
       <use xlink:href="#m5e4e8f4181" x="263.912142" y="271.798125" style="stroke: #000000; stroke-width: 0.6"/>
      </g>
     </g>
    </g>
    <g id="xtick_33">
     <g id="line2d_33">
      <g>
       <use xlink:href="#m5e4e8f4181" x="268.030624" y="271.798125" style="stroke: #000000; stroke-width: 0.6"/>
      </g>
     </g>
    </g>
    <g id="xtick_34">
     <g id="line2d_34">
      <g>
       <use xlink:href="#m5e4e8f4181" x="271.663383" y="271.798125" style="stroke: #000000; stroke-width: 0.6"/>
      </g>
     </g>
    </g>
    <g id="xtick_35">
     <g id="line2d_35">
      <g>
       <use xlink:href="#m5e4e8f4181" x="296.2916" y="271.798125" style="stroke: #000000; stroke-width: 0.6"/>
      </g>
     </g>
    </g>
    <g id="xtick_36">
     <g id="line2d_36">
      <g>
       <use xlink:href="#m5e4e8f4181" x="308.797281" y="271.798125" style="stroke: #000000; stroke-width: 0.6"/>
      </g>
     </g>
    </g>
    <g id="xtick_37">
     <g id="line2d_37">
      <g>
       <use xlink:href="#m5e4e8f4181" x="317.670203" y="271.798125" style="stroke: #000000; stroke-width: 0.6"/>
      </g>
     </g>
    </g>
    <g id="xtick_38">
     <g id="line2d_38">
      <g>
       <use xlink:href="#m5e4e8f4181" x="324.552576" y="271.798125" style="stroke: #000000; stroke-width: 0.6"/>
      </g>
     </g>
    </g>
    <g id="xtick_39">
     <g id="line2d_39">
      <g>
       <use xlink:href="#m5e4e8f4181" x="330.175884" y="271.798125" style="stroke: #000000; stroke-width: 0.6"/>
      </g>
     </g>
    </g>
    <g id="xtick_40">
     <g id="line2d_40">
      <g>
       <use xlink:href="#m5e4e8f4181" x="334.930323" y="271.798125" style="stroke: #000000; stroke-width: 0.6"/>
      </g>
     </g>
    </g>
    <g id="xtick_41">
     <g id="line2d_41">
      <g>
       <use xlink:href="#m5e4e8f4181" x="339.048806" y="271.798125" style="stroke: #000000; stroke-width: 0.6"/>
      </g>
     </g>
    </g>
    <g id="xtick_42">
     <g id="line2d_42">
      <g>
       <use xlink:href="#m5e4e8f4181" x="342.681565" y="271.798125" style="stroke: #000000; stroke-width: 0.6"/>
      </g>
     </g>
    </g>
    <g id="xtick_43">
     <g id="line2d_43">
      <g>
       <use xlink:href="#m5e4e8f4181" x="367.309782" y="271.798125" style="stroke: #000000; stroke-width: 0.6"/>
      </g>
     </g>
    </g>
    <g id="xtick_44">
     <g id="line2d_44">
      <g>
       <use xlink:href="#m5e4e8f4181" x="379.815463" y="271.798125" style="stroke: #000000; stroke-width: 0.6"/>
      </g>
     </g>
    </g>
    <g id="xtick_45">
     <g id="line2d_45">
      <g>
       <use xlink:href="#m5e4e8f4181" x="388.688385" y="271.798125" style="stroke: #000000; stroke-width: 0.6"/>
      </g>
     </g>
    </g>
    <g id="xtick_46">
     <g id="line2d_46">
      <g>
       <use xlink:href="#m5e4e8f4181" x="395.570758" y="271.798125" style="stroke: #000000; stroke-width: 0.6"/>
      </g>
     </g>
    </g>
    <g id="xtick_47">
     <g id="line2d_47">
      <g>
       <use xlink:href="#m5e4e8f4181" x="401.194066" y="271.798125" style="stroke: #000000; stroke-width: 0.6"/>
      </g>
     </g>
    </g>
    <g id="xtick_48">
     <g id="line2d_48">
      <g>
       <use xlink:href="#m5e4e8f4181" x="405.948505" y="271.798125" style="stroke: #000000; stroke-width: 0.6"/>
      </g>
     </g>
    </g>
    <g id="xtick_49">
     <g id="line2d_49">
      <g>
       <use xlink:href="#m5e4e8f4181" x="410.066988" y="271.798125" style="stroke: #000000; stroke-width: 0.6"/>
      </g>
     </g>
    </g>
    <g id="xtick_50">
     <g id="line2d_50">
      <g>
       <use xlink:href="#m5e4e8f4181" x="413.699747" y="271.798125" style="stroke: #000000; stroke-width: 0.6"/>
      </g>
     </g>
    </g>
    <g id="text_7">
     <!-- top parameter fraction (%) (deterministic sample) -->
     <g transform="translate(114.153125 302.198906) scale(0.1 -0.1)">
      <defs>
       <path id="DejaVuSans-57" d="M 1172 4494 
L 1172 3500 
L 2356 3500 
L 2356 3053 
L 1172 3053 
L 1172 1153 
Q 1172 725 1289 603 
Q 1406 481 1766 481 
L 2356 481 
L 2356 0 
L 1766 0 
Q 1100 0 847 248 
Q 594 497 594 1153 
L 594 3053 
L 172 3053 
L 172 3500 
L 594 3500 
L 594 4494 
L 1172 4494 
z
" transform="scale(0.015625)"/>
       <path id="DejaVuSans-52" d="M 1959 3097 
Q 1497 3097 1228 2736 
Q 959 2375 959 1747 
Q 959 1119 1226 758 
Q 1494 397 1959 397 
Q 2419 397 2687 759 
Q 2956 1122 2956 1747 
Q 2956 2369 2687 2733 
Q 2419 3097 1959 3097 
z
M 1959 3584 
Q 2709 3584 3137 3096 
Q 3566 2609 3566 1747 
Q 3566 888 3137 398 
Q 2709 -91 1959 -91 
Q 1206 -91 779 398 
Q 353 888 353 1747 
Q 353 2609 779 3096 
Q 1206 3584 1959 3584 
z
" transform="scale(0.015625)"/>
       <path id="DejaVuSans-53" d="M 1159 525 
L 1159 -1331 
L 581 -1331 
L 581 3500 
L 1159 3500 
L 1159 2969 
Q 1341 3281 1617 3432 
Q 1894 3584 2278 3584 
Q 2916 3584 3314 3078 
Q 3713 2572 3713 1747 
Q 3713 922 3314 415 
Q 2916 -91 2278 -91 
Q 1894 -91 1617 61 
Q 1341 213 1159 525 
z
M 3116 1747 
Q 3116 2381 2855 2742 
Q 2594 3103 2138 3103 
Q 1681 3103 1420 2742 
Q 1159 2381 1159 1747 
Q 1159 1113 1420 752 
Q 1681 391 2138 391 
Q 2594 391 2855 752 
Q 3116 1113 3116 1747 
z
" transform="scale(0.015625)"/>
       <path id="DejaVuSans-3" transform="scale(0.015625)"/>
       <path id="DejaVuSans-44" d="M 2194 1759 
Q 1497 1759 1228 1600 
Q 959 1441 959 1056 
Q 959 750 1161 570 
Q 1363 391 1709 391 
Q 2188 391 2477 730 
Q 2766 1069 2766 1631 
L 2766 1759 
L 2194 1759 
z
M 3341 1997 
L 3341 0 
L 2766 0 
L 2766 531 
Q 2569 213 2275 61 
Q 1981 -91 1556 -91 
Q 1019 -91 701 211 
Q 384 513 384 1019 
Q 384 1609 779 1909 
Q 1175 2209 1959 2209 
L 2766 2209 
L 2766 2266 
Q 2766 2663 2505 2880 
Q 2244 3097 1772 3097 
Q 1472 3097 1187 3025 
Q 903 2953 641 2809 
L 641 3341 
Q 956 3463 1253 3523 
Q 1550 3584 1831 3584 
Q 2591 3584 2966 3190 
Q 3341 2797 3341 1997 
z
" transform="scale(0.015625)"/>
       <path id="DejaVuSans-55" d="M 2631 2963 
Q 2534 3019 2420 3045 
Q 2306 3072 2169 3072 
Q 1681 3072 1420 2755 
Q 1159 2438 1159 1844 
L 1159 0 
L 581 0 
L 581 3500 
L 1159 3500 
L 1159 2956 
Q 1341 3275 1631 3429 
Q 1922 3584 2338 3584 
Q 2397 3584 2469 3576 
Q 2541 3569 2628 3553 
L 2631 2963 
z
" transform="scale(0.015625)"/>
       <path id="DejaVuSans-50" d="M 3328 2828 
Q 3544 3216 3844 3400 
Q 4144 3584 4550 3584 
Q 5097 3584 5394 3201 
Q 5691 2819 5691 2113 
L 5691 0 
L 5113 0 
L 5113 2094 
Q 5113 2597 4934 2840 
Q 4756 3084 4391 3084 
Q 3944 3084 3684 2787 
Q 3425 2491 3425 1978 
L 3425 0 
L 2847 0 
L 2847 2094 
Q 2847 2600 2669 2842 
Q 2491 3084 2119 3084 
Q 1678 3084 1418 2786 
Q 1159 2488 1159 1978 
L 1159 0 
L 581 0 
L 581 3500 
L 1159 3500 
L 1159 2956 
Q 1356 3278 1631 3431 
Q 1906 3584 2284 3584 
Q 2666 3584 2933 3390 
Q 3200 3197 3328 2828 
z
" transform="scale(0.015625)"/>
       <path id="DejaVuSans-48" d="M 3597 1894 
L 3597 1613 
L 953 1613 
Q 991 1019 1311 708 
Q 1631 397 2203 397 
Q 2534 397 2845 478 
Q 3156 559 3463 722 
L 3463 178 
Q 3153 47 2828 -22 
Q 2503 -91 2169 -91 
Q 1331 -91 842 396 
Q 353 884 353 1716 
Q 353 2575 817 3079 
Q 1281 3584 2069 3584 
Q 2775 3584 3186 3129 
Q 3597 2675 3597 1894 
z
M 3022 2063 
Q 3016 2534 2758 2815 
Q 2500 3097 2075 3097 
Q 1594 3097 1305 2825 
Q 1016 2553 972 2059 
L 3022 2063 
z
" transform="scale(0.015625)"/>
       <path id="DejaVuSans-49" d="M 2375 4863 
L 2375 4384 
L 1825 4384 
Q 1516 4384 1395 4259 
Q 1275 4134 1275 3809 
L 1275 3500 
L 2222 3500 
L 2222 3053 
L 1275 3053 
L 1275 0 
L 697 0 
L 697 3053 
L 147 3053 
L 147 3500 
L 697 3500 
L 697 3744 
Q 697 4328 969 4595 
Q 1241 4863 1831 4863 
L 2375 4863 
z
" transform="scale(0.015625)"/>
       <path id="DejaVuSans-46" d="M 3122 3366 
L 3122 2828 
Q 2878 2963 2633 3030 
Q 2388 3097 2138 3097 
Q 1578 3097 1268 2742 
Q 959 2388 959 1747 
Q 959 1106 1268 751 
Q 1578 397 2138 397 
Q 2388 397 2633 464 
Q 2878 531 3122 666 
L 3122 134 
Q 2881 22 2623 -34 
Q 2366 -91 2075 -91 
Q 1284 -91 818 406 
Q 353 903 353 1747 
Q 353 2603 823 3093 
Q 1294 3584 2113 3584 
Q 2378 3584 2631 3529 
Q 2884 3475 3122 3366 
z
" transform="scale(0.015625)"/>
       <path id="DejaVuSans-4c" d="M 603 3500 
L 1178 3500 
L 1178 0 
L 603 0 
L 603 3500 
z
M 603 4863 
L 1178 4863 
L 1178 4134 
L 603 4134 
L 603 4863 
z
" transform="scale(0.015625)"/>
       <path id="DejaVuSans-51" d="M 3513 2113 
L 3513 0 
L 2938 0 
L 2938 2094 
Q 2938 2591 2744 2837 
Q 2550 3084 2163 3084 
Q 1697 3084 1428 2787 
Q 1159 2491 1159 1978 
L 1159 0 
L 581 0 
L 581 3500 
L 1159 3500 
L 1159 2956 
Q 1366 3272 1645 3428 
Q 1925 3584 2291 3584 
Q 2894 3584 3203 3211 
Q 3513 2838 3513 2113 
z
" transform="scale(0.015625)"/>
       <path id="DejaVuSans-b" d="M 1984 4856 
Q 1566 4138 1362 3434 
Q 1159 2731 1159 2009 
Q 1159 1288 1364 580 
Q 1569 -128 1984 -844 
L 1484 -844 
Q 1016 -109 783 600 
Q 550 1309 550 2009 
Q 550 2706 781 3412 
Q 1013 4119 1484 4856 
L 1984 4856 
z
" transform="scale(0.015625)"/>
       <path id="DejaVuSans-8" d="M 4653 2053 
Q 4381 2053 4226 1822 
Q 4072 1591 4072 1178 
Q 4072 772 4226 539 
Q 4381 306 4653 306 
Q 4919 306 5073 539 
Q 5228 772 5228 1178 
Q 5228 1588 5073 1820 
Q 4919 2053 4653 2053 
z
M 4653 2450 
Q 5147 2450 5437 2106 
Q 5728 1763 5728 1178 
Q 5728 594 5436 251 
Q 5144 -91 4653 -91 
Q 4153 -91 3862 251 
Q 3572 594 3572 1178 
Q 3572 1766 3864 2108 
Q 4156 2450 4653 2450 
z
M 1428 4353 
Q 1159 4353 1004 4120 
Q 850 3888 850 3481 
Q 850 3069 1003 2837 
Q 1156 2606 1428 2606 
Q 1700 2606 1854 2837 
Q 2009 3069 2009 3481 
Q 2009 3884 1853 4118 
Q 1697 4353 1428 4353 
z
M 4250 4750 
L 4750 4750 
L 1831 -91 
L 1331 -91 
L 4250 4750 
z
M 1428 4750 
Q 1922 4750 2215 4408 
Q 2509 4066 2509 3481 
Q 2509 2891 2217 2550 
Q 1925 2209 1428 2209 
Q 931 2209 642 2551 
Q 353 2894 353 3481 
Q 353 4063 643 4406 
Q 934 4750 1428 4750 
z
" transform="scale(0.015625)"/>
       <path id="DejaVuSans-c" d="M 513 4856 
L 1013 4856 
Q 1481 4119 1714 3412 
Q 1947 2706 1947 2009 
Q 1947 1309 1714 600 
Q 1481 -109 1013 -844 
L 513 -844 
Q 928 -128 1133 580 
Q 1338 1288 1338 2009 
Q 1338 2731 1133 3434 
Q 928 4138 513 4856 
z
" transform="scale(0.015625)"/>
       <path id="DejaVuSans-47" d="M 2906 2969 
L 2906 4863 
L 3481 4863 
L 3481 0 
L 2906 0 
L 2906 525 
Q 2725 213 2448 61 
Q 2172 -91 1784 -91 
Q 1150 -91 751 415 
Q 353 922 353 1747 
Q 353 2572 751 3078 
Q 1150 3584 1784 3584 
Q 2172 3584 2448 3432 
Q 2725 3281 2906 2969 
z
M 947 1747 
Q 947 1113 1208 752 
Q 1469 391 1925 391 
Q 2381 391 2643 752 
Q 2906 1113 2906 1747 
Q 2906 2381 2643 2742 
Q 2381 3103 1925 3103 
Q 1469 3103 1208 2742 
Q 947 2381 947 1747 
z
" transform="scale(0.015625)"/>
       <path id="DejaVuSans-56" d="M 2834 3397 
L 2834 2853 
Q 2591 2978 2328 3040 
Q 2066 3103 1784 3103 
Q 1356 3103 1142 2972 
Q 928 2841 928 2578 
Q 928 2378 1081 2264 
Q 1234 2150 1697 2047 
L 1894 2003 
Q 2506 1872 2764 1633 
Q 3022 1394 3022 966 
Q 3022 478 2636 193 
Q 2250 -91 1575 -91 
Q 1294 -91 989 -36 
Q 684 19 347 128 
L 347 722 
Q 666 556 975 473 
Q 1284 391 1588 391 
Q 1994 391 2212 530 
Q 2431 669 2431 922 
Q 2431 1156 2273 1281 
Q 2116 1406 1581 1522 
L 1381 1569 
Q 847 1681 609 1914 
Q 372 2147 372 2553 
Q 372 3047 722 3315 
Q 1072 3584 1716 3584 
Q 2034 3584 2315 3537 
Q 2597 3491 2834 3397 
z
" transform="scale(0.015625)"/>
       <path id="DejaVuSans-4f" d="M 603 4863 
L 1178 4863 
L 1178 0 
L 603 0 
L 603 4863 
z
" transform="scale(0.015625)"/>
      </defs>
      <use xlink:href="#DejaVuSans-57"/>
      <use xlink:href="#DejaVuSans-52" transform="translate(39.203125 0)"/>
      <use xlink:href="#DejaVuSans-53" transform="translate(100.390625 0)"/>
      <use xlink:href="#DejaVuSans-3" transform="translate(163.875 0)"/>
      <use xlink:href="#DejaVuSans-53" transform="translate(195.65625 0)"/>
      <use xlink:href="#DejaVuSans-44" transform="translate(259.140625 0)"/>
      <use xlink:href="#DejaVuSans-55" transform="translate(320.421875 0)"/>
      <use xlink:href="#DejaVuSans-44" transform="translate(361.53125 0)"/>
      <use xlink:href="#DejaVuSans-50" transform="translate(422.8125 0)"/>
      <use xlink:href="#DejaVuSans-48" transform="translate(520.21875 0)"/>
      <use xlink:href="#DejaVuSans-57" transform="translate(581.75 0)"/>
      <use xlink:href="#DejaVuSans-48" transform="translate(620.953125 0)"/>
      <use xlink:href="#DejaVuSans-55" transform="translate(682.484375 0)"/>
      <use xlink:href="#DejaVuSans-3" transform="translate(723.59375 0)"/>
      <use xlink:href="#DejaVuSans-49" transform="translate(755.375 0)"/>
      <use xlink:href="#DejaVuSans-55" transform="translate(790.578125 0)"/>
      <use xlink:href="#DejaVuSans-44" transform="translate(831.6875 0)"/>
      <use xlink:href="#DejaVuSans-46" transform="translate(892.96875 0)"/>
      <use xlink:href="#DejaVuSans-57" transform="translate(947.953125 0)"/>
      <use xlink:href="#DejaVuSans-4c" transform="translate(987.15625 0)"/>
      <use xlink:href="#DejaVuSans-52" transform="translate(1014.9375 0)"/>
      <use xlink:href="#DejaVuSans-51" transform="translate(1076.125 0)"/>
      <use xlink:href="#DejaVuSans-3" transform="translate(1139.5 0)"/>
      <use xlink:href="#DejaVuSans-b" transform="translate(1171.28125 0)"/>
      <use xlink:href="#DejaVuSans-8" transform="translate(1210.296875 0)"/>
      <use xlink:href="#DejaVuSans-c" transform="translate(1305.3125 0)"/>
      <use xlink:href="#DejaVuSans-3" transform="translate(1344.328125 0)"/>
      <use xlink:href="#DejaVuSans-b" transform="translate(1376.109375 0)"/>
      <use xlink:href="#DejaVuSans-47" transform="translate(1415.125 0)"/>
      <use xlink:href="#DejaVuSans-48" transform="translate(1478.609375 0)"/>
      <use xlink:href="#DejaVuSans-57" transform="translate(1540.140625 0)"/>
      <use xlink:href="#DejaVuSans-48" transform="translate(1579.34375 0)"/>
      <use xlink:href="#DejaVuSans-55" transform="translate(1640.875 0)"/>
      <use xlink:href="#DejaVuSans-50" transform="translate(1680.234375 0)"/>
      <use xlink:href="#DejaVuSans-4c" transform="translate(1777.640625 0)"/>
      <use xlink:href="#DejaVuSans-51" transform="translate(1805.421875 0)"/>
      <use xlink:href="#DejaVuSans-4c" transform="translate(1868.796875 0)"/>
      <use xlink:href="#DejaVuSans-56" transform="translate(1896.578125 0)"/>
      <use xlink:href="#DejaVuSans-57" transform="translate(1948.671875 0)"/>
      <use xlink:href="#DejaVuSans-4c" transform="translate(1987.875 0)"/>
      <use xlink:href="#DejaVuSans-46" transform="translate(2015.65625 0)"/>
      <use xlink:href="#DejaVuSans-3" transform="translate(2070.640625 0)"/>
      <use xlink:href="#DejaVuSans-56" transform="translate(2102.421875 0)"/>
      <use xlink:href="#DejaVuSans-44" transform="translate(2154.515625 0)"/>
      <use xlink:href="#DejaVuSans-50" transform="translate(2215.796875 0)"/>
      <use xlink:href="#DejaVuSans-53" transform="translate(2313.203125 0)"/>
      <use xlink:href="#DejaVuSans-4f" transform="translate(2376.6875 0)"/>
      <use xlink:href="#DejaVuSans-48" transform="translate(2404.46875 0)"/>
      <use xlink:href="#DejaVuSans-c" transform="translate(2466 0)"/>
     </g>
    </g>
   </g>
   <g id="matplotlib.axis_2">
    <g id="ytick_1">
     <g id="line2d_51">
      <defs>
       <path id="m48c4980e81" d="M 0 0 
L -3.5 0 
" style="stroke: #000000; stroke-width: 0.8"/>
      </defs>
      <g>
       <use xlink:href="#m48c4980e81" x="44.103906" y="262.809818" style="stroke: #000000; stroke-width: 0.8"/>
      </g>
     </g>
     <g id="text_8">
      <!-- 0.0 -->
      <g transform="translate(21.200781 266.608646) scale(0.1 -0.1)">
       <defs>
        <path id="DejaVuSans-11" d="M 684 794 
L 1344 794 
L 1344 0 
L 684 0 
L 684 794 
z
" transform="scale(0.015625)"/>
       </defs>
       <use xlink:href="#DejaVuSans-13"/>
       <use xlink:href="#DejaVuSans-11" transform="translate(63.625 0)"/>
       <use xlink:href="#DejaVuSans-13" transform="translate(95.40625 0)"/>
      </g>
     </g>
    </g>
    <g id="ytick_2">
     <g id="line2d_52">
      <g>
       <use xlink:href="#m48c4980e81" x="44.103906" y="216.97948" style="stroke: #000000; stroke-width: 0.8"/>
      </g>
     </g>
     <g id="text_9">
      <!-- 0.2 -->
      <g transform="translate(21.200781 220.778308) scale(0.1 -0.1)">
       <use xlink:href="#DejaVuSans-13"/>
       <use xlink:href="#DejaVuSans-11" transform="translate(63.625 0)"/>
       <use xlink:href="#DejaVuSans-15" transform="translate(95.40625 0)"/>
      </g>
     </g>
    </g>
    <g id="ytick_3">
     <g id="line2d_53">
      <g>
       <use xlink:href="#m48c4980e81" x="44.103906" y="171.149141" style="stroke: #000000; stroke-width: 0.8"/>
      </g>
     </g>
     <g id="text_10">
      <!-- 0.4 -->
      <g transform="translate(21.200781 174.947969) scale(0.1 -0.1)">
       <defs>
        <path id="DejaVuSans-17" d="M 2419 4116 
L 825 1625 
L 2419 1625 
L 2419 4116 
z
M 2253 4666 
L 3047 4666 
L 3047 1625 
L 3713 1625 
L 3713 1100 
L 3047 1100 
L 3047 0 
L 2419 0 
L 2419 1100 
L 313 1100 
L 313 1709 
L 2253 4666 
z
" transform="scale(0.015625)"/>
       </defs>
       <use xlink:href="#DejaVuSans-13"/>
       <use xlink:href="#DejaVuSans-11" transform="translate(63.625 0)"/>
       <use xlink:href="#DejaVuSans-17" transform="translate(95.40625 0)"/>
      </g>
     </g>
    </g>
    <g id="ytick_4">
     <g id="line2d_54">
      <g>
       <use xlink:href="#m48c4980e81" x="44.103906" y="125.318802" style="stroke: #000000; stroke-width: 0.8"/>
      </g>
     </g>
     <g id="text_11">
      <!-- 0.6 -->
      <g transform="translate(21.200781 129.11763) scale(0.1 -0.1)">
       <defs>
        <path id="DejaVuSans-19" d="M 2113 2584 
Q 1688 2584 1439 2293 
Q 1191 2003 1191 1497 
Q 1191 994 1439 701 
Q 1688 409 2113 409 
Q 2538 409 2786 701 
Q 3034 994 3034 1497 
Q 3034 2003 2786 2293 
Q 2538 2584 2113 2584 
z
M 3366 4563 
L 3366 3988 
Q 3128 4100 2886 4159 
Q 2644 4219 2406 4219 
Q 1781 4219 1451 3797 
Q 1122 3375 1075 2522 
Q 1259 2794 1537 2939 
Q 1816 3084 2150 3084 
Q 2853 3084 3261 2657 
Q 3669 2231 3669 1497 
Q 3669 778 3244 343 
Q 2819 -91 2113 -91 
Q 1303 -91 875 529 
Q 447 1150 447 2328 
Q 447 3434 972 4092 
Q 1497 4750 2381 4750 
Q 2619 4750 2861 4703 
Q 3103 4656 3366 4563 
z
" transform="scale(0.015625)"/>
       </defs>
       <use xlink:href="#DejaVuSans-13"/>
       <use xlink:href="#DejaVuSans-11" transform="translate(63.625 0)"/>
       <use xlink:href="#DejaVuSans-19" transform="translate(95.40625 0)"/>
      </g>
     </g>
    </g>
    <g id="ytick_5">
     <g id="line2d_55">
      <g>
       <use xlink:href="#m48c4980e81" x="44.103906" y="79.488464" style="stroke: #000000; stroke-width: 0.8"/>
      </g>
     </g>
     <g id="text_12">
      <!-- 0.8 -->
      <g transform="translate(21.200781 83.287292) scale(0.1 -0.1)">
       <defs>
        <path id="DejaVuSans-1b" d="M 2034 2216 
Q 1584 2216 1326 1975 
Q 1069 1734 1069 1313 
Q 1069 891 1326 650 
Q 1584 409 2034 409 
Q 2484 409 2743 651 
Q 3003 894 3003 1313 
Q 3003 1734 2745 1975 
Q 2488 2216 2034 2216 
z
M 1403 2484 
Q 997 2584 770 2862 
Q 544 3141 544 3541 
Q 544 4100 942 4425 
Q 1341 4750 2034 4750 
Q 2731 4750 3128 4425 
Q 3525 4100 3525 3541 
Q 3525 3141 3298 2862 
Q 3072 2584 2669 2484 
Q 3125 2378 3379 2068 
Q 3634 1759 3634 1313 
Q 3634 634 3220 271 
Q 2806 -91 2034 -91 
Q 1263 -91 848 271 
Q 434 634 434 1313 
Q 434 1759 690 2068 
Q 947 2378 1403 2484 
z
M 1172 3481 
Q 1172 3119 1398 2916 
Q 1625 2713 2034 2713 
Q 2441 2713 2670 2916 
Q 2900 3119 2900 3481 
Q 2900 3844 2670 4047 
Q 2441 4250 2034 4250 
Q 1625 4250 1398 4047 
Q 1172 3844 1172 3481 
z
" transform="scale(0.015625)"/>
       </defs>
       <use xlink:href="#DejaVuSans-13"/>
       <use xlink:href="#DejaVuSans-11" transform="translate(63.625 0)"/>
       <use xlink:href="#DejaVuSans-1b" transform="translate(95.40625 0)"/>
      </g>
     </g>
    </g>
    <g id="ytick_6">
     <g id="line2d_56">
      <g>
       <use xlink:href="#m48c4980e81" x="44.103906" y="33.658125" style="stroke: #000000; stroke-width: 0.8"/>
      </g>
     </g>
     <g id="text_13">
      <!-- 1.0 -->
      <g transform="translate(21.200781 37.456953) scale(0.1 -0.1)">
       <use xlink:href="#DejaVuSans-14"/>
       <use xlink:href="#DejaVuSans-11" transform="translate(63.625 0)"/>
       <use xlink:href="#DejaVuSans-13" transform="translate(95.40625 0)"/>
      </g>
     </g>
    </g>
    <g id="text_14">
     <!-- cumulative positive mass -->
     <g transform="translate(14.798438 210.787812) rotate(-90) scale(0.1 -0.1)">
      <defs>
       <path id="DejaVuSans-58" d="M 544 1381 
L 544 3500 
L 1119 3500 
L 1119 1403 
Q 1119 906 1312 657 
Q 1506 409 1894 409 
Q 2359 409 2629 706 
Q 2900 1003 2900 1516 
L 2900 3500 
L 3475 3500 
L 3475 0 
L 2900 0 
L 2900 538 
Q 2691 219 2414 64 
Q 2138 -91 1772 -91 
Q 1169 -91 856 284 
Q 544 659 544 1381 
z
M 1991 3584 
L 1991 3584 
z
" transform="scale(0.015625)"/>
       <path id="DejaVuSans-59" d="M 191 3500 
L 800 3500 
L 1894 563 
L 2988 3500 
L 3597 3500 
L 2284 0 
L 1503 0 
L 191 3500 
z
" transform="scale(0.015625)"/>
      </defs>
      <use xlink:href="#DejaVuSans-46"/>
      <use xlink:href="#DejaVuSans-58" transform="translate(54.984375 0)"/>
      <use xlink:href="#DejaVuSans-50" transform="translate(118.359375 0)"/>
      <use xlink:href="#DejaVuSans-58" transform="translate(215.765625 0)"/>
      <use xlink:href="#DejaVuSans-4f" transform="translate(279.140625 0)"/>
      <use xlink:href="#DejaVuSans-44" transform="translate(306.921875 0)"/>
      <use xlink:href="#DejaVuSans-57" transform="translate(368.203125 0)"/>
      <use xlink:href="#DejaVuSans-4c" transform="translate(407.40625 0)"/>
      <use xlink:href="#DejaVuSans-59" transform="translate(435.1875 0)"/>
      <use xlink:href="#DejaVuSans-48" transform="translate(494.375 0)"/>
      <use xlink:href="#DejaVuSans-3" transform="translate(555.90625 0)"/>
      <use xlink:href="#DejaVuSans-53" transform="translate(587.6875 0)"/>
      <use xlink:href="#DejaVuSans-52" transform="translate(651.171875 0)"/>
      <use xlink:href="#DejaVuSans-56" transform="translate(712.359375 0)"/>
      <use xlink:href="#DejaVuSans-4c" transform="translate(764.453125 0)"/>
      <use xlink:href="#DejaVuSans-57" transform="translate(792.234375 0)"/>
      <use xlink:href="#DejaVuSans-4c" transform="translate(831.4375 0)"/>
      <use xlink:href="#DejaVuSans-59" transform="translate(859.21875 0)"/>
      <use xlink:href="#DejaVuSans-48" transform="translate(918.40625 0)"/>
      <use xlink:href="#DejaVuSans-3" transform="translate(979.9375 0)"/>
      <use xlink:href="#DejaVuSans-50" transform="translate(1011.71875 0)"/>
      <use xlink:href="#DejaVuSans-44" transform="translate(1109.125 0)"/>
      <use xlink:href="#DejaVuSans-56" transform="translate(1170.40625 0)"/>
      <use xlink:href="#DejaVuSans-56" transform="translate(1222.5 0)"/>
     </g>
    </g>
   </g>
   <g id="line2d_57">
    <path d="M 61.858452 224.407611 
L 83.237055 206.378562 
L 95.742736 194.202521 
L 104.615658 190.241772 
L 111.498031 187.292771 
L 121.875778 182.535988 
L 129.62702 178.648209 
L 132.876634 177.109726 
L 151.005623 169.945334 
L 155.760062 168.428223 
L 172.384226 163.477289 
L 184.889907 159.601419 
L 206.26851 153.778504 
L 220.078915 150.22687 
L 227.50399 148.057637 
L 234.415041 145.808628 
L 241.639482 143.264912 
L 248.303369 140.681754 
L 255.273322 137.716569 
L 261.196406 134.972135 
L 267.798431 131.643448 
L 273.878012 128.329872 
L 279.116181 125.243365 
L 284.690108 121.708802 
L 290.038889 118.067493 
L 296.136999 113.637591 
L 301.811927 109.240789 
L 307.247701 104.761917 
L 313.0811 99.646134 
L 318.738689 94.406254 
L 325.892466 87.447961 
L 335.005137 78.26508 
L 344.908949 68.334686 
L 351.425707 62.116293 
L 356.524074 57.569686 
L 361.312873 53.62185 
L 365.854112 50.165712 
L 370.255022 47.093126 
L 374.840396 44.163737 
L 379.447273 41.477791 
L 383.932403 39.118476 
L 387.720307 37.36389 
L 391.042082 36.061787 
L 393.922427 35.165294 
L 396.612717 34.562238 
L 399.47592 34.154708 
L 403.030498 33.889449 
L 408.669866 33.716848 
L 416.949361 33.658125 
L 416.949361 33.658125 
" clip-path="url(#pbdedf8969c)" style="fill: none; stroke: #1f77b4; stroke-opacity: 0.8; stroke-width: 1.5; stroke-linecap: square"/>
   </g>
   <g id="line2d_58">
    <path d="M 61.858452 196.942483 
L 83.237055 187.622273 
L 95.742736 185.298171 
L 104.615658 183.325559 
L 111.498031 181.595266 
L 121.875778 178.854473 
L 129.62702 176.728919 
L 135.816267 174.879939 
L 143.254381 172.756961 
L 161.137609 169.011044 
L 167.772248 167.641918 
L 175.633839 165.762737 
L 184.889907 163.316635 
L 191.542964 161.411516 
L 198.147889 159.283435 
L 205.981598 156.501629 
L 211.508672 154.330369 
L 217.212196 151.848831 
L 223.691389 148.759226 
L 229.584069 145.732069 
L 235.540816 142.377075 
L 242.268032 138.310717 
L 248.594341 134.198314 
L 254.265878 130.268191 
L 259.616909 126.279696 
L 264.393046 122.433025 
L 270.153417 117.490119 
L 278.353246 110.151495 
L 284.396688 104.410977 
L 291.315325 97.508299 
L 298.146916 90.391442 
L 309.548839 78.138543 
L 319.900775 67.060878 
L 325.921984 60.904095 
L 331.092551 55.942639 
L 335.062224 52.411923 
L 338.960005 49.24059 
L 342.357735 46.734344 
L 345.524468 44.677782 
L 348.755638 42.838969 
L 352.346152 41.071687 
L 355.860667 39.603248 
L 359.66235 38.263923 
L 363.607935 37.108968 
L 367.899377 36.09449 
L 372.509968 35.23507 
L 377.281712 34.571735 
L 382.476254 34.078987 
L 387.928068 33.786718 
L 394.594404 33.665587 
L 416.949361 33.658125 
L 416.949361 33.658125 
" clip-path="url(#pbdedf8969c)" style="fill: none; stroke: #ff7f0e; stroke-opacity: 0.8; stroke-width: 1.5; stroke-linecap: square"/>
   </g>
   <g id="line2d_59">
    <path d="M 61.858452 245.388833 
L 83.237055 237.251797 
L 95.742736 234.455964 
L 104.615658 231.671716 
L 117.121339 228.688398 
L 121.875778 227.566229 
L 125.994261 226.475874 
L 138.499942 222.867728 
L 152.673207 219.215398 
L 175.633839 212.679174 
L 184.313389 209.828946 
L 189.644346 207.884725 
L 195.833593 205.373738 
L 201.986404 202.599205 
L 207.39019 199.89615 
L 214.926498 195.855671 
L 220.441775 192.61645 
L 226.185095 188.976126 
L 231.406536 185.379323 
L 237.050905 181.163191 
L 243.316614 176.182107 
L 248.156847 172.051352 
L 254.326059 166.446366 
L 259.8691 161.068978 
L 265.036969 155.760346 
L 270.582293 149.741017 
L 275.250416 144.332382 
L 280.433324 138.01849 
L 286.500421 130.257456 
L 291.567988 123.463132 
L 298.349544 113.961136 
L 307.751662 100.254553 
L 326.343933 72.84043 
L 331.017611 66.384702 
L 335.54973 60.53875 
L 339.386224 55.944655 
L 342.684992 52.349279 
L 345.527593 49.568792 
L 348.187562 47.265212 
L 351.07268 45.071267 
L 353.980494 43.142045 
L 356.915375 41.457277 
L 360.16218 39.848039 
L 363.510408 38.448914 
L 366.943673 37.252361 
L 370.636714 36.201086 
L 374.572254 35.313742 
L 378.678243 34.618017 
L 382.950747 34.124599 
L 387.639043 33.808792 
L 393.106797 33.672121 
L 407.681602 33.658128 
L 416.949361 33.658125 
L 416.949361 33.658125 
" clip-path="url(#pbdedf8969c)" style="fill: none; stroke: #2ca02c; stroke-opacity: 0.8; stroke-width: 1.5; stroke-linecap: square"/>
   </g>
   <g id="line2d_60">
    <path d="M 61.858452 258.226347 
L 83.237055 254.557553 
L 95.742736 250.929135 
L 117.121339 244.124759 
L 135.816267 239.65033 
L 155.760062 234.013358 
L 164.632984 231.378583 
L 172.384226 228.737143 
L 176.395429 227.352526 
L 182.516212 225.105117 
L 190.608262 221.810287 
L 197.012442 218.958078 
L 202.635751 216.164568 
L 207.936094 213.317934 
L 214.272563 209.641921 
L 221.154936 205.312381 
L 225.884187 202.036903 
L 231.279872 197.995147 
L 236.305101 193.927422 
L 240.997855 189.85276 
L 246.419828 184.832719 
L 251.22971 180.080748 
L 256.474027 174.598304 
L 261.003336 169.561966 
L 265.667723 164.033685 
L 271.284093 157.020742 
L 277.655731 148.68304 
L 283.87062 140.13878 
L 290.395674 130.782707 
L 295.778449 122.653839 
L 302.689033 111.795723 
L 313.630929 94.057848 
L 322.853447 79.305316 
L 327.954178 71.594422 
L 332.506711 65.098929 
L 336.342692 60.00446 
L 339.523202 56.131673 
L 342.575145 52.748528 
L 345.320657 50.030863 
L 347.989123 47.686634 
L 350.649467 45.641052 
L 353.540217 43.69081 
L 356.425468 42.003332 
L 359.630716 40.378008 
L 363.106586 38.870968 
L 366.595269 37.602105 
L 370.40185 36.464054 
L 374.271012 35.536164 
L 378.311254 34.796752 
L 382.56384 34.243472 
L 387.146101 33.87561 
L 392.277248 33.693424 
L 400.824835 33.658233 
L 416.949361 33.658125 
L 416.949361 33.658125 
" clip-path="url(#pbdedf8969c)" style="fill: none; stroke: #d62728; stroke-opacity: 0.8; stroke-width: 1.5; stroke-linecap: square"/>
   </g>
   <g id="line2d_61">
    <path d="M 61.858452 188.167996 
L 83.237055 178.444114 
L 95.742736 177.091978 
L 104.615658 175.850995 
L 117.121339 174.40765 
L 129.62702 172.544893 
L 138.499942 171.073545 
L 147.372864 169.396212 
L 154.255236 167.878768 
L 162.347286 165.880368 
L 177.864411 161.528998 
L 188.649331 158.2219 
L 199.599583 154.465404 
L 206.26851 151.883836 
L 216.605433 147.561599 
L 223.365007 144.457253 
L 231.406536 140.482097 
L 238.389868 136.886439 
L 244.82553 133.330611 
L 252.275329 128.931171 
L 260.218739 123.939173 
L 266.731373 119.596396 
L 274.100475 114.47501 
L 279.965606 110.114713 
L 286.479231 104.977912 
L 292.155488 100.24291 
L 299.118873 94.107853 
L 307.709091 86.169199 
L 315.556035 78.653301 
L 334.789004 60.110509 
L 339.911784 55.523867 
L 344.199443 51.965854 
L 347.838726 49.223729 
L 351.353354 46.855171 
L 355.001632 44.6694 
L 358.59069 42.77602 
L 362.501578 40.954154 
L 366.536817 39.322397 
L 370.733474 37.862007 
L 375.025877 36.604286 
L 379.400417 35.553513 
L 383.614098 34.764449 
L 387.876654 34.188803 
L 392.26283 33.822414 
L 396.874007 33.666045 
L 407.267294 33.658125 
L 416.949361 33.658125 
L 416.949361 33.658125 
" clip-path="url(#pbdedf8969c)" style="fill: none; stroke: #9467bd; stroke-opacity: 0.8; stroke-width: 1.5; stroke-linecap: square"/>
   </g>
   <g id="line2d_62">
    <path d="M 61.858452 253.788062 
L 83.237055 246.583938 
L 95.742736 241.309159 
L 104.615658 237.210668 
L 125.994261 233.317345 
L 132.876634 231.656172 
L 151.005623 226.52165 
L 162.347286 222.733605 
L 169.700551 219.857949 
L 179.266599 215.736491 
L 186.557491 212.512598 
L 204.201711 204.099774 
L 209.518123 201.230556 
L 217.411826 196.612232 
L 222.868866 193.200564 
L 229.584069 188.767005 
L 234.870294 185.037778 
L 242.17902 179.596128 
L 248.376369 174.698715 
L 254.023973 169.998525 
L 259.311532 165.322661 
L 265.5426 159.427926 
L 273.070139 151.97627 
L 278.818703 145.971913 
L 284.191902 140.068888 
L 290.227185 133.08303 
L 295.825453 126.21834 
L 302.789131 117.321906 
L 310.253111 107.417443 
L 317.600729 97.240578 
L 328.588444 81.674994 
L 334.459703 73.550415 
L 339.202636 67.298957 
L 343.436467 62.094329 
L 347.126024 57.913385 
L 350.644173 54.28374 
L 353.906755 51.234461 
L 357.22488 48.430384 
L 360.560133 45.905623 
L 363.788242 43.729258 
L 367.346771 41.615804 
L 370.78174 39.831151 
L 374.293154 38.254487 
L 377.771132 36.93405 
L 381.307557 35.82501 
L 384.804296 34.960702 
L 388.326957 34.322878 
L 391.900888 33.904846 
L 395.666223 33.69131 
L 400.750873 33.658125 
L 416.949361 33.658125 
L 416.949361 33.658125 
" clip-path="url(#pbdedf8969c)" style="fill: none; stroke: #8c564b; stroke-opacity: 0.8; stroke-width: 1.5; stroke-linecap: square"/>
   </g>
   <g id="line2d_63">
    <path d="M 61.858452 260.458125 
L 83.237055 258.429253 
L 95.742736 256.789405 
L 111.498031 253.825528 
L 117.121339 252.548643 
L 132.876634 248.379241 
L 151.005623 242.76745 
L 161.137609 239.180477 
L 173.229287 234.548375 
L 180.607801 231.411354 
L 186.557491 228.702726 
L 193.762829 225.149012 
L 200.645202 221.439517 
L 208.472505 216.914956 
L 214.051466 213.413773 
L 220.078915 209.42257 
L 225.884187 205.314595 
L 234.30017 199.052768 
L 239.283925 195.049999 
L 244.330715 190.738956 
L 249.380642 186.151659 
L 255.214963 180.519197 
L 262.190657 173.508421 
L 269.791408 165.508472 
L 275.824674 158.767098 
L 281.398034 152.265386 
L 287.439233 144.858761 
L 293.51807 137.040602 
L 298.651012 130.106132 
L 305.375841 120.6722 
L 311.615173 111.494402 
L 323.853842 92.919243 
L 336.123049 74.421623 
L 341.045378 67.470689 
L 344.697806 62.687898 
L 348.07268 58.614537 
L 351.215935 55.168514 
L 354.3583 52.054698 
L 357.565171 49.195216 
L 360.770547 46.629775 
L 364.075586 44.266069 
L 367.434443 42.145518 
L 370.70724 40.336132 
L 374.054908 38.726855 
L 377.477526 37.325085 
L 380.971712 36.133323 
L 384.384288 35.202008 
L 387.814845 34.492185 
L 391.240763 34.007677 
L 394.762035 33.735797 
L 398.78062 33.65813 
L 416.949361 33.658125 
L 416.949361 33.658125 
" clip-path="url(#pbdedf8969c)" style="fill: none; stroke: #e377c2; stroke-opacity: 0.8; stroke-width: 1.5; stroke-linecap: square"/>
   </g>
   <g id="patch_3">
    <path d="M 44.103906 271.798125 
L 44.103906 22.318125 
" style="fill: none; stroke: #000000; stroke-width: 0.8; stroke-linejoin: miter; stroke-linecap: square"/>
   </g>
   <g id="patch_4">
    <path d="M 434.703906 271.798125 
L 434.703906 22.318125 
" style="fill: none; stroke: #000000; stroke-width: 0.8; stroke-linejoin: miter; stroke-linecap: square"/>
   </g>
   <g id="patch_5">
    <path d="M 44.103906 271.798125 
L 434.703906 271.798125 
" style="fill: none; stroke: #000000; stroke-width: 0.8; stroke-linejoin: miter; stroke-linecap: square"/>
   </g>
   <g id="patch_6">
    <path d="M 44.103906 22.318125 
L 434.703906 22.318125 
" style="fill: none; stroke: #000000; stroke-width: 0.8; stroke-linejoin: miter; stroke-linecap: square"/>
   </g>
   <g id="text_15">
    <!-- Positive importance top-k cumulative contribution -->
    <g transform="translate(89.177031 16.318125) scale(0.12 -0.12)">
     <defs>
      <path id="DejaVuSans-33" d="M 1259 4147 
L 1259 2394 
L 2053 2394 
Q 2494 2394 2734 2622 
Q 2975 2850 2975 3272 
Q 2975 3691 2734 3919 
Q 2494 4147 2053 4147 
L 1259 4147 
z
M 628 4666 
L 2053 4666 
Q 2838 4666 3239 4311 
Q 3641 3956 3641 3272 
Q 3641 2581 3239 2228 
Q 2838 1875 2053 1875 
L 1259 1875 
L 1259 0 
L 628 0 
L 628 4666 
z
" transform="scale(0.015625)"/>
      <path id="DejaVuSans-10" d="M 313 2009 
L 1997 2009 
L 1997 1497 
L 313 1497 
L 313 2009 
z
" transform="scale(0.015625)"/>
      <path id="DejaVuSans-4e" d="M 581 4863 
L 1159 4863 
L 1159 1991 
L 2875 3500 
L 3609 3500 
L 1753 1863 
L 3688 0 
L 2938 0 
L 1159 1709 
L 1159 0 
L 581 0 
L 581 4863 
z
" transform="scale(0.015625)"/>
      <path id="DejaVuSans-45" d="M 3116 1747 
Q 3116 2381 2855 2742 
Q 2594 3103 2138 3103 
Q 1681 3103 1420 2742 
Q 1159 2381 1159 1747 
Q 1159 1113 1420 752 
Q 1681 391 2138 391 
Q 2594 391 2855 752 
Q 3116 1113 3116 1747 
z
M 1159 2969 
Q 1341 3281 1617 3432 
Q 1894 3584 2278 3584 
Q 2916 3584 3314 3078 
Q 3713 2572 3713 1747 
Q 3713 922 3314 415 
Q 2916 -91 2278 -91 
Q 1894 -91 1617 61 
Q 1341 213 1159 525 
L 1159 0 
L 581 0 
L 581 4863 
L 1159 4863 
L 1159 2969 
z
" transform="scale(0.015625)"/>
     </defs>
     <use xlink:href="#DejaVuSans-33"/>
     <use xlink:href="#DejaVuSans-52" transform="translate(56.734375 0)"/>
     <use xlink:href="#DejaVuSans-56" transform="translate(117.921875 0)"/>
     <use xlink:href="#DejaVuSans-4c" transform="translate(170.015625 0)"/>
     <use xlink:href="#DejaVuSans-57" transform="translate(197.796875 0)"/>
     <use xlink:href="#DejaVuSans-4c" transform="translate(237 0)"/>
     <use xlink:href="#DejaVuSans-59" transform="translate(264.78125 0)"/>
     <use xlink:href="#DejaVuSans-48" transform="translate(323.96875 0)"/>
     <use xlink:href="#DejaVuSans-3" transform="translate(385.5 0)"/>
     <use xlink:href="#DejaVuSans-4c" transform="translate(417.28125 0)"/>
     <use xlink:href="#DejaVuSans-50" transform="translate(445.0625 0)"/>
     <use xlink:href="#DejaVuSans-53" transform="translate(542.46875 0)"/>
     <use xlink:href="#DejaVuSans-52" transform="translate(605.953125 0)"/>
     <use xlink:href="#DejaVuSans-55" transform="translate(667.140625 0)"/>
     <use xlink:href="#DejaVuSans-57" transform="translate(708.25 0)"/>
     <use xlink:href="#DejaVuSans-44" transform="translate(747.453125 0)"/>
     <use xlink:href="#DejaVuSans-51" transform="translate(808.734375 0)"/>
     <use xlink:href="#DejaVuSans-46" transform="translate(872.109375 0)"/>
     <use xlink:href="#DejaVuSans-48" transform="translate(927.09375 0)"/>
     <use xlink:href="#DejaVuSans-3" transform="translate(988.625 0)"/>
     <use xlink:href="#DejaVuSans-57" transform="translate(1020.40625 0)"/>
     <use xlink:href="#DejaVuSans-52" transform="translate(1059.609375 0)"/>
     <use xlink:href="#DejaVuSans-53" transform="translate(1120.796875 0)"/>
     <use xlink:href="#DejaVuSans-10" transform="translate(1184.28125 0)"/>
     <use xlink:href="#DejaVuSans-4e" transform="translate(1220.359375 0)"/>
     <use xlink:href="#DejaVuSans-3" transform="translate(1278.265625 0)"/>
     <use xlink:href="#DejaVuSans-46" transform="translate(1310.046875 0)"/>
     <use xlink:href="#DejaVuSans-58" transform="translate(1365.03125 0)"/>
     <use xlink:href="#DejaVuSans-50" transform="translate(1428.40625 0)"/>
     <use xlink:href="#DejaVuSans-58" transform="translate(1525.8125 0)"/>
     <use xlink:href="#DejaVuSans-4f" transform="translate(1589.1875 0)"/>
     <use xlink:href="#DejaVuSans-44" transform="translate(1616.96875 0)"/>
     <use xlink:href="#DejaVuSans-57" transform="translate(1678.25 0)"/>
     <use xlink:href="#DejaVuSans-4c" transform="translate(1717.453125 0)"/>
     <use xlink:href="#DejaVuSans-59" transform="translate(1745.234375 0)"/>
     <use xlink:href="#DejaVuSans-48" transform="translate(1804.421875 0)"/>
     <use xlink:href="#DejaVuSans-3" transform="translate(1865.953125 0)"/>
     <use xlink:href="#DejaVuSans-46" transform="translate(1897.734375 0)"/>
     <use xlink:href="#DejaVuSans-52" transform="translate(1952.71875 0)"/>
     <use xlink:href="#DejaVuSans-51" transform="translate(2013.90625 0)"/>
     <use xlink:href="#DejaVuSans-57" transform="translate(2077.28125 0)"/>
     <use xlink:href="#DejaVuSans-55" transform="translate(2116.484375 0)"/>
     <use xlink:href="#DejaVuSans-4c" transform="translate(2157.59375 0)"/>
     <use xlink:href="#DejaVuSans-45" transform="translate(2185.375 0)"/>
     <use xlink:href="#DejaVuSans-58" transform="translate(2248.859375 0)"/>
     <use xlink:href="#DejaVuSans-57" transform="translate(2312.234375 0)"/>
     <use xlink:href="#DejaVuSans-4c" transform="translate(2351.4375 0)"/>
     <use xlink:href="#DejaVuSans-52" transform="translate(2379.21875 0)"/>
     <use xlink:href="#DejaVuSans-51" transform="translate(2440.40625 0)"/>
    </g>
   </g>
   <g id="legend_1">
    <g id="patch_7">
     <path d="M 49.003906 101.421953 
L 128.2625 101.421953 
Q 129.6625 101.421953 129.6625 100.021953 
L 129.6625 27.218125 
Q 129.6625 25.818125 128.2625 25.818125 
L 49.003906 25.818125 
Q 47.603906 25.818125 47.603906 27.218125 
L 47.603906 100.021953 
Q 47.603906 101.421953 49.003906 101.421953 
z
" style="fill: #ffffff; opacity: 0.8; stroke: #cccccc; stroke-linejoin: miter"/>
    </g>
    <g id="line2d_64">
     <path d="M 50.403906 31.487031 
L 57.403906 31.487031 
L 64.403906 31.487031 
" style="fill: none; stroke: #1f77b4; stroke-opacity: 0.8; stroke-width: 1.5; stroke-linecap: square"/>
    </g>
    <g id="text_16">
     <!-- pretrain -->
     <g transform="translate(70.003906 33.937031) scale(0.07 -0.07)">
      <use xlink:href="#DejaVuSans-53"/>
      <use xlink:href="#DejaVuSans-55" transform="translate(63.484375 0)"/>
      <use xlink:href="#DejaVuSans-48" transform="translate(102.390625 0)"/>
      <use xlink:href="#DejaVuSans-57" transform="translate(163.921875 0)"/>
      <use xlink:href="#DejaVuSans-55" transform="translate(203.125 0)"/>
      <use xlink:href="#DejaVuSans-44" transform="translate(244.234375 0)"/>
      <use xlink:href="#DejaVuSans-4c" transform="translate(305.515625 0)"/>
      <use xlink:href="#DejaVuSans-51" transform="translate(333.296875 0)"/>
     </g>
    </g>
    <g id="line2d_65">
     <path d="M 50.403906 41.987578 
L 57.403906 41.987578 
L 64.403906 41.987578 
" style="fill: none; stroke: #ff7f0e; stroke-opacity: 0.8; stroke-width: 1.5; stroke-linecap: square"/>
    </g>
    <g id="text_17">
     <!-- direct-1234 -->
     <g transform="translate(70.003906 44.437578) scale(0.07 -0.07)">
      <use xlink:href="#DejaVuSans-47"/>
      <use xlink:href="#DejaVuSans-4c" transform="translate(63.484375 0)"/>
      <use xlink:href="#DejaVuSans-55" transform="translate(91.265625 0)"/>
      <use xlink:href="#DejaVuSans-48" transform="translate(130.171875 0)"/>
      <use xlink:href="#DejaVuSans-46" transform="translate(191.703125 0)"/>
      <use xlink:href="#DejaVuSans-57" transform="translate(246.6875 0)"/>
      <use xlink:href="#DejaVuSans-10" transform="translate(285.890625 0)"/>
      <use xlink:href="#DejaVuSans-14" transform="translate(321.96875 0)"/>
      <use xlink:href="#DejaVuSans-15" transform="translate(385.59375 0)"/>
      <use xlink:href="#DejaVuSans-16" transform="translate(449.21875 0)"/>
      <use xlink:href="#DejaVuSans-17" transform="translate(512.84375 0)"/>
     </g>
    </g>
    <g id="line2d_66">
     <path d="M 50.403906 52.488125 
L 57.403906 52.488125 
L 64.403906 52.488125 
" style="fill: none; stroke: #2ca02c; stroke-opacity: 0.8; stroke-width: 1.5; stroke-linecap: square"/>
    </g>
    <g id="text_18">
     <!-- direct-1337 -->
     <g transform="translate(70.003906 54.938125) scale(0.07 -0.07)">
      <defs>
       <path id="DejaVuSans-1a" d="M 525 4666 
L 3525 4666 
L 3525 4397 
L 1831 0 
L 1172 0 
L 2766 4134 
L 525 4134 
L 525 4666 
z
" transform="scale(0.015625)"/>
      </defs>
      <use xlink:href="#DejaVuSans-47"/>
      <use xlink:href="#DejaVuSans-4c" transform="translate(63.484375 0)"/>
      <use xlink:href="#DejaVuSans-55" transform="translate(91.265625 0)"/>
      <use xlink:href="#DejaVuSans-48" transform="translate(130.171875 0)"/>
      <use xlink:href="#DejaVuSans-46" transform="translate(191.703125 0)"/>
      <use xlink:href="#DejaVuSans-57" transform="translate(246.6875 0)"/>
      <use xlink:href="#DejaVuSans-10" transform="translate(285.890625 0)"/>
      <use xlink:href="#DejaVuSans-14" transform="translate(321.96875 0)"/>
      <use xlink:href="#DejaVuSans-16" transform="translate(385.59375 0)"/>
      <use xlink:href="#DejaVuSans-16" transform="translate(449.21875 0)"/>
      <use xlink:href="#DejaVuSans-1a" transform="translate(512.84375 0)"/>
     </g>
    </g>
    <g id="line2d_67">
     <path d="M 50.403906 62.988672 
L 57.403906 62.988672 
L 64.403906 62.988672 
" style="fill: none; stroke: #d62728; stroke-opacity: 0.8; stroke-width: 1.5; stroke-linecap: square"/>
    </g>
    <g id="text_19">
     <!-- direct-2027 -->
     <g transform="translate(70.003906 65.438672) scale(0.07 -0.07)">
      <use xlink:href="#DejaVuSans-47"/>
      <use xlink:href="#DejaVuSans-4c" transform="translate(63.484375 0)"/>
      <use xlink:href="#DejaVuSans-55" transform="translate(91.265625 0)"/>
      <use xlink:href="#DejaVuSans-48" transform="translate(130.171875 0)"/>
      <use xlink:href="#DejaVuSans-46" transform="translate(191.703125 0)"/>
      <use xlink:href="#DejaVuSans-57" transform="translate(246.6875 0)"/>
      <use xlink:href="#DejaVuSans-10" transform="translate(285.890625 0)"/>
      <use xlink:href="#DejaVuSans-15" transform="translate(321.96875 0)"/>
      <use xlink:href="#DejaVuSans-13" transform="translate(385.59375 0)"/>
      <use xlink:href="#DejaVuSans-15" transform="translate(449.21875 0)"/>
      <use xlink:href="#DejaVuSans-1a" transform="translate(512.84375 0)"/>
     </g>
    </g>
    <g id="line2d_68">
     <path d="M 50.403906 73.489219 
L 57.403906 73.489219 
L 64.403906 73.489219 
" style="fill: none; stroke: #9467bd; stroke-opacity: 0.8; stroke-width: 1.5; stroke-linecap: square"/>
    </g>
    <g id="text_20">
     <!-- pretrained-1234 -->
     <g transform="translate(70.003906 75.939219) scale(0.07 -0.07)">
      <use xlink:href="#DejaVuSans-53"/>
      <use xlink:href="#DejaVuSans-55" transform="translate(63.484375 0)"/>
      <use xlink:href="#DejaVuSans-48" transform="translate(102.390625 0)"/>
      <use xlink:href="#DejaVuSans-57" transform="translate(163.921875 0)"/>
      <use xlink:href="#DejaVuSans-55" transform="translate(203.125 0)"/>
      <use xlink:href="#DejaVuSans-44" transform="translate(244.234375 0)"/>
      <use xlink:href="#DejaVuSans-4c" transform="translate(305.515625 0)"/>
      <use xlink:href="#DejaVuSans-51" transform="translate(333.296875 0)"/>
      <use xlink:href="#DejaVuSans-48" transform="translate(396.671875 0)"/>
      <use xlink:href="#DejaVuSans-47" transform="translate(458.203125 0)"/>
      <use xlink:href="#DejaVuSans-10" transform="translate(521.6875 0)"/>
      <use xlink:href="#DejaVuSans-14" transform="translate(557.765625 0)"/>
      <use xlink:href="#DejaVuSans-15" transform="translate(621.390625 0)"/>
      <use xlink:href="#DejaVuSans-16" transform="translate(685.015625 0)"/>
      <use xlink:href="#DejaVuSans-17" transform="translate(748.640625 0)"/>
     </g>
    </g>
    <g id="line2d_69">
     <path d="M 50.403906 83.989766 
L 57.403906 83.989766 
L 64.403906 83.989766 
" style="fill: none; stroke: #8c564b; stroke-opacity: 0.8; stroke-width: 1.5; stroke-linecap: square"/>
    </g>
    <g id="text_21">
     <!-- pretrained-1337 -->
     <g transform="translate(70.003906 86.439766) scale(0.07 -0.07)">
      <use xlink:href="#DejaVuSans-53"/>
      <use xlink:href="#DejaVuSans-55" transform="translate(63.484375 0)"/>
      <use xlink:href="#DejaVuSans-48" transform="translate(102.390625 0)"/>
      <use xlink:href="#DejaVuSans-57" transform="translate(163.921875 0)"/>
      <use xlink:href="#DejaVuSans-55" transform="translate(203.125 0)"/>
      <use xlink:href="#DejaVuSans-44" transform="translate(244.234375 0)"/>
      <use xlink:href="#DejaVuSans-4c" transform="translate(305.515625 0)"/>
      <use xlink:href="#DejaVuSans-51" transform="translate(333.296875 0)"/>
      <use xlink:href="#DejaVuSans-48" transform="translate(396.671875 0)"/>
      <use xlink:href="#DejaVuSans-47" transform="translate(458.203125 0)"/>
      <use xlink:href="#DejaVuSans-10" transform="translate(521.6875 0)"/>
      <use xlink:href="#DejaVuSans-14" transform="translate(557.765625 0)"/>
      <use xlink:href="#DejaVuSans-16" transform="translate(621.390625 0)"/>
      <use xlink:href="#DejaVuSans-16" transform="translate(685.015625 0)"/>
      <use xlink:href="#DejaVuSans-1a" transform="translate(748.640625 0)"/>
     </g>
    </g>
    <g id="line2d_70">
     <path d="M 50.403906 94.490312 
L 57.403906 94.490312 
L 64.403906 94.490312 
" style="fill: none; stroke: #e377c2; stroke-opacity: 0.8; stroke-width: 1.5; stroke-linecap: square"/>
    </g>
    <g id="text_22">
     <!-- pretrained-2027 -->
     <g transform="translate(70.003906 96.940312) scale(0.07 -0.07)">
      <use xlink:href="#DejaVuSans-53"/>
      <use xlink:href="#DejaVuSans-55" transform="translate(63.484375 0)"/>
      <use xlink:href="#DejaVuSans-48" transform="translate(102.390625 0)"/>
      <use xlink:href="#DejaVuSans-57" transform="translate(163.921875 0)"/>
      <use xlink:href="#DejaVuSans-55" transform="translate(203.125 0)"/>
      <use xlink:href="#DejaVuSans-44" transform="translate(244.234375 0)"/>
      <use xlink:href="#DejaVuSans-4c" transform="translate(305.515625 0)"/>
      <use xlink:href="#DejaVuSans-51" transform="translate(333.296875 0)"/>
      <use xlink:href="#DejaVuSans-48" transform="translate(396.671875 0)"/>
      <use xlink:href="#DejaVuSans-47" transform="translate(458.203125 0)"/>
      <use xlink:href="#DejaVuSans-10" transform="translate(521.6875 0)"/>
      <use xlink:href="#DejaVuSans-15" transform="translate(557.765625 0)"/>
      <use xlink:href="#DejaVuSans-13" transform="translate(621.390625 0)"/>
      <use xlink:href="#DejaVuSans-15" transform="translate(685.015625 0)"/>
      <use xlink:href="#DejaVuSans-1a" transform="translate(748.640625 0)"/>
     </g>
    </g>
   </g>
  </g>
 </g>
 <defs>
  <clipPath id="pbdedf8969c">
   <rect x="44.103906" y="22.318125" width="390.6" height="249.48"/>
  </clipPath>
 </defs>
</svg>
