<?xml version="1.0" encoding="utf-8" standalone="no"?>
<!DOCTYPE svg PUBLIC "-//W3C//DTD SVG 1.1//EN"
  "http://www.w3.org/Graphics/SVG/1.1/DTD/svg11.dtd">
<svg xmlns:xlink="http://www.w3.org/1999/xlink" width="496.16375pt" height="279.295863pt" viewBox="0 0 496.16375 279.295863" xmlns="http://www.w3.org/2000/svg" version="1.1">
 <metadata>
  <rdf:RDF xmlns:dc="http://purl.org/dc/elements/1.1/" xmlns:cc="http://creativecommons.org/ns#" xmlns:rdf="http://www.w3.org/1999/02/22-rdf-syntax-ns#">
   <cc:Work>
    <dc:type rdf:resource="http://purl.org/dc/dcmitype/StillImage"/>
    <dc:format>image/svg+xml</dc:format>
    <dc:creator>
     <cc:Agent>
      <dc:title>param_importance_nlp.analysis.reporting</dc:title>
     </cc:Agent>
    </dc:creator>
   </cc:Work>
  </rdf:RDF>
 </metadata>
 <defs>
  <style type="text/css">*{stroke-linejoin: round; stroke-linecap: butt}</style>
 </defs>
 <g id="figure_1">
  <g id="patch_1">
   <path d="M 0 279.295863 
L 496.16375 279.295863 
L 496.16375 0 
L 0 0 
z
" style="fill: #ffffff"/>
  </g>
  <g id="axes_1">
   <g id="patch_2">
    <path d="M 58.846094 192.687576 
L 488.96375 192.687576 
L 488.96375 9.181941 
L 58.846094 9.181941 
z
" style="fill: #ffffff"/>
   </g>
   <g id="patch_3">
    <path d="M 78.396896 101.843202 
L 104.906459 101.843202 
L 104.906459 10.998828 
L 78.396896 10.998828 
z
" clip-path="url(#p8bdc6636f3)" style="fill: #1f77b4"/>
   </g>
   <g id="patch_4">
    <path d="M 111.53385 101.843202 
L 138.043413 101.843202 
L 138.043413 10.998828 
L 111.53385 10.998828 
z
" clip-path="url(#p8bdc6636f3)" style="fill: #1f77b4"/>
   </g>
   <g id="patch_5">
    <path d="M 144.670803 101.843202 
L 171.180366 101.843202 
L 171.180366 10.998828 
L 144.670803 10.998828 
z
" clip-path="url(#p8bdc6636f3)" style="fill: #1f77b4"/>
   </g>
   <g id="patch_6">
    <path d="M 177.807757 101.843202 
L 204.31732 101.843202 
L 204.31732 18.261205 
L 177.807757 18.261205 
z
" clip-path="url(#p8bdc6636f3)" style="fill: #1f77b4"/>
   </g>
   <g id="patch_7">
    <path d="M 210.94471 101.843202 
L 237.454273 101.843202 
L 237.454273 11.051739 
L 210.94471 11.051739 
z
" clip-path="url(#p8bdc6636f3)" style="fill: #1f77b4"/>
   </g>
   <g id="patch_8">
    <path d="M 244.081664 101.843202 
L 270.591227 101.843202 
L 270.591227 11.597577 
L 244.081664 11.597577 
z
" clip-path="url(#p8bdc6636f3)" style="fill: #1f77b4"/>
   </g>
   <g id="patch_9">
    <path d="M 277.218617 101.843202 
L 303.72818 101.843202 
L 303.72818 11.009972 
L 277.218617 11.009972 
z
" clip-path="url(#p8bdc6636f3)" style="fill: #1f77b4"/>
   </g>
   <g id="patch_10">
    <path d="M 310.355571 101.843202 
L 336.865133 101.843202 
L 336.865133 10.999243 
L 310.355571 10.999243 
z
" clip-path="url(#p8bdc6636f3)" style="fill: #1f77b4"/>
   </g>
   <g id="patch_11">
    <path d="M 343.492524 101.843202 
L 370.002087 101.843202 
L 370.002087 10.999252 
L 343.492524 10.999252 
z
" clip-path="url(#p8bdc6636f3)" style="fill: #1f77b4"/>
   </g>
   <g id="patch_12">
    <path d="M 376.629478 101.843202 
L 403.13904 101.843202 
L 403.13904 11.657538 
L 376.629478 11.657538 
z
" clip-path="url(#p8bdc6636f3)" style="fill: #1f77b4"/>
   </g>
   <g id="patch_13">
    <path d="M 409.766431 101.843202 
L 436.275994 101.843202 
L 436.275994 10.999514 
L 409.766431 10.999514 
z
" clip-path="url(#p8bdc6636f3)" style="fill: #1f77b4"/>
   </g>
   <g id="patch_14">
    <path d="M 442.903385 101.843202 
L 469.412947 101.843202 
L 469.412947 11.010218 
L 442.903385 11.010218 
z
" clip-path="url(#p8bdc6636f3)" style="fill: #1f77b4"/>
   </g>
   <g id="matplotlib.axis_1">
    <g id="xtick_1">
     <g id="line2d_1">
      <defs>
       <path id="ma1647659f6" d="M 0 0 
L 0 3.5 
" style="stroke: #000000; stroke-width: 0.8"/>
      </defs>
      <g>
       <use xlink:href="#ma1647659f6" x="91.651678" y="192.687576" style="stroke: #000000; stroke-width: 0.8"/>
      </g>
     </g>
     <g id="text_1">
      <!-- gauss_legendre -->
      <g transform="translate(25.324095 261.202138) rotate(-45) scale(0.1 -0.1)">
       <defs>
        <path id="DejaVuSans-4a" d="M 2906 1791 
Q 2906 2416 2648 2759 
Q 2391 3103 1925 3103 
Q 1463 3103 1205 2759 
Q 947 2416 947 1791 
Q 947 1169 1205 825 
Q 1463 481 1925 481 
Q 2391 481 2648 825 
Q 2906 1169 2906 1791 
z
M 3481 434 
Q 3481 -459 3084 -895 
Q 2688 -1331 1869 -1331 
Q 1566 -1331 1297 -1286 
Q 1028 -1241 775 -1147 
L 775 -588 
Q 1028 -725 1275 -790 
Q 1522 -856 1778 -856 
Q 2344 -856 2625 -561 
Q 2906 -266 2906 331 
L 2906 616 
Q 2728 306 2450 153 
Q 2172 0 1784 0 
Q 1141 0 747 490 
Q 353 981 353 1791 
Q 353 2603 747 3093 
Q 1141 3584 1784 3584 
Q 2172 3584 2450 3431 
Q 2728 3278 2906 2969 
L 2906 3500 
L 3481 3500 
L 3481 434 
z
" transform="scale(0.015625)"/>
        <path id="DejaVuSans-44" d="M 2194 1759 
Q 1497 1759 1228 1600 
Q 959 1441 959 1056 
Q 959 750 1161 570 
Q 1363 391 1709 391 
Q 2188 391 2477 730 
Q 2766 1069 2766 1631 
L 2766 1759 
L 2194 1759 
z
M 3341 1997 
L 3341 0 
L 2766 0 
L 2766 531 
Q 2569 213 2275 61 
Q 1981 -91 1556 -91 
Q 1019 -91 701 211 
Q 384 513 384 1019 
Q 384 1609 779 1909 
Q 1175 2209 1959 2209 
L 2766 2209 
L 2766 2266 
Q 2766 2663 2505 2880 
Q 2244 3097 1772 3097 
Q 1472 3097 1187 3025 
Q 903 2953 641 2809 
L 641 3341 
Q 956 3463 1253 3523 
Q 1550 3584 1831 3584 
Q 2591 3584 2966 3190 
Q 3341 2797 3341 1997 
z
" transform="scale(0.015625)"/>
        <path id="DejaVuSans-58" d="M 544 1381 
L 544 3500 
L 1119 3500 
L 1119 1403 
Q 1119 906 1312 657 
Q 1506 409 1894 409 
Q 2359 409 2629 706 
Q 2900 1003 2900 1516 
L 2900 3500 
L 3475 3500 
L 3475 0 
L 2900 0 
L 2900 538 
Q 2691 219 2414 64 
Q 2138 -91 1772 -91 
Q 1169 -91 856 284 
Q 544 659 544 1381 
z
M 1991 3584 
L 1991 3584 
z
" transform="scale(0.015625)"/>
        <path id="DejaVuSans-56" d="M 2834 3397 
L 2834 2853 
Q 2591 2978 2328 3040 
Q 2066 3103 1784 3103 
Q 1356 3103 1142 2972 
Q 928 2841 928 2578 
Q 928 2378 1081 2264 
Q 1234 2150 1697 2047 
L 1894 2003 
Q 2506 1872 2764 1633 
Q 3022 1394 3022 966 
Q 3022 478 2636 193 
Q 2250 -91 1575 -91 
Q 1294 -91 989 -36 
Q 684 19 347 128 
L 347 722 
Q 666 556 975 473 
Q 1284 391 1588 391 
Q 1994 391 2212 530 
Q 2431 669 2431 922 
Q 2431 1156 2273 1281 
Q 2116 1406 1581 1522 
L 1381 1569 
Q 847 1681 609 1914 
Q 372 2147 372 2553 
Q 372 3047 722 3315 
Q 1072 3584 1716 3584 
Q 2034 3584 2315 3537 
Q 2597 3491 2834 3397 
z
" transform="scale(0.015625)"/>
        <path id="DejaVuSans-42" d="M 3263 -1063 
L 3263 -1509 
L -63 -1509 
L -63 -1063 
L 3263 -1063 
z
" transform="scale(0.015625)"/>
        <path id="DejaVuSans-4f" d="M 603 4863 
L 1178 4863 
L 1178 0 
L 603 0 
L 603 4863 
z
" transform="scale(0.015625)"/>
        <path id="DejaVuSans-48" d="M 3597 1894 
L 3597 1613 
L 953 1613 
Q 991 1019 1311 708 
Q 1631 397 2203 397 
Q 2534 397 2845 478 
Q 3156 559 3463 722 
L 3463 178 
Q 3153 47 2828 -22 
Q 2503 -91 2169 -91 
Q 1331 -91 842 396 
Q 353 884 353 1716 
Q 353 2575 817 3079 
Q 1281 3584 2069 3584 
Q 2775 3584 3186 3129 
Q 3597 2675 3597 1894 
z
M 3022 2063 
Q 3016 2534 2758 2815 
Q 2500 3097 2075 3097 
Q 1594 3097 1305 2825 
Q 1016 2553 972 2059 
L 3022 2063 
z
" transform="scale(0.015625)"/>
        <path id="DejaVuSans-51" d="M 3513 2113 
L 3513 0 
L 2938 0 
L 2938 2094 
Q 2938 2591 2744 2837 
Q 2550 3084 2163 3084 
Q 1697 3084 1428 2787 
Q 1159 2491 1159 1978 
L 1159 0 
L 581 0 
L 581 3500 
L 1159 3500 
L 1159 2956 
Q 1366 3272 1645 3428 
Q 1925 3584 2291 3584 
Q 2894 3584 3203 3211 
Q 3513 2838 3513 2113 
z
" transform="scale(0.015625)"/>
        <path id="DejaVuSans-47" d="M 2906 2969 
L 2906 4863 
L 3481 4863 
L 3481 0 
L 2906 0 
L 2906 525 
Q 2725 213 2448 61 
Q 2172 -91 1784 -91 
Q 1150 -91 751 415 
Q 353 922 353 1747 
Q 353 2572 751 3078 
Q 1150 3584 1784 3584 
Q 2172 3584 2448 3432 
Q 2725 3281 2906 2969 
z
M 947 1747 
Q 947 1113 1208 752 
Q 1469 391 1925 391 
Q 2381 391 2643 752 
Q 2906 1113 2906 1747 
Q 2906 2381 2643 2742 
Q 2381 3103 1925 3103 
Q 1469 3103 1208 2742 
Q 947 2381 947 1747 
z
" transform="scale(0.015625)"/>
        <path id="DejaVuSans-55" d="M 2631 2963 
Q 2534 3019 2420 3045 
Q 2306 3072 2169 3072 
Q 1681 3072 1420 2755 
Q 1159 2438 1159 1844 
L 1159 0 
L 581 0 
L 581 3500 
L 1159 3500 
L 1159 2956 
Q 1341 3275 1631 3429 
Q 1922 3584 2338 3584 
Q 2397 3584 2469 3576 
Q 2541 3569 2628 3553 
L 2631 2963 
z
" transform="scale(0.015625)"/>
       </defs>
       <use xlink:href="#DejaVuSans-4a"/>
       <use xlink:href="#DejaVuSans-44" transform="translate(63.484375 0)"/>
       <use xlink:href="#DejaVuSans-58" transform="translate(124.765625 0)"/>
       <use xlink:href="#DejaVuSans-56" transform="translate(188.140625 0)"/>
       <use xlink:href="#DejaVuSans-56" transform="translate(240.234375 0)"/>
       <use xlink:href="#DejaVuSans-42" transform="translate(292.328125 0)"/>
       <use xlink:href="#DejaVuSans-4f" transform="translate(342.328125 0)"/>
       <use xlink:href="#DejaVuSans-48" transform="translate(370.109375 0)"/>
       <use xlink:href="#DejaVuSans-4a" transform="translate(431.640625 0)"/>
       <use xlink:href="#DejaVuSans-48" transform="translate(495.125 0)"/>
       <use xlink:href="#DejaVuSans-51" transform="translate(556.65625 0)"/>
       <use xlink:href="#DejaVuSans-47" transform="translate(620.03125 0)"/>
       <use xlink:href="#DejaVuSans-55" transform="translate(683.515625 0)"/>
       <use xlink:href="#DejaVuSans-48" transform="translate(722.421875 0)"/>
      </g>
      <!-- early -->
      <g transform="translate(71.504521 231.996142) rotate(-45) scale(0.1 -0.1)">
       <defs>
        <path id="DejaVuSans-5c" d="M 2059 -325 
Q 1816 -950 1584 -1140 
Q 1353 -1331 966 -1331 
L 506 -1331 
L 506 -850 
L 844 -850 
Q 1081 -850 1212 -737 
Q 1344 -625 1503 -206 
L 1606 56 
L 191 3500 
L 800 3500 
L 1894 763 
L 2988 3500 
L 3597 3500 
L 2059 -325 
z
" transform="scale(0.015625)"/>
       </defs>
       <use xlink:href="#DejaVuSans-48"/>
       <use xlink:href="#DejaVuSans-44" transform="translate(61.53125 0)"/>
       <use xlink:href="#DejaVuSans-55" transform="translate(122.8125 0)"/>
       <use xlink:href="#DejaVuSans-4f" transform="translate(163.921875 0)"/>
       <use xlink:href="#DejaVuSans-5c" transform="translate(191.703125 0)"/>
      </g>
     </g>
    </g>
    <g id="xtick_2">
     <g id="line2d_2">
      <g>
       <use xlink:href="#ma1647659f6" x="124.788631" y="192.687576" style="stroke: #000000; stroke-width: 0.8"/>
      </g>
     </g>
     <g id="text_2">
      <!-- gauss_legendre -->
      <g transform="translate(58.461048 261.202138) rotate(-45) scale(0.1 -0.1)">
       <use xlink:href="#DejaVuSans-4a"/>
       <use xlink:href="#DejaVuSans-44" transform="translate(63.484375 0)"/>
       <use xlink:href="#DejaVuSans-58" transform="translate(124.765625 0)"/>
       <use xlink:href="#DejaVuSans-56" transform="translate(188.140625 0)"/>
       <use xlink:href="#DejaVuSans-56" transform="translate(240.234375 0)"/>
       <use xlink:href="#DejaVuSans-42" transform="translate(292.328125 0)"/>
       <use xlink:href="#DejaVuSans-4f" transform="translate(342.328125 0)"/>
       <use xlink:href="#DejaVuSans-48" transform="translate(370.109375 0)"/>
       <use xlink:href="#DejaVuSans-4a" transform="translate(431.640625 0)"/>
       <use xlink:href="#DejaVuSans-48" transform="translate(495.125 0)"/>
       <use xlink:href="#DejaVuSans-51" transform="translate(556.65625 0)"/>
       <use xlink:href="#DejaVuSans-47" transform="translate(620.03125 0)"/>
       <use xlink:href="#DejaVuSans-55" transform="translate(683.515625 0)"/>
       <use xlink:href="#DejaVuSans-48" transform="translate(722.421875 0)"/>
      </g>
      <!-- late -->
      <g transform="translate(108.961455 227.676161) rotate(-45) scale(0.1 -0.1)">
       <defs>
        <path id="DejaVuSans-57" d="M 1172 4494 
L 1172 3500 
L 2356 3500 
L 2356 3053 
L 1172 3053 
L 1172 1153 
Q 1172 725 1289 603 
Q 1406 481 1766 481 
L 2356 481 
L 2356 0 
L 1766 0 
Q 1100 0 847 248 
Q 594 497 594 1153 
L 594 3053 
L 172 3053 
L 172 3500 
L 594 3500 
L 594 4494 
L 1172 4494 
z
" transform="scale(0.015625)"/>
       </defs>
       <use xlink:href="#DejaVuSans-4f"/>
       <use xlink:href="#DejaVuSans-44" transform="translate(27.78125 0)"/>
       <use xlink:href="#DejaVuSans-57" transform="translate(89.0625 0)"/>
       <use xlink:href="#DejaVuSans-48" transform="translate(128.265625 0)"/>
      </g>
     </g>
    </g>
    <g id="xtick_3">
     <g id="line2d_3">
      <g>
       <use xlink:href="#ma1647659f6" x="157.925585" y="192.687576" style="stroke: #000000; stroke-width: 0.8"/>
      </g>
     </g>
     <g id="text_3">
      <!-- gauss_legendre -->
      <g transform="translate(91.598002 261.202138) rotate(-45) scale(0.1 -0.1)">
       <use xlink:href="#DejaVuSans-4a"/>
       <use xlink:href="#DejaVuSans-44" transform="translate(63.484375 0)"/>
       <use xlink:href="#DejaVuSans-58" transform="translate(124.765625 0)"/>
       <use xlink:href="#DejaVuSans-56" transform="translate(188.140625 0)"/>
       <use xlink:href="#DejaVuSans-56" transform="translate(240.234375 0)"/>
       <use xlink:href="#DejaVuSans-42" transform="translate(292.328125 0)"/>
       <use xlink:href="#DejaVuSans-4f" transform="translate(342.328125 0)"/>
       <use xlink:href="#DejaVuSans-48" transform="translate(370.109375 0)"/>
       <use xlink:href="#DejaVuSans-4a" transform="translate(431.640625 0)"/>
       <use xlink:href="#DejaVuSans-48" transform="translate(495.125 0)"/>
       <use xlink:href="#DejaVuSans-51" transform="translate(556.65625 0)"/>
       <use xlink:href="#DejaVuSans-47" transform="translate(620.03125 0)"/>
       <use xlink:href="#DejaVuSans-55" transform="translate(683.515625 0)"/>
       <use xlink:href="#DejaVuSans-48" transform="translate(722.421875 0)"/>
      </g>
      <!-- middle -->
      <g transform="translate(131.373587 238.400982) rotate(-45) scale(0.1 -0.1)">
       <defs>
        <path id="DejaVuSans-50" d="M 3328 2828 
Q 3544 3216 3844 3400 
Q 4144 3584 4550 3584 
Q 5097 3584 5394 3201 
Q 5691 2819 5691 2113 
L 5691 0 
L 5113 0 
L 5113 2094 
Q 5113 2597 4934 2840 
Q 4756 3084 4391 3084 
Q 3944 3084 3684 2787 
Q 3425 2491 3425 1978 
L 3425 0 
L 2847 0 
L 2847 2094 
Q 2847 2600 2669 2842 
Q 2491 3084 2119 3084 
Q 1678 3084 1418 2786 
Q 1159 2488 1159 1978 
L 1159 0 
L 581 0 
L 581 3500 
L 1159 3500 
L 1159 2956 
Q 1356 3278 1631 3431 
Q 1906 3584 2284 3584 
Q 2666 3584 2933 3390 
Q 3200 3197 3328 2828 
z
" transform="scale(0.015625)"/>
        <path id="DejaVuSans-4c" d="M 603 3500 
L 1178 3500 
L 1178 0 
L 603 0 
L 603 3500 
z
M 603 4863 
L 1178 4863 
L 1178 4134 
L 603 4134 
L 603 4863 
z
" transform="scale(0.015625)"/>
       </defs>
       <use xlink:href="#DejaVuSans-50"/>
       <use xlink:href="#DejaVuSans-4c" transform="translate(97.40625 0)"/>
       <use xlink:href="#DejaVuSans-47" transform="translate(125.1875 0)"/>
       <use xlink:href="#DejaVuSans-47" transform="translate(188.671875 0)"/>
       <use xlink:href="#DejaVuSans-4f" transform="translate(252.15625 0)"/>
       <use xlink:href="#DejaVuSans-48" transform="translate(279.9375 0)"/>
      </g>
     </g>
    </g>
    <g id="xtick_4">
     <g id="line2d_4">
      <g>
       <use xlink:href="#ma1647659f6" x="191.062538" y="192.687576" style="stroke: #000000; stroke-width: 0.8"/>
      </g>
     </g>
     <g id="text_4">
      <!-- left -->
      <g transform="translate(168.715892 217.221201) rotate(-45) scale(0.1 -0.1)">
       <defs>
        <path id="DejaVuSans-49" d="M 2375 4863 
L 2375 4384 
L 1825 4384 
Q 1516 4384 1395 4259 
Q 1275 4134 1275 3809 
L 1275 3500 
L 2222 3500 
L 2222 3053 
L 1275 3053 
L 1275 0 
L 697 0 
L 697 3053 
L 147 3053 
L 147 3500 
L 697 3500 
L 697 3744 
Q 697 4328 969 4595 
Q 1241 4863 1831 4863 
L 2375 4863 
z
" transform="scale(0.015625)"/>
       </defs>
       <use xlink:href="#DejaVuSans-4f"/>
       <use xlink:href="#DejaVuSans-48" transform="translate(27.78125 0)"/>
       <use xlink:href="#DejaVuSans-49" transform="translate(89.3125 0)"/>
       <use xlink:href="#DejaVuSans-57" transform="translate(122.765625 0)"/>
      </g>
      <!-- early -->
      <g transform="translate(170.915381 231.996142) rotate(-45) scale(0.1 -0.1)">
       <use xlink:href="#DejaVuSans-48"/>
       <use xlink:href="#DejaVuSans-44" transform="translate(61.53125 0)"/>
       <use xlink:href="#DejaVuSans-55" transform="translate(122.8125 0)"/>
       <use xlink:href="#DejaVuSans-4f" transform="translate(163.921875 0)"/>
       <use xlink:href="#DejaVuSans-5c" transform="translate(191.703125 0)"/>
      </g>
     </g>
    </g>
    <g id="xtick_5">
     <g id="line2d_5">
      <g>
       <use xlink:href="#ma1647659f6" x="224.199492" y="192.687576" style="stroke: #000000; stroke-width: 0.8"/>
      </g>
     </g>
     <g id="text_5">
      <!-- left -->
      <g transform="translate(201.852846 217.221201) rotate(-45) scale(0.1 -0.1)">
       <use xlink:href="#DejaVuSans-4f"/>
       <use xlink:href="#DejaVuSans-48" transform="translate(27.78125 0)"/>
       <use xlink:href="#DejaVuSans-49" transform="translate(89.3125 0)"/>
       <use xlink:href="#DejaVuSans-57" transform="translate(122.765625 0)"/>
      </g>
      <!-- late -->
      <g transform="translate(208.372315 227.676161) rotate(-45) scale(0.1 -0.1)">
       <use xlink:href="#DejaVuSans-4f"/>
       <use xlink:href="#DejaVuSans-44" transform="translate(27.78125 0)"/>
       <use xlink:href="#DejaVuSans-57" transform="translate(89.0625 0)"/>
       <use xlink:href="#DejaVuSans-48" transform="translate(128.265625 0)"/>
      </g>
     </g>
    </g>
    <g id="xtick_6">
     <g id="line2d_6">
      <g>
       <use xlink:href="#ma1647659f6" x="257.336445" y="192.687576" style="stroke: #000000; stroke-width: 0.8"/>
      </g>
     </g>
     <g id="text_6">
      <!-- left -->
      <g transform="translate(234.989799 217.221201) rotate(-45) scale(0.1 -0.1)">
       <use xlink:href="#DejaVuSans-4f"/>
       <use xlink:href="#DejaVuSans-48" transform="translate(27.78125 0)"/>
       <use xlink:href="#DejaVuSans-49" transform="translate(89.3125 0)"/>
       <use xlink:href="#DejaVuSans-57" transform="translate(122.765625 0)"/>
      </g>
      <!-- middle -->
      <g transform="translate(230.784447 238.400982) rotate(-45) scale(0.1 -0.1)">
       <use xlink:href="#DejaVuSans-50"/>
       <use xlink:href="#DejaVuSans-4c" transform="translate(97.40625 0)"/>
       <use xlink:href="#DejaVuSans-47" transform="translate(125.1875 0)"/>
       <use xlink:href="#DejaVuSans-47" transform="translate(188.671875 0)"/>
       <use xlink:href="#DejaVuSans-4f" transform="translate(252.15625 0)"/>
       <use xlink:href="#DejaVuSans-48" transform="translate(279.9375 0)"/>
      </g>
     </g>
    </g>
    <g id="xtick_7">
     <g id="line2d_7">
      <g>
       <use xlink:href="#ma1647659f6" x="290.473399" y="192.687576" style="stroke: #000000; stroke-width: 0.8"/>
      </g>
     </g>
     <g id="text_7">
      <!-- simpson -->
      <g transform="translate(250.063489 235.284464) rotate(-45) scale(0.1 -0.1)">
       <defs>
        <path id="DejaVuSans-53" d="M 1159 525 
L 1159 -1331 
L 581 -1331 
L 581 3500 
L 1159 3500 
L 1159 2969 
Q 1341 3281 1617 3432 
Q 1894 3584 2278 3584 
Q 2916 3584 3314 3078 
Q 3713 2572 3713 1747 
Q 3713 922 3314 415 
Q 2916 -91 2278 -91 
Q 1894 -91 1617 61 
Q 1341 213 1159 525 
z
M 3116 1747 
Q 3116 2381 2855 2742 
Q 2594 3103 2138 3103 
Q 1681 3103 1420 2742 
Q 1159 2381 1159 1747 
Q 1159 1113 1420 752 
Q 1681 391 2138 391 
Q 2594 391 2855 752 
Q 3116 1113 3116 1747 
z
" transform="scale(0.015625)"/>
        <path id="DejaVuSans-52" d="M 1959 3097 
Q 1497 3097 1228 2736 
Q 959 2375 959 1747 
Q 959 1119 1226 758 
Q 1494 397 1959 397 
Q 2419 397 2687 759 
Q 2956 1122 2956 1747 
Q 2956 2369 2687 2733 
Q 2419 3097 1959 3097 
z
M 1959 3584 
Q 2709 3584 3137 3096 
Q 3566 2609 3566 1747 
Q 3566 888 3137 398 
Q 2709 -91 1959 -91 
Q 1206 -91 779 398 
Q 353 888 353 1747 
Q 353 2609 779 3096 
Q 1206 3584 1959 3584 
z
" transform="scale(0.015625)"/>
       </defs>
       <use xlink:href="#DejaVuSans-56"/>
       <use xlink:href="#DejaVuSans-4c" transform="translate(52.09375 0)"/>
       <use xlink:href="#DejaVuSans-50" transform="translate(79.875 0)"/>
       <use xlink:href="#DejaVuSans-53" transform="translate(177.28125 0)"/>
       <use xlink:href="#DejaVuSans-56" transform="translate(240.765625 0)"/>
       <use xlink:href="#DejaVuSans-52" transform="translate(292.859375 0)"/>
       <use xlink:href="#DejaVuSans-51" transform="translate(354.046875 0)"/>
      </g>
      <!-- early -->
      <g transform="translate(270.326242 231.996142) rotate(-45) scale(0.1 -0.1)">
       <use xlink:href="#DejaVuSans-48"/>
       <use xlink:href="#DejaVuSans-44" transform="translate(61.53125 0)"/>
       <use xlink:href="#DejaVuSans-55" transform="translate(122.8125 0)"/>
       <use xlink:href="#DejaVuSans-4f" transform="translate(163.921875 0)"/>
       <use xlink:href="#DejaVuSans-5c" transform="translate(191.703125 0)"/>
      </g>
     </g>
    </g>
    <g id="xtick_8">
     <g id="line2d_8">
      <g>
       <use xlink:href="#ma1647659f6" x="323.610352" y="192.687576" style="stroke: #000000; stroke-width: 0.8"/>
      </g>
     </g>
     <g id="text_8">
      <!-- simpson -->
      <g transform="translate(283.200443 235.284464) rotate(-45) scale(0.1 -0.1)">
       <use xlink:href="#DejaVuSans-56"/>
       <use xlink:href="#DejaVuSans-4c" transform="translate(52.09375 0)"/>
       <use xlink:href="#DejaVuSans-50" transform="translate(79.875 0)"/>
       <use xlink:href="#DejaVuSans-53" transform="translate(177.28125 0)"/>
       <use xlink:href="#DejaVuSans-56" transform="translate(240.765625 0)"/>
       <use xlink:href="#DejaVuSans-52" transform="translate(292.859375 0)"/>
       <use xlink:href="#DejaVuSans-51" transform="translate(354.046875 0)"/>
      </g>
      <!-- late -->
      <g transform="translate(307.783175 227.676161) rotate(-45) scale(0.1 -0.1)">
       <use xlink:href="#DejaVuSans-4f"/>
       <use xlink:href="#DejaVuSans-44" transform="translate(27.78125 0)"/>
       <use xlink:href="#DejaVuSans-57" transform="translate(89.0625 0)"/>
       <use xlink:href="#DejaVuSans-48" transform="translate(128.265625 0)"/>
      </g>
     </g>
    </g>
    <g id="xtick_9">
     <g id="line2d_9">
      <g>
       <use xlink:href="#ma1647659f6" x="356.747306" y="192.687576" style="stroke: #000000; stroke-width: 0.8"/>
      </g>
     </g>
     <g id="text_9">
      <!-- simpson -->
      <g transform="translate(316.337396 235.284464) rotate(-45) scale(0.1 -0.1)">
       <use xlink:href="#DejaVuSans-56"/>
       <use xlink:href="#DejaVuSans-4c" transform="translate(52.09375 0)"/>
       <use xlink:href="#DejaVuSans-50" transform="translate(79.875 0)"/>
       <use xlink:href="#DejaVuSans-53" transform="translate(177.28125 0)"/>
       <use xlink:href="#DejaVuSans-56" transform="translate(240.765625 0)"/>
       <use xlink:href="#DejaVuSans-52" transform="translate(292.859375 0)"/>
       <use xlink:href="#DejaVuSans-51" transform="translate(354.046875 0)"/>
      </g>
      <!-- middle -->
      <g transform="translate(330.195308 238.400982) rotate(-45) scale(0.1 -0.1)">
       <use xlink:href="#DejaVuSans-50"/>
       <use xlink:href="#DejaVuSans-4c" transform="translate(97.40625 0)"/>
       <use xlink:href="#DejaVuSans-47" transform="translate(125.1875 0)"/>
       <use xlink:href="#DejaVuSans-47" transform="translate(188.671875 0)"/>
       <use xlink:href="#DejaVuSans-4f" transform="translate(252.15625 0)"/>
       <use xlink:href="#DejaVuSans-48" transform="translate(279.9375 0)"/>
      </g>
     </g>
    </g>
    <g id="xtick_10">
     <g id="line2d_10">
      <g>
       <use xlink:href="#ma1647659f6" x="389.884259" y="192.687576" style="stroke: #000000; stroke-width: 0.8"/>
      </g>
     </g>
     <g id="text_10">
      <!-- trapezoid -->
      <g transform="translate(345.647134 239.11168) rotate(-45) scale(0.1 -0.1)">
       <defs>
        <path id="DejaVuSans-5d" d="M 353 3500 
L 3084 3500 
L 3084 2975 
L 922 459 
L 3084 459 
L 3084 0 
L 275 0 
L 275 525 
L 2438 3041 
L 353 3041 
L 353 3500 
z
" transform="scale(0.015625)"/>
       </defs>
       <use xlink:href="#DejaVuSans-57"/>
       <use xlink:href="#DejaVuSans-55" transform="translate(39.203125 0)"/>
       <use xlink:href="#DejaVuSans-44" transform="translate(80.3125 0)"/>
       <use xlink:href="#DejaVuSans-53" transform="translate(141.59375 0)"/>
       <use xlink:href="#DejaVuSans-48" transform="translate(205.078125 0)"/>
       <use xlink:href="#DejaVuSans-5d" transform="translate(266.609375 0)"/>
       <use xlink:href="#DejaVuSans-52" transform="translate(319.09375 0)"/>
       <use xlink:href="#DejaVuSans-4c" transform="translate(380.28125 0)"/>
       <use xlink:href="#DejaVuSans-47" transform="translate(408.0625 0)"/>
      </g>
      <!-- early -->
      <g transform="translate(369.737102 231.996142) rotate(-45) scale(0.1 -0.1)">
       <use xlink:href="#DejaVuSans-48"/>
       <use xlink:href="#DejaVuSans-44" transform="translate(61.53125 0)"/>
       <use xlink:href="#DejaVuSans-55" transform="translate(122.8125 0)"/>
       <use xlink:href="#DejaVuSans-4f" transform="translate(163.921875 0)"/>
       <use xlink:href="#DejaVuSans-5c" transform="translate(191.703125 0)"/>
      </g>
     </g>
    </g>
    <g id="xtick_11">
     <g id="line2d_11">
      <g>
       <use xlink:href="#ma1647659f6" x="423.021213" y="192.687576" style="stroke: #000000; stroke-width: 0.8"/>
      </g>
     </g>
     <g id="text_11">
      <!-- trapezoid -->
      <g transform="translate(378.784088 239.11168) rotate(-45) scale(0.1 -0.1)">
       <use xlink:href="#DejaVuSans-57"/>
       <use xlink:href="#DejaVuSans-55" transform="translate(39.203125 0)"/>
       <use xlink:href="#DejaVuSans-44" transform="translate(80.3125 0)"/>
       <use xlink:href="#DejaVuSans-53" transform="translate(141.59375 0)"/>
       <use xlink:href="#DejaVuSans-48" transform="translate(205.078125 0)"/>
       <use xlink:href="#DejaVuSans-5d" transform="translate(266.609375 0)"/>
       <use xlink:href="#DejaVuSans-52" transform="translate(319.09375 0)"/>
       <use xlink:href="#DejaVuSans-4c" transform="translate(380.28125 0)"/>
       <use xlink:href="#DejaVuSans-47" transform="translate(408.0625 0)"/>
      </g>
      <!-- late -->
      <g transform="translate(407.194036 227.676161) rotate(-45) scale(0.1 -0.1)">
       <use xlink:href="#DejaVuSans-4f"/>
       <use xlink:href="#DejaVuSans-44" transform="translate(27.78125 0)"/>
       <use xlink:href="#DejaVuSans-57" transform="translate(89.0625 0)"/>
       <use xlink:href="#DejaVuSans-48" transform="translate(128.265625 0)"/>
      </g>
     </g>
    </g>
    <g id="xtick_12">
     <g id="line2d_12">
      <g>
       <use xlink:href="#ma1647659f6" x="456.158166" y="192.687576" style="stroke: #000000; stroke-width: 0.8"/>
      </g>
     </g>
     <g id="text_12">
      <!-- trapezoid -->
      <g transform="translate(411.921041 239.11168) rotate(-45) scale(0.1 -0.1)">
       <use xlink:href="#DejaVuSans-57"/>
       <use xlink:href="#DejaVuSans-55" transform="translate(39.203125 0)"/>
       <use xlink:href="#DejaVuSans-44" transform="translate(80.3125 0)"/>
       <use xlink:href="#DejaVuSans-53" transform="translate(141.59375 0)"/>
       <use xlink:href="#DejaVuSans-48" transform="translate(205.078125 0)"/>
       <use xlink:href="#DejaVuSans-5d" transform="translate(266.609375 0)"/>
       <use xlink:href="#DejaVuSans-52" transform="translate(319.09375 0)"/>
       <use xlink:href="#DejaVuSans-4c" transform="translate(380.28125 0)"/>
       <use xlink:href="#DejaVuSans-47" transform="translate(408.0625 0)"/>
      </g>
      <!-- middle -->
      <g transform="translate(429.606168 238.400982) rotate(-45) scale(0.1 -0.1)">
       <use xlink:href="#DejaVuSans-50"/>
       <use xlink:href="#DejaVuSans-4c" transform="translate(97.40625 0)"/>
       <use xlink:href="#DejaVuSans-47" transform="translate(125.1875 0)"/>
       <use xlink:href="#DejaVuSans-47" transform="translate(188.671875 0)"/>
       <use xlink:href="#DejaVuSans-4f" transform="translate(252.15625 0)"/>
       <use xlink:href="#DejaVuSans-48" transform="translate(279.9375 0)"/>
      </g>
     </g>
    </g>
   </g>
   <g id="matplotlib.axis_2">
    <g id="ytick_1">
     <g id="line2d_13">
      <path d="M 58.846094 192.687576 
L 488.96375 192.687576 
" clip-path="url(#p8bdc6636f3)" style="fill: none; stroke: #b0b0b0; stroke-opacity: 0.25; stroke-width: 0.8; stroke-linecap: square"/>
     </g>
     <g id="line2d_14">
      <defs>
       <path id="m48c4980e81" d="M 0 0 
L -3.5 0 
" style="stroke: #000000; stroke-width: 0.8"/>
      </defs>
      <g>
       <use xlink:href="#m48c4980e81" x="58.846094" y="192.687576" style="stroke: #000000; stroke-width: 0.8"/>
      </g>
     </g>
     <g id="text_13">
      <!-- −1.00 -->
      <g transform="translate(21.200781 196.486405) scale(0.1 -0.1)">
       <defs>
        <path id="DejaVuSans-c9c" d="M 678 2272 
L 4684 2272 
L 4684 1741 
L 678 1741 
L 678 2272 
z
" transform="scale(0.015625)"/>
        <path id="DejaVuSans-14" d="M 794 531 
L 1825 531 
L 1825 4091 
L 703 3866 
L 703 4441 
L 1819 4666 
L 2450 4666 
L 2450 531 
L 3481 531 
L 3481 0 
L 794 0 
L 794 531 
z
" transform="scale(0.015625)"/>
        <path id="DejaVuSans-11" d="M 684 794 
L 1344 794 
L 1344 0 
L 684 0 
L 684 794 
z
" transform="scale(0.015625)"/>
        <path id="DejaVuSans-13" d="M 2034 4250 
Q 1547 4250 1301 3770 
Q 1056 3291 1056 2328 
Q 1056 1369 1301 889 
Q 1547 409 2034 409 
Q 2525 409 2770 889 
Q 3016 1369 3016 2328 
Q 3016 3291 2770 3770 
Q 2525 4250 2034 4250 
z
M 2034 4750 
Q 2819 4750 3233 4129 
Q 3647 3509 3647 2328 
Q 3647 1150 3233 529 
Q 2819 -91 2034 -91 
Q 1250 -91 836 529 
Q 422 1150 422 2328 
Q 422 3509 836 4129 
Q 1250 4750 2034 4750 
z
" transform="scale(0.015625)"/>
       </defs>
       <use xlink:href="#DejaVuSans-c9c"/>
       <use xlink:href="#DejaVuSans-14" transform="translate(83.796875 0)"/>
       <use xlink:href="#DejaVuSans-11" transform="translate(147.421875 0)"/>
       <use xlink:href="#DejaVuSans-13" transform="translate(179.203125 0)"/>
       <use xlink:href="#DejaVuSans-13" transform="translate(242.828125 0)"/>
      </g>
     </g>
    </g>
    <g id="ytick_2">
     <g id="line2d_15">
      <path d="M 58.846094 169.976483 
L 488.96375 169.976483 
" clip-path="url(#p8bdc6636f3)" style="fill: none; stroke: #b0b0b0; stroke-opacity: 0.25; stroke-width: 0.8; stroke-linecap: square"/>
     </g>
     <g id="line2d_16">
      <g>
       <use xlink:href="#m48c4980e81" x="58.846094" y="169.976483" style="stroke: #000000; stroke-width: 0.8"/>
      </g>
     </g>
     <g id="text_14">
      <!-- −0.75 -->
      <g transform="translate(21.200781 173.775311) scale(0.1 -0.1)">
       <defs>
        <path id="DejaVuSans-1a" d="M 525 4666 
L 3525 4666 
L 3525 4397 
L 1831 0 
L 1172 0 
L 2766 4134 
L 525 4134 
L 525 4666 
z
" transform="scale(0.015625)"/>
        <path id="DejaVuSans-18" d="M 691 4666 
L 3169 4666 
L 3169 4134 
L 1269 4134 
L 1269 2991 
Q 1406 3038 1543 3061 
Q 1681 3084 1819 3084 
Q 2600 3084 3056 2656 
Q 3513 2228 3513 1497 
Q 3513 744 3044 326 
Q 2575 -91 1722 -91 
Q 1428 -91 1123 -41 
Q 819 9 494 109 
L 494 744 
Q 775 591 1075 516 
Q 1375 441 1709 441 
Q 2250 441 2565 725 
Q 2881 1009 2881 1497 
Q 2881 1984 2565 2268 
Q 2250 2553 1709 2553 
Q 1456 2553 1204 2497 
Q 953 2441 691 2322 
L 691 4666 
z
" transform="scale(0.015625)"/>
       </defs>
       <use xlink:href="#DejaVuSans-c9c"/>
       <use xlink:href="#DejaVuSans-13" transform="translate(83.796875 0)"/>
       <use xlink:href="#DejaVuSans-11" transform="translate(147.421875 0)"/>
       <use xlink:href="#DejaVuSans-1a" transform="translate(179.203125 0)"/>
       <use xlink:href="#DejaVuSans-18" transform="translate(242.828125 0)"/>
      </g>
     </g>
    </g>
    <g id="ytick_3">
     <g id="line2d_17">
      <path d="M 58.846094 147.265389 
L 488.96375 147.265389 
" clip-path="url(#p8bdc6636f3)" style="fill: none; stroke: #b0b0b0; stroke-opacity: 0.25; stroke-width: 0.8; stroke-linecap: square"/>
     </g>
     <g id="line2d_18">
      <g>
       <use xlink:href="#m48c4980e81" x="58.846094" y="147.265389" style="stroke: #000000; stroke-width: 0.8"/>
      </g>
     </g>
     <g id="text_15">
      <!-- −0.50 -->
      <g transform="translate(21.200781 151.064218) scale(0.1 -0.1)">
       <use xlink:href="#DejaVuSans-c9c"/>
       <use xlink:href="#DejaVuSans-13" transform="translate(83.796875 0)"/>
       <use xlink:href="#DejaVuSans-11" transform="translate(147.421875 0)"/>
       <use xlink:href="#DejaVuSans-18" transform="translate(179.203125 0)"/>
       <use xlink:href="#DejaVuSans-13" transform="translate(242.828125 0)"/>
      </g>
     </g>
    </g>
    <g id="ytick_4">
     <g id="line2d_19">
      <path d="M 58.846094 124.554296 
L 488.96375 124.554296 
" clip-path="url(#p8bdc6636f3)" style="fill: none; stroke: #b0b0b0; stroke-opacity: 0.25; stroke-width: 0.8; stroke-linecap: square"/>
     </g>
     <g id="line2d_20">
      <g>
       <use xlink:href="#m48c4980e81" x="58.846094" y="124.554296" style="stroke: #000000; stroke-width: 0.8"/>
      </g>
     </g>
     <g id="text_16">
      <!-- −0.25 -->
      <g transform="translate(21.200781 128.353124) scale(0.1 -0.1)">
       <defs>
        <path id="DejaVuSans-15" d="M 1228 531 
L 3431 531 
L 3431 0 
L 469 0 
L 469 531 
Q 828 903 1448 1529 
Q 2069 2156 2228 2338 
Q 2531 2678 2651 2914 
Q 2772 3150 2772 3378 
Q 2772 3750 2511 3984 
Q 2250 4219 1831 4219 
Q 1534 4219 1204 4116 
Q 875 4013 500 3803 
L 500 4441 
Q 881 4594 1212 4672 
Q 1544 4750 1819 4750 
Q 2544 4750 2975 4387 
Q 3406 4025 3406 3419 
Q 3406 3131 3298 2873 
Q 3191 2616 2906 2266 
Q 2828 2175 2409 1742 
Q 1991 1309 1228 531 
z
" transform="scale(0.015625)"/>
       </defs>
       <use xlink:href="#DejaVuSans-c9c"/>
       <use xlink:href="#DejaVuSans-13" transform="translate(83.796875 0)"/>
       <use xlink:href="#DejaVuSans-11" transform="translate(147.421875 0)"/>
       <use xlink:href="#DejaVuSans-15" transform="translate(179.203125 0)"/>
       <use xlink:href="#DejaVuSans-18" transform="translate(242.828125 0)"/>
      </g>
     </g>
    </g>
    <g id="ytick_5">
     <g id="line2d_21">
      <path d="M 58.846094 101.843202 
L 488.96375 101.843202 
" clip-path="url(#p8bdc6636f3)" style="fill: none; stroke: #b0b0b0; stroke-opacity: 0.25; stroke-width: 0.8; stroke-linecap: square"/>
     </g>
     <g id="line2d_22">
      <g>
       <use xlink:href="#m48c4980e81" x="58.846094" y="101.843202" style="stroke: #000000; stroke-width: 0.8"/>
      </g>
     </g>
     <g id="text_17">
      <!-- 0.00 -->
      <g transform="translate(29.580469 105.64203) scale(0.1 -0.1)">
       <use xlink:href="#DejaVuSans-13"/>
       <use xlink:href="#DejaVuSans-11" transform="translate(63.625 0)"/>
       <use xlink:href="#DejaVuSans-13" transform="translate(95.40625 0)"/>
       <use xlink:href="#DejaVuSans-13" transform="translate(159.03125 0)"/>
      </g>
     </g>
    </g>
    <g id="ytick_6">
     <g id="line2d_23">
      <path d="M 58.846094 79.132109 
L 488.96375 79.132109 
" clip-path="url(#p8bdc6636f3)" style="fill: none; stroke: #b0b0b0; stroke-opacity: 0.25; stroke-width: 0.8; stroke-linecap: square"/>
     </g>
     <g id="line2d_24">
      <g>
       <use xlink:href="#m48c4980e81" x="58.846094" y="79.132109" style="stroke: #000000; stroke-width: 0.8"/>
      </g>
     </g>
     <g id="text_18">
      <!-- 0.25 -->
      <g transform="translate(29.580469 82.930937) scale(0.1 -0.1)">
       <use xlink:href="#DejaVuSans-13"/>
       <use xlink:href="#DejaVuSans-11" transform="translate(63.625 0)"/>
       <use xlink:href="#DejaVuSans-15" transform="translate(95.40625 0)"/>
       <use xlink:href="#DejaVuSans-18" transform="translate(159.03125 0)"/>
      </g>
     </g>
    </g>
    <g id="ytick_7">
     <g id="line2d_25">
      <path d="M 58.846094 56.421015 
L 488.96375 56.421015 
" clip-path="url(#p8bdc6636f3)" style="fill: none; stroke: #b0b0b0; stroke-opacity: 0.25; stroke-width: 0.8; stroke-linecap: square"/>
     </g>
     <g id="line2d_26">
      <g>
       <use xlink:href="#m48c4980e81" x="58.846094" y="56.421015" style="stroke: #000000; stroke-width: 0.8"/>
      </g>
     </g>
     <g id="text_19">
      <!-- 0.50 -->
      <g transform="translate(29.580469 60.219843) scale(0.1 -0.1)">
       <use xlink:href="#DejaVuSans-13"/>
       <use xlink:href="#DejaVuSans-11" transform="translate(63.625 0)"/>
       <use xlink:href="#DejaVuSans-18" transform="translate(95.40625 0)"/>
       <use xlink:href="#DejaVuSans-13" transform="translate(159.03125 0)"/>
      </g>
     </g>
    </g>
    <g id="ytick_8">
     <g id="line2d_27">
      <path d="M 58.846094 33.709922 
L 488.96375 33.709922 
" clip-path="url(#p8bdc6636f3)" style="fill: none; stroke: #b0b0b0; stroke-opacity: 0.25; stroke-width: 0.8; stroke-linecap: square"/>
     </g>
     <g id="line2d_28">
      <g>
       <use xlink:href="#m48c4980e81" x="58.846094" y="33.709922" style="stroke: #000000; stroke-width: 0.8"/>
      </g>
     </g>
     <g id="text_20">
      <!-- 0.75 -->
      <g transform="translate(29.580469 37.50875) scale(0.1 -0.1)">
       <use xlink:href="#DejaVuSans-13"/>
       <use xlink:href="#DejaVuSans-11" transform="translate(63.625 0)"/>
       <use xlink:href="#DejaVuSans-1a" transform="translate(95.40625 0)"/>
       <use xlink:href="#DejaVuSans-18" transform="translate(159.03125 0)"/>
      </g>
     </g>
    </g>
    <g id="ytick_9">
     <g id="line2d_29">
      <path d="M 58.846094 10.998828 
L 488.96375 10.998828 
" clip-path="url(#p8bdc6636f3)" style="fill: none; stroke: #b0b0b0; stroke-opacity: 0.25; stroke-width: 0.8; stroke-linecap: square"/>
     </g>
     <g id="line2d_30">
      <g>
       <use xlink:href="#m48c4980e81" x="58.846094" y="10.998828" style="stroke: #000000; stroke-width: 0.8"/>
      </g>
     </g>
     <g id="text_21">
      <!-- 1.00 -->
      <g transform="translate(29.580469 14.797656) scale(0.1 -0.1)">
       <use xlink:href="#DejaVuSans-14"/>
       <use xlink:href="#DejaVuSans-11" transform="translate(63.625 0)"/>
       <use xlink:href="#DejaVuSans-13" transform="translate(95.40625 0)"/>
       <use xlink:href="#DejaVuSans-13" transform="translate(159.03125 0)"/>
      </g>
     </g>
    </g>
    <g id="text_22">
     <!-- mean Spearman vs reference -->
     <g transform="translate(14.798438 174.880852) rotate(-90) scale(0.1 -0.1)">
      <defs>
       <path id="DejaVuSans-3" transform="scale(0.015625)"/>
       <path id="DejaVuSans-36" d="M 3425 4513 
L 3425 3897 
Q 3066 4069 2747 4153 
Q 2428 4238 2131 4238 
Q 1616 4238 1336 4038 
Q 1056 3838 1056 3469 
Q 1056 3159 1242 3001 
Q 1428 2844 1947 2747 
L 2328 2669 
Q 3034 2534 3370 2195 
Q 3706 1856 3706 1288 
Q 3706 609 3251 259 
Q 2797 -91 1919 -91 
Q 1588 -91 1214 -16 
Q 841 59 441 206 
L 441 856 
Q 825 641 1194 531 
Q 1563 422 1919 422 
Q 2459 422 2753 634 
Q 3047 847 3047 1241 
Q 3047 1584 2836 1778 
Q 2625 1972 2144 2069 
L 1759 2144 
Q 1053 2284 737 2584 
Q 422 2884 422 3419 
Q 422 4038 858 4394 
Q 1294 4750 2059 4750 
Q 2388 4750 2728 4690 
Q 3069 4631 3425 4513 
z
" transform="scale(0.015625)"/>
       <path id="DejaVuSans-59" d="M 191 3500 
L 800 3500 
L 1894 563 
L 2988 3500 
L 3597 3500 
L 2284 0 
L 1503 0 
L 191 3500 
z
" transform="scale(0.015625)"/>
       <path id="DejaVuSans-46" d="M 3122 3366 
L 3122 2828 
Q 2878 2963 2633 3030 
Q 2388 3097 2138 3097 
Q 1578 3097 1268 2742 
Q 959 2388 959 1747 
Q 959 1106 1268 751 
Q 1578 397 2138 397 
Q 2388 397 2633 464 
Q 2878 531 3122 666 
L 3122 134 
Q 2881 22 2623 -34 
Q 2366 -91 2075 -91 
Q 1284 -91 818 406 
Q 353 903 353 1747 
Q 353 2603 823 3093 
Q 1294 3584 2113 3584 
Q 2378 3584 2631 3529 
Q 2884 3475 3122 3366 
z
" transform="scale(0.015625)"/>
      </defs>
      <use xlink:href="#DejaVuSans-50"/>
      <use xlink:href="#DejaVuSans-48" transform="translate(97.40625 0)"/>
      <use xlink:href="#DejaVuSans-44" transform="translate(158.9375 0)"/>
      <use xlink:href="#DejaVuSans-51" transform="translate(220.21875 0)"/>
      <use xlink:href="#DejaVuSans-3" transform="translate(283.59375 0)"/>
      <use xlink:href="#DejaVuSans-36" transform="translate(315.375 0)"/>
      <use xlink:href="#DejaVuSans-53" transform="translate(378.859375 0)"/>
      <use xlink:href="#DejaVuSans-48" transform="translate(442.34375 0)"/>
      <use xlink:href="#DejaVuSans-44" transform="translate(503.875 0)"/>
      <use xlink:href="#DejaVuSans-55" transform="translate(565.15625 0)"/>
      <use xlink:href="#DejaVuSans-50" transform="translate(604.515625 0)"/>
      <use xlink:href="#DejaVuSans-44" transform="translate(701.921875 0)"/>
      <use xlink:href="#DejaVuSans-51" transform="translate(763.203125 0)"/>
      <use xlink:href="#DejaVuSans-3" transform="translate(826.578125 0)"/>
      <use xlink:href="#DejaVuSans-59" transform="translate(858.359375 0)"/>
      <use xlink:href="#DejaVuSans-56" transform="translate(917.546875 0)"/>
      <use xlink:href="#DejaVuSans-3" transform="translate(969.640625 0)"/>
      <use xlink:href="#DejaVuSans-55" transform="translate(1001.421875 0)"/>
      <use xlink:href="#DejaVuSans-48" transform="translate(1040.328125 0)"/>
      <use xlink:href="#DejaVuSans-49" transform="translate(1101.859375 0)"/>
      <use xlink:href="#DejaVuSans-48" transform="translate(1137.0625 0)"/>
      <use xlink:href="#DejaVuSans-55" transform="translate(1198.59375 0)"/>
      <use xlink:href="#DejaVuSans-48" transform="translate(1237.5 0)"/>
      <use xlink:href="#DejaVuSans-51" transform="translate(1299.03125 0)"/>
      <use xlink:href="#DejaVuSans-46" transform="translate(1362.40625 0)"/>
      <use xlink:href="#DejaVuSans-48" transform="translate(1417.390625 0)"/>
     </g>
    </g>
   </g>
   <g id="patch_15">
    <path d="M 58.846094 192.687576 
L 58.846094 9.181941 
" style="fill: none; stroke: #000000; stroke-width: 0.8; stroke-linejoin: miter; stroke-linecap: square"/>
   </g>
   <g id="patch_16">
    <path d="M 488.96375 192.687576 
L 488.96375 9.181941 
" style="fill: none; stroke: #000000; stroke-width: 0.8; stroke-linejoin: miter; stroke-linecap: square"/>
   </g>
   <g id="patch_17">
    <path d="M 58.846094 192.687576 
L 488.96375 192.687576 
" style="fill: none; stroke: #000000; stroke-width: 0.8; stroke-linejoin: miter; stroke-linecap: square"/>
   </g>
   <g id="patch_18">
    <path d="M 58.846094 9.181941 
L 488.96375 9.181941 
" style="fill: none; stroke: #000000; stroke-width: 0.8; stroke-linejoin: miter; stroke-linecap: square"/>
   </g>
  </g>
 </g>
 <defs>
  <clipPath id="p8bdc6636f3">
   <rect x="58.846094" y="9.181941" width="430.117656" height="183.505636"/>
  </clipPath>
 </defs>
</svg>
