<?xml version="1.0" encoding="utf-8" standalone="no"?>
<!DOCTYPE svg PUBLIC "-//W3C//DTD SVG 1.1//EN"
  "http://www.w3.org/Graphics/SVG/1.1/DTD/svg11.dtd">
<svg xmlns:xlink="http://www.w3.org/1999/xlink" width="712.243437pt" height="280.558125pt" viewBox="0 0 712.243437 280.558125" xmlns="http://www.w3.org/2000/svg" version="1.1">
 <metadata>
  <rdf:RDF xmlns:dc="http://purl.org/dc/elements/1.1/" xmlns:cc="http://creativecommons.org/ns#" xmlns:rdf="http://www.w3.org/1999/02/22-rdf-syntax-ns#">
   <cc:Work>
    <dc:type rdf:resource="http://purl.org/dc/dcmitype/StillImage"/>
    <dc:format>image/svg+xml</dc:format>
    <dc:creator>
     <cc:Agent>
      <dc:title>param_importance_nlp.analysis.reporting</dc:title>
     </cc:Agent>
    </dc:creator>
   </cc:Work>
  </rdf:RDF>
 </metadata>
 <defs>
  <style type="text/css">*{stroke-linejoin: round; stroke-linecap: butt}</style>
 </defs>
 <g id="figure_1">
  <g id="patch_1">
   <path d="M 0 280.558125 
L 712.243437 280.558125 
L 712.243437 0 
L 0 0 
z
" style="fill: #ffffff"/>
  </g>
  <g id="axes_1">
   <g id="patch_2">
    <path d="M 40.925781 242.358125 
L 340.723437 242.358125 
L 340.723437 22.318125 
L 40.925781 22.318125 
z
" style="fill: #ffffff"/>
   </g>
   <g id="matplotlib.axis_1">
    <g id="xtick_1">
     <g id="line2d_1">
      <path d="M 54.552947 242.358125 
L 54.552947 22.318125 
" clip-path="url(#p87efa30827)" style="fill: none; stroke: #b0b0b0; stroke-opacity: 0.25; stroke-width: 0.8; stroke-linecap: square"/>
     </g>
     <g id="line2d_2">
      <defs>
       <path id="ma1647659f6" d="M 0 0 
L 0 3.5 
" style="stroke: #000000; stroke-width: 0.8"/>
      </defs>
      <g>
       <use xlink:href="#ma1647659f6" x="54.552947" y="242.358125" style="stroke: #000000; stroke-width: 0.8"/>
      </g>
     </g>
     <g id="text_1">
      <!-- 0 -->
      <g transform="translate(51.371697 256.955781) scale(0.1 -0.1)">
       <defs>
        <path id="DejaVuSans-13" d="M 2034 4250 
Q 1547 4250 1301 3770 
Q 1056 3291 1056 2328 
Q 1056 1369 1301 889 
Q 1547 409 2034 409 
Q 2525 409 2770 889 
Q 3016 1369 3016 2328 
Q 3016 3291 2770 3770 
Q 2525 4250 2034 4250 
z
M 2034 4750 
Q 2819 4750 3233 4129 
Q 3647 3509 3647 2328 
Q 3647 1150 3233 529 
Q 2819 -91 2034 -91 
Q 1250 -91 836 529 
Q 422 1150 422 2328 
Q 422 3509 836 4129 
Q 1250 4750 2034 4750 
z
" transform="scale(0.015625)"/>
       </defs>
       <use xlink:href="#DejaVuSans-13"/>
      </g>
     </g>
    </g>
    <g id="xtick_2">
     <g id="line2d_3">
      <path d="M 107.784065 242.358125 
L 107.784065 22.318125 
" clip-path="url(#p87efa30827)" style="fill: none; stroke: #b0b0b0; stroke-opacity: 0.25; stroke-width: 0.8; stroke-linecap: square"/>
     </g>
     <g id="line2d_4">
      <g>
       <use xlink:href="#ma1647659f6" x="107.784065" y="242.358125" style="stroke: #000000; stroke-width: 0.8"/>
      </g>
     </g>
     <g id="text_2">
      <!-- 100 -->
      <g transform="translate(98.240315 256.955781) scale(0.1 -0.1)">
       <defs>
        <path id="DejaVuSans-14" d="M 794 531 
L 1825 531 
L 1825 4091 
L 703 3866 
L 703 4441 
L 1819 4666 
L 2450 4666 
L 2450 531 
L 3481 531 
L 3481 0 
L 794 0 
L 794 531 
z
" transform="scale(0.015625)"/>
       </defs>
       <use xlink:href="#DejaVuSans-14"/>
       <use xlink:href="#DejaVuSans-13" transform="translate(63.625 0)"/>
       <use xlink:href="#DejaVuSans-13" transform="translate(127.25 0)"/>
      </g>
     </g>
    </g>
    <g id="xtick_3">
     <g id="line2d_5">
      <path d="M 161.015183 242.358125 
L 161.015183 22.318125 
" clip-path="url(#p87efa30827)" style="fill: none; stroke: #b0b0b0; stroke-opacity: 0.25; stroke-width: 0.8; stroke-linecap: square"/>
     </g>
     <g id="line2d_6">
      <g>
       <use xlink:href="#ma1647659f6" x="161.015183" y="242.358125" style="stroke: #000000; stroke-width: 0.8"/>
      </g>
     </g>
     <g id="text_3">
      <!-- 200 -->
      <g transform="translate(151.471433 256.955781) scale(0.1 -0.1)">
       <defs>
        <path id="DejaVuSans-15" d="M 1228 531 
L 3431 531 
L 3431 0 
L 469 0 
L 469 531 
Q 828 903 1448 1529 
Q 2069 2156 2228 2338 
Q 2531 2678 2651 2914 
Q 2772 3150 2772 3378 
Q 2772 3750 2511 3984 
Q 2250 4219 1831 4219 
Q 1534 4219 1204 4116 
Q 875 4013 500 3803 
L 500 4441 
Q 881 4594 1212 4672 
Q 1544 4750 1819 4750 
Q 2544 4750 2975 4387 
Q 3406 4025 3406 3419 
Q 3406 3131 3298 2873 
Q 3191 2616 2906 2266 
Q 2828 2175 2409 1742 
Q 1991 1309 1228 531 
z
" transform="scale(0.015625)"/>
       </defs>
       <use xlink:href="#DejaVuSans-15"/>
       <use xlink:href="#DejaVuSans-13" transform="translate(63.625 0)"/>
       <use xlink:href="#DejaVuSans-13" transform="translate(127.25 0)"/>
      </g>
     </g>
    </g>
    <g id="xtick_4">
     <g id="line2d_7">
      <path d="M 214.246301 242.358125 
L 214.246301 22.318125 
" clip-path="url(#p87efa30827)" style="fill: none; stroke: #b0b0b0; stroke-opacity: 0.25; stroke-width: 0.8; stroke-linecap: square"/>
     </g>
     <g id="line2d_8">
      <g>
       <use xlink:href="#ma1647659f6" x="214.246301" y="242.358125" style="stroke: #000000; stroke-width: 0.8"/>
      </g>
     </g>
     <g id="text_4">
      <!-- 300 -->
      <g transform="translate(204.702551 256.955781) scale(0.1 -0.1)">
       <defs>
        <path id="DejaVuSans-16" d="M 2597 2516 
Q 3050 2419 3304 2112 
Q 3559 1806 3559 1356 
Q 3559 666 3084 287 
Q 2609 -91 1734 -91 
Q 1441 -91 1130 -33 
Q 819 25 488 141 
L 488 750 
Q 750 597 1062 519 
Q 1375 441 1716 441 
Q 2309 441 2620 675 
Q 2931 909 2931 1356 
Q 2931 1769 2642 2001 
Q 2353 2234 1838 2234 
L 1294 2234 
L 1294 2753 
L 1863 2753 
Q 2328 2753 2575 2939 
Q 2822 3125 2822 3475 
Q 2822 3834 2567 4026 
Q 2313 4219 1838 4219 
Q 1578 4219 1281 4162 
Q 984 4106 628 3988 
L 628 4550 
Q 988 4650 1302 4700 
Q 1616 4750 1894 4750 
Q 2613 4750 3031 4423 
Q 3450 4097 3450 3541 
Q 3450 3153 3228 2886 
Q 3006 2619 2597 2516 
z
" transform="scale(0.015625)"/>
       </defs>
       <use xlink:href="#DejaVuSans-16"/>
       <use xlink:href="#DejaVuSans-13" transform="translate(63.625 0)"/>
       <use xlink:href="#DejaVuSans-13" transform="translate(127.25 0)"/>
      </g>
     </g>
    </g>
    <g id="xtick_5">
     <g id="line2d_9">
      <path d="M 267.477419 242.358125 
L 267.477419 22.318125 
" clip-path="url(#p87efa30827)" style="fill: none; stroke: #b0b0b0; stroke-opacity: 0.25; stroke-width: 0.8; stroke-linecap: square"/>
     </g>
     <g id="line2d_10">
      <g>
       <use xlink:href="#ma1647659f6" x="267.477419" y="242.358125" style="stroke: #000000; stroke-width: 0.8"/>
      </g>
     </g>
     <g id="text_5">
      <!-- 400 -->
      <g transform="translate(257.933669 256.955781) scale(0.1 -0.1)">
       <defs>
        <path id="DejaVuSans-17" d="M 2419 4116 
L 825 1625 
L 2419 1625 
L 2419 4116 
z
M 2253 4666 
L 3047 4666 
L 3047 1625 
L 3713 1625 
L 3713 1100 
L 3047 1100 
L 3047 0 
L 2419 0 
L 2419 1100 
L 313 1100 
L 313 1709 
L 2253 4666 
z
" transform="scale(0.015625)"/>
       </defs>
       <use xlink:href="#DejaVuSans-17"/>
       <use xlink:href="#DejaVuSans-13" transform="translate(63.625 0)"/>
       <use xlink:href="#DejaVuSans-13" transform="translate(127.25 0)"/>
      </g>
     </g>
    </g>
    <g id="xtick_6">
     <g id="line2d_11">
      <path d="M 320.708537 242.358125 
L 320.708537 22.318125 
" clip-path="url(#p87efa30827)" style="fill: none; stroke: #b0b0b0; stroke-opacity: 0.25; stroke-width: 0.8; stroke-linecap: square"/>
     </g>
     <g id="line2d_12">
      <g>
       <use xlink:href="#ma1647659f6" x="320.708537" y="242.358125" style="stroke: #000000; stroke-width: 0.8"/>
      </g>
     </g>
     <g id="text_6">
      <!-- 500 -->
      <g transform="translate(311.164787 256.955781) scale(0.1 -0.1)">
       <defs>
        <path id="DejaVuSans-18" d="M 691 4666 
L 3169 4666 
L 3169 4134 
L 1269 4134 
L 1269 2991 
Q 1406 3038 1543 3061 
Q 1681 3084 1819 3084 
Q 2600 3084 3056 2656 
Q 3513 2228 3513 1497 
Q 3513 744 3044 326 
Q 2575 -91 1722 -91 
Q 1428 -91 1123 -41 
Q 819 9 494 109 
L 494 744 
Q 775 591 1075 516 
Q 1375 441 1709 441 
Q 2250 441 2565 725 
Q 2881 1009 2881 1497 
Q 2881 1984 2565 2268 
Q 2250 2553 1709 2553 
Q 1456 2553 1204 2497 
Q 953 2441 691 2322 
L 691 4666 
z
" transform="scale(0.015625)"/>
       </defs>
       <use xlink:href="#DejaVuSans-18"/>
       <use xlink:href="#DejaVuSans-13" transform="translate(63.625 0)"/>
       <use xlink:href="#DejaVuSans-13" transform="translate(127.25 0)"/>
      </g>
     </g>
    </g>
    <g id="text_7">
     <!-- step -->
     <g transform="translate(180.008984 270.955781) scale(0.1 -0.1)">
      <defs>
       <path id="DejaVuSans-56" d="M 2834 3397 
L 2834 2853 
Q 2591 2978 2328 3040 
Q 2066 3103 1784 3103 
Q 1356 3103 1142 2972 
Q 928 2841 928 2578 
Q 928 2378 1081 2264 
Q 1234 2150 1697 2047 
L 1894 2003 
Q 2506 1872 2764 1633 
Q 3022 1394 3022 966 
Q 3022 478 2636 193 
Q 2250 -91 1575 -91 
Q 1294 -91 989 -36 
Q 684 19 347 128 
L 347 722 
Q 666 556 975 473 
Q 1284 391 1588 391 
Q 1994 391 2212 530 
Q 2431 669 2431 922 
Q 2431 1156 2273 1281 
Q 2116 1406 1581 1522 
L 1381 1569 
Q 847 1681 609 1914 
Q 372 2147 372 2553 
Q 372 3047 722 3315 
Q 1072 3584 1716 3584 
Q 2034 3584 2315 3537 
Q 2597 3491 2834 3397 
z
" transform="scale(0.015625)"/>
       <path id="DejaVuSans-57" d="M 1172 4494 
L 1172 3500 
L 2356 3500 
L 2356 3053 
L 1172 3053 
L 1172 1153 
Q 1172 725 1289 603 
Q 1406 481 1766 481 
L 2356 481 
L 2356 0 
L 1766 0 
Q 1100 0 847 248 
Q 594 497 594 1153 
L 594 3053 
L 172 3053 
L 172 3500 
L 594 3500 
L 594 4494 
L 1172 4494 
z
" transform="scale(0.015625)"/>
       <path id="DejaVuSans-48" d="M 3597 1894 
L 3597 1613 
L 953 1613 
Q 991 1019 1311 708 
Q 1631 397 2203 397 
Q 2534 397 2845 478 
Q 3156 559 3463 722 
L 3463 178 
Q 3153 47 2828 -22 
Q 2503 -91 2169 -91 
Q 1331 -91 842 396 
Q 353 884 353 1716 
Q 353 2575 817 3079 
Q 1281 3584 2069 3584 
Q 2775 3584 3186 3129 
Q 3597 2675 3597 1894 
z
M 3022 2063 
Q 3016 2534 2758 2815 
Q 2500 3097 2075 3097 
Q 1594 3097 1305 2825 
Q 1016 2553 972 2059 
L 3022 2063 
z
" transform="scale(0.015625)"/>
       <path id="DejaVuSans-53" d="M 1159 525 
L 1159 -1331 
L 581 -1331 
L 581 3500 
L 1159 3500 
L 1159 2969 
Q 1341 3281 1617 3432 
Q 1894 3584 2278 3584 
Q 2916 3584 3314 3078 
Q 3713 2572 3713 1747 
Q 3713 922 3314 415 
Q 2916 -91 2278 -91 
Q 1894 -91 1617 61 
Q 1341 213 1159 525 
z
M 3116 1747 
Q 3116 2381 2855 2742 
Q 2594 3103 2138 3103 
Q 1681 3103 1420 2742 
Q 1159 2381 1159 1747 
Q 1159 1113 1420 752 
Q 1681 391 2138 391 
Q 2594 391 2855 752 
Q 3116 1113 3116 1747 
z
" transform="scale(0.015625)"/>
      </defs>
      <use xlink:href="#DejaVuSans-56"/>
      <use xlink:href="#DejaVuSans-57" transform="translate(52.09375 0)"/>
      <use xlink:href="#DejaVuSans-48" transform="translate(91.296875 0)"/>
      <use xlink:href="#DejaVuSans-53" transform="translate(152.828125 0)"/>
     </g>
    </g>
   </g>
   <g id="matplotlib.axis_2">
    <g id="ytick_1">
     <g id="line2d_13">
      <path d="M 40.925781 215.327852 
L 340.723437 215.327852 
" clip-path="url(#p87efa30827)" style="fill: none; stroke: #b0b0b0; stroke-opacity: 0.25; stroke-width: 0.8; stroke-linecap: square"/>
     </g>
     <g id="line2d_14">
      <defs>
       <path id="m48c4980e81" d="M 0 0 
L -3.5 0 
" style="stroke: #000000; stroke-width: 0.8"/>
      </defs>
      <g>
       <use xlink:href="#m48c4980e81" x="40.925781" y="215.327852" style="stroke: #000000; stroke-width: 0.8"/>
      </g>
     </g>
     <g id="text_8">
      <!-- 5 -->
      <g transform="translate(27.563281 219.12668) scale(0.1 -0.1)">
       <use xlink:href="#DejaVuSans-18"/>
      </g>
     </g>
    </g>
    <g id="ytick_2">
     <g id="line2d_15">
      <path d="M 40.925781 185.129214 
L 340.723437 185.129214 
" clip-path="url(#p87efa30827)" style="fill: none; stroke: #b0b0b0; stroke-opacity: 0.25; stroke-width: 0.8; stroke-linecap: square"/>
     </g>
     <g id="line2d_16">
      <g>
       <use xlink:href="#m48c4980e81" x="40.925781" y="185.129214" style="stroke: #000000; stroke-width: 0.8"/>
      </g>
     </g>
     <g id="text_9">
      <!-- 6 -->
      <g transform="translate(27.563281 188.928042) scale(0.1 -0.1)">
       <defs>
        <path id="DejaVuSans-19" d="M 2113 2584 
Q 1688 2584 1439 2293 
Q 1191 2003 1191 1497 
Q 1191 994 1439 701 
Q 1688 409 2113 409 
Q 2538 409 2786 701 
Q 3034 994 3034 1497 
Q 3034 2003 2786 2293 
Q 2538 2584 2113 2584 
z
M 3366 4563 
L 3366 3988 
Q 3128 4100 2886 4159 
Q 2644 4219 2406 4219 
Q 1781 4219 1451 3797 
Q 1122 3375 1075 2522 
Q 1259 2794 1537 2939 
Q 1816 3084 2150 3084 
Q 2853 3084 3261 2657 
Q 3669 2231 3669 1497 
Q 3669 778 3244 343 
Q 2819 -91 2113 -91 
Q 1303 -91 875 529 
Q 447 1150 447 2328 
Q 447 3434 972 4092 
Q 1497 4750 2381 4750 
Q 2619 4750 2861 4703 
Q 3103 4656 3366 4563 
z
" transform="scale(0.015625)"/>
       </defs>
       <use xlink:href="#DejaVuSans-19"/>
      </g>
     </g>
    </g>
    <g id="ytick_3">
     <g id="line2d_17">
      <path d="M 40.925781 154.930575 
L 340.723437 154.930575 
" clip-path="url(#p87efa30827)" style="fill: none; stroke: #b0b0b0; stroke-opacity: 0.25; stroke-width: 0.8; stroke-linecap: square"/>
     </g>
     <g id="line2d_18">
      <g>
       <use xlink:href="#m48c4980e81" x="40.925781" y="154.930575" style="stroke: #000000; stroke-width: 0.8"/>
      </g>
     </g>
     <g id="text_10">
      <!-- 7 -->
      <g transform="translate(27.563281 158.729404) scale(0.1 -0.1)">
       <defs>
        <path id="DejaVuSans-1a" d="M 525 4666 
L 3525 4666 
L 3525 4397 
L 1831 0 
L 1172 0 
L 2766 4134 
L 525 4134 
L 525 4666 
z
" transform="scale(0.015625)"/>
       </defs>
       <use xlink:href="#DejaVuSans-1a"/>
      </g>
     </g>
    </g>
    <g id="ytick_4">
     <g id="line2d_19">
      <path d="M 40.925781 124.731937 
L 340.723437 124.731937 
" clip-path="url(#p87efa30827)" style="fill: none; stroke: #b0b0b0; stroke-opacity: 0.25; stroke-width: 0.8; stroke-linecap: square"/>
     </g>
     <g id="line2d_20">
      <g>
       <use xlink:href="#m48c4980e81" x="40.925781" y="124.731937" style="stroke: #000000; stroke-width: 0.8"/>
      </g>
     </g>
     <g id="text_11">
      <!-- 8 -->
      <g transform="translate(27.563281 128.530765) scale(0.1 -0.1)">
       <defs>
        <path id="DejaVuSans-1b" d="M 2034 2216 
Q 1584 2216 1326 1975 
Q 1069 1734 1069 1313 
Q 1069 891 1326 650 
Q 1584 409 2034 409 
Q 2484 409 2743 651 
Q 3003 894 3003 1313 
Q 3003 1734 2745 1975 
Q 2488 2216 2034 2216 
z
M 1403 2484 
Q 997 2584 770 2862 
Q 544 3141 544 3541 
Q 544 4100 942 4425 
Q 1341 4750 2034 4750 
Q 2731 4750 3128 4425 
Q 3525 4100 3525 3541 
Q 3525 3141 3298 2862 
Q 3072 2584 2669 2484 
Q 3125 2378 3379 2068 
Q 3634 1759 3634 1313 
Q 3634 634 3220 271 
Q 2806 -91 2034 -91 
Q 1263 -91 848 271 
Q 434 634 434 1313 
Q 434 1759 690 2068 
Q 947 2378 1403 2484 
z
M 1172 3481 
Q 1172 3119 1398 2916 
Q 1625 2713 2034 2713 
Q 2441 2713 2670 2916 
Q 2900 3119 2900 3481 
Q 2900 3844 2670 4047 
Q 2441 4250 2034 4250 
Q 1625 4250 1398 4047 
Q 1172 3844 1172 3481 
z
" transform="scale(0.015625)"/>
       </defs>
       <use xlink:href="#DejaVuSans-1b"/>
      </g>
     </g>
    </g>
    <g id="ytick_5">
     <g id="line2d_21">
      <path d="M 40.925781 94.533299 
L 340.723437 94.533299 
" clip-path="url(#p87efa30827)" style="fill: none; stroke: #b0b0b0; stroke-opacity: 0.25; stroke-width: 0.8; stroke-linecap: square"/>
     </g>
     <g id="line2d_22">
      <g>
       <use xlink:href="#m48c4980e81" x="40.925781" y="94.533299" style="stroke: #000000; stroke-width: 0.8"/>
      </g>
     </g>
     <g id="text_12">
      <!-- 9 -->
      <g transform="translate(27.563281 98.332127) scale(0.1 -0.1)">
       <defs>
        <path id="DejaVuSans-1c" d="M 703 97 
L 703 672 
Q 941 559 1184 500 
Q 1428 441 1663 441 
Q 2288 441 2617 861 
Q 2947 1281 2994 2138 
Q 2813 1869 2534 1725 
Q 2256 1581 1919 1581 
Q 1219 1581 811 2004 
Q 403 2428 403 3163 
Q 403 3881 828 4315 
Q 1253 4750 1959 4750 
Q 2769 4750 3195 4129 
Q 3622 3509 3622 2328 
Q 3622 1225 3098 567 
Q 2575 -91 1691 -91 
Q 1453 -91 1209 -44 
Q 966 3 703 97 
z
M 1959 2075 
Q 2384 2075 2632 2365 
Q 2881 2656 2881 3163 
Q 2881 3666 2632 3958 
Q 2384 4250 1959 4250 
Q 1534 4250 1286 3958 
Q 1038 3666 1038 3163 
Q 1038 2656 1286 2365 
Q 1534 2075 1959 2075 
z
" transform="scale(0.015625)"/>
       </defs>
       <use xlink:href="#DejaVuSans-1c"/>
      </g>
     </g>
    </g>
    <g id="ytick_6">
     <g id="line2d_23">
      <path d="M 40.925781 64.334661 
L 340.723437 64.334661 
" clip-path="url(#p87efa30827)" style="fill: none; stroke: #b0b0b0; stroke-opacity: 0.25; stroke-width: 0.8; stroke-linecap: square"/>
     </g>
     <g id="line2d_24">
      <g>
       <use xlink:href="#m48c4980e81" x="40.925781" y="64.334661" style="stroke: #000000; stroke-width: 0.8"/>
      </g>
     </g>
     <g id="text_13">
      <!-- 10 -->
      <g transform="translate(21.200781 68.133489) scale(0.1 -0.1)">
       <use xlink:href="#DejaVuSans-14"/>
       <use xlink:href="#DejaVuSans-13" transform="translate(63.625 0)"/>
      </g>
     </g>
    </g>
    <g id="ytick_7">
     <g id="line2d_25">
      <path d="M 40.925781 34.136023 
L 340.723437 34.136023 
" clip-path="url(#p87efa30827)" style="fill: none; stroke: #b0b0b0; stroke-opacity: 0.25; stroke-width: 0.8; stroke-linecap: square"/>
     </g>
     <g id="line2d_26">
      <g>
       <use xlink:href="#m48c4980e81" x="40.925781" y="34.136023" style="stroke: #000000; stroke-width: 0.8"/>
      </g>
     </g>
     <g id="text_14">
      <!-- 11 -->
      <g transform="translate(21.200781 37.934851) scale(0.1 -0.1)">
       <use xlink:href="#DejaVuSans-14"/>
       <use xlink:href="#DejaVuSans-14" transform="translate(63.625 0)"/>
      </g>
     </g>
    </g>
    <g id="text_15">
     <!-- loss -->
     <g transform="translate(14.798437 141.995937) rotate(-90) scale(0.1 -0.1)">
      <defs>
       <path id="DejaVuSans-4f" d="M 603 4863 
L 1178 4863 
L 1178 0 
L 603 0 
L 603 4863 
z
" transform="scale(0.015625)"/>
       <path id="DejaVuSans-52" d="M 1959 3097 
Q 1497 3097 1228 2736 
Q 959 2375 959 1747 
Q 959 1119 1226 758 
Q 1494 397 1959 397 
Q 2419 397 2687 759 
Q 2956 1122 2956 1747 
Q 2956 2369 2687 2733 
Q 2419 3097 1959 3097 
z
M 1959 3584 
Q 2709 3584 3137 3096 
Q 3566 2609 3566 1747 
Q 3566 888 3137 398 
Q 2709 -91 1959 -91 
Q 1206 -91 779 398 
Q 353 888 353 1747 
Q 353 2609 779 3096 
Q 1206 3584 1959 3584 
z
" transform="scale(0.015625)"/>
      </defs>
      <use xlink:href="#DejaVuSans-4f"/>
      <use xlink:href="#DejaVuSans-52" transform="translate(27.78125 0)"/>
      <use xlink:href="#DejaVuSans-56" transform="translate(88.96875 0)"/>
      <use xlink:href="#DejaVuSans-56" transform="translate(141.0625 0)"/>
     </g>
    </g>
   </g>
   <g id="line2d_27">
    <path d="M 56.149881 71.734383 
L 57.214503 84.511518 
L 58.279126 103.65622 
L 59.343748 117.767134 
L 59.876059 122.677956 
L 60.40837 126.250438 
L 60.940682 127.458191 
L 61.472993 126.744385 
L 62.005304 127.805053 
L 62.537615 129.306983 
L 63.602237 131.409704 
L 64.134549 132.818608 
L 64.66686 134.752421 
L 65.199171 135.32096 
L 65.731482 136.625016 
L 66.263793 136.30939 
L 66.796105 138.406623 
L 68.393038 141.276601 
L 68.925349 142.809585 
L 69.45766 142.907179 
L 69.989972 143.287918 
L 70.522283 144.22843 
L 71.054594 143.935362 
L 72.651528 147.481523 
L 73.183839 147.177554 
L 73.71615 145.632 
L 74.248461 147.975561 
L 74.780772 148.207352 
L 75.313083 148.993154 
L 75.845395 147.846059 
L 76.377706 150.594577 
L 76.910017 150.531842 
L 77.442328 151.311705 
L 77.974639 151.860469 
L 78.506951 150.979258 
L 79.571573 152.880564 
L 80.103884 153.09706 
L 80.636195 154.439133 
L 81.168506 154.410696 
L 81.700818 155.56197 
L 82.233129 155.122389 
L 83.830062 158.28856 
L 84.362373 158.895199 
L 84.894685 158.926313 
L 85.426996 158.590065 
L 85.959307 159.68588 
L 86.491618 160.472842 
L 87.023929 160.865564 
L 87.556241 162.052719 
L 88.088552 161.940332 
L 89.153174 163.00432 
L 90.217796 166.697894 
L 90.750108 165.496268 
L 91.282419 165.620059 
L 91.81473 167.388066 
L 92.347041 167.33577 
L 92.879352 167.503994 
L 95.008597 170.265708 
L 95.540908 171.907819 
L 96.073219 171.461959 
L 96.605531 171.980207 
L 97.137842 173.165425 
L 97.670153 172.422229 
L 98.202464 174.381747 
L 98.734775 175.178742 
L 99.267087 174.918199 
L 99.799398 175.216862 
L 100.331709 175.709167 
L 100.86402 177.013091 
L 101.928642 177.122036 
L 102.460954 178.128914 
L 102.993265 177.560429 
L 103.525576 178.256303 
L 104.057887 178.303662 
L 104.590198 178.661752 
L 105.122509 178.598957 
L 105.654821 180.462564 
L 106.187132 180.95177 
L 106.719443 180.391284 
L 107.784065 181.60078 
L 108.316377 183.573999 
L 108.848688 182.983562 
L 109.380999 183.112499 
L 109.91331 182.829838 
L 110.445621 183.938467 
L 110.977932 184.481044 
L 111.510244 184.740635 
L 112.042555 184.36387 
L 112.574866 185.352297 
L 113.107177 184.800097 
L 113.639488 183.251343 
L 114.1718 185.345647 
L 114.704111 183.567248 
L 115.236422 185.501832 
L 115.768733 185.543479 
L 116.301044 187.428077 
L 116.833355 185.898772 
L 117.365667 188.270678 
L 117.897978 187.633871 
L 118.430289 188.356423 
L 118.9626 188.542512 
L 119.494911 189.879532 
L 120.027223 189.551297 
L 120.559534 189.038406 
L 121.091845 189.509065 
L 121.624156 190.56391 
L 122.156467 190.460096 
L 123.753401 190.619375 
L 124.285712 191.573946 
L 124.818023 191.342881 
L 125.350334 190.837857 
L 125.882645 192.370195 
L 126.414957 192.223539 
L 126.947268 192.836975 
L 127.479579 192.400822 
L 128.01189 194.046907 
L 128.544201 194.175472 
L 129.076513 193.327606 
L 129.608824 193.528207 
L 130.141135 193.256438 
L 130.673446 194.390174 
L 131.205757 193.775208 
L 131.738068 194.641605 
L 132.27038 194.582062 
L 133.335002 195.935671 
L 133.867313 196.809857 
L 134.399624 196.245917 
L 134.931936 197.658274 
L 135.464247 197.647118 
L 135.996558 196.663358 
L 136.528869 197.68957 
L 137.06118 196.044091 
L 137.593491 196.853132 
L 138.125803 198.077884 
L 138.658114 196.794422 
L 139.190425 198.987816 
L 139.722736 197.665955 
L 140.255047 197.659894 
L 140.787359 198.135906 
L 141.31967 199.177555 
L 142.384292 200.124145 
L 142.916603 200.094199 
L 143.448914 199.787992 
L 143.981226 199.884832 
L 144.513537 200.986093 
L 145.045848 200.184867 
L 145.578159 201.174636 
L 146.642781 201.018713 
L 147.175093 201.835961 
L 147.707404 200.871389 
L 148.239715 201.831241 
L 148.772026 202.448383 
L 149.304337 202.863732 
L 149.836649 202.966391 
L 150.901271 201.747147 
L 151.433582 203.388645 
L 151.965893 202.639281 
L 152.498204 203.034908 
L 153.030516 204.346181 
L 153.562827 202.003066 
L 154.095138 204.959449 
L 154.627449 203.888587 
L 155.15976 204.09151 
L 155.692072 204.648055 
L 156.224383 204.726699 
L 157.289005 204.612097 
L 157.821316 205.306658 
L 158.353627 205.524016 
L 158.885939 205.397468 
L 159.41825 205.751492 
L 159.950561 206.298336 
L 160.482872 206.619731 
L 161.015183 205.591867 
L 161.547495 207.275525 
L 162.079806 207.674478 
L 162.612117 206.31463 
L 163.144428 207.69966 
L 163.676739 207.053736 
L 164.20905 207.439552 
L 164.741362 206.074131 
L 165.273673 206.150924 
L 165.805984 208.143344 
L 166.338295 207.848025 
L 166.870606 207.906146 
L 167.402917 207.672764 
L 167.935229 208.524054 
L 168.46754 207.604515 
L 168.999851 208.595163 
L 169.532162 208.541345 
L 170.064473 209.357599 
L 170.596785 209.236894 
L 171.129096 209.688683 
L 171.661407 208.485575 
L 172.193718 208.432454 
L 172.726029 209.348902 
L 173.25834 209.733531 
L 173.790652 209.924862 
L 174.322963 209.214645 
L 175.387585 211.229856 
L 175.919896 211.483791 
L 176.452208 211.471061 
L 176.984519 210.493339 
L 177.51683 210.523068 
L 178.049141 211.288527 
L 178.581452 210.47399 
L 179.113763 210.80944 
L 179.646075 211.507072 
L 180.178386 211.722594 
L 180.710697 212.895253 
L 181.243008 211.533162 
L 181.775319 213.052577 
L 182.307631 212.528701 
L 182.839942 212.805154 
L 183.904564 212.668203 
L 184.436875 213.418664 
L 184.969186 212.348183 
L 185.501498 211.935846 
L 186.033809 214.071797 
L 186.56612 213.311222 
L 187.098431 213.216989 
L 187.630742 212.804859 
L 188.163053 213.68951 
L 188.695365 214.133445 
L 189.227676 213.453639 
L 189.759987 215.677182 
L 190.292298 212.681716 
L 191.356921 215.708384 
L 191.889232 214.37188 
L 192.421543 215.189475 
L 192.953854 214.844528 
L 193.486165 214.953985 
L 194.018476 215.48539 
L 194.550788 214.935099 
L 195.083099 215.734123 
L 195.61541 214.58894 
L 196.147721 215.233728 
L 196.680032 215.064157 
L 197.212344 216.450663 
L 197.744655 215.126127 
L 198.276966 215.495194 
L 198.809277 216.532161 
L 199.341588 215.184617 
L 199.873899 217.444512 
L 200.406211 216.439008 
L 200.938522 216.521199 
L 202.003144 217.91174 
L 202.535455 216.203942 
L 203.067767 216.491784 
L 203.600078 217.71104 
L 204.132389 218.11102 
L 204.6647 217.967722 
L 205.197011 218.262263 
L 205.729322 218.758461 
L 206.261634 217.251598 
L 207.326256 218.945038 
L 207.858567 217.959435 
L 208.390878 218.216783 
L 208.923189 217.822041 
L 209.455501 218.76614 
L 209.987812 218.726853 
L 210.520123 219.146372 
L 211.052434 219.326758 
L 211.584745 217.820811 
L 212.117057 219.326826 
L 212.649368 218.544571 
L 213.181679 219.005862 
L 213.71399 218.708913 
L 214.246301 218.268023 
L 214.778612 218.689503 
L 215.310924 218.848424 
L 215.843235 219.869035 
L 216.375546 220.415555 
L 217.440168 220.96175 
L 217.97248 220.133899 
L 218.504791 220.286663 
L 219.037102 220.591549 
L 220.101724 219.01722 
L 220.634035 221.463601 
L 221.166347 220.70013 
L 221.698658 222.233095 
L 222.230969 220.729388 
L 222.76328 221.986953 
L 223.295591 221.187214 
L 223.827902 222.281248 
L 224.360214 221.463358 
L 225.424836 221.665684 
L 225.957147 221.961495 
L 226.489458 221.818748 
L 227.02177 221.547239 
L 227.554081 221.990704 
L 228.086392 221.81854 
L 228.618703 222.659307 
L 229.151014 222.741405 
L 229.683325 222.563798 
L 230.215637 222.545833 
L 230.747948 222.368872 
L 231.280259 222.788619 
L 231.81257 221.94068 
L 232.344881 223.606901 
L 233.409504 221.582359 
L 233.941815 223.127944 
L 234.474126 221.950474 
L 235.006437 223.338423 
L 235.538748 223.094976 
L 236.07106 222.263034 
L 236.603371 223.317971 
L 237.135682 222.89744 
L 237.667993 222.990176 
L 238.200304 224.104639 
L 238.732616 223.818007 
L 239.264927 223.72947 
L 239.797238 224.877984 
L 240.329549 223.744896 
L 241.394171 223.654138 
L 241.926483 225.072371 
L 242.458794 223.834166 
L 242.991105 223.641605 
L 243.523416 223.127381 
L 244.055727 224.42809 
L 244.588038 223.444048 
L 245.12035 225.081762 
L 245.652661 223.951139 
L 246.184972 225.402205 
L 246.717283 224.771818 
L 247.249594 226.727483 
L 247.781906 224.799748 
L 248.314217 224.723614 
L 248.846528 225.815994 
L 249.378839 225.498625 
L 249.91115 225.911611 
L 250.443461 224.793461 
L 250.975773 226.403867 
L 251.508084 225.361278 
L 252.040395 226.919025 
L 252.572706 226.211966 
L 253.105017 226.398561 
L 253.637329 227.205343 
L 254.16964 225.920158 
L 254.701951 226.128654 
L 255.234262 226.195418 
L 255.766573 226.391443 
L 256.298884 227.100965 
L 256.831196 226.171552 
L 257.363507 226.540896 
L 257.895818 226.43774 
L 258.428129 226.991256 
L 259.492752 226.854036 
L 260.025063 227.349339 
L 260.557374 226.457723 
L 261.089685 226.489722 
L 262.154307 227.109816 
L 263.21893 227.665374 
L 263.751241 226.784461 
L 264.283552 226.725659 
L 264.815863 227.676162 
L 265.348174 227.585297 
L 265.880486 227.361607 
L 266.412797 228.196228 
L 266.945108 227.591284 
L 267.477419 227.680446 
L 268.00973 226.768026 
L 268.542042 229.269438 
L 269.074353 227.453457 
L 269.606664 227.329953 
L 270.138975 228.93035 
L 270.671286 227.520838 
L 271.735909 228.704225 
L 272.26822 228.457547 
L 272.800531 228.462856 
L 273.332842 227.58769 
L 273.865153 228.424254 
L 274.397465 228.679326 
L 274.929776 227.978689 
L 275.462087 227.812947 
L 275.994398 228.982992 
L 276.526709 228.235747 
L 277.05902 229.611408 
L 277.591332 226.988142 
L 278.123643 229.331817 
L 278.655954 229.640955 
L 279.188265 229.532675 
L 279.720576 228.848575 
L 280.252888 229.43146 
L 280.785199 229.556155 
L 281.31751 228.955278 
L 281.849821 229.39721 
L 282.382132 230.3569 
L 282.914443 229.437359 
L 283.446755 229.0266 
L 283.979066 228.933984 
L 284.511377 230.150316 
L 285.043688 229.681759 
L 285.575999 230.326708 
L 286.10831 230.108539 
L 286.640622 229.152104 
L 287.705244 230.164166 
L 288.237555 231.359579 
L 288.769866 229.302684 
L 289.302178 229.869075 
L 289.834489 229.131805 
L 290.899111 231.164416 
L 291.431422 230.05379 
L 291.963733 230.941534 
L 292.496045 230.503433 
L 293.560667 229.975835 
L 294.092978 229.393962 
L 294.625289 230.44174 
L 295.157601 229.774996 
L 296.222223 229.627115 
L 296.754534 229.320607 
L 297.286845 230.509421 
L 297.819156 230.612317 
L 298.351468 230.008881 
L 298.883779 230.34164 
L 299.41609 230.849038 
L 299.948401 230.517189 
L 300.480712 231.215165 
L 301.013024 228.669888 
L 301.545335 231.030886 
L 302.077646 229.303524 
L 302.609957 229.97727 
L 303.142268 230.924505 
L 303.674579 230.49743 
L 304.739202 230.684006 
L 305.271513 230.230382 
L 305.803824 230.167017 
L 306.336135 232.356307 
L 306.868446 230.905462 
L 307.400758 231.173625 
L 307.933069 231.100623 
L 308.46538 231.206359 
L 308.997691 230.122413 
L 309.530002 231.737227 
L 310.062314 230.415445 
L 310.594625 230.230186 
L 311.126936 231.215359 
L 311.659247 230.545973 
L 312.723869 230.126289 
L 313.256181 230.49617 
L 313.788492 230.410458 
L 314.320803 229.094367 
L 314.853114 230.327735 
L 315.385425 230.926334 
L 315.917737 230.260006 
L 316.450048 230.997798 
L 317.51467 231.809686 
L 318.046981 230.76267 
L 318.579292 231.443083 
L 319.111604 231.459947 
L 319.643915 231.873108 
L 320.176226 231.333177 
L 320.708537 231.056758 
L 321.240848 229.651786 
L 321.77316 229.714879 
L 322.305471 230.378023 
L 322.837782 230.859161 
L 323.370093 230.649067 
L 323.902404 230.779034 
L 324.434715 231.680121 
L 324.967027 231.042471 
L 325.499338 229.878222 
L 326.031649 230.403173 
L 327.096271 230.853639 
L 327.096271 230.853639 
" clip-path="url(#p87efa30827)" style="fill: none; stroke: #1f77b4; stroke-width: 1.5; stroke-linecap: square"/>
   </g>
   <g id="line2d_28">
    <path d="M 54.552947 32.319943 
L 88.620863 126.407075 
L 122.688778 142.422356 
L 156.756694 151.62446 
L 190.824609 161.574399 
L 190.824609 161.574399 
L 224.892525 170.453244 
L 224.892525 170.453244 
L 258.96044 178.534082 
L 258.96044 178.534082 
L 293.028356 182.799716 
L 293.028356 182.799716 
L 327.096271 183.652198 
" clip-path="url(#p87efa30827)" style="fill: none; stroke: #ff7f0e; stroke-width: 1.5; stroke-linecap: square"/>
    <defs>
     <path id="m8504142a12" d="M 0 3 
C 0.795609 3 1.55874 2.683901 2.12132 2.12132 
C 2.683901 1.55874 3 0.795609 3 0 
C 3 -0.795609 2.683901 -1.55874 2.12132 -2.12132 
C 1.55874 -2.683901 0.795609 -3 0 -3 
C -0.795609 -3 -1.55874 -2.683901 -2.12132 -2.12132 
C -2.683901 -1.55874 -3 -0.795609 -3 0 
C -3 0.795609 -2.683901 1.55874 -2.12132 2.12132 
C -1.55874 2.683901 -0.795609 3 0 3 
z
" style="stroke: #ff7f0e"/>
    </defs>
    <g clip-path="url(#p87efa30827)">
     <use xlink:href="#m8504142a12" x="54.552947" y="32.319943" style="fill: #ff7f0e; stroke: #ff7f0e"/>
     <use xlink:href="#m8504142a12" x="88.620863" y="126.407075" style="fill: #ff7f0e; stroke: #ff7f0e"/>
     <use xlink:href="#m8504142a12" x="122.688778" y="142.422356" style="fill: #ff7f0e; stroke: #ff7f0e"/>
     <use xlink:href="#m8504142a12" x="156.756694" y="151.62446" style="fill: #ff7f0e; stroke: #ff7f0e"/>
     <use xlink:href="#m8504142a12" x="190.824609" y="161.574399" style="fill: #ff7f0e; stroke: #ff7f0e"/>
     <use xlink:href="#m8504142a12" x="190.824609" y="161.574399" style="fill: #ff7f0e; stroke: #ff7f0e"/>
     <use xlink:href="#m8504142a12" x="224.892525" y="170.453244" style="fill: #ff7f0e; stroke: #ff7f0e"/>
     <use xlink:href="#m8504142a12" x="224.892525" y="170.453244" style="fill: #ff7f0e; stroke: #ff7f0e"/>
     <use xlink:href="#m8504142a12" x="258.96044" y="178.534082" style="fill: #ff7f0e; stroke: #ff7f0e"/>
     <use xlink:href="#m8504142a12" x="258.96044" y="178.534082" style="fill: #ff7f0e; stroke: #ff7f0e"/>
     <use xlink:href="#m8504142a12" x="293.028356" y="182.799716" style="fill: #ff7f0e; stroke: #ff7f0e"/>
     <use xlink:href="#m8504142a12" x="293.028356" y="182.799716" style="fill: #ff7f0e; stroke: #ff7f0e"/>
     <use xlink:href="#m8504142a12" x="327.096271" y="183.652198" style="fill: #ff7f0e; stroke: #ff7f0e"/>
    </g>
   </g>
   <g id="patch_3">
    <path d="M 40.925781 242.358125 
L 40.925781 22.318125 
" style="fill: none; stroke: #000000; stroke-width: 0.8; stroke-linejoin: miter; stroke-linecap: square"/>
   </g>
   <g id="patch_4">
    <path d="M 340.723437 242.358125 
L 340.723437 22.318125 
" style="fill: none; stroke: #000000; stroke-width: 0.8; stroke-linejoin: miter; stroke-linecap: square"/>
   </g>
   <g id="patch_5">
    <path d="M 40.925781 242.358125 
L 340.723437 242.358125 
" style="fill: none; stroke: #000000; stroke-width: 0.8; stroke-linejoin: miter; stroke-linecap: square"/>
   </g>
   <g id="patch_6">
    <path d="M 40.925781 22.318125 
L 340.723437 22.318125 
" style="fill: none; stroke: #000000; stroke-width: 0.8; stroke-linejoin: miter; stroke-linecap: square"/>
   </g>
   <g id="text_16">
    <!-- Training health -->
    <g transform="translate(146.251172 16.318125) scale(0.12 -0.12)">
     <defs>
      <path id="DejaVuSans-37" d="M -19 4666 
L 3928 4666 
L 3928 4134 
L 2272 4134 
L 2272 0 
L 1638 0 
L 1638 4134 
L -19 4134 
L -19 4666 
z
" transform="scale(0.015625)"/>
      <path id="DejaVuSans-55" d="M 2631 2963 
Q 2534 3019 2420 3045 
Q 2306 3072 2169 3072 
Q 1681 3072 1420 2755 
Q 1159 2438 1159 1844 
L 1159 0 
L 581 0 
L 581 3500 
L 1159 3500 
L 1159 2956 
Q 1341 3275 1631 3429 
Q 1922 3584 2338 3584 
Q 2397 3584 2469 3576 
Q 2541 3569 2628 3553 
L 2631 2963 
z
" transform="scale(0.015625)"/>
      <path id="DejaVuSans-44" d="M 2194 1759 
Q 1497 1759 1228 1600 
Q 959 1441 959 1056 
Q 959 750 1161 570 
Q 1363 391 1709 391 
Q 2188 391 2477 730 
Q 2766 1069 2766 1631 
L 2766 1759 
L 2194 1759 
z
M 3341 1997 
L 3341 0 
L 2766 0 
L 2766 531 
Q 2569 213 2275 61 
Q 1981 -91 1556 -91 
Q 1019 -91 701 211 
Q 384 513 384 1019 
Q 384 1609 779 1909 
Q 1175 2209 1959 2209 
L 2766 2209 
L 2766 2266 
Q 2766 2663 2505 2880 
Q 2244 3097 1772 3097 
Q 1472 3097 1187 3025 
Q 903 2953 641 2809 
L 641 3341 
Q 956 3463 1253 3523 
Q 1550 3584 1831 3584 
Q 2591 3584 2966 3190 
Q 3341 2797 3341 1997 
z
" transform="scale(0.015625)"/>
      <path id="DejaVuSans-4c" d="M 603 3500 
L 1178 3500 
L 1178 0 
L 603 0 
L 603 3500 
z
M 603 4863 
L 1178 4863 
L 1178 4134 
L 603 4134 
L 603 4863 
z
" transform="scale(0.015625)"/>
      <path id="DejaVuSans-51" d="M 3513 2113 
L 3513 0 
L 2938 0 
L 2938 2094 
Q 2938 2591 2744 2837 
Q 2550 3084 2163 3084 
Q 1697 3084 1428 2787 
Q 1159 2491 1159 1978 
L 1159 0 
L 581 0 
L 581 3500 
L 1159 3500 
L 1159 2956 
Q 1366 3272 1645 3428 
Q 1925 3584 2291 3584 
Q 2894 3584 3203 3211 
Q 3513 2838 3513 2113 
z
" transform="scale(0.015625)"/>
      <path id="DejaVuSans-4a" d="M 2906 1791 
Q 2906 2416 2648 2759 
Q 2391 3103 1925 3103 
Q 1463 3103 1205 2759 
Q 947 2416 947 1791 
Q 947 1169 1205 825 
Q 1463 481 1925 481 
Q 2391 481 2648 825 
Q 2906 1169 2906 1791 
z
M 3481 434 
Q 3481 -459 3084 -895 
Q 2688 -1331 1869 -1331 
Q 1566 -1331 1297 -1286 
Q 1028 -1241 775 -1147 
L 775 -588 
Q 1028 -725 1275 -790 
Q 1522 -856 1778 -856 
Q 2344 -856 2625 -561 
Q 2906 -266 2906 331 
L 2906 616 
Q 2728 306 2450 153 
Q 2172 0 1784 0 
Q 1141 0 747 490 
Q 353 981 353 1791 
Q 353 2603 747 3093 
Q 1141 3584 1784 3584 
Q 2172 3584 2450 3431 
Q 2728 3278 2906 2969 
L 2906 3500 
L 3481 3500 
L 3481 434 
z
" transform="scale(0.015625)"/>
      <path id="DejaVuSans-3" transform="scale(0.015625)"/>
      <path id="DejaVuSans-4b" d="M 3513 2113 
L 3513 0 
L 2938 0 
L 2938 2094 
Q 2938 2591 2744 2837 
Q 2550 3084 2163 3084 
Q 1697 3084 1428 2787 
Q 1159 2491 1159 1978 
L 1159 0 
L 581 0 
L 581 4863 
L 1159 4863 
L 1159 2956 
Q 1366 3272 1645 3428 
Q 1925 3584 2291 3584 
Q 2894 3584 3203 3211 
Q 3513 2838 3513 2113 
z
" transform="scale(0.015625)"/>
     </defs>
     <use xlink:href="#DejaVuSans-37"/>
     <use xlink:href="#DejaVuSans-55" transform="translate(46.375 0)"/>
     <use xlink:href="#DejaVuSans-44" transform="translate(87.484375 0)"/>
     <use xlink:href="#DejaVuSans-4c" transform="translate(148.765625 0)"/>
     <use xlink:href="#DejaVuSans-51" transform="translate(176.546875 0)"/>
     <use xlink:href="#DejaVuSans-4c" transform="translate(239.921875 0)"/>
     <use xlink:href="#DejaVuSans-51" transform="translate(267.703125 0)"/>
     <use xlink:href="#DejaVuSans-4a" transform="translate(331.078125 0)"/>
     <use xlink:href="#DejaVuSans-3" transform="translate(394.5625 0)"/>
     <use xlink:href="#DejaVuSans-4b" transform="translate(426.34375 0)"/>
     <use xlink:href="#DejaVuSans-48" transform="translate(489.71875 0)"/>
     <use xlink:href="#DejaVuSans-44" transform="translate(551.25 0)"/>
     <use xlink:href="#DejaVuSans-4f" transform="translate(612.53125 0)"/>
     <use xlink:href="#DejaVuSans-57" transform="translate(640.3125 0)"/>
     <use xlink:href="#DejaVuSans-4b" transform="translate(679.515625 0)"/>
    </g>
   </g>
   <g id="legend_1">
    <g id="patch_7">
     <path d="M 252.489062 60.319687 
L 333.723437 60.319687 
Q 335.723437 60.319687 335.723437 58.319687 
L 335.723437 29.318125 
Q 335.723437 27.318125 333.723437 27.318125 
L 252.489062 27.318125 
Q 250.489062 27.318125 250.489062 29.318125 
L 250.489062 58.319687 
Q 250.489062 60.319687 252.489062 60.319687 
z
" style="fill: #ffffff; opacity: 0.8; stroke: #cccccc; stroke-linejoin: miter"/>
    </g>
    <g id="line2d_29">
     <path d="M 254.489062 35.416562 
L 264.489062 35.416562 
L 274.489062 35.416562 
" style="fill: none; stroke: #1f77b4; stroke-width: 1.5; stroke-linecap: square"/>
    </g>
    <g id="text_17">
     <!-- train -->
     <g transform="translate(282.489062 38.916562) scale(0.1 -0.1)">
      <use xlink:href="#DejaVuSans-57"/>
      <use xlink:href="#DejaVuSans-55" transform="translate(39.203125 0)"/>
      <use xlink:href="#DejaVuSans-44" transform="translate(80.3125 0)"/>
      <use xlink:href="#DejaVuSans-4c" transform="translate(141.59375 0)"/>
      <use xlink:href="#DejaVuSans-51" transform="translate(169.375 0)"/>
     </g>
    </g>
    <g id="line2d_30">
     <path d="M 254.489062 50.417344 
L 264.489062 50.417344 
L 274.489062 50.417344 
" style="fill: none; stroke: #ff7f0e; stroke-width: 1.5; stroke-linecap: square"/>
     <g>
      <use xlink:href="#m8504142a12" x="264.489062" y="50.417344" style="fill: #ff7f0e; stroke: #ff7f0e"/>
     </g>
    </g>
    <g id="text_18">
     <!-- validation -->
     <g transform="translate(282.489062 53.917344) scale(0.1 -0.1)">
      <defs>
       <path id="DejaVuSans-59" d="M 191 3500 
L 800 3500 
L 1894 563 
L 2988 3500 
L 3597 3500 
L 2284 0 
L 1503 0 
L 191 3500 
z
" transform="scale(0.015625)"/>
       <path id="DejaVuSans-47" d="M 2906 2969 
L 2906 4863 
L 3481 4863 
L 3481 0 
L 2906 0 
L 2906 525 
Q 2725 213 2448 61 
Q 2172 -91 1784 -91 
Q 1150 -91 751 415 
Q 353 922 353 1747 
Q 353 2572 751 3078 
Q 1150 3584 1784 3584 
Q 2172 3584 2448 3432 
Q 2725 3281 2906 2969 
z
M 947 1747 
Q 947 1113 1208 752 
Q 1469 391 1925 391 
Q 2381 391 2643 752 
Q 2906 1113 2906 1747 
Q 2906 2381 2643 2742 
Q 2381 3103 1925 3103 
Q 1469 3103 1208 2742 
Q 947 2381 947 1747 
z
" transform="scale(0.015625)"/>
      </defs>
      <use xlink:href="#DejaVuSans-59"/>
      <use xlink:href="#DejaVuSans-44" transform="translate(59.1875 0)"/>
      <use xlink:href="#DejaVuSans-4f" transform="translate(120.46875 0)"/>
      <use xlink:href="#DejaVuSans-4c" transform="translate(148.25 0)"/>
      <use xlink:href="#DejaVuSans-47" transform="translate(176.03125 0)"/>
      <use xlink:href="#DejaVuSans-44" transform="translate(239.515625 0)"/>
      <use xlink:href="#DejaVuSans-57" transform="translate(300.796875 0)"/>
      <use xlink:href="#DejaVuSans-4c" transform="translate(340 0)"/>
      <use xlink:href="#DejaVuSans-52" transform="translate(367.78125 0)"/>
      <use xlink:href="#DejaVuSans-51" transform="translate(428.96875 0)"/>
     </g>
    </g>
   </g>
  </g>
  <g id="axes_2">
   <g id="patch_8">
    <path d="M 405.245781 242.358125 
L 705.043437 242.358125 
L 705.043437 22.318125 
L 405.245781 22.318125 
z
" style="fill: #ffffff"/>
   </g>
   <g id="matplotlib.axis_3">
    <g id="xtick_7">
     <g id="line2d_31">
      <path d="M 418.872947 242.358125 
L 418.872947 22.318125 
" clip-path="url(#p8455dd9c73)" style="fill: none; stroke: #b0b0b0; stroke-opacity: 0.25; stroke-width: 0.8; stroke-linecap: square"/>
     </g>
     <g id="line2d_32">
      <g>
       <use xlink:href="#ma1647659f6" x="418.872947" y="242.358125" style="stroke: #000000; stroke-width: 0.8"/>
      </g>
     </g>
     <g id="text_19">
      <!-- 0 -->
      <g transform="translate(415.691697 256.955781) scale(0.1 -0.1)">
       <use xlink:href="#DejaVuSans-13"/>
      </g>
     </g>
    </g>
    <g id="xtick_8">
     <g id="line2d_33">
      <path d="M 472.104065 242.358125 
L 472.104065 22.318125 
" clip-path="url(#p8455dd9c73)" style="fill: none; stroke: #b0b0b0; stroke-opacity: 0.25; stroke-width: 0.8; stroke-linecap: square"/>
     </g>
     <g id="line2d_34">
      <g>
       <use xlink:href="#ma1647659f6" x="472.104065" y="242.358125" style="stroke: #000000; stroke-width: 0.8"/>
      </g>
     </g>
     <g id="text_20">
      <!-- 100 -->
      <g transform="translate(462.560315 256.955781) scale(0.1 -0.1)">
       <use xlink:href="#DejaVuSans-14"/>
       <use xlink:href="#DejaVuSans-13" transform="translate(63.625 0)"/>
       <use xlink:href="#DejaVuSans-13" transform="translate(127.25 0)"/>
      </g>
     </g>
    </g>
    <g id="xtick_9">
     <g id="line2d_35">
      <path d="M 525.335183 242.358125 
L 525.335183 22.318125 
" clip-path="url(#p8455dd9c73)" style="fill: none; stroke: #b0b0b0; stroke-opacity: 0.25; stroke-width: 0.8; stroke-linecap: square"/>
     </g>
     <g id="line2d_36">
      <g>
       <use xlink:href="#ma1647659f6" x="525.335183" y="242.358125" style="stroke: #000000; stroke-width: 0.8"/>
      </g>
     </g>
     <g id="text_21">
      <!-- 200 -->
      <g transform="translate(515.791433 256.955781) scale(0.1 -0.1)">
       <use xlink:href="#DejaVuSans-15"/>
       <use xlink:href="#DejaVuSans-13" transform="translate(63.625 0)"/>
       <use xlink:href="#DejaVuSans-13" transform="translate(127.25 0)"/>
      </g>
     </g>
    </g>
    <g id="xtick_10">
     <g id="line2d_37">
      <path d="M 578.566301 242.358125 
L 578.566301 22.318125 
" clip-path="url(#p8455dd9c73)" style="fill: none; stroke: #b0b0b0; stroke-opacity: 0.25; stroke-width: 0.8; stroke-linecap: square"/>
     </g>
     <g id="line2d_38">
      <g>
       <use xlink:href="#ma1647659f6" x="578.566301" y="242.358125" style="stroke: #000000; stroke-width: 0.8"/>
      </g>
     </g>
     <g id="text_22">
      <!-- 300 -->
      <g transform="translate(569.022551 256.955781) scale(0.1 -0.1)">
       <use xlink:href="#DejaVuSans-16"/>
       <use xlink:href="#DejaVuSans-13" transform="translate(63.625 0)"/>
       <use xlink:href="#DejaVuSans-13" transform="translate(127.25 0)"/>
      </g>
     </g>
    </g>
    <g id="xtick_11">
     <g id="line2d_39">
      <path d="M 631.797419 242.358125 
L 631.797419 22.318125 
" clip-path="url(#p8455dd9c73)" style="fill: none; stroke: #b0b0b0; stroke-opacity: 0.25; stroke-width: 0.8; stroke-linecap: square"/>
     </g>
     <g id="line2d_40">
      <g>
       <use xlink:href="#ma1647659f6" x="631.797419" y="242.358125" style="stroke: #000000; stroke-width: 0.8"/>
      </g>
     </g>
     <g id="text_23">
      <!-- 400 -->
      <g transform="translate(622.253669 256.955781) scale(0.1 -0.1)">
       <use xlink:href="#DejaVuSans-17"/>
       <use xlink:href="#DejaVuSans-13" transform="translate(63.625 0)"/>
       <use xlink:href="#DejaVuSans-13" transform="translate(127.25 0)"/>
      </g>
     </g>
    </g>
    <g id="xtick_12">
     <g id="line2d_41">
      <path d="M 685.028537 242.358125 
L 685.028537 22.318125 
" clip-path="url(#p8455dd9c73)" style="fill: none; stroke: #b0b0b0; stroke-opacity: 0.25; stroke-width: 0.8; stroke-linecap: square"/>
     </g>
     <g id="line2d_42">
      <g>
       <use xlink:href="#ma1647659f6" x="685.028537" y="242.358125" style="stroke: #000000; stroke-width: 0.8"/>
      </g>
     </g>
     <g id="text_24">
      <!-- 500 -->
      <g transform="translate(675.484787 256.955781) scale(0.1 -0.1)">
       <use xlink:href="#DejaVuSans-18"/>
       <use xlink:href="#DejaVuSans-13" transform="translate(63.625 0)"/>
       <use xlink:href="#DejaVuSans-13" transform="translate(127.25 0)"/>
      </g>
     </g>
    </g>
    <g id="text_25">
     <!-- step -->
     <g transform="translate(544.328984 270.955781) scale(0.1 -0.1)">
      <use xlink:href="#DejaVuSans-56"/>
      <use xlink:href="#DejaVuSans-57" transform="translate(52.09375 0)"/>
      <use xlink:href="#DejaVuSans-48" transform="translate(91.296875 0)"/>
      <use xlink:href="#DejaVuSans-53" transform="translate(152.828125 0)"/>
     </g>
    </g>
   </g>
   <g id="matplotlib.axis_4">
    <g id="ytick_8">
     <g id="line2d_43">
      <path d="M 405.245781 233.698032 
L 705.043437 233.698032 
" clip-path="url(#p8455dd9c73)" style="fill: none; stroke: #b0b0b0; stroke-opacity: 0.25; stroke-width: 0.8; stroke-linecap: square"/>
     </g>
     <g id="line2d_44">
      <g>
       <use xlink:href="#m48c4980e81" x="405.245781" y="233.698032" style="stroke: #000000; stroke-width: 0.8"/>
      </g>
     </g>
     <g id="text_26">
      <!-- 0 -->
      <g transform="translate(391.883281 237.49686) scale(0.1 -0.1)">
       <use xlink:href="#DejaVuSans-13"/>
      </g>
     </g>
    </g>
    <g id="ytick_9">
     <g id="line2d_45">
      <path d="M 405.245781 202.027497 
L 705.043437 202.027497 
" clip-path="url(#p8455dd9c73)" style="fill: none; stroke: #b0b0b0; stroke-opacity: 0.25; stroke-width: 0.8; stroke-linecap: square"/>
     </g>
     <g id="line2d_46">
      <g>
       <use xlink:href="#m48c4980e81" x="405.245781" y="202.027497" style="stroke: #000000; stroke-width: 0.8"/>
      </g>
     </g>
     <g id="text_27">
      <!-- 10000 -->
      <g transform="translate(366.433281 205.826325) scale(0.1 -0.1)">
       <use xlink:href="#DejaVuSans-14"/>
       <use xlink:href="#DejaVuSans-13" transform="translate(63.625 0)"/>
       <use xlink:href="#DejaVuSans-13" transform="translate(127.25 0)"/>
       <use xlink:href="#DejaVuSans-13" transform="translate(190.875 0)"/>
       <use xlink:href="#DejaVuSans-13" transform="translate(254.5 0)"/>
      </g>
     </g>
    </g>
    <g id="ytick_10">
     <g id="line2d_47">
      <path d="M 405.245781 170.356962 
L 705.043437 170.356962 
" clip-path="url(#p8455dd9c73)" style="fill: none; stroke: #b0b0b0; stroke-opacity: 0.25; stroke-width: 0.8; stroke-linecap: square"/>
     </g>
     <g id="line2d_48">
      <g>
       <use xlink:href="#m48c4980e81" x="405.245781" y="170.356962" style="stroke: #000000; stroke-width: 0.8"/>
      </g>
     </g>
     <g id="text_28">
      <!-- 20000 -->
      <g transform="translate(366.433281 174.155791) scale(0.1 -0.1)">
       <use xlink:href="#DejaVuSans-15"/>
       <use xlink:href="#DejaVuSans-13" transform="translate(63.625 0)"/>
       <use xlink:href="#DejaVuSans-13" transform="translate(127.25 0)"/>
       <use xlink:href="#DejaVuSans-13" transform="translate(190.875 0)"/>
       <use xlink:href="#DejaVuSans-13" transform="translate(254.5 0)"/>
      </g>
     </g>
    </g>
    <g id="ytick_11">
     <g id="line2d_49">
      <path d="M 405.245781 138.686428 
L 705.043437 138.686428 
" clip-path="url(#p8455dd9c73)" style="fill: none; stroke: #b0b0b0; stroke-opacity: 0.25; stroke-width: 0.8; stroke-linecap: square"/>
     </g>
     <g id="line2d_50">
      <g>
       <use xlink:href="#m48c4980e81" x="405.245781" y="138.686428" style="stroke: #000000; stroke-width: 0.8"/>
      </g>
     </g>
     <g id="text_29">
      <!-- 30000 -->
      <g transform="translate(366.433281 142.485256) scale(0.1 -0.1)">
       <use xlink:href="#DejaVuSans-16"/>
       <use xlink:href="#DejaVuSans-13" transform="translate(63.625 0)"/>
       <use xlink:href="#DejaVuSans-13" transform="translate(127.25 0)"/>
       <use xlink:href="#DejaVuSans-13" transform="translate(190.875 0)"/>
       <use xlink:href="#DejaVuSans-13" transform="translate(254.5 0)"/>
      </g>
     </g>
    </g>
    <g id="ytick_12">
     <g id="line2d_51">
      <path d="M 405.245781 107.015893 
L 705.043437 107.015893 
" clip-path="url(#p8455dd9c73)" style="fill: none; stroke: #b0b0b0; stroke-opacity: 0.25; stroke-width: 0.8; stroke-linecap: square"/>
     </g>
     <g id="line2d_52">
      <g>
       <use xlink:href="#m48c4980e81" x="405.245781" y="107.015893" style="stroke: #000000; stroke-width: 0.8"/>
      </g>
     </g>
     <g id="text_30">
      <!-- 40000 -->
      <g transform="translate(366.433281 110.814721) scale(0.1 -0.1)">
       <use xlink:href="#DejaVuSans-17"/>
       <use xlink:href="#DejaVuSans-13" transform="translate(63.625 0)"/>
       <use xlink:href="#DejaVuSans-13" transform="translate(127.25 0)"/>
       <use xlink:href="#DejaVuSans-13" transform="translate(190.875 0)"/>
       <use xlink:href="#DejaVuSans-13" transform="translate(254.5 0)"/>
      </g>
     </g>
    </g>
    <g id="ytick_13">
     <g id="line2d_53">
      <path d="M 405.245781 75.345358 
L 705.043437 75.345358 
" clip-path="url(#p8455dd9c73)" style="fill: none; stroke: #b0b0b0; stroke-opacity: 0.25; stroke-width: 0.8; stroke-linecap: square"/>
     </g>
     <g id="line2d_54">
      <g>
       <use xlink:href="#m48c4980e81" x="405.245781" y="75.345358" style="stroke: #000000; stroke-width: 0.8"/>
      </g>
     </g>
     <g id="text_31">
      <!-- 50000 -->
      <g transform="translate(366.433281 79.144186) scale(0.1 -0.1)">
       <use xlink:href="#DejaVuSans-18"/>
       <use xlink:href="#DejaVuSans-13" transform="translate(63.625 0)"/>
       <use xlink:href="#DejaVuSans-13" transform="translate(127.25 0)"/>
       <use xlink:href="#DejaVuSans-13" transform="translate(190.875 0)"/>
       <use xlink:href="#DejaVuSans-13" transform="translate(254.5 0)"/>
      </g>
     </g>
    </g>
    <g id="ytick_14">
     <g id="line2d_55">
      <path d="M 405.245781 43.674823 
L 705.043437 43.674823 
" clip-path="url(#p8455dd9c73)" style="fill: none; stroke: #b0b0b0; stroke-opacity: 0.25; stroke-width: 0.8; stroke-linecap: square"/>
     </g>
     <g id="line2d_56">
      <g>
       <use xlink:href="#m48c4980e81" x="405.245781" y="43.674823" style="stroke: #000000; stroke-width: 0.8"/>
      </g>
     </g>
     <g id="text_32">
      <!-- 60000 -->
      <g transform="translate(366.433281 47.473651) scale(0.1 -0.1)">
       <use xlink:href="#DejaVuSans-19"/>
       <use xlink:href="#DejaVuSans-13" transform="translate(63.625 0)"/>
       <use xlink:href="#DejaVuSans-13" transform="translate(127.25 0)"/>
       <use xlink:href="#DejaVuSans-13" transform="translate(190.875 0)"/>
       <use xlink:href="#DejaVuSans-13" transform="translate(254.5 0)"/>
      </g>
     </g>
    </g>
    <g id="text_33">
     <!-- perplexity -->
     <g transform="translate(360.030937 157.464687) rotate(-90) scale(0.1 -0.1)">
      <defs>
       <path id="DejaVuSans-5b" d="M 3513 3500 
L 2247 1797 
L 3578 0 
L 2900 0 
L 1881 1375 
L 863 0 
L 184 0 
L 1544 1831 
L 300 3500 
L 978 3500 
L 1906 2253 
L 2834 3500 
L 3513 3500 
z
" transform="scale(0.015625)"/>
       <path id="DejaVuSans-5c" d="M 2059 -325 
Q 1816 -950 1584 -1140 
Q 1353 -1331 966 -1331 
L 506 -1331 
L 506 -850 
L 844 -850 
Q 1081 -850 1212 -737 
Q 1344 -625 1503 -206 
L 1606 56 
L 191 3500 
L 800 3500 
L 1894 763 
L 2988 3500 
L 3597 3500 
L 2059 -325 
z
" transform="scale(0.015625)"/>
      </defs>
      <use xlink:href="#DejaVuSans-53"/>
      <use xlink:href="#DejaVuSans-48" transform="translate(63.484375 0)"/>
      <use xlink:href="#DejaVuSans-55" transform="translate(125.015625 0)"/>
      <use xlink:href="#DejaVuSans-53" transform="translate(166.125 0)"/>
      <use xlink:href="#DejaVuSans-4f" transform="translate(229.609375 0)"/>
      <use xlink:href="#DejaVuSans-48" transform="translate(257.390625 0)"/>
      <use xlink:href="#DejaVuSans-5b" transform="translate(317.171875 0)"/>
      <use xlink:href="#DejaVuSans-4c" transform="translate(376.359375 0)"/>
      <use xlink:href="#DejaVuSans-57" transform="translate(404.140625 0)"/>
      <use xlink:href="#DejaVuSans-5c" transform="translate(443.34375 0)"/>
     </g>
    </g>
   </g>
   <g id="line2d_57">
    <path d="M 418.872947 32.319943 
L 452.940863 224.766609 
L 487.008778 228.442693 
L 521.076694 229.823111 
L 555.144609 230.910819 
L 555.144609 230.910819 
L 589.212525 231.620818 
L 589.212525 231.620818 
L 623.28044 232.108503 
L 623.28044 232.108503 
L 657.348356 232.317891 
L 657.348356 232.317891 
L 691.416271 232.356307 
" clip-path="url(#p8455dd9c73)" style="fill: none; stroke: #1f77b4; stroke-width: 1.5; stroke-linecap: square"/>
    <defs>
     <path id="m9d5e445eec" d="M 0 3 
C 0.795609 3 1.55874 2.683901 2.12132 2.12132 
C 2.683901 1.55874 3 0.795609 3 0 
C 3 -0.795609 2.683901 -1.55874 2.12132 -2.12132 
C 1.55874 -2.683901 0.795609 -3 0 -3 
C -0.795609 -3 -1.55874 -2.683901 -2.12132 -2.12132 
C -2.683901 -1.55874 -3 -0.795609 -3 0 
C -3 0.795609 -2.683901 1.55874 -2.12132 2.12132 
C -1.55874 2.683901 -0.795609 3 0 3 
z
" style="stroke: #1f77b4"/>
    </defs>
    <g clip-path="url(#p8455dd9c73)">
     <use xlink:href="#m9d5e445eec" x="418.872947" y="32.319943" style="fill: #1f77b4; stroke: #1f77b4"/>
     <use xlink:href="#m9d5e445eec" x="452.940863" y="224.766609" style="fill: #1f77b4; stroke: #1f77b4"/>
     <use xlink:href="#m9d5e445eec" x="487.008778" y="228.442693" style="fill: #1f77b4; stroke: #1f77b4"/>
     <use xlink:href="#m9d5e445eec" x="521.076694" y="229.823111" style="fill: #1f77b4; stroke: #1f77b4"/>
     <use xlink:href="#m9d5e445eec" x="555.144609" y="230.910819" style="fill: #1f77b4; stroke: #1f77b4"/>
     <use xlink:href="#m9d5e445eec" x="555.144609" y="230.910819" style="fill: #1f77b4; stroke: #1f77b4"/>
     <use xlink:href="#m9d5e445eec" x="589.212525" y="231.620818" style="fill: #1f77b4; stroke: #1f77b4"/>
     <use xlink:href="#m9d5e445eec" x="589.212525" y="231.620818" style="fill: #1f77b4; stroke: #1f77b4"/>
     <use xlink:href="#m9d5e445eec" x="623.28044" y="232.108503" style="fill: #1f77b4; stroke: #1f77b4"/>
     <use xlink:href="#m9d5e445eec" x="623.28044" y="232.108503" style="fill: #1f77b4; stroke: #1f77b4"/>
     <use xlink:href="#m9d5e445eec" x="657.348356" y="232.317891" style="fill: #1f77b4; stroke: #1f77b4"/>
     <use xlink:href="#m9d5e445eec" x="657.348356" y="232.317891" style="fill: #1f77b4; stroke: #1f77b4"/>
     <use xlink:href="#m9d5e445eec" x="691.416271" y="232.356307" style="fill: #1f77b4; stroke: #1f77b4"/>
    </g>
   </g>
   <g id="line2d_58">
    <path d="M 691.416271 231.600563 
" clip-path="url(#p8455dd9c73)" style="fill: none; stroke: #ff7f0e; stroke-width: 1.5; stroke-linecap: square"/>
    <g clip-path="url(#p8455dd9c73)">
     <use xlink:href="#m8504142a12" x="691.416271" y="231.600563" style="fill: #ff7f0e; stroke: #ff7f0e"/>
    </g>
   </g>
   <g id="patch_9">
    <path d="M 405.245781 242.358125 
L 405.245781 22.318125 
" style="fill: none; stroke: #000000; stroke-width: 0.8; stroke-linejoin: miter; stroke-linecap: square"/>
   </g>
   <g id="patch_10">
    <path d="M 705.043437 242.358125 
L 705.043437 22.318125 
" style="fill: none; stroke: #000000; stroke-width: 0.8; stroke-linejoin: miter; stroke-linecap: square"/>
   </g>
   <g id="patch_11">
    <path d="M 405.245781 242.358125 
L 705.043437 242.358125 
" style="fill: none; stroke: #000000; stroke-width: 0.8; stroke-linejoin: miter; stroke-linecap: square"/>
   </g>
   <g id="patch_12">
    <path d="M 405.245781 22.318125 
L 705.043437 22.318125 
" style="fill: none; stroke: #000000; stroke-width: 0.8; stroke-linejoin: miter; stroke-linecap: square"/>
   </g>
   <g id="text_34">
    <!-- External validation -->
    <g transform="translate(498.802734 16.318125) scale(0.12 -0.12)">
     <defs>
      <path id="DejaVuSans-28" d="M 628 4666 
L 3578 4666 
L 3578 4134 
L 1259 4134 
L 1259 2753 
L 3481 2753 
L 3481 2222 
L 1259 2222 
L 1259 531 
L 3634 531 
L 3634 0 
L 628 0 
L 628 4666 
z
" transform="scale(0.015625)"/>
     </defs>
     <use xlink:href="#DejaVuSans-28"/>
     <use xlink:href="#DejaVuSans-5b" transform="translate(63.1875 0)"/>
     <use xlink:href="#DejaVuSans-57" transform="translate(122.375 0)"/>
     <use xlink:href="#DejaVuSans-48" transform="translate(161.578125 0)"/>
     <use xlink:href="#DejaVuSans-55" transform="translate(223.109375 0)"/>
     <use xlink:href="#DejaVuSans-51" transform="translate(262.46875 0)"/>
     <use xlink:href="#DejaVuSans-44" transform="translate(325.84375 0)"/>
     <use xlink:href="#DejaVuSans-4f" transform="translate(387.125 0)"/>
     <use xlink:href="#DejaVuSans-3" transform="translate(414.90625 0)"/>
     <use xlink:href="#DejaVuSans-59" transform="translate(446.6875 0)"/>
     <use xlink:href="#DejaVuSans-44" transform="translate(505.875 0)"/>
     <use xlink:href="#DejaVuSans-4f" transform="translate(567.15625 0)"/>
     <use xlink:href="#DejaVuSans-4c" transform="translate(594.9375 0)"/>
     <use xlink:href="#DejaVuSans-47" transform="translate(622.71875 0)"/>
     <use xlink:href="#DejaVuSans-44" transform="translate(686.203125 0)"/>
     <use xlink:href="#DejaVuSans-57" transform="translate(747.484375 0)"/>
     <use xlink:href="#DejaVuSans-4c" transform="translate(786.6875 0)"/>
     <use xlink:href="#DejaVuSans-52" transform="translate(814.46875 0)"/>
     <use xlink:href="#DejaVuSans-51" transform="translate(875.65625 0)"/>
    </g>
   </g>
   <g id="legend_2">
    <g id="patch_13">
     <path d="M 617.404375 60.319687 
L 698.043437 60.319687 
Q 700.043437 60.319687 700.043437 58.319687 
L 700.043437 29.318125 
Q 700.043437 27.318125 698.043437 27.318125 
L 617.404375 27.318125 
Q 615.404375 27.318125 615.404375 29.318125 
L 615.404375 58.319687 
Q 615.404375 60.319687 617.404375 60.319687 
z
" style="fill: #ffffff; opacity: 0.8; stroke: #cccccc; stroke-linejoin: miter"/>
    </g>
    <g id="line2d_59">
     <path d="M 619.404375 35.416562 
L 629.404375 35.416562 
L 639.404375 35.416562 
" style="fill: none; stroke: #1f77b4; stroke-width: 1.5; stroke-linecap: square"/>
     <g>
      <use xlink:href="#m9d5e445eec" x="629.404375" y="35.416562" style="fill: #1f77b4; stroke: #1f77b4"/>
     </g>
    </g>
    <g id="text_35">
     <!-- trained -->
     <g transform="translate(647.404375 38.916562) scale(0.1 -0.1)">
      <use xlink:href="#DejaVuSans-57"/>
      <use xlink:href="#DejaVuSans-55" transform="translate(39.203125 0)"/>
      <use xlink:href="#DejaVuSans-44" transform="translate(80.3125 0)"/>
      <use xlink:href="#DejaVuSans-4c" transform="translate(141.59375 0)"/>
      <use xlink:href="#DejaVuSans-51" transform="translate(169.375 0)"/>
      <use xlink:href="#DejaVuSans-48" transform="translate(232.75 0)"/>
      <use xlink:href="#DejaVuSans-47" transform="translate(294.28125 0)"/>
     </g>
    </g>
    <g id="line2d_60">
     <path d="M 619.404375 50.417344 
L 629.404375 50.417344 
L 639.404375 50.417344 
" style="fill: none; stroke: #ff7f0e; stroke-width: 1.5; stroke-linecap: square"/>
     <g>
      <use xlink:href="#m8504142a12" x="629.404375" y="50.417344" style="fill: #ff7f0e; stroke: #ff7f0e"/>
     </g>
    </g>
    <g id="text_36">
     <!-- published -->
     <g transform="translate(647.404375 53.917344) scale(0.1 -0.1)">
      <defs>
       <path id="DejaVuSans-58" d="M 544 1381 
L 544 3500 
L 1119 3500 
L 1119 1403 
Q 1119 906 1312 657 
Q 1506 409 1894 409 
Q 2359 409 2629 706 
Q 2900 1003 2900 1516 
L 2900 3500 
L 3475 3500 
L 3475 0 
L 2900 0 
L 2900 538 
Q 2691 219 2414 64 
Q 2138 -91 1772 -91 
Q 1169 -91 856 284 
Q 544 659 544 1381 
z
M 1991 3584 
L 1991 3584 
z
" transform="scale(0.015625)"/>
       <path id="DejaVuSans-45" d="M 3116 1747 
Q 3116 2381 2855 2742 
Q 2594 3103 2138 3103 
Q 1681 3103 1420 2742 
Q 1159 2381 1159 1747 
Q 1159 1113 1420 752 
Q 1681 391 2138 391 
Q 2594 391 2855 752 
Q 3116 1113 3116 1747 
z
M 1159 2969 
Q 1341 3281 1617 3432 
Q 1894 3584 2278 3584 
Q 2916 3584 3314 3078 
Q 3713 2572 3713 1747 
Q 3713 922 3314 415 
Q 2916 -91 2278 -91 
Q 1894 -91 1617 61 
Q 1341 213 1159 525 
L 1159 0 
L 581 0 
L 581 4863 
L 1159 4863 
L 1159 2969 
z
" transform="scale(0.015625)"/>
      </defs>
      <use xlink:href="#DejaVuSans-53"/>
      <use xlink:href="#DejaVuSans-58" transform="translate(63.484375 0)"/>
      <use xlink:href="#DejaVuSans-45" transform="translate(126.859375 0)"/>
      <use xlink:href="#DejaVuSans-4f" transform="translate(190.34375 0)"/>
      <use xlink:href="#DejaVuSans-4c" transform="translate(218.125 0)"/>
      <use xlink:href="#DejaVuSans-56" transform="translate(245.90625 0)"/>
      <use xlink:href="#DejaVuSans-4b" transform="translate(298 0)"/>
      <use xlink:href="#DejaVuSans-48" transform="translate(361.375 0)"/>
      <use xlink:href="#DejaVuSans-47" transform="translate(422.90625 0)"/>
     </g>
    </g>
   </g>
  </g>
 </g>
 <defs>
  <clipPath id="p87efa30827">
   <rect x="40.925781" y="22.318125" width="299.797656" height="220.04"/>
  </clipPath>
  <clipPath id="p8455dd9c73">
   <rect x="405.245781" y="22.318125" width="299.797656" height="220.04"/>
  </clipPath>
 </defs>
</svg>
